<?xml version="1.0" encoding="UTF-8"?>
<svg version="1.1" xmlns="http://www.w3.org/2000/svg" width="225" height="225">
<path d="M0 0 C0.81927979 0.31904297 1.63855957 0.63808594 2.48266602 0.96679688 C6.90729891 2.7659258 10.70023106 4.75625817 14.64453125 7.45703125 C20.54420286 11.08808339 25.58888483 10.65761022 32.3125 10.0625 C34.70029056 9.91675003 37.0883236 9.77492776 39.4765625 9.63671875 C40.68860352 9.55856934 41.90064453 9.48041992 43.14941406 9.39990234 C73.09790571 7.66335291 73.09790571 7.66335291 85.8125 13.1875 C86.84117187 13.54972656 87.86984375 13.91195312 88.9296875 14.28515625 C97.85197039 17.56704335 104.92395913 22.27709401 109.6875 30.6875 C116.16064495 45.40940953 116.84031555 63.48641174 111.1015625 78.53515625 C106.27711325 88.46182608 99.62365963 93.57473627 89.40820312 97.20727539 C72.85186364 102.81698655 57.15057851 102.34882041 39.91137695 101.87011719 C38.45444702 101.83127889 36.9974029 101.79653506 35.5402832 101.765625 C33.38980801 101.71985499 31.23994946 101.66204911 29.08984375 101.6015625 C27.83421631 101.5701416 26.57858887 101.5387207 25.28491211 101.50634766 C21.83807873 101.18984872 19.03459815 100.42070591 15.8125 99.1875 C15.4825 95.5575 15.1525 91.9275 14.8125 88.1875 C13.74 89.21875 12.6675 90.25 11.5625 91.3125 C1.73906298 99.90148741 -12.52019875 105.69036075 -25.68359375 105.390625 C-42.31474572 104.04145199 -57.89894227 97.82891043 -69.1875 85.1875 C-75.51891986 77.0965169 -77.23718253 68.36015864 -76.1875 58.1875 C-73.13300857 55.13300857 -69.486183 55.71394591 -65.375 55.5625 C-64.10015747 55.50557983 -64.10015747 55.50557983 -62.79956055 55.44750977 C-55.92672215 55.16165466 -49.06594264 55.0763582 -42.1875 55.1875 C-42.29578125 53.96160156 -42.29578125 53.96160156 -42.40625 52.7109375 C-42.12535479 48.1865183 -40.59086794 44.87644777 -38.6875 40.8125 C-38.35363281 40.07644531 -38.01976562 39.34039062 -37.67578125 38.58203125 C-36.85634796 36.77927802 -36.02328451 34.98273101 -35.1875 33.1875 C-34.29546875 33.22230469 -33.4034375 33.25710937 -32.484375 33.29296875 C-31.31390625 33.32003906 -30.1434375 33.34710938 -28.9375 33.375 C-27.77734375 33.40980469 -26.6171875 33.44460937 -25.421875 33.48046875 C-21.95867245 33.16677287 -20.59519094 32.64882762 -18.1875 30.1875 C-18.1875 29.5275 -18.1875 28.8675 -18.1875 28.1875 C-18.93773437 28.06632812 -19.68796875 27.94515625 -20.4609375 27.8203125 C-21.48445313 27.65273438 -22.50796875 27.48515625 -23.5625 27.3125 C-24.56023437 27.15007813 -25.55796875 26.98765625 -26.5859375 26.8203125 C-27.77445313 26.61148438 -28.96296875 26.40265625 -30.1875 26.1875 C-30.94957764 26.07937988 -31.71165527 25.97125977 -32.49682617 25.85986328 C-39.15345813 24.7799189 -44.08969488 22.41235932 -49.75 18.8125 C-50.9575293 18.08933594 -50.9575293 18.08933594 -52.18945312 17.3515625 C-57.94740005 13.77531867 -57.94740005 13.77531867 -59.01269531 11.16723633 C-59.1875 9.1875 -59.1875 9.1875 -57.66796875 6.78515625 C-41.06334375 -11.57327922 -21.34195303 -8.36210955 0 0 Z M13.8125 51.1875 C13.4825 52.1775 13.1525 53.1675 12.8125 54.1875 C13.4725 54.1875 14.1325 54.1875 14.8125 54.1875 C15.1425 54.8475 15.4725 55.5075 15.8125 56.1875 C15.8125 54.5375 15.8125 52.8875 15.8125 51.1875 C15.1525 51.1875 14.4925 51.1875 13.8125 51.1875 Z M-39.1875 55.1875 C-36.47200846 57.49421915 -36.47200846 57.49421915 -34 56.8125 C-33.401875 56.60625 -32.80375 56.4 -32.1875 56.1875 C-34.4975 55.8575 -36.8075 55.5275 -39.1875 55.1875 Z " fill="#737373" transform="translate(95.1875,21.8125)"/>
<path d="M0 0 C4.40331241 0.54473968 7.68242151 1.60850575 11.5625 3.75 C12.47128906 4.23984375 13.38007812 4.7296875 14.31640625 5.234375 C19.79671345 8.84005019 23.45763316 13.71837313 27.1875 19 C27.62513672 19.60328125 28.06277344 20.2065625 28.51367188 20.828125 C33.92134431 28.42363438 34.785865 34.40071189 33.5 43.5625 C33.335 44.366875 33.17 45.17125 33 46 C33.99 45.67 34.98 45.34 36 45 C36 45.66 36 46.32 36 47 C37.65 47.66 39.3 48.32 41 49 C39.25 50.0625 39.25 50.0625 37 51 C35.02 50.505 35.02 50.505 33 50 C32.67 52.97 32.34 55.94 32 59 C32.66 59 33.32 59 34 59 C34 59.66 34 60.32 34 61 C33.34 61 32.68 61 32 61 C32.04125 61.94875 32.0825 62.8975 32.125 63.875 C32 67 32 67 30 69 C29.67 68.34 29.34 67.68 29 67 C28.62875 68.7325 28.62875 68.7325 28.25 70.5 C26.64720723 76.74536495 24.73192938 82.03476281 19.4375 86 C16 88 16 88 13 88 C12.62875 89.0828125 12.62875 89.0828125 12.25 90.1875 C10.89016326 93.24713266 9.17082246 95.4673738 7 98 C7.33 98.66 7.66 99.32 8 100 C5.96123051 100.81974263 3.91883925 101.6304807 1.875 102.4375 C0.73804687 102.88996094 -0.39890625 103.34242187 -1.5703125 103.80859375 C-14.30100077 108.23098546 -28.21463469 105.89361536 -40.25463867 100.38476562 C-51.9834344 94.62959904 -61.3295347 87.08877122 -66.3125 74.75 C-67.27744509 69.48666316 -67.15767908 64.33480875 -67 59 C-63.36432953 58.07899035 -60.86212221 58.00563128 -57.234375 58.92578125 C-56.34363281 59.14556641 -55.45289063 59.36535156 -54.53515625 59.59179688 C-53.15650391 59.94854492 -53.15650391 59.94854492 -51.75 60.3125 C-49.93244429 60.76753713 -48.11473709 61.22196963 -46.296875 61.67578125 C-45.41418945 61.90330078 -44.53150391 62.13082031 -43.62207031 62.36523438 C-40.37673279 63.15088405 -37.10545909 63.73997303 -33.81054688 64.27856445 C-31.3526269 65.25795409 -30.84288627 66.52065003 -29.75 68.875 C-29.46640625 69.58527344 -29.1828125 70.29554687 -28.890625 71.02734375 C-27.57278472 73.94624438 -25.67415551 75.32865281 -23 77 C-21.67556526 77.36709876 -20.34276895 77.7069805 -19 78 C-16.5174691 72.35424424 -15.39869974 67.97280747 -17.15234375 61.9453125 C-18.52549131 58.79403378 -19.97388225 57.6096371 -23 56 C-25.97390136 55.13677024 -28.94615071 54.50564825 -32 54 C-31.45276317 50.62537285 -30.9451 48.91765 -29 46 C-28.34 46 -27.68 46 -27 46 C-26.855625 46.598125 -26.71125 47.19625 -26.5625 47.8125 C-26.1127561 49.56150404 -25.57107659 51.28677023 -25 53 C-23.35 52.34 -21.7 51.68 -20 51 C-20.33 52.32 -20.66 53.64 -21 55 C-19.02 55 -17.04 55 -15 55 C-15 56.32 -15 57.64 -15 59 C-10.545 58.505 -10.545 58.505 -6 58 C-5.67 56.02 -5.34 54.04 -5 52 C-4.01 51.67 -3.02 51.34 -2 51 C-2 52.65 -2 54.3 -2 56 C-1.34 55.67 -0.68 55.34 0 55 C0 54.01 0 53.02 0 52 C1.299375 51.814375 2.59875 51.62875 3.9375 51.4375 C10.27779926 50.00517331 15.46131439 46.60251577 19.23046875 41.25390625 C22.27057736 34.61704943 22.4546792 25.2066048 20.09765625 18.390625 C19.15204494 16.54651469 18.08614985 14.76499351 17 13 C17 12.34 17 11.68 17 11 C16.4328125 10.73058594 15.865625 10.46117187 15.28125 10.18359375 C12.90056637 8.94841029 10.72462381 7.55954993 8.5 6.0625 C7.7471875 5.55847656 6.994375 5.05445313 6.21875 4.53515625 C4.10488077 3.07256715 2.04501265 1.55699827 0 0 Z M23 52 C22.67 52.99 22.34 53.98 22 55 C22.66 55 23.32 55 24 55 C24.33 55.66 24.66 56.32 25 57 C25 55.35 25 53.7 25 52 C24.34 52 23.68 52 23 52 Z " fill="#515151" transform="translate(86,21)"/>
<path d="M0 0 C0.68964844 0.47308594 1.37929687 0.94617187 2.08984375 1.43359375 C4.38986857 2.74984558 6.45662074 3.16821914 9.0625 3.5625 C7.5775 4.0575 7.5775 4.0575 6.0625 4.5625 C6.825625 5.42875 7.58875 6.295 8.375 7.1875 C12.97193778 12.81613689 14.67192875 17.3745562 14.4921875 24.6640625 C13.78114004 29.46040083 11.77489329 33.56788443 9.0625 37.5625 C8.0725 38.0575 8.0725 38.0575 7.0625 38.5625 C7.2275 37.593125 7.3925 36.62375 7.5625 35.625 C9.13671809 23.97108696 6.73629439 18.11564555 -0.1875 8.6875 C-0.89390625 7.76195313 -1.6003125 6.83640625 -2.328125 5.8828125 C-3.9375 3.5625 -3.9375 3.5625 -3.9375 1.5625 C-4.70320313 1.17964844 -4.70320313 1.17964844 -5.484375 0.7890625 C-10.96875 -1.953125 -16.453125 -4.6953125 -21.9375 -7.4375 C-21.34582031 -7.05078125 -20.75414063 -6.6640625 -20.14453125 -6.265625 C-18.50779314 -5.18692647 -16.87784449 -4.09787374 -15.25390625 -3 C-13.58115334 -1.87166751 -11.88978154 -0.77077007 -10.1875 0.3125 C-4.66051537 5.83948463 -2.60952655 11.87724787 -2.375 19.625 C-2.68965887 26.87788687 -3.77766641 32.27627307 -8.890625 37.59375 C-13.97944255 41.93525868 -18.35560638 43.62222948 -24.9375 44.5625 C-24.6075 45.5525 -24.2775 46.5425 -23.9375 47.5625 C-25.4225 48.0575 -25.4225 48.0575 -26.9375 48.5625 C-28.18296405 46.07157189 -27.7142578 45.15169267 -26.9375 42.5625 C-29.15939824 44.78439824 -29.86348892 46.64732708 -30.9375 49.5625 C-35.3925 50.0575 -35.3925 50.0575 -39.9375 50.5625 C-39.9375 49.2425 -39.9375 47.9225 -39.9375 46.5625 C-40.9275 46.8925 -41.9175 47.2225 -42.9375 47.5625 C-43.9275 47.2325 -44.9175 46.9025 -45.9375 46.5625 C-46.2675 45.5725 -46.5975 44.5825 -46.9375 43.5625 C-47.5975 43.5625 -48.2575 43.5625 -48.9375 43.5625 C-49.4325 44.5525 -49.4325 44.5525 -49.9375 45.5625 C-51.00525224 43.59783587 -52.00303465 41.59394641 -52.9375 39.5625 C-52.4425 38.5725 -52.4425 38.5725 -51.9375 37.5625 C-54.66176311 39.91527269 -55.7516763 42.18746331 -56.9375 45.5625 C-56.35742188 45.57667969 -55.77734375 45.59085938 -55.1796875 45.60546875 C-50.90165713 45.86666862 -48.26846718 46.36993728 -44.5 48.5625 C-41.2121524 52.41168744 -40.02723249 55.50485038 -39.9375 60.5625 C-40.54898034 63.75198145 -41.42096977 66.68366295 -42.9375 69.5625 C-43.9275 70.0575 -43.9275 70.0575 -44.9375 70.5625 C-52.8441107 66.53731637 -52.8441107 66.53731637 -54.9375 63.5625 C-55.68136068 61.25261685 -56.35940703 58.91934056 -56.9375 56.5625 C-58.16339844 56.46066406 -59.38929687 56.35882813 -60.65234375 56.25390625 C-66.74382829 55.57707463 -72.57813945 54.0384701 -78.5 52.5 C-79.60408203 52.21833984 -80.70816406 51.93667969 -81.84570312 51.64648438 C-84.54439998 50.95720682 -87.2415535 50.26244298 -89.9375 49.5625 C-89.9375 49.2325 -89.9375 48.9025 -89.9375 48.5625 C-79.25839373 47.93100058 -68.6391389 47.38958303 -57.9375 47.5625 C-58.0096875 46.74523437 -58.081875 45.92796875 -58.15625 45.0859375 C-57.87535479 40.5615183 -56.34086794 37.25144777 -54.4375 33.1875 C-54.10363281 32.45144531 -53.76976562 31.71539062 -53.42578125 30.95703125 C-52.60634796 29.15427802 -51.77328451 27.35773101 -50.9375 25.5625 C-50.04546875 25.59730469 -49.1534375 25.63210937 -48.234375 25.66796875 C-47.06390625 25.69503906 -45.8934375 25.72210938 -44.6875 25.75 C-43.52734375 25.78480469 -42.3671875 25.81960937 -41.171875 25.85546875 C-37.70867245 25.54177287 -36.34519094 25.02382762 -33.9375 22.5625 C-33.9375 21.9025 -33.9375 21.2425 -33.9375 20.5625 C-34.68773437 20.44132812 -35.43796875 20.32015625 -36.2109375 20.1953125 C-37.23445313 20.02773438 -38.25796875 19.86015625 -39.3125 19.6875 C-40.31023437 19.52507813 -41.30796875 19.36265625 -42.3359375 19.1953125 C-43.52445313 18.98648438 -44.71296875 18.77765625 -45.9375 18.5625 C-46.69957764 18.45437988 -47.46165527 18.34625977 -48.24682617 18.23486328 C-54.90345813 17.1549189 -59.83969488 14.78735932 -65.5 11.1875 C-66.7075293 10.46433594 -66.7075293 10.46433594 -67.93945312 9.7265625 C-73.69740005 6.15031867 -73.69740005 6.15031867 -74.76269531 3.54223633 C-74.9375 1.5625 -74.9375 1.5625 -73.41796875 -0.83984375 C-53.27092331 -23.11485651 -22.88337791 -14.18221325 0 0 Z M-51.9375 35.5625 C-50.9375 37.5625 -50.9375 37.5625 -50.9375 37.5625 Z M-54.9375 47.5625 C-52.22200846 49.86921915 -52.22200846 49.86921915 -49.75 49.1875 C-49.151875 48.98125 -48.55375 48.775 -47.9375 48.5625 C-50.2475 48.2325 -52.5575 47.9025 -54.9375 47.5625 Z " fill="#9E9E9E" transform="translate(110.9375,29.4375)"/>
<path d="M0 0 C13.75667649 0.64737301 28.73103054 3.86953451 38.375 14.375 C39.28275819 15.55892124 40.15965349 16.76731505 41 18 C41.37769531 18.54785156 41.75539063 19.09570312 42.14453125 19.66015625 C49.41485666 32.04966209 49.15406071 48.80023144 46.27734375 62.421875 C43.64645929 71.39649385 38.79544098 79.21034544 30.4921875 83.87890625 C9.87991382 93.15119864 -9.9474221 92.25375062 -32 91 C-31.505 90.01 -31.505 90.01 -31 89 C-30.14245117 89.00523682 -29.28490234 89.01047363 -28.40136719 89.01586914 C-25.21077727 89.03294152 -22.02021069 89.04546505 -18.82958984 89.05493164 C-17.45035027 89.05995118 -16.07111598 89.06676819 -14.69189453 89.07543945 C-12.70607817 89.0876092 -10.72022251 89.09271633 -8.734375 89.09765625 C-7.54038086 89.10289307 -6.34638672 89.10812988 -5.11621094 89.11352539 C-2.50737511 89.01848397 -0.49191046 88.65233437 2 88 C4.00946222 88.27050453 6.01354224 88.59367909 8 89 C8.495 87.515 8.495 87.515 9 86 C9.969375 85.690625 10.93875 85.38125 11.9375 85.0625 C15.09972946 84.33028193 15.09972946 84.33028193 16.25 81.9375 C16.4975 81.298125 16.745 80.65875 17 80 C17.66 79.67 18.32 79.34 19 79 C19.495 77.515 19.495 77.515 20 76 C20.66 76 21.32 76 22 76 C22.1546875 74.4221875 22.1546875 74.4221875 22.3125 72.8125 C23 69 23 69 24.5 66.5625 C30.11050171 56.97789292 28.19583958 37.51981823 25.75 27.125 C22.54436716 16.66530598 18.06859758 9.80815009 8.484375 4.29296875 C5.72821399 2.85855162 3.0059941 1.79105108 0 1 C0 0.67 0 0.34 0 0 Z " fill="#4D4B4C" transform="translate(162,32)"/>
<path d="M0 0 C4.40331241 0.54473968 7.68242151 1.60850575 11.5625 3.75 C12.47128906 4.23984375 13.38007812 4.7296875 14.31640625 5.234375 C19.79671345 8.84005019 23.45763316 13.71837313 27.1875 19 C27.62513672 19.60328125 28.06277344 20.2065625 28.51367188 20.828125 C33.92134431 28.42363438 34.785865 34.40071189 33.5 43.5625 C33.335 44.366875 33.17 45.17125 33 46 C33.99 45.67 34.98 45.34 36 45 C36 45.66 36 46.32 36 47 C37.65 47.66 39.3 48.32 41 49 C39.25 50.0625 39.25 50.0625 37 51 C35.68 50.67 34.36 50.34 33 50 C32.67 52.97 32.34 55.94 32 59 C32.66 59 33.32 59 34 59 C34 59.66 34 60.32 34 61 C33.34 61 32.68 61 32 61 C32.04125 61.94875 32.0825 62.8975 32.125 63.875 C32 67 32 67 30 69 C29.505 68.01 29.505 68.01 29 67 C28.7525 68.155 28.505 69.31 28.25 70.5 C26.64720723 76.74536495 24.73192938 82.03476281 19.4375 86 C16 88 16 88 13 88 C12.7525 88.721875 12.505 89.44375 12.25 90.1875 C10.37403861 94.40841313 8.47966804 97.2937948 4.25 99.3125 C3.5075 99.539375 2.765 99.76625 2 100 C2.46234425 95.02979929 3.80626405 92.75733642 7 89 C11.25819742 81.27216024 12.32778828 73.953642 9.9375 65.375 C8.15605154 60.45439723 4.92293141 57.34255252 1 54 C2 52 2 52 3.8203125 51.359375 C4.96113281 51.05773437 4.96113281 51.05773437 6.125 50.75 C11.72951347 48.95619872 15.83684519 46.30246766 19.09765625 41.32421875 C22.19598263 34.59436564 22.49859169 25.33358983 20.09765625 18.390625 C19.15204494 16.54651469 18.08614985 14.76499351 17 13 C17 12.34 17 11.68 17 11 C16.4328125 10.73058594 15.865625 10.46117187 15.28125 10.18359375 C12.90056637 8.94841029 10.72462381 7.55954993 8.5 6.0625 C7.7471875 5.55847656 6.994375 5.05445313 6.21875 4.53515625 C4.10488077 3.07256715 2.04501265 1.55699827 0 0 Z M23 52 C22.67 52.99 22.34 53.98 22 55 C22.66 55 23.32 55 24 55 C24.33 55.66 24.66 56.32 25 57 C25 55.35 25 53.7 25 52 C24.34 52 23.68 52 23 52 Z " fill="#3A3A3A" transform="translate(86,21)"/>
<path d="M0 0 C0.9583374 0.00523682 1.9166748 0.01047363 2.90405273 0.01586914 C4.45576172 0.02070313 4.45576172 0.02070313 6.03881836 0.02563477 C7.12743164 0.03401367 8.21604492 0.04239258 9.33764648 0.05102539 C10.97636719 0.05779297 10.97636719 0.05779297 12.64819336 0.06469727 C15.35723144 0.07652713 18.06616248 0.09300996 20.77514648 0.11352539 C21.43514648 2.42352539 22.09514648 4.73352539 22.77514648 7.11352539 C23.55889648 6.14415039 24.34264648 5.17477539 25.15014648 4.17602539 C27.17269665 1.67445018 28.4266337 0.30231718 31.72827148 -0.15991211 C36.02186847 -0.34976504 38.87097613 -0.32074141 42.27514648 2.48852539 C44.77514648 5.11352539 44.77514648 5.11352539 45.77514648 7.11352539 C46.43514648 4.80352539 47.09514648 2.49352539 47.77514648 0.11352539 C50.02514648 0.23852539 50.02514648 0.23852539 52.77514648 1.11352539 C55.21290483 4.24778612 57.11298935 7.51218493 58.77514648 11.11352539 C59.43514648 11.11352539 60.09514648 11.11352539 60.77514648 11.11352539 C60.77514648 7.81352539 60.77514648 4.51352539 60.77514648 1.11352539 C62.09514648 0.78352539 63.41514648 0.45352539 64.77514648 0.11352539 C66.9248008 3.33800686 66.99666933 3.91283504 66.75170898 7.56274414 C66.67436523 8.83408203 66.67436523 8.83408203 66.59545898 10.13110352 C66.53100586 11.01217773 66.46655273 11.89325195 66.40014648 12.80102539 C66.31506836 14.14003906 66.31506836 14.14003906 66.22827148 15.50610352 C66.08688351 17.70939952 65.93548671 19.91154078 65.77514648 22.11352539 C64.29014648 22.60852539 64.29014648 22.60852539 62.77514648 23.11352539 C59.51506006 19.94399692 56.55276771 16.7141455 53.77514648 13.11352539 C53.44514648 16.08352539 53.11514648 19.05352539 52.77514648 22.11352539 C51.12514648 22.44352539 49.47514648 22.77352539 47.77514648 23.11352539 C47.11514648 20.80352539 46.45514648 18.49352539 45.77514648 16.11352539 C45.21827148 16.89727539 44.66139648 17.68102539 44.08764648 18.48852539 C41.58183076 21.33296486 40.43637346 22.28142835 36.77514648 23.11352539 C33.28575199 22.98578263 29.93616282 22.69403356 26.77514648 21.11352539 C26.77514648 20.45352539 26.77514648 19.79352539 26.77514648 19.11352539 C26.11514648 19.11352539 25.45514648 19.11352539 24.77514648 19.11352539 C24.11514648 18.12352539 23.45514648 17.13352539 22.77514648 16.11352539 C22.11514648 18.42352539 21.45514648 20.73352539 20.77514648 23.11352539 C19.12514648 22.78352539 17.47514648 22.45352539 15.77514648 22.11352539 C15.44514648 17.16352539 15.11514648 12.21352539 14.77514648 7.11352539 C11.80514648 6.61852539 11.80514648 6.61852539 8.77514648 6.11352539 C8.96077148 7.08290039 9.14639648 8.05227539 9.33764648 9.05102539 C9.99370695 13.49765745 9.42649515 17.69437522 8.77514648 22.11352539 C5.02514648 23.23852539 5.02514648 23.23852539 2.77514648 22.11352539 C2.77514648 16.83352539 2.77514648 11.55352539 2.77514648 6.11352539 C1.12514648 6.11352539 -0.52485352 6.11352539 -2.22485352 6.11352539 C-2.60704119 4.45737882 -2.93880453 2.78895515 -3.22485352 1.11352539 C-2.22485352 0.11352539 -2.22485352 0.11352539 0 0 Z M29.77514648 8.11352539 C29.27506854 11.57138554 29.27506854 11.57138554 29.77514648 15.11352539 C31.63639572 17.09592066 31.63639572 17.09592066 33.77514648 18.11352539 C35.77378405 17.53407607 35.77378405 17.53407607 37.77514648 16.11352539 C39.27514648 13.28019206 39.27514648 13.28019206 39.77514648 10.11352539 C39.02638694 7.77626738 39.02638694 7.77626738 37.77514648 6.11352539 C33.28210066 5.68849093 33.28210066 5.68849093 29.77514648 8.11352539 Z " fill="#5C5759" transform="translate(152.224853515625,139.886474609375)"/>
<path d="M0 0 C2.51953125 1.06640625 2.51953125 1.06640625 4.3203125 4.2265625 C4.84410366 5.51946473 5.34741171 6.82081708 5.83203125 8.12890625 C6.09564453 8.79212891 6.35925781 9.45535156 6.63085938 10.13867188 C7.27807857 11.7743713 7.9011742 13.41957905 8.51953125 15.06640625 C9.56930089 11.91709732 9.6208472 9.67826169 9.58203125 6.37890625 C9.57300781 5.38503906 9.56398438 4.39117187 9.5546875 3.3671875 C9.54308594 2.60792969 9.53148438 1.84867188 9.51953125 1.06640625 C11.16953125 0.73640625 12.81953125 0.40640625 14.51953125 0.06640625 C15.69213736 1.35268336 16.85745955 2.64560408 18.01953125 3.94140625 C18.66921875 4.66070312 19.31890625 5.38 19.98828125 6.12109375 C21.51953125 8.06640625 21.51953125 8.06640625 21.51953125 10.06640625 C22.17953125 9.73640625 22.83953125 9.40640625 23.51953125 9.06640625 C23.49890625 7.76703125 23.47828125 6.46765625 23.45703125 5.12890625 C23.43553671 3.77474992 23.44804926 2.41884542 23.51953125 1.06640625 C24.51953125 0.06640625 24.51953125 0.06640625 26.89453125 0.00390625 C27.76078125 0.02453125 28.62703125 0.04515625 29.51953125 0.06640625 C31.39464699 0.06640625 33.26994678 0.04853921 35.14453125 0.00390625 C37.51953125 0.06640625 37.51953125 0.06640625 38.51953125 1.06640625 C38.61852648 2.61596184 38.65032649 4.16994298 38.65234375 5.72265625 C38.65427734 7.13224609 38.65427734 7.13224609 38.65625 8.5703125 C38.65238281 9.55902344 38.64851563 10.54773438 38.64453125 11.56640625 C38.65033203 13.04947266 38.65033203 13.04947266 38.65625 14.5625 C38.65496094 15.50222656 38.65367188 16.44195312 38.65234375 17.41015625 C38.65121582 18.27833984 38.65008789 19.14652344 38.64892578 20.04101562 C38.51953125 22.06640625 38.51953125 22.06640625 37.51953125 23.06640625 C35.01953125 23.19140625 35.01953125 23.19140625 32.51953125 23.06640625 C30.47715033 21.02402533 31.1044467 16.82959871 30.95703125 14.00390625 C30.81265625 11.38453125 30.66828125 8.76515625 30.51953125 6.06640625 C30.18953125 11.67640625 29.85953125 17.28640625 29.51953125 23.06640625 C24.33367107 22.02923421 23.85596324 21.8718038 20.83203125 18.06640625 C18.55073832 15.10447954 18.55073832 15.10447954 15.51953125 13.06640625 C15.70515625 14.34515625 15.89078125 15.62390625 16.08203125 16.94140625 C16.64453125 20.81640625 16.64453125 20.81640625 15.51953125 23.06640625 C13.89462171 23.09338814 12.26958492 23.11279382 10.64453125 23.12890625 C9.28714844 23.14630859 9.28714844 23.14630859 7.90234375 23.1640625 C5.51953125 23.06640625 5.51953125 23.06640625 3.51953125 22.06640625 C3.18953125 21.07640625 2.85953125 20.08640625 2.51953125 19.06640625 C-0.85483061 18.73259811 -0.85483061 18.73259811 -4.48046875 19.06640625 C-6.46286402 20.92765548 -6.46286402 20.92765548 -7.48046875 23.06640625 C-8.80046875 22.73640625 -10.12046875 22.40640625 -11.48046875 22.06640625 C-10.84021048 17.42809079 -9.6556478 13.23206779 -8.10546875 8.81640625 C-7.68523438 7.594375 -7.265 6.37234375 -6.83203125 5.11328125 C-5.23935966 1.52286552 -4.04194392 0.10820952 0 0 Z M-1.48046875 10.06640625 C-1.48046875 11.05640625 -1.48046875 12.04640625 -1.48046875 13.06640625 C-0.82046875 12.73640625 -0.16046875 12.40640625 0.51953125 12.06640625 C-0.14046875 11.40640625 -0.80046875 10.74640625 -1.48046875 10.06640625 Z " fill="#4F494E" transform="translate(65.48046875,139.93359375)"/>
<path d="M0 0 C3.125 0.375 3.125 0.375 4.8125 2.5 C5.245625 3.44875 5.67875 4.3975 6.125 5.375 C6.681875 6.468125 7.23875 7.56125 7.8125 8.6875 C8.245625 9.574375 8.67875 10.46125 9.125 11.375 C9.54652344 10.66472656 9.96804687 9.95445312 10.40234375 9.22265625 C10.95019531 8.30355469 11.49804688 7.38445312 12.0625 6.4375 C12.88041016 5.06271484 12.88041016 5.06271484 13.71484375 3.66015625 C15.125 1.375 15.125 1.375 16.125 0.375 C18.625 0.25 18.625 0.25 21.125 0.375 C23.06590826 2.31590826 22.52419435 5.84793902 22.6875 8.4375 C22.81318359 10.37302734 22.81318359 10.37302734 22.94140625 12.34765625 C23.00199219 13.34667969 23.06257813 14.34570312 23.125 15.375 C23.46273437 14.45976562 23.80046875 13.54453125 24.1484375 12.6015625 C24.59445313 11.41304687 25.04046875 10.22453125 25.5 9 C25.94085938 7.81664062 26.38171875 6.63328125 26.8359375 5.4140625 C28.125 2.375 28.125 2.375 30.125 0.375 C32.625 0.125 32.625 0.125 35.125 0.375 C37.92635827 3.17635827 38.93562644 6.54931411 40.3125 10.1875 C40.59802734 10.89970703 40.88355469 11.61191406 41.17773438 12.34570312 C42.71433406 16.387222 43.57688225 19.10327707 42.125 23.375 C40.25 23.0625 40.25 23.0625 38.125 22.375 C37.465 21.385 36.805 20.395 36.125 19.375 C32.55730448 18.63893501 32.55730448 18.63893501 29.125 18.375 C28.795 19.695 28.465 21.015 28.125 22.375 C23.8085078 23.13673392 20.38066547 23.53563604 16.125 22.375 C15.63 19.9 15.63 19.9 15.125 17.375 C14.568125 17.890625 14.01125 18.40625 13.4375 18.9375 C11.125 20.375 11.125 20.375 8.5 20.25 C6.125 19.375 6.125 19.375 4.125 16.375 C3.465 18.685 2.805 20.995 2.125 23.375 C0.475 23.045 -1.175 22.715 -2.875 22.375 C-3.07090444 18.89625243 -3.25531592 15.41699096 -3.4375 11.9375 C-3.49357422 10.94427734 -3.54964844 9.95105469 -3.60742188 8.92773438 C-3.65576172 7.98349609 -3.70410156 7.03925781 -3.75390625 6.06640625 C-3.8010376 5.19185791 -3.84816895 4.31730957 -3.89672852 3.41625977 C-3.86228567 0.18056769 -3.24619513 0.42341676 0 0 Z M32.125 11.375 C32.125 12.035 32.125 12.695 32.125 13.375 C32.785 13.045 33.445 12.715 34.125 12.375 C33.465 12.045 32.805 11.715 32.125 11.375 Z " fill="#4F494C" transform="translate(108.875,139.625)"/>
<path d="M0 0 C2.64 0 5.28 0 8 0 C8 8.91 8 17.82 8 27 C8.66 26.67 9.32 26.34 10 26 C12.2072923 25.92907158 14.41667452 25.91584975 16.625 25.9375 C17.81351563 25.94652344 19.00203125 25.95554687 20.2265625 25.96484375 C21.14179688 25.97644531 22.05703125 25.98804687 23 26 C23.08139142 28.39652528 23.14067009 30.79025436 23.1875 33.1875 C23.21263672 33.86103516 23.23777344 34.53457031 23.26367188 35.22851562 C23.32869757 39.6719384 22.80384843 42.50367569 20 46 C19.34 46 18.68 46 18 46 C18 46.66 18 47.32 18 48 C16.27192682 48.33895656 14.54248026 48.67091525 12.8125 49 C11.84957031 49.185625 10.88664063 49.37125 9.89453125 49.5625 C7.2065794 49.96877612 4.71228981 50.07933572 2 50 C1.67 48.68 1.34 47.36 1 46 C0.34 46 -0.32 46 -1 46 C-0.67 30.82 -0.34 15.64 0 0 Z " fill="#494949" transform="translate(137,53)"/>
<path d="M0 0 C3.18572647 3.90251493 4.41059687 7.02341447 4.5 12.0625 C3.88851966 15.25198145 3.01653023 18.18366295 1.5 21.0625 C0.51 21.5575 0.51 21.5575 -0.5 22.0625 C-8.4066107 18.03731637 -8.4066107 18.03731637 -10.5 15.0625 C-11.24386068 12.75261685 -11.92190703 10.41934056 -12.5 8.0625 C-13.72589844 7.96066406 -14.95179687 7.85882813 -16.21484375 7.75390625 C-22.30632829 7.07707463 -28.14063945 5.5384701 -34.0625 4 C-35.16658203 3.71833984 -36.27066406 3.43667969 -37.40820312 3.14648438 C-40.10689998 2.45720682 -42.8040535 1.76244298 -45.5 1.0625 C-45.5 0.7325 -45.5 0.4025 -45.5 0.0625 C-41.12607469 -0.22648189 -36.75189354 -0.51112542 -32.37744141 -0.79199219 C-30.8936426 -0.88784565 -29.40991589 -0.98482291 -27.92626953 -1.08300781 C-3.83122657 -2.67526284 -3.83122657 -2.67526284 0 0 Z M-10.5 -0.9375 C-7.78450846 1.36921915 -7.78450846 1.36921915 -5.3125 0.6875 C-4.714375 0.48125 -4.11625 0.275 -3.5 0.0625 C-5.81 -0.2675 -8.12 -0.5975 -10.5 -0.9375 Z " fill="#D5D3D4" transform="translate(66.5,77.9375)"/>
<path d="M0 0 C11.87883884 2.82711405 19.62900257 8.05782762 26.125 18.375 C29.85869254 26.20664776 31.26789125 36.40069083 31 45 C30.34 44.01 29.68 43.02 29 42 C26.56306689 41.63583953 26.56306689 41.63583953 23.875 41.8125 C22.50988281 41.85310547 22.50988281 41.85310547 21.1171875 41.89453125 C20.41851562 41.92933594 19.71984375 41.96414062 19 42 C18.82984375 40.73285156 18.6596875 39.46570313 18.484375 38.16015625 C16.87378423 25.58083115 16.87378423 25.58083115 12 14 C11.4225 12.96875 10.845 11.9375 10.25 10.875 C7.67859984 7.58932202 4.81635113 5.06899099 1.609375 2.41796875 C1.07828125 1.95003906 0.5471875 1.48210938 0 1 C0 0.67 0 0.34 0 0 Z " fill="#B9B7B8" transform="translate(179,35)"/>
<path d="M0 0 C4.63970687 0.10323955 7.93536477 0.45152358 11.75 3.3125 C14.16767072 6.74403264 14.76129054 8.66893909 14.6875 12.875 C13.63303593 16.74136826 12.69538792 18.5996427 9.75 21.3125 C4.35165726 23.59641424 0.35580895 23.37567066 -5.25 22.3125 C-7.51613358 20.04636642 -6.77111811 14.93420827 -6.9375 11.875 C-6.99744141 10.99005859 -7.05738281 10.10511719 -7.11914062 9.19335938 C-7.16619141 8.34708984 -7.21324219 7.50082031 -7.26171875 6.62890625 C-7.30772217 5.84974854 -7.35372559 5.07059082 -7.40112305 4.26782227 C-7.04947888 -0.28196472 -3.71809695 0.0152381 0 0 Z M-0.25 6.3125 C-0.25 9.6125 -0.25 12.9125 -0.25 16.3125 C3.26480683 17.41279599 3.26480683 17.41279599 6.625 16.3125 C8.38504746 13.18352675 7.50419157 10.70636206 6.75 7.3125 C5.62465895 5.95631501 5.62465895 5.95631501 2.6875 6.25 C1.718125 6.270625 0.74875 6.29125 -0.25 6.3125 Z " fill="#4D484B" transform="translate(35.25,139.6875)"/>
<path d="M0 0 C0.66 0 1.32 0 2 0 C2.144375 0.598125 2.28875 1.19625 2.4375 1.8125 C2.8872439 3.56150404 3.42892341 5.28677023 4 7 C5.65 6.34 7.3 5.68 9 5 C8.67 6.32 8.34 7.64 8 9 C9.98 9 11.96 9 14 9 C14 10.32 14 11.64 14 13 C18.455 12.505 18.455 12.505 23 12 C23.33 10.02 23.66 8.04 24 6 C24.99 5.67 25.98 5.34 27 5 C27 6.65 27 8.3 27 10 C27.66 9.67 28.32 9.34 29 9 C29 8.01 29 7.02 29 6 C32.46986175 7.73493088 34.76280158 10.88366789 37 14 C37.875 16.9375 37.875 16.9375 38 19 C37.030625 18.979375 36.06125 18.95875 35.0625 18.9375 C32.12534105 18.64381501 32.12534105 18.64381501 31 20 C28.14122091 20.23701239 25.30116703 20.42219182 22.4375 20.5625 C21.63119141 20.60568359 20.82488281 20.64886719 19.99414062 20.69335938 C17.99631195 20.79975262 15.9981793 20.90040888 14 21 C13.73453369 20.41661865 13.46906738 19.8332373 13.19555664 19.23217773 C10.70946667 13.63156209 10.70946667 13.63156209 6 10 C3.02279214 9.18991051 0.03508533 8.55124413 -3 8 C-2.45276317 4.62537285 -1.9451 2.91765 0 0 Z " fill="#6F6F6F" transform="translate(57,67)"/>
<path d="M0 0 C2 0.3125 2 0.3125 4 1 C5.20217503 3.40435006 5.03897118 4.68381369 4.87890625 7.3515625 C4.83056641 8.20234375 4.78222656 9.053125 4.73242188 9.9296875 C4.67634766 10.81914062 4.62027344 11.70859375 4.5625 12.625 C4.51029297 13.5221875 4.45808594 14.419375 4.40429688 15.34375 C4.2744565 17.56284012 4.13948661 19.78149871 4 22 C3.01 22.33 2.02 22.66 1 23 C-2.26008643 19.83047153 -5.22237877 16.60062011 -8 13 C-8.33 15.97 -8.66 18.94 -9 22 C-10.65 22.33 -12.3 22.66 -14 23 C-14 16.4 -14 9.8 -14 3 C-5.87356322 5.32183908 -5.87356322 5.32183908 -3 9 C-3 9.66 -3 10.32 -3 11 C-2.34 11 -1.68 11 -1 11 C-1.01160156 10.28972656 -1.02320313 9.57945312 -1.03515625 8.84765625 C-1.04869141 7.46900391 -1.04869141 7.46900391 -1.0625 6.0625 C-1.07410156 5.14597656 -1.08570313 4.22945312 -1.09765625 3.28515625 C-1 1 -1 1 0 0 Z " fill="#4F4A4D" transform="translate(214,140)"/>
<path d="M0 0 C2.5625 0.1875 2.5625 0.1875 4.5625 2.1875 C5.69974997 4.78158158 6.74884352 7.35459122 7.75 10 C8.03552734 10.71220703 8.32105469 11.42441406 8.61523438 12.15820312 C10.15183406 16.199722 11.01438225 18.91577707 9.5625 23.1875 C7.6875 22.875 7.6875 22.875 5.5625 22.1875 C4.9025 21.1975 4.2425 20.2075 3.5625 19.1875 C-1.44361031 18.62077053 -4.36784032 19.22774751 -8.4375 22.1875 C-10.63103306 15.60690081 -6.33173011 7.23907204 -3.4375 1.1875 C-2.4375 0.1875 -2.4375 0.1875 0 0 Z M-0.4375 11.1875 C-0.4375 11.8475 -0.4375 12.5075 -0.4375 13.1875 C0.2225 12.8575 0.8825 12.5275 1.5625 12.1875 C0.9025 11.8575 0.2425 11.5275 -0.4375 11.1875 Z " fill="#5B5357" transform="translate(141.4375,139.8125)"/>
<path d="M0 0 C4.37672062 1.86581287 8.66954675 3.7284189 12.75 6.1875 C15.65820245 7.80938214 17.73199283 8.60387792 21 9 C20.01 9.33 19.02 9.66 18 10 C18.763125 10.86625 19.52625 11.7325 20.3125 12.625 C24.90943778 18.25363689 26.60942875 22.8120562 26.4296875 30.1015625 C25.71864004 34.89790083 23.71239329 39.00538443 21 43 C20.01 43.495 20.01 43.495 19 44 C19.165 43.030625 19.33 42.06125 19.5 41.0625 C21.07421809 29.40858696 18.67379439 23.55314555 11.75 14.125 C11.04359375 13.19945312 10.3371875 12.27390625 9.609375 11.3203125 C8 9 8 9 8 7 C7.4225 6.731875 6.845 6.46375 6.25 6.1875 C3.94449957 4.97070811 1.97943808 3.69666121 0 2 C0 1.34 0 0.68 0 0 Z " fill="#C3C3C3" transform="translate(99,24)"/>
<path d="M0 0 C2.375 0.9375 2.375 0.9375 4 3 C4.23471858 5.29847064 4.18194597 7.48226229 4.0625 9.7890625 C3.89724261 12.11462032 3.89724261 12.11462032 4.6875 14.75 C5 17 5 17 4.0625 19.75 C1.46308299 22.58572765 -0.23837088 22.89733323 -3.9921875 23.1328125 C-7.0762551 22.92880803 -8.75757046 22.10227769 -11 20 C-11.3125 17.3125 -11.3125 17.3125 -11 15 C-7.28400809 14.79913557 -6.22791555 14.8480563 -3 17 C-2.66781808 13.99740483 -2.66781808 13.99740483 -4.5 12.3125 C-5.2425 11.6628125 -5.2425 11.6628125 -6 11 C-5.67 10.34 -5.34 9.68 -5 9 C-4.34 9 -3.68 9 -3 9 C-3 8.01 -3 7.02 -3 6 C-3.99 6.66 -4.98 7.32 -6 8 C-8.6875 7.625 -8.6875 7.625 -11 7 C-8.93312361 0.95836133 -6.4050761 -0.65357919 0 0 Z " fill="#524B51" transform="translate(23,140)"/>
<path d="M0 0 C4.15084635 0.19306262 5.724977 0.74331187 8.8125 3.625 C11.29825714 7.01174354 12 9.74615875 12 14 C11.28550684 17.12654099 10.40666393 20.11231106 9 23 C8.34 23.33 7.68 23.66 7 24 C-0.9066107 19.97481637 -0.9066107 19.97481637 -3 17 C-3.74386068 14.69011685 -4.42190703 12.35684056 -5 10 C-6.98 10 -8.96 10 -11 10 C-11 9.67 -11 9.34 -11 9 C-5.06 9 0.88 9 7 9 C4.35750926 3.31224509 4.35750926 3.31224509 0 0 Z " fill="#B6B3B4" transform="translate(59,76)"/>
<path d="M0 0 C0.99 0.33 1.98 0.66 3 1 C3.12375 2.0725 3.2475 3.145 3.375 4.25 C3.90748507 7.44491044 4.51842728 9.23439759 6 12 C6 12.99 6 13.98 6 15 C6.66 15 7.32 15 8 15 C8.33 18.63 8.66 22.26 9 26 C8.34 25.01 7.68 24.02 7 23 C4.56306689 22.63583953 4.56306689 22.63583953 1.875 22.8125 C0.96492187 22.83957031 0.05484375 22.86664063 -0.8828125 22.89453125 C-1.58148438 22.92933594 -2.28015625 22.96414062 -3 23 C-4.70989531 6.9929078 -4.70989531 6.9929078 -1 1 C-0.67 0.67 -0.34 0.34 0 0 Z " fill="#BCBBBB" transform="translate(201,54)"/>
<path d="M0 0 C2.475 0.495 2.475 0.495 5 1 C5 1.66 5 2.32 5 3 C4.01 3.66 3.02 4.32 2 5 C1.7775052 7.80640107 1.71911519 10.33116892 1.8125 13.125 C1.874375 15.72375 1.93625 18.3225 2 21 C-6.415 21.495 -6.415 21.495 -15 22 C-15 16.39 -15 10.78 -15 5 C-11 5 -11 5 -8 6 C-8.66 7.65 -9.32 9.3 -10 11 C-9.34 11.33 -8.68 11.66 -8 12 C-8.66 12.66 -9.32 13.32 -10 14 C-10.6425235 16.06874034 -10.6425235 16.06874034 -11 18 C-7.58357241 18.25015873 -7.58357241 18.25015873 -4 18 C-3.34 17.01 -2.68 16.02 -2 15 C-2.66 14.01 -3.32 13.02 -4 12 C-4.125 8.8125 -4.125 8.8125 -4 6 C-3.01 6 -2.02 6 -1 6 C-0.67 4.02 -0.34 2.04 0 0 Z " fill="#7C787A" transform="translate(160,58)"/>
<path d="M0 0 C0.86625 0.020625 1.7325 0.04125 2.625 0.0625 C4.50011574 0.0625 6.37541553 0.04463296 8.25 0 C10.625 0.0625 10.625 0.0625 11.625 1.0625 C11.72399523 2.61205559 11.75579524 4.16603673 11.7578125 5.71875 C11.75974609 7.12833984 11.75974609 7.12833984 11.76171875 8.56640625 C11.75785156 9.55511719 11.75398438 10.54382813 11.75 11.5625 C11.75386719 12.55121094 11.75773437 13.53992188 11.76171875 14.55859375 C11.76042969 15.49832031 11.75914063 16.43804687 11.7578125 17.40625 C11.75668457 18.27443359 11.75555664 19.14261719 11.75439453 20.03710938 C11.625 22.0625 11.625 22.0625 10.625 23.0625 C8.125 23.1875 8.125 23.1875 5.625 23.0625 C4.625 22.0625 4.625 22.0625 4.52734375 18.24609375 C4.53401911 16.66403318 4.54598125 15.08198841 4.5625 13.5 C4.56701172 12.69369141 4.57152344 11.88738281 4.57617188 11.05664062 C4.58799482 9.05856244 4.60593086 7.06052217 4.625 5.0625 C3.635 4.7325 2.645 4.4025 1.625 4.0625 C1.625 3.0725 1.625 2.0825 1.625 1.0625 C0.635 1.0625 -0.355 1.0625 -1.375 1.0625 C-1.705 3.7025 -2.035 6.3425 -2.375 9.0625 C-2.705 9.0625 -3.035 9.0625 -3.375 9.0625 C-3.47265625 2.91015625 -3.47265625 2.91015625 -3.375 1.0625 C-2.375 0.0625 -2.375 0.0625 0 0 Z " fill="#423C41" transform="translate(92.375,139.9375)"/>
<path d="M0 0 C3.42095829 -0.07737066 6.84108549 -0.1253052 10.26269531 -0.16308594 C11.33156982 -0.1845166 12.40044434 -0.20594727 13.50170898 -0.22802734 C20.67995427 -0.25816693 26.88322373 0.84530109 33.70019531 3.08691406 C30.61955165 4.0679998 28.7399556 4.04991534 25.64160156 3.18847656 C20.31403044 1.88906897 15.1025073 1.64445476 9.63769531 1.46191406 C8.67669922 1.42324219 7.71570313 1.38457031 6.72558594 1.34472656 C4.38396717 1.25152781 2.04233494 1.16572221 -0.29980469 1.08691406 C-0.62980469 2.73691406 -0.95980469 4.38691406 -1.29980469 6.08691406 C-2.41355469 5.88066406 -3.52730469 5.67441406 -4.67480469 5.46191406 C-5.87105469 5.33816406 -7.06730469 5.21441406 -8.29980469 5.08691406 C-8.95980469 5.74691406 -9.61980469 6.40691406 -10.29980469 7.08691406 C-10.29980469 6.42691406 -10.29980469 5.76691406 -10.29980469 5.08691406 C-12.93980469 5.08691406 -15.57980469 5.08691406 -18.29980469 5.08691406 C-18.62980469 7.72691406 -18.95980469 10.36691406 -19.29980469 13.08691406 C-20.28980469 13.08691406 -21.27980469 13.08691406 -22.29980469 13.08691406 C-22.73292969 12.13816406 -23.16605469 11.18941406 -23.61230469 10.21191406 C-25.09282669 6.88649469 -25.09282669 6.88649469 -28.29980469 5.08691406 C-28.29980469 4.42691406 -28.29980469 3.76691406 -28.29980469 3.08691406 C-23.83388224 0.89406592 -19.49841235 0.64642374 -14.61230469 0.46191406 C-13.3256189 0.40825684 -13.3256189 0.40825684 -12.01293945 0.35351562 C-8.00937546 0.20435419 -4.00491035 0.10548595 0 0 Z " fill="#9A9797" transform="translate(145.2998046875,30.9130859375)"/>
<path d="M0 0 C0.99 0 1.98 0 3 0 C5.4662586 4.69718718 5.05341417 8.70151898 4.625 13.8125 C4.56828125 14.60076172 4.5115625 15.38902344 4.453125 16.20117188 C4.31249026 18.13489961 4.15766112 20.06758595 4 22 C-1.37227958 21.37123062 -3.17477682 19.09558819 -6.48046875 15.0625 C-8.18194074 12.75304702 -9.37437591 10.81530841 -10 8 C-9.625 5.6875 -9.625 5.6875 -9 4 C-6.5 5.375 -6.5 5.375 -4 7 C-4 7.66 -4 8.32 -4 9 C-3.01 9 -2.02 9 -1 9 C-0.67 6.03 -0.34 3.06 0 0 Z " fill="#4D464A" transform="translate(91,141)"/>
<path d="M0 0 C3.70129644 0.38961015 5.61879622 1.11749016 8 4 C7.67 4.66 7.34 5.32 7 6 C5.95550089 9.13349732 6.06576355 9.98968256 7 13 C6.34 13 5.68 13 5 13 C5.185625 14.27875 5.37125 15.5575 5.5625 16.875 C6.125 20.75 6.125 20.75 5 23 C3.37536158 23.05395478 1.75021459 23.09277195 0.125 23.125 C-0.77992187 23.14820313 -1.68484375 23.17140625 -2.6171875 23.1953125 C-5 23 -5 23 -7 21 C-6.34 20.67 -5.68 20.34 -5 20 C-5.66 18.35 -6.32 16.7 -7 15 C-6.34 15 -5.68 15 -5 15 C-4.34 14.34 -3.68 13.68 -3 13 C-2.67 13.66 -2.34 14.32 -2 15 C-0.94931357 11.84794071 -0.93036614 9.67390424 -1 6.375 C-1.03761201 4.58372817 -1.04667254 2.79105866 -1 1 C-0.67 0.67 -0.34 0.34 0 0 Z " fill="#453F42" transform="translate(76,140)"/>
<path d="M0 0 C2.5625 1.375 2.5625 1.375 5 4 C5.36459187 7.480713 5.11419487 10.67958842 4 14 C0.43896862 17.43876421 -3.18284275 18.0381557 -8 18 C-11 17.0625 -11 17.0625 -13 16 C-13 15.34 -13 14.68 -13 14 C-13.66 14 -14.32 14 -15 14 C-16.83691257 10.21812119 -17.15837626 8.05431692 -16 4 C-15.67 4.66 -15.34 5.32 -15 6 C-14.01 6 -13.02 6 -12 6 C-11.67 4.68 -11.34 3.36 -11 2 C-10.34 2.33 -9.68 2.66 -9 3 C-9 5.31 -9 7.62 -9 10 C-6.525 10.99 -6.525 10.99 -4 12 C-1.29199403 9.96050874 -1.29199403 9.96050874 1 7 C0.94271002 3.25639659 0.94271002 3.25639659 0 0 Z " fill="#50484D" transform="translate(192,145)"/>
<path d="M0 0 C0 0.99 0 1.98 0 3 C-3.96 1.35 -7.92 -0.3 -12 -2 C-12 -1.01 -12 -0.02 -12 1 C-14.45862401 1.05383848 -16.9160755 1.09359038 -19.375 1.125 C-20.42300781 1.15013672 -20.42300781 1.15013672 -21.4921875 1.17578125 C-23.32897486 1.19344267 -25.16601963 1.10303261 -27 1 C-27.66 0.34 -28.32 -0.32 -29 -1 C-28.67 -1.66 -28.34 -2.32 -28 -3 C-28.99 -3 -29.98 -3 -31 -3 C-31.66 -3.66 -32.32 -4.32 -33 -5 C-34.134375 -5 -35.26875 -5 -36.4375 -5 C-40 -5 -40 -5 -43 -7 C-28.55226694 -11.29620839 -13.2472953 -5.48537759 0 0 Z " fill="#BBB7B9" transform="translate(98,23)"/>
<path d="M0 0 C2.375 0.25 2.375 0.25 5 1 C5.68486725 2.32407669 6.34870203 3.65909241 7 5 C9.72689447 7.09643013 9.72689447 7.09643013 13 9 C14.093125 9.721875 15.18625 10.44375 16.3125 11.1875 C23.47014905 15.15532719 32.05054056 14.0552685 39.9609375 13.83984375 C43 14 43 14 46 16 C44.02 16.99 44.02 16.99 42 18 C42.66 18.66 43.32 19.32 44 20 C28.92043552 21.08790445 15.17744223 15.53697053 3.8125 5.75 C1.58203125 3.734375 1.58203125 3.734375 0 2 C0 1.34 0 0.68 0 0 Z " fill="#363233" transform="translate(27,106)"/>
<path d="M0 0 C0.33 0 0.66 0 1 0 C1.69962404 8.17782768 0.78716545 14.20755702 -4 21 C-8.59410461 26.11326782 -13.7712003 29.21928585 -20 32 C-20.66 31.34 -21.32 30.68 -22 30 C-21.57847656 29.44570312 -21.15695313 28.89140625 -20.72265625 28.3203125 C-20.17480469 27.59585938 -19.62695312 26.87140625 -19.0625 26.125 C-18.51722656 25.40570313 -17.97195312 24.68640625 -17.41015625 23.9453125 C-15.96035376 22.05642921 -15.96035376 22.05642921 -15 20 C-14.0925 19.566875 -13.185 19.13375 -12.25 18.6875 C-6.05306078 15.46985848 -3.32322341 11.50502554 -1 5 C-0.30859478 2.22111387 -0.30859478 2.22111387 0 0 Z " fill="#919191" transform="translate(114,89)"/>
<path d="M0 0 C2.97 0.33 5.94 0.66 9 1 C9 2.65 9 4.3 9 6 C8.34 6 7.68 6 7 6 C7 7.32 7 8.64 7 10 C7.99 10 8.98 10 10 10 C12.1875 11.5 12.1875 11.5 14 13 C13.01 13.33 12.02 13.66 11 14 C10.16666667 15.91666667 10.16666667 15.91666667 10 18 C10.33 18.66 10.66 19.32 11 20 C7.26512223 19.5020163 5.18762365 19.12508244 2 17 C-0.3985364 13.53721235 -0.20740118 10.37005892 -0.125 6.25 C-0.09792969 4.49429688 -0.09792969 4.49429688 -0.0703125 2.703125 C-0.04710937 1.81109375 -0.02390625 0.9190625 0 0 Z " fill="#363636" transform="translate(45,85)"/>
<path d="M0 0 C2.44932852 1.43323154 3.98246934 2.93326127 6 5 C6 5.66 6 6.32 6 7 C4.741875 7.28875 3.48375 7.5775 2.1875 7.875 C-0.8539399 8.57303539 -2.30669878 9.20446585 -5 11 C-7.48046875 10.9765625 -7.48046875 10.9765625 -10.1875 10.625 C-11.08855469 10.51414062 -11.98960938 10.40328125 -12.91796875 10.2890625 C-13.60503906 10.19367187 -14.29210938 10.09828125 -15 10 C-13.07517084 3.33712984 -13.07517084 3.33712984 -10 1 C-6.34711807 -0.21762731 -3.84245864 -0.39075851 0 0 Z " fill="#454444" transform="translate(74,36)"/>
<path d="M0 0 C0.66 0.33 1.32 0.66 2 1 C1.21516341 2.48280196 0.42190666 3.9611498 -0.375 5.4375 C-0.81585938 6.26121094 -1.25671875 7.08492187 -1.7109375 7.93359375 C-3 10 -3 10 -5 11 C-4.01 11.33 -3.02 11.66 -2 12 C-2.66 13.32 -3.32 14.64 -4 16 C-3.34 16 -2.68 16 -2 16 C-2 16.99 -2 17.98 -2 19 C-5.52921112 19.90282145 -7.40710887 20.25033181 -10.8125 18.8125 C-13 17 -13 17 -13.89453125 15.203125 C-14 13 -14 13 -12.3046875 10.52734375 C-11.50289062 9.67269531 -10.70109375 8.81804688 -9.875 7.9375 C-9.08867188 7.08027344 -8.30234375 6.22304688 -7.4921875 5.33984375 C-5.09833768 3.09232644 -2.94997527 1.43525733 0 0 Z " fill="#B5B3B4" transform="translate(50,18)"/>
<path d="M0 0 C3.40208828 3.40208828 3.05433827 7.77178592 3.0625 12.375 C3.041875 13.57125 3.02125 14.7675 3 16 C2.01 16 1.02 16 0 16 C0 16.99 0 17.98 0 19 C-0.66 19.33 -1.32 19.66 -2 20 C-2.33 22.31 -2.66 24.62 -3 27 C1.95 27.33 6.9 27.66 12 28 C12 28.33 12 28.66 12 29 C9.35409986 29.02684679 6.70846904 29.04676357 4.0625 29.0625 C3.30775391 29.07087891 2.55300781 29.07925781 1.77539062 29.08789062 C-0.14994313 29.09652441 -2.07535581 29.05224333 -4 29 C-6.27046304 26.72953696 -5.30501421 22.00250174 -5.32788086 18.94018555 C-5.25198663 13.91383624 -4.37987785 10.20644469 -1.97265625 5.83203125 C-0.94947779 3.9048397 -0.44820952 2.12781571 0 0 Z " fill="#423F40" transform="translate(116,93)"/>
<path d="M0 0 C10.26016913 1.26929927 17.92422304 6.9052788 24.25 14.8125 C26.40625253 18.73995997 26.69380481 21.5601697 27 26 C25.68 26.99 24.36 27.98 23 29 C22.7525 27.845 22.505 26.69 22.25 25.5 C21.28186435 21.55730263 19.74415127 18.21738663 17.8046875 14.6640625 C17 13 17 13 17 11 C16.4328125 10.73058594 15.865625 10.46117187 15.28125 10.18359375 C12.90056637 8.94841029 10.72462381 7.55954993 8.5 6.0625 C7.7471875 5.55847656 6.994375 5.05445313 6.21875 4.53515625 C4.10488077 3.07256715 2.04501265 1.55699827 0 0 Z " fill="#373737" transform="translate(86,21)"/>
<path d="M0 0 C1.65 0 3.3 0 5 0 C5.33 6.93 5.66 13.86 6 21 C4.35 21.33 2.7 21.66 1 22 C-1.6544763 19.3455237 -0.8661359 12.57546697 -1 9 C-0.82510575 5.94574922 -0.45449101 3.02994006 0 0 Z " fill="#4D484C" transform="translate(168,141)"/>
<path d="M0 0 C10.83527375 2.57874991 19.09600341 7.23248092 25.1171875 16.76953125 C28.16471177 22.23060577 29.14146833 27.85472065 30 34 C29.34 34 28.68 34 28 34 C27.35163958 32.25093469 26.70641216 30.50070781 26.0625 28.75 C25.52302734 27.28820313 25.52302734 27.28820313 24.97265625 25.796875 C23.62182251 21.91254985 22.78418514 18.03295213 22 14 C21.34 14 20.68 14 20 14 C20 13.34 20 12.68 20 12 C18.824375 11.62875 18.824375 11.62875 17.625 11.25 C14.67682892 9.84610901 14.0975223 8.99324263 13 6 C12.154375 6.28875 11.30875 6.5775 10.4375 6.875 C6.50787948 7.01789529 5.98900896 6.5748651 3.125 4.125 C1.3203125 2.4453125 1.3203125 2.4453125 0 1 C0 0.67 0 0.34 0 0 Z " fill="#B5ACB0" transform="translate(179,35)"/>
<path d="M0 0 C0.33 0 0.66 0 1 0 C1.103125 1.11375 1.20625 2.2275 1.3125 3.375 C1.539375 4.57125 1.76625 5.7675 2 7 C2.99 7.66 3.98 8.32 5 9 C4.01 9.33 3.02 9.66 2 10 C2.66 10.33 3.32 10.66 4 11 C4 13.31 4 15.62 4 18 C4.66 18 5.32 18 6 18 C6.33 17.34 6.66 16.68 7 16 C9 17 9 17 10 19 C10.66 18.34 11.32 17.68 12 17 C14.1640625 16.8046875 14.1640625 16.8046875 16.625 16.875 C17.85089844 16.90207031 17.85089844 16.90207031 19.1015625 16.9296875 C20.04128906 16.96449219 20.04128906 16.96449219 21 17 C21 17.66 21 18.32 21 19 C18.03 19.33 15.06 19.66 12 20 C11.67 21.32 11.34 22.64 11 24 C10.67 23.67 10.34 23.34 10 23 C9.34 24.32 8.68 25.64 8 27 C2.53224022 22.03766339 0.29054259 15.93594416 -0.25 8.61328125 C-0.25 5.7304591 -0.18073638 2.87672067 0 0 Z " fill="#565354" transform="translate(19,80)"/>
<path d="M0 0 C0.79664496 7.0665358 -0.13720982 11.3020268 -4.296875 17.08984375 C-6.05959783 19.06684252 -7.77882964 20.55985092 -10 22 C-10.66 22 -11.32 22 -12 22 C-11.53765575 17.02979929 -10.19373595 14.75733642 -7 11 C-5.47519187 8.23275562 -4.18475159 5.75953433 -3.4375 2.6875 C-3.293125 2.130625 -3.14875 1.57375 -3 1 C-1 0 -1 0 0 0 Z " fill="#323132" transform="translate(100,99)"/>
<path d="M0 0 C2 2 2 2 3.4375 4.5 C4.90965916 7.23702985 4.90965916 7.23702985 8 9 C7.7215625 9.9590625 7.7215625 9.9590625 7.4375 10.9375 C7.293125 11.618125 7.14875 12.29875 7 13 C7.33 13.33 7.66 13.66 8 14 C8.66 14 9.32 14 10 14 C10 14.66 10 15.32 10 16 C8.576875 16.4640625 8.576875 16.4640625 7.125 16.9375 C4.13919592 17.87394742 4.13919592 17.87394742 2 19 C-0.625 18.0625 -0.625 18.0625 -3 17 C-1.68 16.67 -0.36 16.34 1 16 C1 15.01 1 14.02 1 13 C2.5 11.3125 2.5 11.3125 4 10 C2.35 9.01 0.7 8.02 -1 7 C-1.66 7.66 -2.32 8.32 -3 9 C-4 6 -4 6 -3.1875 3.9375 C-2 2 -2 2 0 0 Z M0 19 C0.66 19 1.32 19 2 19 C2 19.66 2 20.32 2 21 C1.34 21 0.68 21 0 21 C0 20.34 0 19.68 0 19 Z " fill="#424242" transform="translate(54,88)"/>
<path d="M0 0 C1.98 0.66 3.96 1.32 6 2 C5.34 3.65 4.68 5.3 4 7 C4.66 7.33 5.32 7.66 6 8 C5.34 8.66 4.68 9.32 4 10 C3.3574765 12.06874034 3.3574765 12.06874034 3 14 C8.32170494 14.29562367 8.32170494 14.29562367 13 12 C13 13.32 13 14.64 13 16 C8.38 16 3.76 16 -1 16 C-1.02685095 13.52076199 -1.04676547 11.0418116 -1.0625 8.5625 C-1.07506836 7.50192383 -1.07506836 7.50192383 -1.08789062 6.41992188 C-1.09653588 4.61306441 -1.05220011 2.80612397 -1 1 C-0.67 0.67 -0.34 0.34 0 0 Z " fill="#8F9090" transform="translate(146,62)"/>
<path d="M0 0 C2.375 1.0625 2.375 1.0625 4 3 C4.52238806 8.95522388 4.52238806 8.95522388 3 12 C2.01 11.67 1.02 11.34 0 11 C0.66 10.34 1.32 9.68 2 9 C2.16687448 6.41645782 2.16687448 6.41645782 2 4 C1.54625 4.825 1.0925 5.65 0.625 6.5 C0.08875 7.325 -0.4475 8.15 -1 9 C-1.66 9 -2.32 9 -3 9 C-3 8.01 -3 7.02 -3 6 C-3.99 6.66 -4.98 7.32 -6 8 C-8.6875 7.625 -8.6875 7.625 -11 7 C-8.93312361 0.95836133 -6.4050761 -0.65357919 0 0 Z " fill="#5C5659" transform="translate(23,140)"/>
<path d="M0 0 C0.33 0 0.66 0 1 0 C1.33 1.98 1.66 3.96 2 6 C3.65 4.02 5.3 2.04 7 0 C7.66 0.33 8.32 0.66 9 1 C9 1.33 9 1.66 9 2 C11.62113708 2 13.50935112 1.68707555 16 1 C16.33 2.32 16.66 3.64 17 5 C12.545 5.495 12.545 5.495 8 6 C7.67 7.32 7.34 8.64 7 10 C6.01 10 5.02 10 4 10 C3.34 11.32 2.68 12.64 2 14 C1.34 14 0.68 14 0 14 C0 9.38 0 4.76 0 0 Z " fill="#504C4C" transform="translate(173,141)"/>
<path d="M0 0 C2.31 0.33 4.62 0.66 7 1 C8.80230168 4.82989106 9.19622241 7.78121808 9 12 C8.34 12 7.68 12 7 12 C7.66 13.65 8.32 15.3 9 17 C8.01 17 7.02 17 6 17 C6 15.68 6 14.36 6 13 C3.69 13 1.38 13 -1 13 C-0.67 12.01 -0.34 11.02 0 10 C1.32 10 2.64 10 4 10 C3.71872579 8.51882199 3.42466268 7.04006751 3.125 5.5625 C2.96257812 4.73878906 2.80015625 3.91507813 2.6328125 3.06640625 C2.42398438 2.38449219 2.21515625 1.70257813 2 1 C1.34 0.67 0.68 0.34 0 0 Z " fill="#4B4348" transform="translate(63,144)"/>
<path d="M0 0 C0.99 0 1.98 0 3 0 C5.4662586 4.69718718 5.05341417 8.70151898 4.625 13.8125 C4.56828125 14.60076172 4.5115625 15.38902344 4.453125 16.20117188 C4.31249026 18.13489961 4.15766112 20.06758595 4 22 C2.35 21.67 0.7 21.34 -1 21 C-1.33 20.01 -1.66 19.02 -2 18 C-0.68 18.33 0.64 18.66 2 19 C1.67 16.36 1.34 13.72 1 11 C0.01 11.495 0.01 11.495 -1 12 C-1.02712066 10.56260487 -1.04645067 9.12506137 -1.0625 7.6875 C-1.07410156 6.88699219 -1.08570312 6.08648437 -1.09765625 5.26171875 C-1 3 -1 3 0 0 Z " fill="#3E393D" transform="translate(91,141)"/>
<path d="M0 0 C0.33 0 0.66 0 1 0 C1 6.27 1 12.54 1 19 C-0.65 18.67 -2.3 18.34 -4 18 C-4.05402274 15.89611431 -4.09280256 13.79183286 -4.125 11.6875 C-4.14820313 10.51574219 -4.17140625 9.34398437 -4.1953125 8.13671875 C-3.95353391 4.25375464 -2.70998955 2.70998955 0 0 Z " fill="#443F42" transform="translate(159,144)"/>
<path d="M0 0 C0.66 0 1.32 0 2 0 C2.144375 0.598125 2.28875 1.19625 2.4375 1.8125 C2.8872439 3.56150404 3.42892341 5.28677023 4 7 C5.65 6.34 7.3 5.68 9 5 C8.67 6.32 8.34 7.64 8 9 C9.98 9 11.96 9 14 9 C14 11.31 14 13.62 14 16 C13.34 16 12.68 16 12 16 C11.525625 15.236875 11.05125 14.47375 10.5625 13.6875 C6.76125675 9.70083025 2.27007113 9.11761853 -3 8 C-2.45276317 4.62537285 -1.9451 2.91765 0 0 Z " fill="#797678" transform="translate(57,67)"/>
<path d="M0 0 C2.5625 1.375 2.5625 1.375 5 4 C5.36459187 7.480713 5.11419487 10.67958842 4 14 C1.60816505 16.26854449 0.56966274 16.96115936 -2.75 17.1875 C-3.86375 17.0946875 -3.86375 17.0946875 -5 17 C-4.67 16.01 -4.34 15.02 -4 14 C-5.32 13.67 -6.64 13.34 -8 13 C-7.2575 12.7525 -6.515 12.505 -5.75 12.25 C-2.63442453 10.83382933 -0.97439231 9.80971213 1 7 C0.85387105 3.30567489 0.85387105 3.30567489 0 0 Z " fill="#4F474D" transform="translate(192,145)"/>
<path d="M0 0 C0.33 0.66 0.66 1.32 1 2 C1.66 2 2.32 2 3 2 C2.67 3.65 2.34 5.3 2 7 C3.98 7.99 5.96 8.98 8 10 C8 10.33 8 10.66 8 11 C6.88625 11.103125 5.7725 11.20625 4.625 11.3125 C3.42875 11.539375 2.2325 11.76625 1 12 C0.01 13.485 0.01 13.485 -1 15 C-3.125 15.6875 -3.125 15.6875 -5 16 C-4.74357696 14.08135229 -4.46926564 12.16509006 -4.1875 10.25 C-4.03667969 9.18265625 -3.88585937 8.1153125 -3.73046875 7.015625 C-2.98679593 3.94548906 -2.07234528 2.33919522 0 0 Z " fill="#3F383D" transform="translate(137,146)"/>
<path d="M0 0 C4.37672062 1.86581287 8.66954675 3.7284189 12.75 6.1875 C15.65820245 7.80938214 17.73199283 8.60387792 21 9 C20.01 9.33 19.02 9.66 18 10 C18.66 11.32 19.32 12.64 20 14 C19.01 14 18.02 14 17 14 C17 13.34 17 12.68 17 12 C16.2575 11.87625 15.515 11.7525 14.75 11.625 C12.19858515 11.04513299 10.2732427 10.26291261 8 9 C8 8.34 8 7.68 8 7 C7.4225 6.731875 6.845 6.46375 6.25 6.1875 C3.94449957 4.97070811 1.97943808 3.69666121 0 2 C0 1.34 0 0.68 0 0 Z " fill="#C4C0C1" transform="translate(99,24)"/>
<path d="M0 0 C1.66611905 -0.042721 3.33382885 -0.04063832 5 0 C6.94090826 1.94090826 6.39919435 5.47293902 6.5625 8.0625 C6.64628906 9.35285156 6.73007813 10.64320313 6.81640625 11.97265625 C6.87699219 12.97167969 6.93757812 13.97070312 7 15 C7.66 14.34 8.32 13.68 9 13 C8.67 15.64 8.34 18.28 8 21 C8.66 20.34 9.32 19.68 10 19 C10.99 19.33 11.98 19.66 13 20 C11.8125 21.5625 11.8125 21.5625 10 23 C5.57894737 22.57894737 5.57894737 22.57894737 4 21 C3.91330568 19.5112814 3.89296506 18.018555 3.90234375 16.52734375 C3.90717773 15.17866211 3.90717773 15.17866211 3.91210938 13.80273438 C3.92048828 12.85720703 3.92886719 11.91167969 3.9375 10.9375 C3.94201172 9.98810547 3.94652344 9.03871094 3.95117188 8.06054688 C3.9629989 5.70696935 3.97947975 3.35351523 4 1 C2.68 0.67 1.36 0.34 0 0 Z " fill="#776E74" transform="translate(125,140)"/>
<path d="M0 0 C0.66 0.66 1.32 1.32 2 2 C0.71937515 3.7074998 -0.61767557 5.37373596 -2 7 C-2.66 7 -3.32 7 -4 7 C-2.62514468 8.54166642 -2.62514468 8.54166642 -1 10 C-0.34 10 0.32 10 1 10 C1.33 9.34 1.66 8.68 2 8 C2.66 8.33 3.32 8.66 4 9 C3.67 9.66 3.34 10.32 3 11 C3.66 11 4.32 11 5 11 C5 11.99 5 12.98 5 14 C1.47078888 14.90282145 -0.40710887 15.25033181 -3.8125 13.8125 C-6 12 -6 12 -6.8515625 10.15234375 C-7 8 -7 8 -5.56640625 5.859375 C-4.90511719 5.16328125 -4.24382813 4.4671875 -3.5625 3.75 C-2.57443359 2.69039062 -2.57443359 2.69039062 -1.56640625 1.609375 C-1.04949219 1.07828125 -0.53257813 0.5471875 0 0 Z " fill="#ADAAAB" transform="translate(43,23)"/>
<path d="M0 0 C1.98 0.99 1.98 0.99 4 2 C4.33 2.99 4.66 3.98 5 5 C5.33 5.33 5.66 5.66 6 6 C6.04063832 7.66617115 6.042721 9.33388095 6 11 C5.34 11 4.68 11 4 11 C3.34 13.31 2.68 15.62 2 18 C1.34 18 0.68 18 0 18 C0 12.06 0 6.12 0 0 Z " fill="#4D484C" transform="translate(108,142)"/>
<path d="M0 0 C1.65 0.33 3.3 0.66 5 1 C5.33 1.99 5.66 2.98 6 4 C4.0625 4.5625 4.0625 4.5625 2 5 C1.67 4.67 1.34 4.34 1 4 C0.67 9.94 0.34 15.88 0 22 C-0.33 22 -0.66 22 -1 22 C-1.33 20.02 -1.66 18.04 -2 16 C-2.66 16.66 -3.32 17.32 -4 18 C-3.98839844 17.40832031 -3.97679687 16.81664062 -3.96484375 16.20703125 C-3.91677614 11.99768215 -3.93993117 8.1077667 -5 4 C-4.01 4.99 -3.02 5.98 -2 7 C-1.34 4.69 -0.68 2.38 0 0 Z " fill="#655E63" transform="translate(200,140)"/>
<path d="M0 0 C5.99291003 0.41330414 9.25036599 1.31903365 14 5 C10.71570724 7.18952851 9.79033543 7.27734162 6 7 C5.278125 6.814375 4.55625 6.62875 3.8125 6.4375 C1.91567768 5.77357897 1.91567768 5.77357897 0 7 C0 4.69 0 2.38 0 0 Z " fill="#999898" transform="translate(160,33)"/>
<path d="M0 0 C1.48828125 1.08203125 1.48828125 1.08203125 3 3 C3.29296875 6.13671875 3.29296875 6.13671875 3.1875 9.6875 C3.14689453 11.45673828 3.14689453 11.45673828 3.10546875 13.26171875 C3.07066406 14.16535156 3.03585938 15.06898438 3 16 C1.35 16.33 -0.3 16.66 -2 17 C-1.85978195 14.35375716 -1.71310224 11.70815422 -1.5625 9.0625 C-1.52318359 8.30775391 -1.48386719 7.55300781 -1.44335938 6.77539062 C-1.11328125 1.11328125 -1.11328125 1.11328125 0 0 Z " fill="#565056" transform="translate(202,146)"/>
<path d="M0 0 C3.68754757 0.49831724 5.60490662 1.10067643 8 4 C7.67 4.66 7.34 5.32 7 6 C5.95550089 9.13349732 6.06576355 9.98968256 7 13 C3.97984943 11.99328314 2.90683422 11.451644 1 9 C1 7.68 1 6.36 1 5 C0.34 5 -0.32 5 -1 5 C-0.67 3.35 -0.34 1.7 0 0 Z " fill="#5A5659" transform="translate(76,140)"/>
<path d="M0 0 C2.97 0.33 5.94 0.66 9 1 C9 1.66 9 2.32 9 3 C9.66 3.33 10.32 3.66 11 4 C10.67 4.66 10.34 5.32 10 6 C12.475 6.99 12.475 6.99 15 8 C10.91556885 9.53166168 7.20544343 8.63081652 3 8 C3.33 6.68 3.66 5.36 4 4 C1.525 3.01 1.525 3.01 -1 2 C-0.67 1.34 -0.34 0.68 0 0 Z " fill="#898888" transform="translate(62,55)"/>
<path d="M0 0 C0.99 0 1.98 0 3 0 C3 0.66 3 1.32 3 2 C3.99 2.33 4.98 2.66 6 3 C7.17353189 6.52059568 7.20146402 9.306493 7 13 C6.34 13.66 5.68 14.32 5 15 C5 14.34 5 13.68 5 13 C3.68 13.33 2.36 13.66 1 14 C1.01160156 13.24074219 1.02320313 12.48148438 1.03515625 11.69921875 C1.04417969 10.70535156 1.05320313 9.71148437 1.0625 8.6875 C1.07990234 7.20830078 1.07990234 7.20830078 1.09765625 5.69921875 C1.12329862 2.90036151 1.12329862 2.90036151 0 0 Z " fill="#3C363A" transform="translate(41,142)"/>
<path d="M0 0 C2.21736634 1.10868317 4.03617993 2.49440461 6 4 C5.01 4.33 4.02 4.66 3 5 C2.16666667 6.91666667 2.16666667 6.91666667 2 9 C2.33 9.66 2.66 10.32 3 11 C-2.75 10.25 -2.75 10.25 -5 8 C-4.34 8 -3.68 8 -3 8 C-3 7.34 -3 6.68 -3 6 C-3.66 5.67 -4.32 5.34 -5 5 C-3.35 3.35 -1.7 1.7 0 0 Z " fill="#3D3D3D" transform="translate(53,94)"/>
<path d="M0 0 C0.99 0.33 1.98 0.66 3 1 C3.6875 3.0625 3.6875 3.0625 4 5 C4.99 4.01 5.98 3.02 7 2 C7.5625 3.9375 7.5625 3.9375 8 6 C7.67 6.33 7.34 6.66 7 7 C7.66 7.33 8.32 7.66 9 8 C9.4140625 10.06640625 9.4140625 10.06640625 9.625 12.5625 C9.69976562 13.38878906 9.77453125 14.21507812 9.8515625 15.06640625 C9.90054688 15.70449219 9.94953125 16.34257813 10 17 C9.01 17 8.02 17 7 17 C6.66226563 16.24074219 6.32453125 15.48148438 5.9765625 14.69921875 C5.53054687 13.70535156 5.08453125 12.71148437 4.625 11.6875 C4.18414062 10.70136719 3.74328125 9.71523438 3.2890625 8.69921875 C2.01757242 5.87254793 2.01757242 5.87254793 0 3 C0 2.01 0 1.02 0 0 Z " fill="#535454" transform="translate(180,40)"/>
<path d="M0 0 C0.66 0 1.32 0 2 0 C2 4.29 2 8.58 2 13 C1.01 13.33 0.02 13.66 -1 14 C-6.57142857 8.85714286 -6.57142857 8.85714286 -7 5 C-4.525 6.485 -4.525 6.485 -2 8 C-2 7.34 -2 6.68 -2 6 C-1.17647059 1.17647059 -1.17647059 1.17647059 0 0 Z " fill="#433C41" transform="translate(216,149)"/>
<path d="M0 0 C1.51400391 0.01740234 1.51400391 0.01740234 3.05859375 0.03515625 C4.07050781 0.04417969 5.08242188 0.05320313 6.125 0.0625 C7.29869141 0.07990234 7.29869141 0.07990234 8.49609375 0.09765625 C8.49609375 0.42765625 8.49609375 0.75765625 8.49609375 1.09765625 C6.79453125 1.56171875 6.79453125 1.56171875 5.05859375 2.03515625 C1.70834276 2.72690156 1.70834276 2.72690156 0.49609375 4.09765625 C0.25930659 6.79001401 0.0741135 9.46263781 -0.06640625 12.16015625 C-0.10958984 12.91876953 -0.15277344 13.67738281 -0.19726562 14.45898438 C-0.30364258 16.33831063 -0.40430559 18.21795869 -0.50390625 20.09765625 C-1.16390625 20.09765625 -1.82390625 20.09765625 -2.50390625 20.09765625 C-2.69985301 16.95228857 -2.88424635 13.80635011 -3.06640625 10.66015625 C-3.12248047 9.76232422 -3.17855469 8.86449219 -3.23632812 7.93945312 C-3.28466797 7.08544922 -3.33300781 6.23144531 -3.3828125 5.3515625 C-3.42994385 4.56080322 -3.4770752 3.77004395 -3.52563477 2.95532227 C-3.4913319 0.0226202 -2.91502165 0.11369039 0 0 Z " fill="#403C3F" transform="translate(31.50390625,140.90234375)"/>
<path d="M0 0 C0.33 0.99 0.66 1.98 1 3 C0.67 3.66 0.34 4.32 0 5 C-6.99641577 6.37634409 -6.99641577 6.37634409 -10.5 5.0625 C-10.995 4.711875 -11.49 4.36125 -12 4 C-8.41084094 -0.78554541 -5.58334594 -0.37222306 0 0 Z " fill="#332E2F" transform="translate(85,120)"/>
<path d="M0 0 C0.66 0.66 1.32 1.32 2 2 C2.66 1.34 3.32 0.68 4 0 C4 2.31 4 4.62 4 7 C4.99 7.33 5.98 7.66 7 8 C7.33 7.34 7.66 6.68 8 6 C8.66 6 9.32 6 10 6 C9.67 7.32 9.34 8.64 9 10 C7.37536158 10.05395478 5.75021459 10.09277195 4.125 10.125 C3.22007813 10.14820313 2.31515625 10.17140625 1.3828125 10.1953125 C-1 10 -1 10 -3 8 C-2.34 7.67 -1.68 7.34 -1 7 C-1.66 5.35 -2.32 3.7 -3 2 C-2.34 2 -1.68 2 -1 2 C-0.67 1.34 -0.34 0.68 0 0 Z " fill="#6D666C" transform="translate(72,153)"/>
<path d="M0 0 C1.65 0.33 3.3 0.66 5 1 C4.01 1.495 4.01 1.495 3 2 C3.33 3.32 3.66 4.64 4 6 C3.01 5.67 2.02 5.34 1 5 C1 5.66 1 6.32 1 7 C0.34 7 -0.32 7 -1 7 C-1 7.66 -1 8.32 -1 9 C-1.680625 9.6496875 -1.680625 9.6496875 -2.375 10.3125 C-4.34309231 12.35628817 -5.06726871 14.34530324 -6 17 C-4.35 17 -2.7 17 -1 17 C-1 17.33 -1 17.66 -1 18 C-2.98 18 -4.96 18 -7 18 C-6.41529782 10.98357379 -3.88080417 5.82120626 0 0 Z " fill="#8F8A8D" transform="translate(60,58)"/>
<path d="M0 0 C3.95122922 0.27566715 5.78042562 0.82714357 8.9375 3.3125 C11 6 11 6 10.8125 8.3125 C10.544375 8.869375 10.27625 9.42625 10 10 C9.01 8.68 8.02 7.36 7 6 C6.01 6.495 6.01 6.495 5 7 C2.6505947 6.39239518 0.31470912 5.72870472 -2 5 C-1.34 3.35 -0.68 1.7 0 0 Z " fill="#B3B2B2" transform="translate(91,26)"/>
<path d="M0 0 C-2.625 3.875 -2.625 3.875 -6 5 C-6 5.99 -6 6.98 -6 8 C-7.98 8.99 -9.96 9.98 -12 11 C-12.66 10.34 -13.32 9.68 -14 9 C-13.04663979 7.68388323 -12.08714226 6.37221039 -11.125 5.0625 C-10.59132813 4.33160156 -10.05765625 3.60070312 -9.5078125 2.84765625 C-6.72126583 -0.56694627 -4.19518559 -0.09119969 0 0 Z " fill="#979393" transform="translate(106,110)"/>
<path d="M0 0 C0.598125 0.804375 1.19625 1.60875 1.8125 2.4375 C3.80947276 5.22327984 3.80947276 5.22327984 7 6 C7.66 4.68 8.32 3.36 9 2 C9.66 2 10.32 2 11 2 C11 4.31 11 6.62 11 9 C8.75 10.125 8.75 10.125 6 11 C3.6875 10.125 3.6875 10.125 2 9 C2 8.34 2 7.68 2 7 C1.01 6.67 0.02 6.34 -1 6 C-0.67 4.02 -0.34 2.04 0 0 Z " fill="#565154" transform="translate(115,147)"/>
<path d="M0 0 C1.66611905 -0.042721 3.33382885 -0.04063832 5 0 C6.62200515 1.62200515 6.1299075 3.42023031 6.1328125 5.65625 C6.13410156 6.59597656 6.13539062 7.53570312 6.13671875 8.50390625 C6.13285156 9.49261719 6.12898438 10.48132813 6.125 11.5 C6.12886719 12.48871094 6.13273437 13.47742188 6.13671875 14.49609375 C6.13542969 15.43582031 6.13414063 16.37554687 6.1328125 17.34375 C6.13168457 18.21193359 6.13055664 19.08011719 6.12939453 19.97460938 C6 22 6 22 5 23 C3.33382885 23.04063832 1.66611905 23.042721 0 23 C0.495 21.515 0.495 21.515 1 20 C2.32 20.33 3.64 20.66 5 21 C4.85899143 18.72886197 4.71203245 16.45809275 4.5625 14.1875 C4.48128906 12.92292969 4.40007812 11.65835938 4.31640625 10.35546875 C3.90115869 5.95179406 3.1221158 3.98637163 0 1 C0 0.67 0 0.34 0 0 Z " fill="#60595E" transform="translate(98,140)"/>
<path d="M0 0 C6.77938968 -0.32314866 11.76708333 0.55024978 18.0625 3 C18.83271484 3.28617188 19.60292969 3.57234375 20.39648438 3.8671875 C22.26922713 4.56510405 24.13536847 5.28069323 26 6 C26 6.99 26 7.98 26 9 C25.19949219 8.60167969 25.19949219 8.60167969 24.3828125 8.1953125 C19.4149898 5.84032388 14.78477094 4.38420992 9.375 3.4375 C6.16924569 2.84696631 3.11648704 1.94849605 0 1 C0 0.67 0 0.34 0 0 Z " fill="#797375" transform="translate(72,17)"/>
<path d="M0 0 C2.625 0.125 2.625 0.125 5.625 1.125 C5.625 8.055 5.625 14.985 5.625 22.125 C5.295 22.125 4.965 22.125 4.625 22.125 C4.625 16.515 4.625 10.905 4.625 5.125 C3.635 4.795 2.645 4.465 1.625 4.125 C1.625 3.135 1.625 2.145 1.625 1.125 C0.635 1.125 -0.355 1.125 -1.375 1.125 C-1.705 3.765 -2.035 6.405 -2.375 9.125 C-2.705 9.125 -3.035 9.125 -3.375 9.125 C-3.47265625 2.97265625 -3.47265625 2.97265625 -3.375 1.125 C-2.375 0.125 -2.375 0.125 0 0 Z " fill="#7A7679" transform="translate(92.375,139.875)"/>
<path d="M0 0 C0.99 0.33 1.98 0.66 3 1 C5.00875442 0.72428861 7.01178687 0.39764263 9 0 C9.99 1.32 10.98 2.64 12 4 C10.20994059 4.36220266 8.41787943 4.71452469 6.625 5.0625 C5.12839844 5.35833984 5.12839844 5.35833984 3.6015625 5.66015625 C1 6 1 6 -1 5 C-0.67 3.35 -0.34 1.7 0 0 Z " fill="#727272" transform="translate(25,81)"/>
<path d="M0 0 C4.48445006 2.18162436 6.27801507 4.31237436 8 9 C7.67 10.32 7.34 11.64 7 13 C5.68 10.36 4.36 7.72 3 5 C3.66 6.98 4.32 8.96 5 11 C2.17750049 9.96508351 1.16625774 9.30084735 -0.3125 6.625 C-1.02770914 3.89420147 -0.9659657 2.60810739 0 0 Z " fill="#413A3F" transform="translate(82,145)"/>
<path d="M0 0 C2.31 0.66 4.62 1.32 7 2 C6.979375 2.7425 6.95875 3.485 6.9375 4.25 C6.99328688 6.70462279 7.3069904 8.66109261 8 11 C4.67098753 8.78065836 4.24976756 7.65316671 3 4 C2.67 4 2.34 4 2 4 C1.67 8.95 1.34 13.9 1 19 C0.67 19 0.34 19 0 19 C0 12.73 0 6.46 0 0 Z " fill="#383436" transform="translate(200,143)"/>
<path d="M0 0 C0.33 0.66 0.66 1.32 1 2 C2.98 1.34 4.96 0.68 7 0 C5.63746417 3.11824121 4.14891747 5.04737351 1.5625 7.25 C0.66724609 8.03117187 0.66724609 8.03117187 -0.24609375 8.828125 C-2 10 -2 10 -5 10 C-3.75453595 6.26360784 -2.36595047 5.81243487 1 4 C-0.98 4 -2.96 4 -5 4 C-5 3.34 -5 2.68 -5 2 C-3.35 1.34 -1.7 0.68 0 0 Z " fill="#868083" transform="translate(104,107)"/>
<path d="M0 0 C1.77049689 -0.05410687 3.54146849 -0.09284119 5.3125 -0.125 C6.29863281 -0.14820313 7.28476562 -0.17140625 8.30078125 -0.1953125 C11 0 11 0 14 2 C13.01 2.495 13.01 2.495 12 3 C12.33 4.98 12.66 6.96 13 9 C12.34 8.34 11.68 7.68 11 7 C8.67724823 6.59952556 6.34260643 6.2602896 4 6 C4 5.34 4 4.68 4 4 C4.66 3.67 5.32 3.34 6 3 C6 2.67 6 2.34 6 2 C3.03 1.505 3.03 1.505 0 1 C0 0.67 0 0.34 0 0 Z " fill="#5E565B" transform="translate(30,140)"/>
<path d="M0 0 C2 2 2 2 3.4375 4.4375 C4.80163937 6.67468856 6.07324346 8.25674408 8 10 C4.26512223 9.5020163 2.18762365 9.12508244 -1 7 C-1.66 7.66 -2.32 8.32 -3 9 C-4 6 -4 6 -3.1875 3.9375 C-2 2 -2 2 0 0 Z " fill="#4C4C4C" transform="translate(54,88)"/>
<path d="M0 0 C10.04972376 -0.39410681 10.04972376 -0.39410681 14 2 C15.3125 4.125 15.3125 4.125 16 6 C13.69 5.67 11.38 5.34 9 5 C9 4.34 9 3.68 9 3 C5.7 2.67 2.4 2.34 -1 2 C-0.67 1.34 -0.34 0.68 0 0 Z " fill="#EFE9EE" transform="translate(50,78)"/>
<path d="M0 0 C6.6 0 13.2 0 20 0 C18 3 18 3 15.80078125 3.77734375 C12.32320692 4.05380363 9.56496162 3.41539435 6.1875 2.5625 C5.02605469 2.27503906 3.86460938 1.98757812 2.66796875 1.69140625 C1.78753906 1.46324219 0.90710938 1.23507813 0 1 C0 0.67 0 0.34 0 0 Z " fill="#BDB5B8" transform="translate(21,78)"/>
<path d="M0 0 C0.66 0 1.32 0 2 0 C2 0.66 2 1.32 2 2 C2.66 2.33 3.32 2.66 4 3 C1.24844614 7.65647576 -1.17454764 10.2725704 -6 13 C-6.66 13 -7.32 13 -8 13 C-8 12.34 -8 11.68 -8 11 C-7.01 11 -6.02 11 -5 11 C-4.731875 10.29875 -4.46375 9.5975 -4.1875 8.875 C-2.9318551 5.8350176 -1.49764877 2.9272226 0 0 Z " fill="#4B4C4C" transform="translate(108,96)"/>
<path d="M0 0 C0 0.66 0 1.32 0 2 C1.32 2.33 2.64 2.66 4 3 C3.34 4.32 2.68 5.64 2 7 C-1.93673644 5.68775452 -4.22719294 4.08089673 -7 1 C-4 0 -4 0 0 0 Z " fill="#AEAEAE" transform="translate(65,93)"/>
<path d="M0 0 C1.125 1.5625 1.125 1.5625 2 4 C1.125 7.75 1.125 7.75 0 11 C0.99 11.99 1.98 12.98 3 14 C0.6875 15.125 0.6875 15.125 -2 16 C-2.99 15.34 -3.98 14.68 -5 14 C-4.72285156 13.49210937 -4.44570312 12.98421875 -4.16015625 12.4609375 C-1.9665317 8.2922702 -0.47586845 4.75868447 0 0 Z " fill="#595959" transform="translate(125,51)"/>
<path d="M0 0 C0.33 0 0.66 0 1 0 C1.103125 1.11375 1.20625 2.2275 1.3125 3.375 C1.539375 4.57125 1.76625 5.7675 2 7 C2.99 7.66 3.98 8.32 5 9 C4.01 9.33 3.02 9.66 2 10 C2.66 10.33 3.32 10.66 4 11 C3.979375 12.051875 3.95875 13.10375 3.9375 14.1875 C3.98896802 17.32704904 4.26517187 19.96883396 5 23 C-0.91035431 16.28368828 -0.24950786 8.44168247 0 0 Z " fill="#787275" transform="translate(19,80)"/>
<path d="M0 0 C1.10868317 3.32604951 1.54177532 6.53058454 2 10 C0.125 11.0625 0.125 11.0625 -2 12 C-2.66 11.67 -3.32 11.34 -4 11 C-3.67 9.02 -3.34 7.04 -3 5 C-2.34 5 -1.68 5 -1 5 C-0.67 3.35 -0.34 1.7 0 0 Z " fill="#473E43" transform="translate(58,151)"/>
<path d="M0 0 C0.66 0 1.32 0 2 0 C2.06058594 0.77085938 2.12117188 1.54171875 2.18359375 2.3359375 C2.26738281 3.33882813 2.35117187 4.34171875 2.4375 5.375 C2.55931641 6.87160156 2.55931641 6.87160156 2.68359375 8.3984375 C2.84965626 10.97927613 2.84965626 10.97927613 4 13 C3.67 13.66 3.34 14.32 3 15 C3.66 15 4.32 15 5 15 C5 15.66 5 16.32 5 17 C4.01 17 3.02 17 2 17 C-0.25998595 13.40537669 -0.20868087 10.43404325 -0.125 6.25 C-0.09792969 4.49429688 -0.09792969 4.49429688 -0.0703125 2.703125 C-0.04710937 1.81109375 -0.02390625 0.9190625 0 0 Z " fill="#2E2E2E" transform="translate(45,85)"/>
<path d="M0 0 C0.33 0.66 0.66 1.32 1 2 C5.95586469 3.26968434 10.42093536 3.51109996 15 1 C15.33 2.32 15.66 3.64 16 5 C13.93757383 5.02717692 11.87504297 5.0464758 9.8125 5.0625 C8.66394531 5.07410156 7.51539062 5.08570313 6.33203125 5.09765625 C3.40699414 5.01192832 0.83683709 4.67849023 -2 4 C-2.33 3.01 -2.66 2.02 -3 1 C-2.01 0.67 -1.02 0.34 0 0 Z " fill="#8F888B" transform="translate(59,43)"/>
<path d="M0 0 C6.04383212 1.57665186 11.00988858 3.19175707 16 7 C15.01 7.33 14.02 7.66 13 8 C13 7.34 13 6.68 13 6 C12.154375 6.28875 11.30875 6.5775 10.4375 6.875 C6.50787948 7.01789529 5.98900896 6.5748651 3.125 4.125 C1.3203125 2.4453125 1.3203125 2.4453125 0 1 C0 0.67 0 0.34 0 0 Z " fill="#A49FA0" transform="translate(179,35)"/>
<path d="M0 0 C6.6 0 13.2 0 20 0 C20 0.99 20 1.98 20 3 C18.88625 2.79375 17.7725 2.5875 16.625 2.375 C15.42875 2.25125 14.2325 2.1275 13 2 C12.34 2.66 11.68 3.32 11 4 C11 3.34 11 2.68 11 2 C7.7 2 4.4 2 1 2 C0.67 1.34 0.34 0.68 0 0 Z " fill="#9D9999" transform="translate(124,34)"/>
<path d="M0 0 C1.28132812 0.00902344 2.56265625 0.01804687 3.8828125 0.02734375 C4.87023437 0.03894531 5.85765625 0.05054687 6.875 0.0625 C5.875 2.0625 5.875 2.0625 4.296875 2.68359375 C0.90582655 3.21412875 -2.45357318 3.16704022 -5.875 3.125 C-6.57238281 3.12048828 -7.26976562 3.11597656 -7.98828125 3.11132812 C-9.70055803 3.0996002 -11.41279033 3.08166653 -13.125 3.0625 C-8.29812678 0.64906339 -5.53066888 -0.05027881 0 0 Z " fill="#4B4545" transform="translate(169.125,119.9375)"/>
<path d="M0 0 C1.32 0 2.64 0 4 0 C3.67 2.31 3.34 4.62 3 7 C1.02 7 -0.96 7 -3 7 C-1.125 1.125 -1.125 1.125 0 0 Z " fill="#343334" transform="translate(62,39)"/>
<path d="M0 0 C1.6045556 0.14148989 3.20863767 0.28835686 4.8125 0.4375 C5.70582031 0.51871094 6.59914062 0.59992187 7.51953125 0.68359375 C10 1 10 1 13 2 C13 2.99 13 3.98 13 5 C14.32 5.66 15.64 6.32 17 7 C12.89624886 7 11.46575669 6.46629233 7.9375 4.625 C7.08027344 4.18414062 6.22304687 3.74328125 5.33984375 3.2890625 C3 2 3 2 0 0 Z " fill="#534F50" transform="translate(162,32)"/>
<path d="M0 0 C2.475 0.495 2.475 0.495 5 1 C5 1.66 5 2.32 5 3 C4.01 3.66 3.02 4.32 2 5 C1.71094463 7.8312792 1.71094463 7.8312792 1.9375 11 C2.08984375 14.25 2.08984375 14.25 2 17 C1.34 17.66 0.68 18.32 0 19 C0 12.73 0 6.46 0 0 Z " fill="#958F91" transform="translate(160,58)"/>
<path d="M0 0 C2.97 0 5.94 0 9 0 C7.08864614 3.53600465 5.37357234 5.78972846 2 8 C0 6 0 6 -0.125 2.875 C-0.08375 1.92625 -0.0425 0.9775 0 0 Z " fill="#B3AEAF" transform="translate(69,16)"/>
<path d="M0 0 C1.32 1.65 2.64 3.3 4 5 C4.33 4.34 4.66 3.68 5 3 C4.67 4.65 4.34 6.3 4 8 C2.35 7.67 0.7 7.34 -1 7 C-1.33 5.02 -1.66 3.04 -2 1 C-1.34 0.67 -0.68 0.34 0 0 Z " fill="#454043" transform="translate(116,152)"/>
<path d="M0 0 C5.57142857 5.14285714 5.57142857 5.14285714 6 9 C4.35 9.33 2.7 9.66 1 10 C0.63883954 8.5225254 0.28624952 7.04295325 -0.0625 5.5625 C-0.25972656 4.73878906 -0.45695313 3.91507813 -0.66015625 3.06640625 C-0.82837891 2.04353516 -0.82837891 2.04353516 -1 1 C-0.67 0.67 -0.34 0.34 0 0 Z " fill="#4B4349" transform="translate(207,146)"/>
<path d="M0 0 C0.33 0.99 0.66 1.98 1 3 C0.34 3 -0.32 3 -1 3 C-1.2475 4.11375 -1.495 5.2275 -1.75 6.375 C-3 10 -3 10 -5.125 11.4375 C-5.74375 11.623125 -6.3625 11.80875 -7 12 C-6.54726428 7.133091 -5.35474936 4.5580675 -2 1 C-1.34 0.67 -0.68 0.34 0 0 Z " fill="#312F2F" transform="translate(95,109)"/>
<path d="M0 0 C0.66 0.33 1.32 0.66 2 1 C1 4 1 4 -2.1875 5.6875 C-5.5347925 7.01535157 -8.38491227 7.26451861 -12 7 C-9.65408148 4.2289312 -7.85223799 3.47940716 -4.3125 2.8125 C-3.50425781 2.65394531 -2.69601563 2.49539062 -1.86328125 2.33203125 C-0.94095703 2.16767578 -0.94095703 2.16767578 0 2 C0 1.34 0 0.68 0 0 Z " fill="#3F393B" transform="translate(191,112)"/>
<path d="M0 0 C1.98 0 3.96 0 6 0 C6 2.64 6 5.28 6 8 C5.34 8 4.68 8 4 8 C3.67 7.34 3.34 6.68 3 6 C2.01 5.34 1.02 4.68 0 4 C0 2.68 0 1.36 0 0 Z " fill="#B6B1B4" transform="translate(74,44)"/>
<path d="M0 0 C2.62745688 3.94118532 2.31098196 6.25072647 1.5 10.8125 C1.335 11.534375 1.17 12.25625 1 13 C-0.32 13.33 -1.64 13.66 -3 14 C-2.69147815 12.041036 -2.3780582 10.08284287 -2.0625 8.125 C-1.88847656 7.03445312 -1.71445313 5.94390625 -1.53515625 4.8203125 C-1 2 -1 2 0 0 Z " fill="#4A4349" transform="translate(135,148)"/>
<path d="M0 0 C1.5625 1.4375 1.5625 1.4375 3 4 C2.96846324 7.05380927 2.53266629 9.99653222 2 13 C1.67 12.34 1.34 11.68 1 11 C0.34 10.67 -0.32 10.34 -1 10 C-1.86159454 6.76902047 -2.30597523 4.77513726 -1.0625 1.625 C-0.5365625 0.820625 -0.5365625 0.820625 0 0 Z " fill="#4B4B4B" transform="translate(116,45)"/>
<path d="M0 0 C0.66 0.33 1.32 0.66 2 1 C-2 7.57142857 -2 7.57142857 -6 9 C-6.375 6.75 -6.375 6.75 -6 4 C-3 1.6875 -3 1.6875 0 0 Z " fill="#BEBABA" transform="translate(50,18)"/>
<path d="M0 0 C0.33 1.32 0.66 2.64 1 4 C-0.98 4.99 -0.98 4.99 -3 6 C-3 6.66 -3 7.32 -3 8 C-4.32 8.33 -5.64 8.66 -7 9 C-6.67 8.01 -6.34 7.02 -6 6 C-7.32 5.67 -8.64 5.34 -10 5 C-9.278125 4.731875 -8.55625 4.46375 -7.8125 4.1875 C-5.02409874 3.01017502 -2.55904276 1.60854116 0 0 Z " fill="#373036" transform="translate(194,153)"/>
<path d="M0 0 C2.4375 0.4375 2.4375 0.4375 4.4375 2.4375 C4.1075 3.4275 3.7775 4.4175 3.4375 5.4375 C2.1175 4.7775 0.7975 4.1175 -0.5625 3.4375 C-1.8825 4.7575 -3.2025 6.0775 -4.5625 7.4375 C-4.8925 6.7775 -5.2225 6.1175 -5.5625 5.4375 C-3.48731203 0.59539474 -3.48731203 0.59539474 0 0 Z " fill="#575455" transform="translate(141.5625,139.5625)"/>
<path d="M0 0 C0.99 0 1.98 0 3 0 C3 3.3 3 6.6 3 10 C2.01 9.67 1.02 9.34 0 9 C-0.87890625 2.84765625 -0.87890625 2.84765625 -1 1 C-0.67 0.67 -0.34 0.34 0 0 Z " fill="#3F3C3D" transform="translate(205,79)"/>
<path d="M0 0 C0.66 0 1.32 0 2 0 C1.67 2.64 1.34 5.28 1 8 C-0.32 8.33 -1.64 8.66 -3 9 C-4 6 -4 6 -4 3 C-3.34 3 -2.68 3 -2 3 C-1.34 2.67 -0.68 2.34 0 2 C0 1.34 0 0.68 0 0 Z " fill="#474747" transform="translate(117,62)"/>
<path d="M0 0 C3.40208828 3.40208828 3.05433827 7.77178592 3.0625 12.375 C3.041875 13.57125 3.02125 14.7675 3 16 C2.67 16 2.34 16 2 16 C1.814375 14.88625 1.814375 14.88625 1.625 13.75 C1.16105765 11.047668 1.16105765 11.047668 -0.125 9.125 C-1.4366693 5.93951742 -0.63644564 3.30951734 0 0 Z " fill="#414242" transform="translate(194,56)"/>
<path d="M0 0 C1.13199353 0.9080162 2.25532363 1.82683826 3.375 2.75 C4.00148437 3.26046875 4.62796875 3.7709375 5.2734375 4.296875 C7.12622366 6.12451022 8.12320552 7.55268354 9 10 C8.67 10.99 8.34 11.98 8 13 C7.34 12.34 6.68 11.68 6 11 C6 9.68 6 8.36 6 7 C5.34 7 4.68 7 4 7 C4 6.34 4 5.68 4 5 C2.7934375 4.566875 2.7934375 4.566875 1.5625 4.125 C-1 3 -1 3 -2 1 C-1.34 0.67 -0.68 0.34 0 0 Z " fill="#AFA7A9" transform="translate(195,42)"/>
<path d="M0 0 C1.5 1.25 1.5 1.25 3 3 C3 4.32 3 5.64 3 7 C2.34 7 1.68 7 1 7 C0.67 8.32 0.34 9.64 0 11 C-0.33 11 -0.66 11 -1 11 C-1.02688151 9.35425434 -1.04634123 7.70838587 -1.0625 6.0625 C-1.07410156 5.14597656 -1.08570313 4.22945312 -1.09765625 3.28515625 C-1 1 -1 1 0 0 Z " fill="#4E4A4D" transform="translate(202,146)"/>
<path d="M0 0 C5.85272256 0.45020943 10.08220119 3.03839227 15 6 C14.67 6.66 14.34 7.32 14 8 C9.02790438 6.23570801 4.56561939 3.6060834 0 1 C0 0.67 0 0.34 0 0 Z " fill="#312E2F" transform="translate(86,21)"/>
<path d="M0 0 C0.66 0.66 1.32 1.32 2 2 C2.66 1.34 3.32 0.68 4 0 C5.125 4.75 5.125 4.75 4 7 C3.21625 6.814375 2.4325 6.62875 1.625 6.4375 C-0.97089775 5.74037734 -0.97089775 5.74037734 -3 7 C-1.125 2.25 -1.125 2.25 0 0 Z " fill="#5A5A5A" transform="translate(68,97)"/>
<path d="M0 0 C0.33 1.65 0.66 3.3 1 5 C-0.32 5.99 -1.64 6.98 -3 8 C-3.66 7.67 -4.32 7.34 -5 7 C-5 3 -5 3 -3.625 1.25 C-2 0 -2 0 0 0 Z " fill="#323131" transform="translate(99,70)"/>
<path d="M0 0 C0.99 0.33 1.98 0.66 3 1 C3 2.65 3 4.3 3 6 C1.02 6.99 1.02 6.99 -1 8 C-1.93065133 5.39417629 -2.14917407 4.35801776 -1.0625 1.75 C-0.711875 1.1725 -0.36125 0.595 0 0 Z " fill="#433F42" transform="translate(121,146)"/>
<path d="M0 0 C1.32 0 2.64 0 4 0 C4 6.6 4 13.2 4 20 C3.67 20 3.34 20 3 20 C2.67 14.39 2.34 8.78 2 3 C1.34 3 0.68 3 0 3 C0 2.01 0 1.02 0 0 Z " fill="#373033" transform="translate(169,141)"/>
<path d="M0 0 C0.33 0 0.66 0 1 0 C1.33 1.98 1.66 3.96 2 6 C2.33 6 2.66 6 3 6 C3 8.31 3 10.62 3 13 C2.01 13.33 1.02 13.66 0 14 C0 9.38 0 4.76 0 0 Z " fill="#736E70" transform="translate(173,141)"/>
<path d="M0 0 C0.33 0.99 0.66 1.98 1 3 C1.99 3.66 2.98 4.32 4 5 C0.78548731 6.60725635 -2.43612536 6.05748185 -6 6 C-6 5.01 -6 4.02 -6 3 C-4.02 2.01 -2.04 1.02 0 0 Z " fill="#4D484B" transform="translate(73,121)"/>
<path d="M0 0 C1.65 0.99 3.3 1.98 5 3 C3.02579865 5.52259061 2.03254358 5.9929808 -1.1875 6.6875 C-2.5796875 6.8421875 -2.5796875 6.8421875 -4 7 C-4.33 6.34 -4.66 5.68 -5 5 C-3.68 4.34 -2.36 3.68 -1 3 C-1 3.66 -1 4.32 -1 5 C-0.34 5 0.32 5 1 5 C1 4.01 1 3.02 1 2 C0.34 1.67 -0.32 1.34 -1 1 C-0.67 0.67 -0.34 0.34 0 0 Z " fill="#7A7A7A" transform="translate(93,66)"/>
<path d="M0 0 C1.44122613 0.59522337 2.87785868 1.20157619 4.3125 1.8125 C5.11300781 2.14894531 5.91351563 2.48539063 6.73828125 2.83203125 C8.96515745 3.98200704 10.34987767 5.13626961 12 7 C9.06552319 7.34934248 6.85632498 7.51495218 4.265625 5.95703125 C2.625 4.625 2.625 4.625 0 2 C0 1.34 0 0.68 0 0 Z " fill="#B2AFAF" transform="translate(99,24)"/>
<path d="M0 0 C0.99 0.33 1.98 0.66 3 1 C3 3.31 3 5.62 3 8 C1.02 7.34 -0.96 6.68 -3 6 C-1.125 1.125 -1.125 1.125 0 0 Z " fill="#4A4547" transform="translate(141,142)"/>
<path d="M0 0 C2 2 2 2 2 6 C1.01 6 0.02 6 -1 6 C-1.33 8.64 -1.66 11.28 -2 14 C-2.33 14 -2.66 14 -3 14 C-3.29341888 8.32723489 -3.00559652 5.00932754 0 0 Z " fill="#2F2E2F" transform="translate(115,98)"/>
<path d="M0 0 C1.99701936 0.26556108 3.97764818 0.64787339 5.953125 1.04296875 C3.45806538 3.53802837 2.27983612 3.40245251 -1.171875 3.66796875 C-2.08195312 3.74273437 -2.99203125 3.8175 -3.9296875 3.89453125 C-4.97769531 3.96800781 -4.97769531 3.96800781 -6.046875 4.04296875 C-4.28243726 1.61686685 -3.12317824 0.0655629 0 0 Z " fill="#675C64" transform="translate(39.046875,158.95703125)"/>
<path d="M0 0 C0.66 0.33 1.32 0.66 2 1 C1.34 3.97 0.68 6.94 0 10 C-1.65 10.33 -3.3 10.66 -5 11 C-5 10.34 -5 9.68 -5 9 C-4.01 9 -3.02 9 -2 9 C-1.7834375 7.0509375 -1.7834375 7.0509375 -1.5625 5.0625 C-1.125 1.125 -1.125 1.125 0 0 Z " fill="#675C65" transform="translate(112,152)"/>
<path d="M0 0 C2.4294516 3.6441774 2.16179575 5.71241272 2 10 C0.35 9.67 -1.3 9.34 -3 9 C-2.34 8.34 -1.68 7.68 -1 7 C-1.66 5.35 -2.32 3.7 -3 2 C-2.34 2 -1.68 2 -1 2 C-0.67 1.34 -0.34 0.68 0 0 Z " fill="#5A5459" transform="translate(72,153)"/>
<path d="M0 0 C1.32 0 2.64 0 4 0 C4 0.66 4 1.32 4 2 C4.99 2 5.98 2 7 2 C7.66 3.65 8.32 5.3 9 7 C8.01 7 7.02 7 6 7 C6 5.68 6 4.36 6 3 C3.69 3 1.38 3 -1 3 C-0.67 2.01 -0.34 1.02 0 0 Z " fill="#332A2F" transform="translate(63,154)"/>
<path d="M0 0 C0.66 0 1.32 0 2 0 C2.66 2.97 3.32 5.94 4 9 C2.02 9 0.04 9 -2 9 C-1.34 6.03 -0.68 3.06 0 0 Z M1 5 C1 5.99 1 6.98 1 8 C1.66 7.67 2.32 7.34 3 7 C2.34 6.34 1.68 5.68 1 5 Z " fill="#685F63" transform="translate(63,145)"/>
<path d="M0 0 C1.65 0.33 3.3 0.66 5 1 C5.33 2.32 5.66 3.64 6 5 C3.69 5 1.38 5 -1 5 C-0.67 3.35 -0.34 1.7 0 0 Z " fill="#555053" transform="translate(63,140)"/>
<path d="M0 0 C1.39864092 3.17872935 0.89282517 4.30111022 -0.3125 7.6875 C-2 11 -2 11 -4 12 C-3.5317879 7.22423661 -2.75668002 3.95523655 0 0 Z M-6 12 C-5.01 12.495 -5.01 12.495 -4 13 C-4.99 13.495 -4.99 13.495 -6 14 C-6 13.34 -6 12.68 -6 12 Z " fill="#5C5C5C" transform="translate(188,96)"/>
<path d="M0 0 C1.32 0 2.64 0 4 0 C4 1.65 4 3.3 4 5 C3.34 5 2.68 5 2 5 C1.34 5.99 0.68 6.98 0 8 C-1.125 2.25 -1.125 2.25 0 0 Z " fill="#404040" transform="translate(50,86)"/>
<path d="M0 0 C0.33 0.99 0.66 1.98 1 3 C0.34 3.66 -0.32 4.32 -1 5 C-1.71408334 6.98356483 -2.38617742 8.98315437 -3 11 C-3.33 11 -3.66 11 -4 11 C-4.35233161 5.62694301 -4.35233161 5.62694301 -4 3 C-2 1 -2 1 0 0 Z " fill="#878686" transform="translate(167,61)"/>
<path d="M0 0 C3 2 3 2 3.73046875 4.3828125 C3.88128906 5.28773438 4.03210938 6.19265625 4.1875 7.125 C4.34605469 8.03507813 4.50460938 8.94515625 4.66796875 9.8828125 C4.83232422 10.93082031 4.83232422 10.93082031 5 12 C2 11 2 11 0.8125 8.9375 C0.544375 8.298125 0.27625 7.65875 0 7 C0.66 7 1.32 7 2 7 C1.34 4.69 0.68 2.38 0 0 Z " fill="#383536" transform="translate(144,144)"/>
<path d="M0 0 C0.66 0 1.32 0 2 0 C2 2.31 2 4.62 2 7 C0.35 7.66 -1.3 8.32 -3 9 C-2.01 6.03 -1.02 3.06 0 0 Z " fill="#7A7778" transform="translate(124,149)"/>
<path d="M0 0 C0.66 0.33 1.32 0.66 2 1 C2 2.65 2 4.3 2 6 C-1.465 7.485 -1.465 7.485 -5 9 C-4.67 8.01 -4.34 7.02 -4 6 C-3.34 6 -2.68 6 -2 6 C-1.34 4.02 -0.68 2.04 0 0 Z " fill="#3C363B" transform="translate(24,143)"/>
<path d="M0 0 C-0.66 0 -1.32 0 -2 0 C-2.33 2.64 -2.66 5.28 -3 8 C-3.33 8 -3.66 8 -4 8 C-4 5.36 -4 2.72 -4 0 C-6.31 0.33 -8.62 0.66 -11 1 C-7.46642139 -2.53357861 -4.06810357 -2.71206905 0 0 Z " fill="#2A2629" transform="translate(116,72)"/>
<path d="M0 0 C2.54247553 0.84749184 4.71108972 1.62665383 7 3 C7.33 3.99 7.66 4.98 8 6 C5.03 5.67 2.06 5.34 -1 5 C-0.67 3.35 -0.34 1.7 0 0 Z " fill="#8E8E8E" transform="translate(144,48)"/>
<path d="M0 0 C2.33524782 2.25740623 4.18705073 4.2805761 6 7 C5.625 9.1875 5.625 9.1875 5 11 C4.566875 10.236875 4.13375 9.47375 3.6875 8.6875 C2.26313215 6.41906232 0.96739903 4.7800277 -1 3 C-0.67 2.01 -0.34 1.02 0 0 Z " fill="#404040" transform="translate(187,43)"/>
<path d="M0 0 C5.4389165 -0.21755666 9.87080814 -0.10428384 15 2 C10.50797326 3.49734225 6.00789659 2.92913066 1.74609375 0.95703125 C1.16988281 0.64121094 0.59367187 0.32539063 0 0 Z " fill="#83797D" transform="translate(72,17)"/>
<path d="M0 0 C1.65 0 3.3 0 5 0 C5.66 1.32 6.32 2.64 7 4 C6.01 4.33 5.02 4.66 4 5 C3.67 4.01 3.34 3.02 3 2 C2.34 1.67 1.68 1.34 1 1 C1.33 2.65 1.66 4.3 2 6 C1.34 5.67 0.68 5.34 0 5 C0 3.35 0 1.7 0 0 Z " fill="#5E565C" transform="translate(12,155)"/>
<path d="M0 0 C0.66 0 1.32 0 2 0 C2.33 0.66 2.66 1.32 3 2 C3.66 1.34 4.32 0.68 5 0 C5 2.97 5 5.94 5 9 C1.13892543 6.42595029 1.05680308 4.38979741 0 0 Z " fill="#585357" transform="translate(88,150)"/>
<path d="M0 0 C2.0078125 0.23046875 2.0078125 0.23046875 5.0078125 2.23046875 C-3.56361607 3.65904018 -3.56361607 3.65904018 -6.9921875 1.23046875 C-5.11574989 -0.64596886 -2.49413049 0.05061888 0 0 Z " fill="#403B3D" transform="translate(79.9921875,122.76953125)"/>
<path d="M0 0 C-1.26941497 3.91402949 -2.51167694 5.79072873 -6 8 C-5.62403791 5.21788056 -5.32681541 3.4120716 -3.5625 1.1875 C-2 0 -2 0 0 0 Z " fill="#3C3C3B" transform="translate(98,111)"/>
<path d="M0 0 C2.375 0.25 2.375 0.25 5 1 C6.375 2.875 6.375 2.875 7 5 C6.67 5.99 6.34 6.98 6 8 C4.99403703 7.0479279 3.99538437 6.08812654 3 5.125 C2.443125 4.59132813 1.88625 4.05765625 1.3125 3.5078125 C0 2 0 2 0 0 Z " fill="#433E42" transform="translate(27,106)"/>
<path d="M0 0 C1 3 1 3 1 5 C-2.3 4.34 -5.6 3.68 -9 3 C-5.71299843 1.35649921 -3.52069985 0.58678331 0 0 Z " fill="#C0C0C0" transform="translate(46,80)"/>
<path d="M0 0 C0.66 0 1.32 0 2 0 C2 0.66 2 1.32 2 2 C2.66 2 3.32 2 4 2 C3.67 3.98 3.34 5.96 3 8 C0.9375 5.6875 0.9375 5.6875 -1 3 C-0.67 2.01 -0.34 1.02 0 0 Z " fill="#BFBBBD" transform="translate(197,47)"/>
<path d="M0 0 C0.66 0.66 1.32 1.32 2 2 C1.625 5.125 1.625 5.125 1 8 C0.01 8.33 -0.98 8.66 -2 9 C-2 6.69 -2 4.38 -2 2 C-1.34 2 -0.68 2 0 2 C0 1.34 0 0.68 0 0 Z " fill="#575255" transform="translate(217,141)"/>
<path d="M0 0 C0.66 0 1.32 0 2 0 C3.10844919 3.32534757 2.84454356 5.62182575 2 9 C1.34 8.67 0.68 8.34 0 8 C-0.6875 4.5 -0.6875 4.5 -1 1 C-0.67 0.67 -0.34 0.34 0 0 Z " fill="#4D4649" transform="translate(45,145)"/>
<path d="M0 0 C0.66 0 1.32 0 2 0 C2 0.66 2 1.32 2 2 C2.66 2.33 3.32 2.66 4 3 C2.625 5 2.625 5 1 7 C0.34 7 -0.32 7 -1 7 C-0.67 4.69 -0.34 2.38 0 0 Z " fill="#454545" transform="translate(108,96)"/>
<path d="M0 0 C0.99 0 1.98 0 3 0 C4 3 4 3 2.5625 6.1875 C1.7890625 7.5796875 1.7890625 7.5796875 1 9 C0.67 8.34 0.34 7.68 0 7 C0.33 6.34 0.66 5.68 1 5 C0.34 4.67 -0.32 4.34 -1 4 C-0.67 2.68 -0.34 1.36 0 0 Z " fill="#5A5156" transform="translate(203,95)"/>
<path d="M0 0 C4.95 0.99 4.95 0.99 10 2 C10 2.33 10 2.66 10 3 C6.7 3 3.4 3 0 3 C0 2.01 0 1.02 0 0 Z " fill="#CECDCE" transform="translate(56,82)"/>
<path d="M0 0 C0.99 0.33 1.98 0.66 3 1 C3 3.64 3 6.28 3 9 C1.5 7.875 1.5 7.875 0 6 C-0.1875 2.8125 -0.1875 2.8125 0 0 Z " fill="#8B8889" transform="translate(156,64)"/>
<path d="M0 0 C0.99 1.98 1.98 3.96 3 6 C-0.45925163 4.7508258 -3.14693203 3.32472205 -6 1 C-3.92446352 0.4465236 -2.15634036 0 0 0 Z " fill="#B5ACB1" transform="translate(54,40)"/>
<path d="M0 0 C0 1.65 0 3.3 0 5 C-1.32 5 -2.64 5 -4 5 C-4 4.01 -4 3.02 -4 2 C-4.66 1.67 -5.32 1.34 -6 1 C-3.92446352 0.4465236 -2.15634036 0 0 0 Z " fill="#534B4F" transform="translate(46,155)"/>
<path d="M0 0 C2.475 0.495 2.475 0.495 5 1 C5.33 1.99 5.66 2.98 6 4 C4.125 4.625 4.125 4.625 2 5 C1.34 4.34 0.68 3.68 0 3 C0 2.01 0 1.02 0 0 Z " fill="#555253" transform="translate(200,140)"/>
<path d="M0 0 C0.556875 0.28875 1.11375 0.5775 1.6875 0.875 C4.08494645 2.0413253 6.51596939 3.0339881 9 4 C7.02 4.99 7.02 4.99 5 6 C3.2925002 4.71937515 1.62626404 3.38232443 0 2 C0 1.34 0 0.68 0 0 Z " fill="#393339" transform="translate(34,112)"/>
<path d="M0 0 C2.31 0.66 4.62 1.32 7 2 C7 2.99 7 3.98 7 5 C4.69 4.34 2.38 3.68 0 3 C0 2.01 0 1.02 0 0 Z " fill="#3F3D3E" transform="translate(41,112)"/>
<path d="M0 0 C1.98 0.99 3.96 1.98 6 3 C4.25 4.125 4.25 4.125 2 5 C-0.25 4.125 -0.25 4.125 -2 3 C-1.34 2.01 -0.68 1.02 0 0 Z " fill="#4B4B4B" transform="translate(121,67)"/>
<path d="M0 0 C-0.66964286 7.09821429 -0.66964286 7.09821429 -4 10 C-3.88637738 8.5199159 -3.75877092 7.04089926 -3.625 5.5625 C-3.55539063 4.73878906 -3.48578125 3.91507813 -3.4140625 3.06640625 C-3.27742188 2.38449219 -3.14078125 1.70257813 -3 1 C-1 0 -1 0 0 0 Z " fill="#CBCBCB" transform="translate(124,55)"/>
<path d="M0 0 C1.98 0.495 1.98 0.495 4 1 C4.33 2.32 4.66 3.64 5 5 C3.35 4.67 1.7 4.34 0 4 C0 2.68 0 1.36 0 0 Z " fill="#B9B7B8" transform="translate(188,40)"/>
<path d="M0 0 C2.475 0.495 2.475 0.495 5 1 C5 2.32 5 3.64 5 5 C3.68 4.67 2.36 4.34 1 4 C0.67 2.68 0.34 1.36 0 0 Z " fill="#4D474C" transform="translate(146,158)"/>
<path d="M0 0 C0.66 0 1.32 0 2 0 C5 3.46153846 5 3.46153846 5 6 C4.34 6 3.68 6 3 6 C3 5.34 3 4.68 3 4 C2.34 4 1.68 4 1 4 C0.67 4.66 0.34 5.32 0 6 C-0.66 4.68 -1.32 3.36 -2 2 C-1.34 1.34 -0.68 0.68 0 0 Z " fill="#575255" transform="translate(177,153)"/>
<path d="M0 0 C2.31 0 4.62 0 7 0 C5.6875 1.5 5.6875 1.5 4 3 C3.01 3 2.02 3 1 3 C0.01 3.33 -0.98 3.66 -2 4 C-1.34 2.68 -0.68 1.36 0 0 Z " fill="#3D3839" transform="translate(182,141)"/>
<path d="M0 0 C0.33 1.32 0.66 2.64 1 4 C-2.63 4 -6.26 4 -10 4 C-6.68822777 2.34411389 -4.51842094 1.6656472 -1 1 C-0.67 0.67 -0.34 0.34 0 0 Z " fill="#9A9999" transform="translate(158,74)"/>
<path d="M0 0 C0.66 0 1.32 0 2 0 C1.34 2.97 0.68 5.94 0 9 C-0.66 8.67 -1.32 8.34 -2 8 C-2.125 5.125 -2.125 5.125 -2 2 C-1.34 1.34 -0.68 0.68 0 0 Z " fill="#807A7C" transform="translate(163,61)"/>
<path d="M0 0 C1.98 0 3.96 0 6 0 C6.33 0.99 6.66 1.98 7 3 C4.36 2.67 1.72 2.34 -1 2 C-0.67 1.34 -0.34 0.68 0 0 Z " fill="#5A5657" transform="translate(62,55)"/>
<path d="M0 0 C1.65 0 3.3 0 5 0 C4.67 1.32 4.34 2.64 4 4 C2.68 3.67 1.36 3.34 0 3 C0 2.01 0 1.02 0 0 Z " fill="#353535" transform="translate(88,73)"/>
<path d="M0 0 C0.66 0 1.32 0 2 0 C2.33 1.98 2.66 3.96 3 6 C2.01 6.33 1.02 6.66 0 7 C-1.04449911 3.86650268 -0.93423645 3.01031744 0 0 Z " fill="#837F80" transform="translate(57,67)"/>
<path d="M0 0 C1.32 0 2.64 0 4 0 C4.33 1.32 4.66 2.64 5 4 C3.35 3.67 1.7 3.34 0 3 C0 2.01 0 1.02 0 0 Z " fill="#504B4E" transform="translate(125,159)"/>
<path d="M0 0 C2 2 2 2 2 5 C0.35 4.67 -1.3 4.34 -3 4 C-3 3.34 -3 2.68 -3 2 C-2.01 1.34 -1.02 0.68 0 0 Z " fill="#4A4047" transform="translate(15,143)"/>
<path d="M0 0 C0.33 1.32 0.66 2.64 1 4 C-1.31 4.33 -3.62 4.66 -6 5 C-6 3 -6 3 -4.6875 1.375 C-3 0 -3 0 0 0 Z " fill="#615B5C" transform="translate(189,142)"/>
<path d="M0 0 C0.66 0 1.32 0 2 0 C2.33 3.3 2.66 6.6 3 10 C1 8 1 8 0.875 5.375 C0.91625 4.59125 0.9575 3.8075 1 3 C0.34 3 -0.32 3 -1 3 C-0.67 2.01 -0.34 1.02 0 0 Z " fill="#D5D1D2" transform="translate(66,86)"/>
<path d="M0 0 C-2.35953094 2.35953094 -3.77895617 2.49141413 -7 3 C-7.66 2.01 -8.32 1.02 -9 0 C-5.62182575 -0.84454356 -3.32534757 -1.10844919 0 0 Z " fill="#C9C4C5" transform="translate(41,79)"/>
<path d="M0 0 C-0.33 0.99 -0.66 1.98 -1 3 C-3.97 2.67 -6.94 2.34 -10 2 C-6.00889681 0.0044484 -4.30013434 -0.19546065 0 0 Z " fill="#E5D2E1" transform="translate(59,76)"/>
<path d="M0 0 C0.33 0.99 0.66 1.98 1 3 C1.83333333 5.16666667 1.83333333 5.16666667 4 6 C3 7 3 7 0.4375 7.0625 C-0.7690625 7.0315625 -0.7690625 7.0315625 -2 7 C-1.125 2.25 -1.125 2.25 0 0 Z " fill="#726A6F" transform="translate(56,68)"/>
<path d="M0 0 C0.66 0 1.32 0 2 0 C2 1.98 2 3.96 2 6 C0.68 6 -0.64 6 -2 6 C-1.34 4.02 -0.68 2.04 0 0 Z " fill="#797979" transform="translate(82,72)"/>
<path d="M0 0 C0.33 1.32 0.66 2.64 1 4 C-0.98 4 -2.96 4 -5 4 C-4.67 3.01 -4.34 2.02 -4 1 C-2 0 -2 0 0 0 Z " fill="#A29C9E" transform="translate(74,44)"/>
<path d="M0 0 C0.99 0 1.98 0 3 0 C3 0.66 3 1.32 3 2 C3.66 2 4.32 2 5 2 C4.67 3.32 4.34 4.64 4 6 C3.34 6 2.68 6 2 6 C0 3 0 3 0 0 Z " fill="#CCCCCC" transform="translate(112,37)"/>
<path d="M0 0 C1.32 0.33 2.64 0.66 4 1 C4 1.66 4 2.32 4 3 C4.99 3.33 5.98 3.66 7 4 C5.02 4.99 5.02 4.99 3 6 C2.01 4.02 1.02 2.04 0 0 Z " fill="#BAB6B9" transform="translate(52,17)"/>
</svg>
