<?xml version="1.0" encoding="UTF-8"?>
<svg version="1.1" xmlns="http://www.w3.org/2000/svg" width="512" height="512">
<path d="M0 0 C1.97226562 -0.00580078 1.97226562 -0.00580078 3.984375 -0.01171875 C4.66435547 -0.00543457 5.34433594 0.00084961 6.04492188 0.00732422 C8.11915892 0.02339225 10.19144796 0.00745018 12.265625 -0.01171875 C13.58046875 -0.00785156 14.8953125 -0.00398437 16.25 0 C18.04824219 0.00507568 18.04824219 0.00507568 19.8828125 0.01025391 C23.40635433 0.43212375 25.28688036 1.31353843 28.125 3.3984375 C32.20717426 8.77372286 33.56430449 15.96648023 35.125 22.3984375 C36.218125 22.6253125 37.31125 22.8521875 38.4375 23.0859375 C43.13634146 24.24386629 47.3480777 26.20545751 51.70703125 28.27734375 C54.18174248 29.47966328 54.18174248 29.47966328 57.125 30.3984375 C59.56337588 29.29912175 61.88847534 28.14238492 64.25 26.8984375 C73.71474601 22.25039933 73.71474601 22.25039933 79.16015625 23.5078125 C83.21823304 25.34725884 86.04303293 28.24492477 89.125 31.3984375 C90.07375 32.31238281 91.0225 33.22632813 92 34.16796875 C102.35771855 44.21640132 102.35771855 44.21640132 102.625 50.8984375 C102.57384276 56.66215284 100.18643957 60.69740353 97.2421875 65.5390625 C95.83786025 68.35520401 95.83786025 68.35520401 96.75 71.2734375 C97.20375 72.3046875 97.6575 73.3359375 98.125 74.3984375 C98.63080633 75.66278617 99.13324945 76.92848404 99.6328125 78.1953125 C100.44713132 80.19337283 101.26678717 82.18911711 102.08984375 84.18359375 C104.125 89.18626847 104.125 89.18626847 104.125 91.3984375 C104.92164063 91.56859375 105.71828125 91.73875 106.5390625 91.9140625 C112.55171223 93.2892184 117.32991983 94.46401274 122.125 98.3984375 C122.723125 98.8109375 123.32125 99.2234375 123.9375 99.6484375 C125.91487074 102.56245753 125.74619537 105.93706677 126.125 109.3984375 C127.01068161 109.38955505 127.89636322 109.38067261 128.80888367 109.371521 C137.20769866 109.29094844 145.60638148 109.23025808 154.00549603 109.19118881 C158.32227424 109.17042675 162.63872972 109.14232093 166.95532227 109.09667969 C171.1310163 109.05281094 175.30640242 109.02921513 179.48230934 109.01892853 C181.06532441 109.01160996 182.64832507 108.9973214 184.23120689 108.97551727 C198.71334365 108.78419197 211.07383844 110.62155357 221.80078125 121.0234375 C227.78710936 127.44054357 231.24078216 135.49677046 231.25922108 144.27682495 C231.26367892 145.26318971 231.26813676 146.24955446 231.27272969 147.26580906 C231.27245315 148.88776141 231.27245315 148.88776141 231.27217102 150.54248047 C231.27584771 151.6930767 231.2795244 152.84367292 231.2833125 154.0291357 C231.29243013 157.22358278 231.29704703 160.41799966 231.29970181 163.61245751 C231.30360915 167.05778312 231.31318731 170.5030939 231.32191467 173.94841003 C231.34166877 182.27019208 231.35174476 190.59197533 231.36064246 198.91377497 C231.36502781 202.83524816 231.37039405 206.75672001 231.37563133 210.67819214 C231.39264391 223.71914896 231.40713665 236.76010495 231.41438007 249.80107117 C231.41628989 253.18460084 231.41821023 256.56813051 231.42016602 259.95166016 C231.42064976 260.79259441 231.4211335 261.63352865 231.4216319 262.49994576 C231.42992684 276.1133648 231.45525456 289.72669582 231.48774669 303.34007645 C231.52085335 317.32529626 231.53883216 331.3104714 231.54202431 345.29573059 C231.54418627 353.14437315 231.55288848 360.99288741 231.57848549 368.8414917 C231.60024198 375.52787872 231.60821875 382.21410628 231.59851871 388.90052468 C231.593988 392.30866225 231.59578754 395.71647118 231.61528015 399.12456322 C231.63301922 402.82949207 231.62588168 406.53359529 231.61274719 410.23852539 C231.62371644 411.30198118 231.63468568 412.36543697 231.64598733 413.4611187 C231.5552094 424.11664865 228.86756408 434.70561152 221.125 442.3984375 C210.62526248 451.27044739 201.27665471 452.85164629 187.79272461 452.73901367 C186.36284401 452.73816603 184.93296212 452.73864521 183.50308228 452.74034119 C179.64618393 452.74119724 175.789569 452.72363527 171.93273616 452.70261931 C167.89288083 452.68378698 163.85301806 452.68209693 159.81312561 452.67854309 C152.17413895 452.6692418 144.53528204 452.64465415 136.89635235 452.61449462 C128.19499743 452.58089075 119.49363611 452.56444959 110.79223239 452.54940832 C92.90308154 452.51810274 75.01405123 452.46537977 57.125 452.3984375 C57.31292114 452.92017548 57.50084229 453.44191345 57.69445801 453.97946167 C59.64467344 459.39591601 61.59047654 464.81394044 63.53369141 470.23291016 C64.26009206 472.25675662 64.98762778 474.28019605 65.71630859 476.30322266 C66.76175801 479.20630057 67.80315511 482.11080404 68.84375 485.015625 C69.17185669 485.92400116 69.49996338 486.83237732 69.8380127 487.76828003 C70.28847961 489.02936081 70.28847961 489.02936081 70.74804688 490.31591797 C71.01452026 491.05760223 71.28099365 491.7992865 71.55554199 492.56344604 C72.125 494.3984375 72.125 494.3984375 72.125 496.3984375 C73.63852051 496.3670166 73.63852051 496.3670166 75.18261719 496.33496094 C78.93214687 496.26246965 82.68161482 496.2166053 86.43164062 496.17871094 C88.05349143 496.15861606 89.67526997 496.13133496 91.296875 496.09667969 C93.6303898 496.0480648 95.96294557 496.02544861 98.296875 496.0078125 C99.01993835 495.98716736 99.74300171 495.96652222 100.48797607 495.94525146 C103.97445764 495.94370334 105.78485498 496.135383 108.58105469 498.29785156 C110.25292201 500.57247939 110.66855512 501.61090972 110.625 504.3984375 C110.6353125 505.0584375 110.645625 505.7184375 110.65625 506.3984375 C109.85735134 509.406056 108.58190263 510.49427472 106.125 512.3984375 C103.36017818 512.79135235 100.99341082 512.93932617 98.22998047 512.90637207 C97.42900877 512.91261203 96.62803707 512.918852 95.8027935 512.92528105 C93.11562646 512.94125133 90.42936146 512.92859134 87.7421875 512.91601562 C85.81707225 512.92143496 83.89196114 512.92855655 81.96685791 512.93725586 C76.73548494 512.95551455 71.50442698 512.94841113 66.2730484 512.93573952 C60.80295451 512.92562506 55.3328879 512.93500087 49.86279297 512.94128418 C40.67605742 512.94856511 31.48945042 512.93896115 22.30273438 512.91992188 C11.67578517 512.89815233 1.04914292 512.90520338 -9.57779884 512.9272275 C-18.69551537 512.94536876 -27.8131394 512.94794604 -36.93086815 512.93747282 C-42.37927661 512.9312309 -47.82754071 512.93042149 -53.27593994 512.94361877 C-58.39779303 512.95515808 -63.51924969 512.94718658 -68.64105988 512.92404175 C-70.52284333 512.9187444 -72.40466005 512.92028591 -74.28643036 512.92909241 C-76.85140024 512.93999115 -79.41509245 512.92635381 -81.97998047 512.90637207 C-82.72822649 512.91529496 -83.47647251 512.92421784 -84.24739265 512.93341112 C-87.72329316 512.88073048 -89.55012948 512.65022052 -92.3352356 510.49169159 C-94.00514718 508.2215071 -94.41849018 507.18180902 -94.375 504.3984375 C-94.3853125 503.7384375 -94.395625 503.0784375 -94.40625 502.3984375 C-93.60752393 499.39146878 -92.3326267 498.29906729 -89.875 496.3984375 C-87.12413809 496.04903821 -84.7866444 495.92958571 -82.046875 496.0078125 C-81.29786926 496.01347229 -80.54886353 496.01913208 -79.77716064 496.02496338 C-77.392448 496.04729693 -75.00925592 496.09748364 -72.625 496.1484375 C-71.00523009 496.16850659 -69.38543654 496.18675665 -67.765625 496.203125 C-63.80150034 496.24715126 -59.83850768 496.31615452 -55.875 496.3984375 C-55.65783325 495.62234131 -55.65783325 495.62234131 -55.4362793 494.83056641 C-52.88583773 486.01894311 -49.76167267 477.41206963 -46.6875 468.7734375 C-46.12282642 467.18106774 -45.55837155 465.58862041 -44.99414062 463.99609375 C-43.62361305 460.12930956 -42.25013175 456.26358659 -40.875 452.3984375 C-41.61215146 452.40212467 -42.34930292 452.40581184 -43.1087923 452.40961075 C-61.0798266 452.49810846 -79.05081717 452.56421829 -97.0220232 452.60568619 C-105.71292276 452.62627493 -114.40367649 452.65432461 -123.09448242 452.70019531 C-130.67307201 452.74017644 -138.25155593 452.7658971 -145.83024806 452.77479148 C-149.8398187 452.77998724 -153.84908717 452.79212126 -157.85856056 452.82135773 C-161.64002055 452.8487056 -165.4210567 452.85684389 -169.2026062 452.85086823 C-171.23662247 452.85247656 -173.27059361 452.8738972 -175.30448914 452.89611816 C-186.69972748 452.84538966 -196.43687031 450.37293369 -204.875 442.3984375 C-213.4477634 433.52731807 -215.48358037 422.22703226 -215.38293457 410.28562927 C-215.38917453 409.12749208 -215.3954145 407.96935489 -215.40184355 406.77612263 C-215.41769126 402.9279287 -215.40520094 399.08037542 -215.39257812 395.23217773 C-215.39580409 392.46010037 -215.40498377 389.6880495 -215.41381836 386.91598511 C-215.43153957 380.18814192 -215.42779249 373.46047793 -215.4161678 366.73262792 C-215.40710916 361.26197921 -215.40591994 355.79138047 -215.41026306 350.32072639 C-215.41087599 349.54010099 -215.41148893 348.75947559 -215.41212043 347.95519488 C-215.41339942 346.36904532 -215.41469627 344.78289577 -215.4160108 343.19674624 C-215.42739765 328.34825781 -215.41433233 313.49986841 -215.39280933 298.65139622 C-215.37493654 285.92746005 -215.3780476 273.20366987 -215.39648438 260.47973633 C-215.41791859 245.68036421 -215.42630288 230.8810787 -215.41403532 216.08169323 C-215.41276121 214.50190645 -215.41150372 212.92211965 -215.41026306 211.34233284 C-215.40964596 210.56517732 -215.40902886 209.7880218 -215.40839306 208.98731611 C-215.40494806 203.52656653 -215.41075002 198.06587217 -215.42018127 192.60513115 C-215.43143089 185.9455986 -215.42829913 179.28625449 -215.4070583 172.62674337 C-215.39658777 169.23279745 -215.39453112 165.83942326 -215.40565491 162.44544029 C-215.41662412 158.75807053 -215.40282836 155.07157643 -215.38293457 151.38426208 C-215.39185746 150.32335041 -215.40078034 149.26243873 -215.40997362 148.16937822 C-215.28689229 136.36622963 -211.33107087 127.23521034 -203.28515625 118.71484375 C-195.60104813 111.46466174 -185.89591737 109.26714058 -175.60620117 109.28491211 C-174.89346039 109.28476608 -174.1807196 109.28462006 -173.44638062 109.2844696 C-171.1035451 109.28516318 -168.76079028 109.2929295 -166.41796875 109.30078125 C-164.78843733 109.3026474 -163.15890535 109.30407037 -161.52937317 109.30506897 C-157.25011636 109.30887862 -152.97089374 109.31869562 -148.69165039 109.32977295 C-144.32113101 109.34002048 -139.95060607 109.34457374 -135.58007812 109.34960938 C-127.0117031 109.36031932 -118.44335581 109.37737705 -109.875 109.3984375 C-109.66484253 107.4788623 -109.66484253 107.4788623 -109.45043945 105.52050781 C-109.08551932 102.18733279 -108.77126378 100.33653866 -106.0625 98.1484375 C-101.20863073 94.44736218 -94.04327681 91.3984375 -87.875 91.3984375 C-87.71644531 90.80417969 -87.55789062 90.20992188 -87.39453125 89.59765625 C-86.00774548 84.67111894 -84.36175288 80.22809693 -82.0625 75.6484375 C-80.14222581 71.61163838 -80.14222581 71.61163838 -80.3125 67.2109375 C-81.16797488 65.67108271 -82.02935007 64.13425031 -82.91796875 62.61328125 C-85.83357568 57.31887589 -87.16329314 52.44204795 -85.875 46.3984375 C-82.90692625 41.06771798 -78.78847072 36.9453501 -74.5 32.6484375 C-73.85289062 31.97683594 -73.20578125 31.30523438 -72.5390625 30.61328125 C-68.89881637 26.9510175 -66.10060403 24.43909833 -60.875 23.3984375 C-55.0522757 23.3984375 -51.61868187 25.01861224 -46.5 27.7734375 C-41.98845739 30.06933877 -41.98845739 30.06933877 -37.1328125 29.78515625 C-34.60938258 28.45269092 -32.27109842 26.94558714 -29.875 25.3984375 C-28.23004903 24.7374296 -26.56263772 24.12877639 -24.875 23.5859375 C-24.153125 23.35261719 -23.43125 23.11929687 -22.6875 22.87890625 C-20.875 22.3984375 -20.875 22.3984375 -18.875 22.3984375 C-18.70484375 21.6971875 -18.5346875 20.9959375 -18.359375 20.2734375 C-14.55105912 5.36428598 -14.55105912 5.36428598 -9.72607422 1.81982422 C-6.26590996 0.09477915 -3.8564842 0.01088524 0 0 Z " fill="#000001" transform="translate(247.875,-0.3984375)"/>
<path d="M0 0 C26.4 0 52.8 0 80 0 C80.99 1.98 81.98 3.96 83 6 C82.03389786 8.62706637 81.11694609 10.53388782 79.6875 12.875 C75.64419652 20.05210006 75.64419652 20.05210006 76 28 C80.71960452 36.04511048 88.6442707 44.75066332 97 49 C104.44973791 50.66553933 109.97441924 47.91593815 116.3359375 44.21484375 C119 43 119 43 121.02734375 43.16796875 C124.44281397 44.60855322 127.77904186 46.17785087 131.1171875 47.7890625 C133.79354926 48.9132795 135.97288999 49.31683915 138.8125 49.75 C141.0078125 50.39453125 141.0078125 50.39453125 143 52 C144.7266097 55.42124515 145.82386878 59.05741701 146.7980957 62.75488281 C147.81737025 66.4401685 148.67594792 68.64733891 151.30078125 71.50390625 C157.11980073 73.85732173 162.78656499 73.57639469 169 73.5 C170.258125 73.51546875 171.51625 73.5309375 172.8125 73.546875 C180.01220538 73.67884319 180.01220538 73.67884319 186.734375 71.48828125 C189.33994523 68.62664636 189.93023543 66.65807173 190.74609375 62.95727539 C191.80199535 58.20111396 192.88034411 53.58598367 196.92773438 50.55761719 C201.38244727 48.25659708 206.08705086 46.78833408 210.93652344 45.55859375 C213.22987772 44.98628206 213.22987772 44.98628206 216.203125 43.66015625 C220.02727399 42.7575289 221.44430476 43.86477992 224.75 45.875 C230.31665021 48.86500766 234.71846555 50.56771743 241 49 C244.12145199 47.43634581 246.47758323 45.39507146 249 43 C249.77730469 42.27683594 250.55460938 41.55367187 251.35546875 40.80859375 C258.91400273 33.74132248 258.91400273 33.74132248 262.625 24.375 C262.41958911 19.27885374 259.6414693 15.24298298 257.2734375 10.8515625 C255.52757821 6.94212298 255.66742846 4.99771461 257 1 C257.33 0.67 257.66 0.34 258 0 C284.4 0 310.8 0 338 0 C338 79.2 338 158.4 338 240 C226.46 240 114.92 240 0 240 C0 160.8 0 81.6 0 0 Z " fill="#E9F3FA" transform="translate(87,161)"/>
<path d="M0 0 C5.28 0 10.56 0 16 0 C16.37511719 1.10859375 16.75023437 2.2171875 17.13671875 3.359375 C17.65281444 4.82321005 18.16978801 6.2867358 18.6875 7.75 C19.05391602 8.84441406 19.05391602 8.84441406 19.42773438 9.9609375 C21.10344091 14.62746202 22.60607046 17.34586337 27 20 C30.14945745 21.32799909 30.14945745 21.32799909 33.5625 22.375 C38.44483128 24.017797 42.89671581 25.8819795 47.4375 28.3125 C53.41432197 31.35086877 53.41432197 31.35086877 60 31 C63.11549669 29.50907196 66.13546387 27.93150705 69.1328125 26.21484375 C72.44005985 24.81354412 73.67350726 24.73096462 77 26 C79.2734375 27.671875 79.2734375 27.671875 81.375 29.75 C82.08398438 30.42546875 82.79296875 31.1009375 83.5234375 31.796875 C85 34 85 34 84.88671875 36.4609375 C83.65733138 39.98120969 81.89447783 43.06978693 80.05859375 46.3046875 C78.09524891 51.30360978 78.56197831 55.3829469 80.609375 60.234375 C81.31048946 61.74541185 82.02453447 63.25050222 82.75 64.75 C83.49413365 66.33962932 84.23503504 67.93077582 84.97265625 69.5234375 C85.32730957 70.28881836 85.68196289 71.05419922 86.04736328 71.84277344 C87.62417084 75.41342223 88.80838963 79.09778326 89.91796875 82.8359375 C92.63476609 88.26953218 97.85676491 89.91442558 103.3125 91.75 C105.519375 92.4925 107.72625 93.235 110 94 C110 98.95 110 103.9 110 109 C108.515 109.5775 107.03 110.155 105.5 110.75 C103.6659227 111.49817884 101.83258392 112.2481707 100 113 C99.23945313 113.28875 98.47890625 113.5775 97.6953125 113.875 C93.00648602 115.8566927 90.91397767 117.84150636 88.92578125 122.52734375 C88.62027344 123.34332031 88.31476563 124.15929687 88 125 C87.40251953 126.54880859 87.40251953 126.54880859 86.79296875 128.12890625 C85.93013782 130.37852285 85.07857656 132.63249394 84.23828125 134.890625 C83.20191383 137.49298609 82.06279886 139.82014336 80.6875 142.25 C78.52004911 146.52246493 77.95209441 150.29573318 79 155 C80.43343277 157.97184934 82.01401886 160.73631536 83.78515625 163.51953125 C85 166 85 166 84.96875 168.02734375 C83.59796256 170.81866495 81.67673121 172.60538419 79.4375 174.75 C78.19806641 175.94882812 78.19806641 175.94882812 76.93359375 177.171875 C76.29550781 177.77515625 75.65742188 178.3784375 75 179 C71.49290215 177.89876135 68.3529892 176.73705247 65.1875 174.875 C60.61221159 172.61315629 57.0334722 171.8847117 52 173 C48.13140457 174.59845262 44.40995916 176.38799833 40.66796875 178.2578125 C36.94099673 180.09384472 33.19735718 181.26867756 29.1484375 182.19921875 C25.53139126 183.54739053 22.87201448 185.3388613 21.04199219 188.82495117 C20.17655305 190.94617961 19.41481087 193.07766252 18.6875 195.25 C18.42388672 195.99507812 18.16027344 196.74015625 17.88867188 197.5078125 C17.24496021 199.33361286 16.62051176 201.16618517 16 203 C10.72 203 5.44 203 0 203 C-0.36351562 201.89140625 -0.72703125 200.7828125 -1.1015625 199.640625 C-1.60830182 198.17671141 -2.11617449 196.71318978 -2.625 195.25 C-2.97884766 194.15558594 -2.97884766 194.15558594 -3.33984375 193.0390625 C-5.16210503 187.89935118 -6.97183051 185.5630207 -12 183 C-14.22346287 182.11746438 -16.47621805 181.30585179 -18.75 180.5625 C-23.1695095 179.0676659 -27.18201504 177.46608651 -31.25 175.1875 C-36.26616745 172.6222287 -40.44463215 171.80608323 -46 173 C-50.17464231 174.71635176 -54.09316718 176.74450889 -58 179 C-59.73417089 177.53862003 -61.45911765 176.06850968 -63.171875 174.58203125 C-64.59806059 173.34783218 -66.04513751 172.13776156 -67.5 170.9375 C-69 169 -69 169 -68.75390625 166.71484375 C-67.68184769 162.85432199 -65.86977703 159.4748591 -64.05859375 155.9140625 C-62.22422926 150.86448349 -62.43767293 146.83808564 -64.609375 141.984375 C-65.31023151 140.56657512 -66.02429147 139.15524142 -66.75 137.75 C-69.22429094 132.78901971 -71.45469507 127.99107506 -73.125 122.6875 C-74.30100517 119.36051102 -74.91001345 118.08773688 -77.5 115.5625 C-81.74318225 113.66822221 -86.05004296 112.20226226 -90.48828125 110.83203125 C-93 110 -93 110 -94 109 C-94.07313567 106.46950598 -94.09247527 103.96695163 -94.0625 101.4375 C-94.05798828 100.72658203 -94.05347656 100.01566406 -94.04882812 99.28320312 C-94.03700864 97.52209987 -94.01907263 95.76103964 -94 94 C-89.42341381 91.95514234 -84.96030415 90.33045404 -80.11328125 89.0390625 C-74.64386578 86.34984898 -72.92631734 80.80199754 -71.0625 75.375 C-69.30255096 70.42464878 -67.43916297 65.66416147 -65.125 60.9375 C-63.16806983 56.64117774 -62.07821869 53.77650316 -63 49 C-64.48405211 45.84847361 -66.06897063 42.80107002 -67.78515625 39.76953125 C-69 37 -69 37 -68.9140625 34.90625 C-66.93498948 30.77895241 -63.61093559 27.73332416 -60 25 C-56.50632271 24.62025247 -54.75242634 25.58829502 -51.72265625 27.24609375 C-46.71815372 29.96811131 -43.12888149 31.83182147 -37.39453125 30.77734375 C-33.45781984 29.4993575 -29.90703225 27.56978051 -26.26953125 25.61328125 C-21.6837069 23.35050293 -16.91176629 21.87152275 -12.03125 20.37109375 C-7.17377911 18.17396452 -5.53633357 15.28296636 -3.515625 10.44921875 C-3.09796875 9.20785156 -2.6803125 7.96648438 -2.25 6.6875 C-1.5075 4.480625 -0.765 2.27375 0 0 Z " fill="#0491FA" transform="translate(248,16)"/>
<path d="M0 0 C1.66863979 0.01120814 3.33729949 0.01974067 5.00596619 0.02572632 C9.37120282 0.04849793 13.73521757 0.10731725 18.09997559 0.1739502 C22.56452918 0.23562711 27.02928265 0.26279522 31.49414062 0.29296875 C40.23493209 0.35707467 48.97473539 0.4593088 57.71484375 0.5859375 C57.96878906 1.28025879 58.22273438 1.97458008 58.484375 2.68994141 C58.82855469 3.59663574 59.17273438 4.50333008 59.52734375 5.4375 C59.86378906 6.33807129 60.20023437 7.23864258 60.546875 8.16650391 C62.88580504 13.0115701 67.11290053 14.01252603 71.8359375 15.703125 C74.78330265 16.70988106 77.73901629 17.66729126 80.71484375 18.5859375 C80.71484375 18.9159375 80.71484375 19.2459375 80.71484375 19.5859375 C79.13083771 19.59140594 79.13083771 19.59140594 77.51483154 19.59698486 C67.56777921 19.63391026 57.62103717 19.69165592 47.67422104 19.76984024 C42.56030739 19.80936618 37.44656725 19.84152953 32.33251953 19.85693359 C27.39805783 19.8720665 22.46407299 19.906452 17.5298233 19.95424652 C15.64639681 19.96909512 13.76290225 19.9769805 11.87941742 19.97782135 C9.24298636 19.98018234 6.6078825 20.00719073 3.97167969 20.04003906 C3.19124802 20.0350087 2.41081635 20.02997833 1.60673523 20.02479553 C-1.52634247 20.08527814 -3.80524912 20.28371503 -6.48473644 21.97112751 C-9.30868873 26.07244801 -8.83992036 30.07346324 -8.79981995 34.94187927 C-8.80676547 36.00757631 -8.813711 37.07327335 -8.820867 38.17126423 C-8.83921248 41.75427953 -8.8288513 45.33663836 -8.81860352 48.91967773 C-8.82565814 51.48355609 -8.83440122 54.04743028 -8.8447113 56.61129761 C-8.86492185 62.85964545 -8.86621988 69.10774932 -8.85808576 75.3561173 C-8.85178924 80.43418198 -8.85291958 85.51219353 -8.85935783 90.59025764 C-8.86025949 91.31264135 -8.86116114 92.03502506 -8.86209012 92.77929919 C-8.8639413 94.24676141 -8.86580386 95.71422362 -8.86767768 97.18168581 C-8.8842625 110.94740775 -8.87553131 124.71302724 -8.8586921 138.47874302 C-8.84399584 151.07522745 -8.85862118 163.67147334 -8.88746227 176.26792704 C-8.91684886 189.19883578 -8.92783064 202.1296344 -8.91828007 215.06057507 C-8.9172575 216.52298389 -8.91626289 217.98539273 -8.91529655 219.44780159 C-8.91458197 220.52712549 -8.91458197 220.52712549 -8.91385295 221.62825392 C-8.91168776 226.70001582 -8.92149846 231.77167359 -8.93606758 236.8434124 C-8.95540403 243.67004336 -8.94852361 250.49615986 -8.92386818 257.32279587 C-8.91884533 259.8314485 -8.92238794 262.34013473 -8.93501663 264.8487606 C-8.95086762 268.26736061 -8.93606936 271.68448283 -8.91334534 275.10301208 C-8.92518107 276.1012569 -8.93701679 277.09950172 -8.94921118 278.12799639 C-8.93678914 279.04465108 -8.9243671 279.96130577 -8.91156864 280.90573788 C-8.91116411 282.08892161 -8.91116411 282.08892161 -8.9107514 283.29600805 C-7.94722927 286.82288592 -6.11778416 288.35114778 -3.28515625 290.5859375 C-0.33598302 291.32743729 -0.33598302 291.32743729 2.90713501 291.2151432 C4.16106237 291.22818194 5.41498974 291.24122068 6.7069149 291.25465453 C8.09579195 291.24384457 9.48466537 291.2325613 10.87353516 291.22085571 C12.35097528 291.22661666 13.82840824 291.2345576 15.30582619 291.24449193 C19.36683447 291.26539267 23.42725637 291.25503576 27.48826694 291.23956084 C31.86736109 291.22826433 36.24635325 291.24570157 40.62542725 291.25946045 C49.2044476 291.28171561 57.78324948 291.27688155 66.36227846 291.26239724 C73.33343584 291.25111395 80.30453191 291.24957016 87.2756958 291.25501633 C88.76288319 291.25616557 88.76288319 291.25616557 90.28011477 291.25733804 C92.29412446 291.25893664 94.30813414 291.2605577 96.32214379 291.262201 C115.21591145 291.27646517 134.10955789 291.26005529 153.00330567 291.23319916 C169.22166554 291.21085979 185.43984649 291.21473973 201.65820312 291.23779297 C220.48348373 291.26453917 239.30865805 291.27509181 258.133955 291.25973165 C260.14063388 291.25813887 262.14731278 291.25656702 264.1539917 291.25501633 C265.63505116 291.25385926 265.63505116 291.25385926 267.14603102 291.25267882 C274.11033973 291.24835828 281.07458111 291.255656 288.03887939 291.26741409 C296.5239016 291.28142452 305.00869247 291.27766989 313.49368811 291.25101037 C317.82449166 291.23785248 322.15490928 291.23275315 326.48571014 291.24925613 C330.4484153 291.26412829 334.4103759 291.25601361 338.37301326 291.22936837 C339.8083328 291.22377167 341.24371493 291.22665058 342.67899442 291.23874731 C344.626804 291.25390758 346.57478921 291.23539667 348.52255249 291.2151432 C349.60546255 291.21433144 350.68837261 291.21351968 351.80409813 291.21268332 C355.75276546 290.36245075 357.2551206 288.7326201 359.71484375 285.5859375 C360.44529088 283.30735359 360.44529088 283.30735359 360.34125614 280.90573788 C360.3598892 279.53075584 360.3598892 279.53075584 360.37889868 278.12799639 C360.36706295 277.12975157 360.35522722 276.13150675 360.34303284 275.10301208 C360.35012722 274.03575506 360.35722161 272.96849803 360.36453098 271.86889988 C360.38215738 268.28650308 360.36398135 264.70518453 360.34594727 261.12280273 C360.35108423 258.55715439 360.35836382 255.99150956 360.36763 253.4258728 C360.38425218 247.1772651 360.37749154 240.92905834 360.35954178 234.68046575 C360.34551864 229.60288857 360.34162235 224.52539628 360.34498405 219.44780159 C360.3454615 218.72526465 360.34593894 218.00272771 360.34643085 217.2582957 C360.34745717 215.79050928 360.34851253 214.32272287 360.34959661 212.85493649 C360.35816452 199.87564051 360.34148515 186.89649556 360.31176758 173.91723633 C360.28292394 161.31951557 360.2758493 148.72201231 360.29125977 136.12426758 C360.30801509 122.40832522 360.31206346 108.69248614 360.29454941 94.9765411 C360.292705 93.51444663 360.29087027 92.05235214 360.28904533 90.59025764 C360.28813324 89.87086265 360.28722115 89.15146766 360.28628143 88.41027282 C360.28067231 83.33755328 360.28398663 78.2648841 360.29059029 73.19216728 C360.29912225 66.36720538 360.28618648 59.54260452 360.25874138 52.71767807 C360.25183757 50.20861177 360.25178078 47.69951621 360.25895691 45.19045067 C360.26760465 41.77390584 360.25177375 38.35834181 360.22950745 34.94187927 C360.2418686 33.44116596 360.2418686 33.44116596 360.25447947 31.91013521 C360.23724917 26.60772336 360.23724917 26.60772336 357.91442394 21.97112751 C354.5764437 19.8690278 351.28058703 20.01540017 347.45800781 20.04003906 C346.62837021 20.02970139 345.7987326 20.01936371 344.94395447 20.00871277 C342.20592856 19.97925122 339.4686408 19.97778491 336.73046875 19.9765625 C334.83045031 19.9615831 332.9304449 19.94485645 331.03045654 19.92645264 C326.03276984 19.88273995 321.0352588 19.86277133 316.03741455 19.84771729 C310.93629554 19.82816034 305.83536661 19.78618875 300.734375 19.74609375 C290.72792316 19.67074918 280.72151378 19.62048341 270.71484375 19.5859375 C273.90649106 16.39429019 278.50801651 15.52968923 282.7734375 14.23632812 C286.69708526 12.89592912 289.0096877 11.76838487 291.16015625 8.12890625 C292.3115537 5.50499296 293.09281486 3.33228929 293.71484375 0.5859375 C303.33804597 0.44651433 312.96089704 0.34010346 322.58489132 0.27506447 C327.05443603 0.24383832 331.52328645 0.20152731 335.99243164 0.13330078 C340.31078919 0.06779368 344.62848174 0.03216599 348.94729805 0.01667404 C350.58949811 0.0056435 352.23166445 -0.01589679 353.87357903 -0.04844284 C370.11133309 -0.35731517 370.11133309 -0.35731517 375.82869345 4.59731483 C382.29415222 11.4140345 383.44611966 19.15886374 383.34303284 28.19921875 C383.35012722 29.32776779 383.35722161 30.45631683 383.36453098 31.61906433 C383.38205309 35.37920776 383.36403414 39.13830964 383.34594727 42.8984375 C383.348331 45.60288294 383.35818292 48.30729 383.36763 51.01171875 C383.38596071 57.58179627 383.37752509 64.15157538 383.35954178 70.72164345 C383.34548735 76.0636365 383.34162907 81.40554883 383.34498405 86.74755859 C383.3454615 87.50931617 383.34593894 88.27107374 383.34643085 89.05591488 C383.34745723 90.60365425 383.34851259 92.15139359 383.34959661 93.69913292 C383.35815443 107.36979396 383.34151861 121.04031141 383.31176758 134.7109375 C383.2829324 147.96099885 383.27584781 161.21085337 383.29125977 174.4609375 C383.3080398 188.90687693 383.31203778 203.35271826 383.29454941 217.79866028 C383.29270512 219.34054564 383.29087039 220.88243102 383.28904533 222.42431641 C383.28813324 223.18285384 383.28722115 223.94139128 383.28628143 224.7229147 C383.28068722 230.05536497 383.28397277 235.38776719 383.29059029 240.72021484 C383.29834041 247.22319726 383.29151075 253.72597647 383.26641525 260.22891808 C383.25395858 263.5437381 383.24988989 266.85798054 383.25895691 270.17285156 C383.26766864 273.77311656 383.2516644 277.3724675 383.22950745 280.97265625 C383.23774821 282.01060837 383.24598898 283.04856049 383.25447947 284.1179657 C383.17088197 291.49697488 382.06737337 298.8562256 376.96490103 304.53276062 C371.84017978 309.24939966 367.12894186 310.8346951 360.15611553 310.84320641 C359.18361874 310.84846552 359.18361874 310.84846552 358.19147554 310.85383087 C356.01596715 310.86314512 353.84072644 310.85822159 351.66520691 310.85336304 C350.09091722 310.85709929 348.51662938 310.86170071 346.94234449 310.86709368 C342.61366371 310.87934221 338.28506011 310.87906104 333.95636594 310.87670493 C329.28889672 310.87629723 324.6214524 310.88733142 319.95399475 310.89682007 C310.80854215 310.91344118 301.66311533 310.91893012 292.5176489 310.92004482 C285.08457523 310.92099477 277.65151008 310.92510238 270.2184391 310.93144608 C249.14956498 310.94906149 228.08071124 310.95828447 207.0118297 310.95678513 C205.30767444 310.95666526 205.30767444 310.95666526 203.5690918 310.95654297 C202.43160295 310.95646121 201.29411409 310.95637945 200.12215588 310.95629521 C181.68530973 310.95548221 163.24854525 310.97462246 144.81172272 311.0028197 C125.88607228 311.03153642 106.96046169 311.04536067 88.03478891 311.04363215 C77.407391 311.04296783 66.78007872 311.04847848 56.15270042 311.06998825 C47.10457177 311.08818409 38.05656755 311.09256052 29.00842854 311.0789694 C24.3917331 311.0724317 19.7752765 311.07235148 15.15860367 311.0896759 C10.93125533 311.10537624 6.70433582 311.10257424 2.47699813 311.08510764 C0.94874966 311.08203103 -0.57953056 311.08569504 -2.10774157 311.09682779 C-11.75252145 311.16242791 -18.8559866 310.91668116 -26.09765625 303.8359375 C-31.1108216 296.38780612 -31.72422732 289.96274201 -31.67956543 281.21316528 C-31.68565653 280.08632509 -31.69174764 278.9594849 -31.69802332 277.79849803 C-31.7146379 274.03239158 -31.70987954 270.26662379 -31.70507812 266.50048828 C-31.71078427 263.79634536 -31.72091326 261.09222269 -31.73074341 258.38809204 C-31.75176185 251.81113917 -31.75634034 245.23427452 -31.75455552 238.65729202 C-31.75324614 233.30954078 -31.75706101 227.96181698 -31.76448059 222.61407089 C-31.76657986 221.07165969 -31.76867746 219.52924848 -31.77077341 217.98683727 C-31.77181694 217.21905562 -31.77286047 216.45127397 -31.77393562 215.66022621 C-31.79282336 201.15088064 -31.79179223 186.64158566 -31.78496629 172.13223289 C-31.77939131 158.8701054 -31.80021689 145.60817112 -31.83332676 132.34608878 C-31.86709133 118.71556102 -31.88222869 105.08512574 -31.87760973 91.45455539 C-31.87536791 83.80722902 -31.88056608 76.16008124 -31.90550232 68.51279068 C-31.92655122 62.00243322 -31.93007204 55.49235228 -31.91120273 48.98198332 C-31.90206658 45.66299941 -31.90356356 42.34495085 -31.92155838 39.02593994 C-31.93975225 35.42105057 -31.92699811 31.81752553 -31.90661621 28.212677 C-31.91913406 27.17336064 -31.93165191 26.13404429 -31.94454908 25.06323349 C-31.8493455 17.18915077 -29.92959586 10.42822017 -24.39897966 4.59736741 C-17.5900193 -1.30351451 -8.43949712 -0.16728779 0 0 Z " fill="#2E5072" transform="translate(80.28515625,125.4140625)"/>
<path d="M0 0 C0.76441406 0.42410156 1.52882813 0.84820312 2.31640625 1.28515625 C12.66311884 7.57021517 18.93844484 16.44004711 22.60546875 27.890625 C24.79716572 39.60860881 22.65263427 50.06631729 16.6484375 60.3046875 C10.09705085 69.71086834 1.2481091 76.51442905 -10 79 C-23.22860403 80.14804141 -34.43985123 79.34834779 -45.05859375 70.74609375 C-54.24420533 62.48458797 -60.27861613 52.80804603 -61.203125 40.23828125 C-61.40841594 27.42470488 -57.58307376 16.92346041 -48.9375 7.3125 C-36.34115842 -4.57776862 -15.39038074 -8.93365681 0 0 Z " fill="#FDFDFD" transform="translate(275,80)"/>
<path d="M0 0 C2.19351968 1.39119201 4.2256889 2.87101781 6.265625 4.4765625 C6.85214844 4.89035156 7.43867188 5.30414063 8.04296875 5.73046875 C18.77943462 13.8862875 26.28880986 28.33773059 28.265625 41.4765625 C29.17968198 59.88524494 25.64555694 75.96522248 13.078125 89.9765625 C2.63360842 100.94321363 -11.46128051 107.43386227 -26.5390625 108.71484375 C-44.11562655 109.13972252 -58.80275094 102.86643 -71.484375 90.85546875 C-83.41991541 78.23612133 -88.42650608 63.58008797 -87.98046875 46.47265625 C-87.29615839 32.14299309 -80.69137515 18.68457946 -70.734375 8.4765625 C-50.1978618 -9.50365745 -23.96445405 -13.3516244 0 0 Z M-48.734375 12.4765625 C-49.49878906 12.90066406 -50.26320313 13.32476562 -51.05078125 13.76171875 C-61.30605278 19.99123225 -68.46771467 29.2355627 -71.34375 40.9609375 C-73.12121089 52.40778565 -71.15593329 63.50743292 -64.921875 73.3515625 C-58.57863587 81.98278589 -50.53781894 89.20261585 -39.734375 91.4765625 C-26.51137098 92.63311672 -14.27624041 91.94428005 -3.640625 83.2265625 C4.92701389 75.36118909 11.63853439 66.12218873 12.50390625 54.19140625 C12.76618905 40.84259202 9.5329959 30.19029783 0.23046875 20.31640625 C-10.20908974 10.46602919 -20.27175843 7.97189265 -34.23828125 8.19921875 C-39.70775822 8.42668924 -43.99939295 9.7280467 -48.734375 12.4765625 Z " fill="#010304" transform="translate(285.734375,67.5234375)"/>
<path d="M0 0 C4.29 0 8.58 0 13 0 C13 78.87 13 157.74 13 239 C120.25 239 227.5 239 338 239 C338 239.33 338 239.66 338 240 C226.46 240 114.92 240 0 240 C0 160.8 0 81.6 0 0 Z " fill="#CCD4DA" transform="translate(87,161)"/>
<path d="M0 0 C1.09920273 0.00222061 2.19840546 0.00444122 3.33091736 0.00672913 C4.57212845 0.00680466 5.81333954 0.00688019 7.09216309 0.00695801 C8.45682311 0.01206541 9.82148274 0.01728142 11.18614197 0.02259827 C12.57476755 0.02446251 13.96339379 0.02588638 15.35202026 0.02688599 C19.01319686 0.03071065 22.67433402 0.04054048 26.335495 0.05158997 C30.06890835 0.06180519 33.80232805 0.06638384 37.53575134 0.07142639 C44.86584748 0.08216281 52.19591108 0.0992386 59.52598572 0.12025452 C63.49189528 10.21420897 67.41459349 20.30776039 70.96348572 30.55775452 C71.31346619 31.54839905 71.66344666 32.53904358 72.02403259 33.55970764 C72.35338806 34.50652405 72.68274353 35.45334045 73.02207947 36.42884827 C73.45798401 37.67879578 73.45798401 37.67879578 73.9026947 38.95399475 C74.52598572 41.12025452 74.52598572 41.12025452 74.52598572 44.12025452 C44.16598572 44.12025452 13.80598572 44.12025452 -17.47401428 44.12025452 C-16.13821688 38.1091662 -14.74713047 32.57611379 -12.68885803 26.83900452 C-12.42770706 26.09944519 -12.16655609 25.35988586 -11.89749146 24.59791565 C-11.35119679 23.05434542 -10.80238228 21.51166481 -10.25111389 19.96986389 C-9.40438754 17.60031042 -8.56656673 15.22774206 -7.72987366 12.85462952 C-7.19588295 11.34923858 -6.66139606 9.84402354 -6.12635803 8.33900452 C-5.87530807 7.6286908 -5.62425812 6.91837708 -5.36560059 6.1865387 C-3.20235976 0.15565724 -3.20235976 0.15565724 0 0 Z " fill="#213B54" transform="translate(227.47401428222656,451.87974548339844)"/>
<path d="M0 0 C0.82260315 -0.00807175 1.6452063 -0.01614349 2.49273682 -0.02445984 C4.23439435 -0.03828595 5.97607881 -0.0490147 7.71777344 -0.05688477 C9.49259418 -0.06839484 11.26738058 -0.08883134 13.04199219 -0.1184082 C15.61156653 -0.16123444 18.18011236 -0.17727519 20.75 -0.1875 C21.92849518 -0.21376213 21.92849518 -0.21376213 23.13079834 -0.24055481 C28.76368075 -0.21859919 32.06048381 0.89529232 36.640625 4.23828125 C40.34983647 8.482188 40.09320189 12.89639314 40.07421875 18.265625 C40.0794606 19.13216202 40.08470245 19.99869904 40.09010315 20.89149475 C40.09651093 22.7195631 40.09520248 24.54767275 40.08666992 26.37573242 C40.07816294 29.1633493 40.1069324 31.94891363 40.13867188 34.73632812 C40.14028422 36.51692647 40.13970572 38.29752843 40.13671875 40.078125 C40.15356972 41.32057228 40.15356972 41.32057228 40.17076111 42.58811951 C40.10709401 47.9106275 39.32826149 51.1243062 35.640625 55.23828125 C30.7844914 58.57005022 26.41821569 58.69264677 20.734375 58.671875 C19.89144897 58.67711685 19.04852295 58.6823587 18.18005371 58.6877594 C16.40504046 58.69415801 14.62998469 58.6928707 12.85498047 58.68432617 C10.14864283 58.67580649 7.44441127 58.70462142 4.73828125 58.73632812 C3.00781313 58.7379402 1.27734129 58.73736248 -0.453125 58.734375 C-1.25641235 58.74560898 -2.05969971 58.75684296 -2.8873291 58.76841736 C-8.15427533 58.70349014 -11.24105034 57.80971258 -15.359375 54.23828125 C-18.98106836 49.93698272 -18.7979697 45.76134404 -18.7578125 40.39453125 C-18.76068268 39.5478186 -18.76355286 38.70110596 -18.76651001 37.82873535 C-18.76854604 36.04353158 -18.7630485 34.25830527 -18.75048828 32.47314453 C-18.73442762 29.74721187 -18.75035218 27.02276178 -18.76953125 24.296875 C-18.76754874 22.55859049 -18.76370489 20.8203069 -18.7578125 19.08203125 C-18.76388519 18.27044556 -18.76995789 17.45885986 -18.7762146 16.62268066 C-18.70285525 10.69362044 -17.34935301 7.47700651 -13.359375 2.98828125 C-9.41866696 -0.45983828 -4.95971585 0.04615635 0 0 Z " fill="#030303" transform="translate(205.359375,251.76171875)"/>
<path d="M0 0 C0.84434097 -0.00524185 1.68868195 -0.0104837 2.55860901 -0.0158844 C4.33959863 -0.02229124 6.12063063 -0.02098494 7.90161133 -0.01245117 C10.61681989 -0.00394412 13.32992107 -0.03271456 16.04492188 -0.06445312 C17.77994729 -0.06606548 19.51497641 -0.06548695 21.25 -0.0625 C22.05642441 -0.07373398 22.86284882 -0.08496796 23.69371033 -0.09654236 C29.90155275 -0.02033964 33.27664732 1.92087054 38.00390625 5.99609375 C41.02591314 9.65431262 40.37065492 14.35105892 40.39453125 18.828125 C40.40023132 19.65309982 40.4059314 20.47807465 40.4118042 21.32804871 C40.42124748 23.07391073 40.42778551 24.81979052 40.43164062 26.56567383 C40.44133211 29.22574293 40.47235537 31.88503453 40.50390625 34.54492188 C40.51043814 36.24348501 40.51568788 37.94205365 40.51953125 39.640625 C40.53187805 40.43144974 40.54422485 41.22227448 40.5569458 42.0370636 C40.53745952 46.91108495 39.84662779 50.19097638 37.19140625 54.43359375 C30.71943906 60.29881402 21.40332438 58.7307379 13.20483398 58.78369141 C11.32612721 58.80024675 9.44748331 58.82753136 7.5690918 58.86572266 C4.85302232 58.92062168 2.13842532 58.94238373 -0.578125 58.95703125 C-1.4126973 58.97970062 -2.24726959 59.00237 -3.10713196 59.02572632 C-7.18465597 59.01102898 -9.97222049 58.75138251 -13.26049805 56.21337891 C-18.06176314 50.97555152 -18.12581562 46.42330276 -18.14453125 39.625 C-18.15118805 38.78065903 -18.15784485 37.93631805 -18.16470337 37.06639099 C-18.17480206 35.28541229 -18.17952125 33.50439597 -18.17919922 31.72338867 C-18.18357406 29.00831459 -18.21992603 26.29486512 -18.2578125 23.58007812 C-18.26368106 21.84505761 -18.26765019 20.11002942 -18.26953125 18.375 C-18.28390228 17.56857559 -18.29827332 16.76215118 -18.31307983 15.93128967 C-18.27053826 10.64774512 -17.39660523 7.5636044 -13.80859375 3.43359375 C-9.51802409 -0.17117057 -5.35280992 -0.01943712 0 0 Z " fill="#030303" transform="translate(284.80859375,251.56640625)"/>
<path d="M0 0 C0.86936691 -0.00428513 1.73873383 -0.00857025 2.63444519 -0.01298523 C4.47446828 -0.01872844 6.31451407 -0.01922886 8.15454102 -0.01489258 C10.95954574 -0.01174225 13.76348581 -0.03515783 16.56835938 -0.06054688 C18.35807159 -0.06282094 20.14778663 -0.06352286 21.9375 -0.0625 C22.7720723 -0.07170975 23.60664459 -0.08091949 24.46650696 -0.09040833 C29.41686466 -0.05141126 32.97344675 0.3942292 37.16796875 3.30078125 C41.45177656 8.113366 41.76109691 12.06816347 41.69921875 18.20703125 C41.70304565 19.04995728 41.70687256 19.8928833 41.71081543 20.76135254 C41.71352691 22.53638917 41.70621932 24.31146627 41.68945312 26.08642578 C41.6680311 28.79290419 41.68927924 31.49672848 41.71484375 34.203125 C41.71220034 35.93359957 41.70707507 37.6640725 41.69921875 39.39453125 C41.70731567 40.1978186 41.7154126 41.00110596 41.72375488 41.82873535 C41.63643117 47.09912596 40.74456707 50.18724573 37.16796875 54.30078125 C32.34648604 58.46836367 28.60800652 58.89541431 22.515625 58.83203125 C21.69726669 58.83585815 20.87890839 58.83968506 20.03575134 58.84362793 C18.31198897 58.84633917 16.5881849 58.83903328 14.86450195 58.82226562 C12.24140617 58.80087046 9.62105744 58.8220779 6.99804688 58.84765625 C5.31640026 58.84501229 3.63475535 58.83988591 1.953125 58.83203125 C1.17687271 58.84012817 0.40062042 58.8482251 -0.39915466 58.85656738 C-5.97152771 58.76173588 -9.32939347 57.66050911 -13.83203125 54.30078125 C-17.2662935 49.47805065 -17.29938793 44.88394872 -17.30078125 39.17578125 C-17.31220154 37.87809814 -17.31220154 37.87809814 -17.32385254 36.55419922 C-17.33461799 34.7321256 -17.33752115 32.90999046 -17.33300781 31.08789062 C-17.33203408 28.3088466 -17.37372278 25.53255322 -17.41796875 22.75390625 C-17.42317542 20.97787031 -17.42586395 19.20182482 -17.42578125 17.42578125 C-17.44217651 16.60062012 -17.45857178 15.77545898 -17.47546387 14.92529297 C-17.42630164 10.79907126 -17.11809805 8.12720628 -14.48242188 4.85546875 C-9.69284 0.2388342 -6.38193575 -0.00691914 0 0 Z " fill="#030303" transform="translate(283.83203125,325.69921875)"/>
<path d="M0 0 C0.8452977 -0.00287018 1.6905954 -0.00574036 2.56150818 -0.00869751 C4.34073561 -0.01073092 6.11998577 -0.0052518 7.89916992 0.00732422 C10.6162321 0.02340872 13.33181143 0.00744112 16.04882812 -0.01171875 C17.78255535 -0.00973658 19.51628166 -0.00589345 21.25 0 C22.05844864 -0.00607269 22.86689728 -0.01214539 23.69984436 -0.0184021 C28.29159008 0.03865181 31.40871315 0.32830816 35.05859375 3.3984375 C39.2808748 8.27604045 39.65217444 12.10991768 39.58984375 18.26953125 C39.59367065 19.1100856 39.59749756 19.95063995 39.60144043 20.81666565 C39.60415217 22.58750614 39.59684275 24.35838718 39.58007812 26.12915039 C39.55868335 28.82464915 39.57988948 31.51747482 39.60546875 34.21289062 C39.60282482 35.94011 39.59769848 37.66732772 39.58984375 39.39453125 C39.59794067 40.19265732 39.6060376 40.99078339 39.61437988 41.81309509 C39.52098923 47.44909431 38.46773551 50.84947947 35.05859375 55.3984375 C30.3230346 58.74040633 25.95946165 58.8530258 20.37109375 58.83203125 C19.55036377 58.8372731 18.72963379 58.84251495 17.8840332 58.84791565 C16.1560987 58.85431305 14.42812052 58.85302852 12.70019531 58.84448242 C10.06626491 58.83596231 7.43449837 58.86477949 4.80078125 58.89648438 C3.11588606 58.89809646 1.43098706 58.89751872 -0.25390625 58.89453125 C-1.42602661 58.91138222 -1.42602661 58.91138222 -2.62182617 58.92857361 C-7.83863163 58.86252688 -10.8657247 57.92753369 -14.94140625 54.3984375 C-19.18188524 49.52135616 -19.53488932 45.66626576 -19.47265625 39.4921875 C-19.47648315 38.64926147 -19.48031006 37.80633545 -19.48425293 36.93786621 C-19.48696441 35.16282958 -19.47965682 33.38775248 -19.46289062 31.61279297 C-19.4414686 28.90631456 -19.46271674 26.20249027 -19.48828125 23.49609375 C-19.48563784 21.76561918 -19.48051257 20.03514625 -19.47265625 18.3046875 C-19.48075317 17.50140015 -19.4888501 16.69811279 -19.49719238 15.8704834 C-19.41023672 10.62230603 -18.55793485 7.46137663 -14.94140625 3.3984375 C-10.07063562 0.04992078 -5.70086769 -0.04292978 0 0 Z " fill="#030303" transform="translate(205.94140625,325.6015625)"/>
<path d="M0 0 C0.87078186 -0.00570007 1.74156372 -0.01140015 2.63873291 -0.01727295 C4.48472883 -0.02672943 6.33074168 -0.0332595 8.17675781 -0.03710938 C10.99053802 -0.0467887 13.80357963 -0.07779469 16.6171875 -0.109375 C18.411454 -0.11590777 20.20572572 -0.12115716 22 -0.125 C22.83770935 -0.1373468 23.6754187 -0.1496936 24.53851318 -0.16241455 C30.4356182 -0.14012293 34.52083287 0.82959335 39.11572266 4.80297852 C40.95070826 8.63307267 40.69291399 12.41331882 40.6640625 16.60546875 C40.66693268 17.52018448 40.66980286 18.43490021 40.67276001 19.37733459 C40.6747993 21.30974955 40.66927887 23.24218521 40.65673828 25.17456055 C40.64070113 28.12661126 40.656582 31.07728905 40.67578125 34.02929688 C40.67379843 35.90885718 40.66995396 37.78841663 40.6640625 39.66796875 C40.67317154 40.98848488 40.67317154 40.98848488 40.6824646 42.3356781 C40.62821673 47.08317578 40.48640335 50.45320056 37.265625 54.203125 C32.38057564 58.4353838 28.53004713 58.79657374 22.359375 58.734375 C21.09498596 58.74011536 21.09498596 58.74011536 19.80505371 58.74597168 C18.03001708 58.74868316 16.25493998 58.74137557 14.47998047 58.72460938 C11.77350206 58.70318735 9.06967777 58.72443549 6.36328125 58.75 C4.63280668 58.74735659 2.90233375 58.74223132 1.171875 58.734375 C0.36858765 58.74247192 -0.43469971 58.75056885 -1.2623291 58.75891113 C-6.52262196 58.67175473 -9.62064451 57.7671365 -13.734375 54.203125 C-17.41982719 49.85633157 -17.21687929 45.43525828 -17.23828125 39.9921875 C-17.24826645 39.10582611 -17.25825165 38.21946472 -17.26853943 37.3062439 C-17.28369299 35.43532972 -17.29076608 33.56433486 -17.2902832 31.69335938 C-17.29683921 28.84368101 -17.35133022 25.99749899 -17.40820312 23.1484375 C-17.41700744 21.32553268 -17.42296015 19.5026114 -17.42578125 17.6796875 C-17.4473378 16.83467682 -17.46889435 15.98966614 -17.49110413 15.11904907 C-17.42633644 9.47595643 -16.11937831 6.58634609 -12.21788025 2.49887085 C-8.62108075 -0.64270079 -4.52288474 0.0227259 0 0 Z " fill="#060303" transform="translate(363.734375,325.796875)"/>
<path d="M0 0 C0.87173859 -0.00428513 1.74347717 -0.00857025 2.64163208 -0.01298523 C4.48585136 -0.01872786 6.33009329 -0.01922928 8.17431641 -0.01489258 C10.99030446 -0.01173836 13.80523605 -0.03517213 16.62109375 -0.06054688 C18.41406118 -0.06282051 20.20703142 -0.06352307 22 -0.0625 C22.83973358 -0.07170975 23.67946716 -0.08091949 24.54464722 -0.09040833 C30.69621122 -0.04195323 33.82903666 1.16850543 38.41210938 5.41040039 C40.83548615 9.48110947 40.70830889 12.88997038 40.6640625 17.546875 C40.6678894 18.43560806 40.67171631 19.32434113 40.67565918 20.24000549 C40.67837492 22.11517472 40.67103737 23.99038205 40.65429688 25.86547852 C40.63290705 28.72563794 40.65409614 31.5832784 40.6796875 34.44335938 C40.67704367 36.26953676 40.67191754 38.09571259 40.6640625 39.921875 C40.67215942 40.77204697 40.68025635 41.62221893 40.68859863 42.49815369 C40.6041377 47.88560765 39.81457337 51.0988573 36.1328125 55.30078125 C31.84224284 58.90554557 27.67702867 58.75381212 22.32421875 58.734375 C21.05770729 58.74223778 21.05770729 58.74223778 19.76560974 58.7502594 C17.98462012 58.75666624 16.20358812 58.75535994 14.42260742 58.74682617 C11.70739886 58.73831912 8.99429768 58.76708956 6.27929688 58.79882812 C4.54427146 58.80044048 2.80924234 58.79986195 1.07421875 58.796875 C-0.13541786 58.81372597 -0.13541786 58.81372597 -1.36949158 58.83091736 C-7.64979716 58.75382514 -10.99780235 56.86387092 -15.71289062 52.65209961 C-17.60105336 48.80588656 -17.33499596 44.90667625 -17.3359375 40.6796875 C-17.34355103 39.74277573 -17.35116455 38.80586395 -17.35900879 37.84056091 C-17.3698035 35.86110089 -17.37266545 33.88158394 -17.36816406 31.90209961 C-17.36719195 28.87712415 -17.4088156 25.85468726 -17.453125 22.83007812 C-17.45833234 20.9049532 -17.46102019 18.97981947 -17.4609375 17.0546875 C-17.47733276 16.15246964 -17.49372803 15.25025177 -17.51062012 14.32069397 C-17.4615743 9.8532518 -17.35969163 7.92639045 -14.51757812 4.31616211 C-9.45446278 0.46612368 -6.21582293 -0.00671399 0 0 Z " fill="#060503" transform="translate(124.8671875,325.69921875)"/>
<path d="M0 0 C0.84575592 -0.0066568 1.69151184 -0.0133136 2.56289673 -0.02017212 C4.34985178 -0.03028373 6.13684449 -0.0349896 7.92382812 -0.03466797 C10.64777353 -0.03903638 13.37009163 -0.07535689 16.09375 -0.11328125 C17.83332782 -0.11915083 19.5729133 -0.12311928 21.3125 -0.125 C22.52684219 -0.14655655 22.52684219 -0.14655655 23.76571655 -0.16854858 C30.0695396 -0.1180055 33.41677384 1.75512284 38.13916016 5.99829102 C40.00159089 9.78444266 39.71613807 13.57714135 39.6875 17.73828125 C39.69037018 18.65299698 39.69324036 19.56771271 39.69619751 20.51014709 C39.6982368 22.44256205 39.69271637 24.37499771 39.68017578 26.30737305 C39.66413863 29.25942376 39.6800195 32.21010155 39.69921875 35.16210938 C39.69723593 37.04166968 39.69339146 38.92122913 39.6875 40.80078125 C39.69660904 42.12129738 39.69660904 42.12129738 39.7059021 43.4684906 C39.65202027 48.18395374 39.55178884 51.6473948 36.2890625 55.3359375 C31.3829821 58.67174294 26.92861624 58.81657506 21.19921875 58.83984375 C19.90509315 58.85482155 19.90509315 58.85482155 18.58482361 58.87010193 C16.76696545 58.8852344 14.9490246 58.89232924 13.13110352 58.8918457 C10.36268997 58.89841111 7.59785859 58.95294902 4.83007812 59.00976562 C3.05730384 59.01856856 1.28451265 59.0245222 -0.48828125 59.02734375 C-1.71828102 59.05967857 -1.71828102 59.05967857 -2.97312927 59.09266663 C-8.49755931 59.02737328 -11.36228154 57.67659131 -15.40626526 53.917099 C-17.61166764 51.24432248 -17.84296155 48.65588588 -17.90380859 45.3269043 C-17.91987152 44.52564621 -17.93593445 43.72438812 -17.95248413 42.89884949 C-17.99712804 39.23994989 -18.03799252 35.5812276 -18.06103516 31.92211914 C-18.07759163 29.99491294 -18.10487768 28.06776807 -18.14306641 26.14086914 C-18.19795194 23.35530911 -18.21972564 20.57118482 -18.234375 17.78515625 C-18.25704437 16.92871017 -18.27971375 16.0722641 -18.30307007 15.18986511 C-18.28842395 11.02366669 -18.05922694 8.20651507 -15.42822266 4.87036133 C-10.41832243 0.19760533 -6.74410843 0.01844865 0 0 Z " fill="#030202" transform="translate(364.7109375,251.6640625)"/>
<path d="M0 0 C0.82355988 -0.00428513 1.64711975 -0.00857025 2.49563599 -0.01298523 C4.23552533 -0.01872 5.97543865 -0.01923507 7.71533203 -0.01489258 C10.36663111 -0.011738 13.01680798 -0.03518281 15.66796875 -0.06054688 C17.36197777 -0.06282062 19.05598977 -0.06352302 20.75 -0.0625 C21.53768768 -0.07170975 22.32537537 -0.08091949 23.13693237 -0.09040833 C29.23024123 -0.0396287 33.21135401 1.2360974 37.85180664 5.40820312 C40.19271609 9.49711587 40.06478886 12.94654757 40.00390625 17.58203125 C40.00536148 18.47313599 40.00681671 19.36424072 40.00831604 20.28234863 C40.00665998 22.16173582 39.99513157 24.04113697 39.97436523 25.92041016 C39.94540835 28.79127823 39.95376275 31.6602986 39.96679688 34.53125 C39.96055898 36.36068603 39.95216764 38.19011624 39.94140625 40.01953125 C39.94434189 40.8748645 39.94727753 41.73019775 39.95030212 42.6114502 C39.85993612 48.34178105 38.8009552 51.6254481 35.0078125 56.05078125 C31.21711743 59.20969381 26.29531337 58.48046198 21.640625 58.50390625 C20.76888641 58.50960632 19.89714783 58.5153064 18.99899292 58.5211792 C17.15477714 58.53062308 15.31054453 58.53716075 13.46630859 58.54101562 C10.65041564 58.55072058 7.83525291 58.58174911 5.01953125 58.61328125 C3.22656683 58.61981168 1.43359719 58.625062 -0.359375 58.62890625 C-1.19910858 58.64125305 -2.03884216 58.65359985 -2.90402222 58.6663208 C-7.56946518 58.64861468 -10.7825955 58.44131242 -14.4921875 55.30078125 C-18.23805253 50.89795385 -17.95966841 46.34329751 -17.9609375 40.8359375 C-17.96855103 39.92500839 -17.97616455 39.01407928 -17.98400879 38.07554626 C-17.99479066 36.15333796 -17.99767068 34.23107115 -17.99316406 32.30883789 C-17.99219176 29.37611748 -18.03383351 26.44601481 -18.078125 23.51367188 C-18.08333248 21.64193252 -18.08602019 19.7701841 -18.0859375 17.8984375 C-18.10233276 17.02639175 -18.11872803 16.15434601 -18.13562012 15.25587463 C-18.08828117 11.06256078 -17.85303333 8.18437024 -15.20507812 4.82592773 C-10.24431895 0.20847523 -6.67150281 -0.0076799 0 0 Z " fill="#020202" transform="translate(125.4921875,251.69921875)"/>
<path d="M0 0 C8.58 0 17.16 0 26 0 C26 8.58 26 17.16 26 26 C17.42 26 8.84 26 0 26 C0 17.42 0 8.84 0 0 Z " fill="#F7A330" transform="translate(283,342)"/>
<path d="M0 0 C8.58 0 17.16 0 26 0 C26 8.58 26 17.16 26 26 C17.42 26 8.84 26 0 26 C0 17.42 0 8.84 0 0 Z " fill="#F84444" transform="translate(203,342)"/>
<path d="M0 0 C8.58 0 17.16 0 26 0 C26 8.58 26 17.16 26 26 C17.42 26 8.84 26 0 26 C0 17.42 0 8.84 0 0 Z " fill="#F64343" transform="translate(363,268)"/>
<path d="M0 0 C8.58 0 17.16 0 26 0 C26 8.58 26 17.16 26 26 C17.42 26 8.84 26 0 26 C0 17.42 0 8.84 0 0 Z " fill="#F8A430" transform="translate(283,268)"/>
<path d="M0 0 C8.58 0 17.16 0 26 0 C26 8.58 26 17.16 26 26 C17.42 26 8.84 26 0 26 C0 17.42 0 8.84 0 0 Z " fill="#F94444" transform="translate(203,268)"/>
<path d="M0 0 C8.58 0 17.16 0 26 0 C26 8.58 26 17.16 26 26 C17.42 26 8.84 26 0 26 C0 17.42 0 8.84 0 0 Z " fill="#F5A230" transform="translate(123,268)"/>
<path d="M0 0 C8.25 0 16.5 0 25 0 C25 8.25 25 16.5 25 25 C16.75 25 8.5 25 0 25 C0 16.75 0 8.5 0 0 Z " fill="#FF4646" transform="translate(363,342)"/>
<path d="M0 0 C8.25 0 16.5 0 25 0 C25 8.25 25 16.5 25 25 C16.75 25 8.5 25 0 25 C0 16.75 0 8.5 0 0 Z " fill="#FEA832" transform="translate(124,342)"/>
<path d="M0 0 C2.625 1.125 2.625 1.125 4.625 3.125 C4.05910156 3.57230469 3.49320313 4.01960938 2.91015625 4.48046875 C2.17667969 5.08503906 1.44320312 5.68960938 0.6875 6.3125 C-0.04339844 6.90417969 -0.77429688 7.49585938 -1.52734375 8.10546875 C-3.80268281 10.59246726 -4.34075631 11.74955015 -4.375 15.125 C-3.0272955 18.189594 -1.50546208 20.98087082 0.17578125 23.86523438 C1.79105339 26.8094057 2.63641102 28.79450298 2.51953125 32.1796875 C1.54027448 35.40396526 0.29704947 38.28702576 -1.1875 41.3125 C-3.26186506 45.57837074 -4.84719588 49.6265341 -6.125 54.1875 C-7.2468565 57.4715671 -7.86378964 58.78280544 -10.7734375 60.73046875 C-13.32477988 61.80144771 -15.64944612 62.65016483 -18.375 63.125 C-19.035 62.795 -19.695 62.465 -20.375 62.125 C-19.93929687 61.62097656 -19.50359375 61.11695313 -19.0546875 60.59765625 C-16.92013507 57.45539651 -15.74981838 54.11867996 -14.5 50.5625 C-12.71427296 45.59682686 -10.82117975 40.81036767 -8.5 36.0625 C-6.54306983 31.76617774 -5.45321869 28.90150316 -6.375 24.125 C-7.85905211 20.97347361 -9.44397063 17.92607002 -11.16015625 14.89453125 C-12.375 12.125 -12.375 12.125 -12.2890625 10.03125 C-9.88745597 5.02277143 -5.6613257 0.20967873 0 0 Z " fill="#0480DC" transform="translate(191.375,40.875)"/>
<path d="M0 0 C6.51433902 1.35203263 6.51433902 1.35203263 8.5078125 4.01171875 C10.47579694 7.95283941 12.0233475 12.0007333 13.5625 16.125 C14.16456044 17.73305104 14.76990263 19.33987813 15.37890625 20.9453125 C15.6426001 21.65187988 15.90629395 22.35844727 16.17797852 23.08642578 C17.04464128 25.26332342 17.04464128 25.26332342 19 28 C19 34.23309974 16.19446132 38.78402024 13.1796875 44.1328125 C11.84010804 47.38861158 11.80887273 48.72578504 13 52 C15.45817955 54.79245093 15.45817955 54.79245093 18 57 C16.33203125 57.7890625 16.33203125 57.7890625 14 58 C11.38671875 56.0859375 11.38671875 56.0859375 8.6875 53.375 C7.78386719 52.49585938 6.88023437 51.61671875 5.94921875 50.7109375 C4 48 4 48 4.046875 45.5 C5.44201509 41.84061615 7.16734565 38.4018757 8.94140625 34.9140625 C10.80082438 29.79551664 10.54292685 25.78107847 8.3203125 20.87890625 C7.602106 19.43328548 6.86999942 17.99449715 6.125 16.5625 C3.31358946 11.07379214 1.29539905 6.04746821 0 0 Z " fill="#0481DE" transform="translate(175,137)"/>
<path d="M0 0 C-0.33 6.93 -0.66 13.86 -1 21 C-7 20 -7 20 -10 18 C-10.22137393 15.37302936 -10.28162025 12.99106036 -10.1875 10.375 C-10.17396484 9.66859375 -10.16042969 8.9621875 -10.14648438 8.234375 C-10.1111104 6.48925872 -10.05730221 4.74453392 -10 3 C-3.375 0 -3.375 0 0 0 Z " fill="#047CD6" transform="translate(164,107)"/>
<path d="M0 0 C2.64 0 5.28 0 8 0 C7.54548816 1.73017508 7.08621143 3.45909877 6.625 5.1875 C6.36976563 6.15042969 6.11453125 7.11335938 5.8515625 8.10546875 C5.57054687 9.06066406 5.28953125 10.01585937 5 11 C4.73960937 11.89589844 4.47921875 12.79179687 4.2109375 13.71484375 C2.61484963 16.72681602 1.16386057 17.22534136 -2 18.375 C-2.886875 18.71273437 -3.77375 19.05046875 -4.6875 19.3984375 C-7 20 -7 20 -9 19 C-8.39671875 18.32582031 -7.7934375 17.65164062 -7.171875 16.95703125 C-4.72873307 13.63066715 -3.5633171 10.59097027 -2.25 6.6875 C-2.02957031 6.04232422 -1.80914062 5.39714844 -1.58203125 4.73242188 C-1.04557015 3.15802516 -0.52148643 1.57941996 0 0 Z " fill="#0480DD" transform="translate(248,16)"/>
<path d="M0 0 C0.66 0.33 1.32 0.66 2 1 C0.9375 2.0625 -0.125 3.125 -1.1875 4.1875 C-1.826875 4.83589844 -2.46625 5.48429687 -3.125 6.15234375 C-5 8 -5 8 -7.6875 10.25 C-14.29793 18.1110519 -15.17052281 28.58181159 -15.125 38.4375 C-15.12886719 39.27087891 -15.13273438 40.10425781 -15.13671875 40.96289062 C-15.12966873 45.42202587 -14.89916791 49.61120425 -14 54 C-18.6620048 49.3379952 -19.21127579 41.26544072 -19.375 34.9375 C-18.98683909 22.40313715 -13.61880728 11.98718121 -4.61328125 3.375 C-3 2 -3 2 0 0 Z " fill="#D4D4D4" transform="translate(233,82)"/>
<path d="M0 0 C2.41694524 0.11920162 4.80737435 0.18516857 7.2253418 0.20532227 C7.95729767 0.21522186 8.68925354 0.22512146 9.44338989 0.23532104 C11.86196665 0.26690011 14.28056304 0.29167923 16.69921875 0.31640625 C18.37645477 0.33697888 20.05368564 0.35797544 21.73091125 0.37937927 C26.14494659 0.43456801 30.55902846 0.48399139 34.97314453 0.53222656 C39.47758119 0.58246493 43.98195028 0.63813881 48.48632812 0.69335938 C57.32416102 0.80090183 66.16205259 0.90235551 75 1 C75 1.33 75 1.66 75 2 C47.61 2 20.22 2 -8 2 C-5.14066998 -0.85933002 -3.8625627 -1.2875209 0 0 Z " fill="#284663" transform="translate(359,143)"/>
<path d="M0 0 C6 1 6 1 7.42578125 2.70703125 C7.71839844 3.40183594 8.01101562 4.09664062 8.3125 4.8125 C8.61800781 5.49957031 8.92351562 6.18664062 9.23828125 6.89453125 C9.96883739 8.91386336 10.52499302 10.90714746 11 13 C8.69 13 6.38 13 4 13 C2.68 8.71 1.36 4.42 0 0 Z " fill="#0583E2" transform="translate(244,206)"/>
<path d="M0 0 C0.66 0 1.32 0 2 0 C1.67 4.62 1.34 9.24 1 14 C0.67 14 0.34 14 0 14 C-0.19393875 11.85473901 -0.37998676 9.70876323 -0.5625 7.5625 C-0.71912109 5.77005859 -0.71912109 5.77005859 -0.87890625 3.94140625 C-0.91886719 2.97074219 -0.95882812 2.00007813 -1 1 C-0.67 0.67 -0.34 0.34 0 0 Z " fill="#E9E9E9" transform="translate(216,109)"/>
<path d="M0 0 C0.66 0.33 1.32 0.66 2 1 C0.88121617 2.17262904 -0.24523051 3.33795138 -1.375 4.5 C-2.00148437 5.1496875 -2.62796875 5.799375 -3.2734375 6.46875 C-5 8 -5 8 -7 8 C-5.50902342 4.2047869 -3.24299151 2.38957269 0 0 Z " fill="#E3E3E3" transform="translate(233,82)"/>
</svg>
