<?xml version="1.0" encoding="UTF-8"?>
<svg version="1.1" xmlns="http://www.w3.org/2000/svg" width="304" height="323">
<path d="M0 0 C0.87869751 -0.00014603 1.75739502 -0.00029205 2.66271973 -0.0004425 C5.55202752 0.00025126 8.44126995 0.00801849 11.33056641 0.01586914 C13.33981287 0.01773522 15.3490598 0.01915823 17.35830688 0.02015686 C22.63544989 0.02396703 27.91256518 0.03378449 33.18969727 0.04486084 C38.57909775 0.05510723 43.96850273 0.05966139 49.35791016 0.06469727 C59.92432855 0.07540813 70.49072642 0.09246651 81.05712891 0.11352539 C82.48310502 2.96547762 82.1891541 5.43813714 82.18212891 8.61352539 C82.18599609 10.36149414 82.18599609 10.36149414 82.18994141 12.14477539 C82.05712891 15.11352539 82.05712891 15.11352539 81.05712891 17.11352539 C79.3637011 17.11566292 79.3637011 17.11566292 77.63606262 17.11784363 C66.99764991 17.13451184 56.35961979 17.17728015 45.7214098 17.24561596 C40.25212429 17.27990936 34.78311882 17.30499963 29.3137207 17.30908203 C24.03556336 17.31335988 18.75803796 17.34178039 13.48007774 17.38695717 C11.46629199 17.39994853 9.45243067 17.40423407 7.43860817 17.39967918 C4.61780149 17.39478489 1.79885014 17.42081332 -1.02172852 17.45410156 C-1.85466934 17.44547592 -2.68761017 17.43685028 -3.54579163 17.42796326 C-7.86068867 17.51334662 -9.45839416 17.72268331 -12.9379425 20.52973938 C-15.68596286 24.07116055 -16.06754074 25.6932168 -16.06312561 30.09951782 C-16.06450027 31.15403641 -16.06587494 32.20855499 -16.06729126 33.29502869 C-16.06369598 34.45668045 -16.06010071 35.61833221 -16.05639648 36.81518555 C-16.05654251 38.03467392 -16.05668854 39.25416229 -16.05683899 40.51060486 C-16.05626064 43.8595772 -16.05123655 47.20848832 -16.04426503 50.55744982 C-16.03802457 54.0554998 -16.03742715 57.55355054 -16.03623962 61.05160522 C-16.03312836 67.677874 -16.02491771 74.30412633 -16.01489013 80.93038785 C-16.00372267 88.47321468 -15.99821695 96.01604229 -15.9931947 103.55887532 C-15.98273494 119.07710155 -15.96513944 134.59531135 -15.94287109 150.11352539 C-14.62287109 149.78352539 -13.30287109 149.45352539 -11.94287109 149.11352539 C-11.94287109 148.45352539 -11.94287109 147.79352539 -11.94287109 147.11352539 C-11.29962891 146.77321289 -10.65638672 146.43290039 -9.99365234 146.08227539 C-1.14627883 141.33675122 7.35118771 136.07783855 15.84228516 130.73071289 C23.49691978 125.91637561 31.203307 121.22349654 39.01928711 116.67504883 C44.131584 113.69034067 49.11752091 110.56358626 54.05322266 107.29321289 C56.05712891 106.11352539 56.05712891 106.11352539 58.05712891 106.11352539 C58.01072266 105.34008789 57.96431641 104.56665039 57.91650391 103.76977539 C57.67993762 96.94314824 57.75673293 91.62626704 62.05712891 86.11352539 C67.38958642 80.52240389 71.92252099 76.44275477 79.83447266 75.81274414 C81.22112125 75.79825873 82.6079196 75.79458756 83.99462891 75.80102539 C84.68492187 75.78491211 85.37521484 75.76879883 86.08642578 75.75219727 C90.82259829 75.747708 94.0638733 76.57236273 98.05712891 79.11352539 C99.04712891 80.59852539 99.04712891 80.59852539 100.05712891 82.11352539 C98.37308792 83.3681816 96.68470421 84.61700956 94.99462891 85.86352539 C93.99560547 86.60344727 92.99658203 87.34336914 91.96728516 88.10571289 C89.61191018 89.73076354 87.53343125 90.86980246 84.93212891 91.98852539 C81.86712984 93.78913461 81.86712984 93.78913461 81.41259766 96.57446289 C81.14637609 99.10889224 81.02310678 101.56672603 81.05712891 104.11352539 C84.38430137 105.53945645 87.43881477 106.80096238 91.05712891 107.11352539 C93.86726189 105.82477562 93.86726189 105.82477562 96.55712891 103.86352539 C97.47494141 103.23961914 98.39275391 102.61571289 99.33837891 101.97290039 C100.23556641 101.35930664 101.13275391 100.74571289 102.05712891 100.11352539 C106.6517235 97.11352539 106.6517235 97.11352539 110.05712891 97.11352539 C110.63423561 106.73197044 109.3221003 112.21606829 104.05712891 120.11352539 C103.39712891 120.11352539 102.73712891 120.11352539 102.05712891 120.11352539 C102.05712891 120.77352539 102.05712891 121.43352539 102.05712891 122.11352539 C100.73712891 122.44352539 99.41712891 122.77352539 98.05712891 123.11352539 C98.05712891 123.77352539 98.05712891 124.43352539 98.05712891 125.11352539 C92.55220442 128.28944336 86.3018519 128.63391897 80.05712891 128.11352539 C77.71501969 127.47837713 75.38027922 126.81485379 73.05712891 126.11352539 C67.80631635 125.28444972 64.55657511 127.95514089 60.36962891 130.73852539 C58.93644624 131.66364171 57.50285338 132.58812288 56.06884766 133.51196289 C55.37839355 133.96152344 54.68793945 134.41108398 53.9765625 134.87426758 C51.57603809 136.42413554 49.13803666 137.90325592 46.68212891 139.36352539 C45.90998047 139.8237207 45.13783203 140.28391602 44.34228516 140.75805664 C43.58818359 141.20536133 42.83408203 141.65266602 42.05712891 142.11352539 C35.73753585 145.86483583 29.52617392 149.72403072 23.40478516 153.79321289 C21.05712891 155.11352539 21.05712891 155.11352539 18.05712891 155.11352539 C18.05712891 155.77352539 18.05712891 156.43352539 18.05712891 157.11352539 C15.86962891 158.62133789 15.86962891 158.62133789 13.05712891 160.23852539 C12.12900391 160.77735352 11.20087891 161.31618164 10.24462891 161.87133789 C9.52275391 162.28125977 8.80087891 162.69118164 8.05712891 163.11352539 C32.74361314 163.2536187 57.43003789 163.3594589 82.11683941 163.42439842 C93.57908596 163.45535098 105.04108569 163.49755847 116.50317383 163.56616211 C126.49225918 163.62592099 136.48116581 163.66466435 146.47042495 163.67805636 C151.76092609 163.68588604 157.05091586 163.70431685 162.34125328 163.74790573 C167.31946499 163.7885911 172.29695407 163.80120263 177.27531624 163.79217148 C179.10350851 163.79382394 180.93172461 163.80578323 182.75977325 163.82875824 C185.25497973 163.85858334 187.7474528 163.85144955 190.24272156 163.83505249 C190.96743753 163.85252954 191.6921535 163.87000659 192.43883055 163.88801324 C195.2411038 163.83818182 197.42130159 163.63730037 199.62703973 161.82028115 C202.42333245 158.59405044 203.68348198 156.18942983 203.71655273 151.93432617 C203.74601738 150.46348068 203.74601738 150.46348068 203.77607727 148.96292114 C203.77214462 147.92207367 203.76821198 146.8812262 203.76416016 145.80883789 C203.78684212 144.19016312 203.78684212 144.19016312 203.8099823 142.53878784 C203.85283782 139.1051541 203.8616957 135.67239987 203.86962891 132.23852539 C203.89277472 129.90516871 203.91814022 127.57183292 203.94580078 125.23852539 C204.00863271 119.53011437 204.04098468 113.82225167 204.05712891 108.11352539 C209.33712891 108.11352539 214.61712891 108.11352539 220.05712891 108.11352539 C220.15627042 115.65743204 220.22872836 123.2009564 220.27685547 130.74536133 C220.29692619 133.30988169 220.32418891 135.87435654 220.35888672 138.4387207 C220.40760246 142.1325201 220.43014403 145.82571248 220.44775391 149.51977539 C220.46839905 150.65966919 220.48904419 151.79956299 220.51031494 152.97399902 C220.51251257 160.83358018 219.41218578 166.11906795 214.23291016 172.28540039 C213.61802734 172.80618164 213.00314453 173.32696289 212.36962891 173.86352539 C211.46664062 174.66016602 211.46664062 174.66016602 210.54541016 175.47290039 C200.90839578 181.8269758 191.87441134 181.64259996 180.67822266 181.50415039 C178.89747252 181.49667936 177.1167141 181.49099051 175.33595276 181.48699951 C170.6751286 181.47181096 166.01481216 181.4325886 161.35418701 181.38818359 C156.58791978 181.34708368 151.82156958 181.32895721 147.05517578 181.30883789 C137.72227182 181.26608695 128.38974278 181.19791892 119.05712891 181.11352539 C119.39921387 182.38647461 119.74129883 183.65942383 120.09375 184.97094727 C120.54784454 186.67468181 121.00177456 188.3784602 121.45556641 190.08227539 C121.68042725 190.91726562 121.90528809 191.75225586 122.13696289 192.61254883 C123.88745286 199.20488767 125.18755456 205.79303855 126.36572266 212.51196289 C127.16188217 216.6591893 128.25118769 220.65445257 129.50634766 224.68383789 C130.15520978 227.54619422 130.14616164 230.18816421 130.05712891 233.11352539 C131.17732422 233.0787207 132.29751953 233.04391602 133.45166016 233.00805664 C134.92430141 232.979917 136.39695888 232.95261702 137.86962891 232.92602539 C138.60761719 232.90088867 139.34560547 232.87575195 140.10595703 232.84985352 C145.53826626 232.77611176 145.53826626 232.77611176 148.04541016 234.40649414 C149.76681789 237.3109543 149.40773014 239.84124722 149.05712891 243.11352539 C147.51450078 245.2171092 146.37604573 245.95406698 144.05712891 247.11352539 C142.71285772 247.21323866 141.36385653 247.25287478 140.01591492 247.26069641 C138.74788528 247.27142937 138.74788528 247.27142937 137.45423889 247.28237915 C136.52486008 247.28506805 135.59548126 247.28775696 134.63793945 247.29052734 C133.66056824 247.29709854 132.68319702 247.30366974 131.6762085 247.31044006 C128.4320875 247.3301995 125.18801283 247.34184117 121.94384766 247.35180664 C120.28452682 247.35791993 120.28452682 247.35791993 118.59168434 247.36415672 C112.73747569 247.38502811 106.88329056 247.39932557 101.02905273 247.40869141 C94.97602145 247.41976192 88.92335717 247.45416647 82.87045574 247.49386311 C78.22163703 247.51998176 73.57290641 247.528379 68.92402077 247.53197289 C66.69246757 247.53685063 64.46091861 247.54849818 62.22943687 247.56701088 C59.10749424 247.59130221 55.98650973 247.59045543 52.86450195 247.58349609 C51.47954277 247.60271118 51.47954277 247.60271118 50.06660461 247.62231445 C45.91951419 247.58858733 43.61760912 247.44211855 39.97541809 245.30680847 C38.05712891 243.11352539 38.05712891 243.11352539 37.55712891 239.55102539 C38.05712891 236.11352539 38.05712891 236.11352539 39.10791016 234.41040039 C42.12843241 232.40075432 45.25121767 232.79881434 48.74462891 232.92602539 C49.44652344 232.93956055 50.14841797 232.9530957 50.87158203 232.96704102 C52.60042719 233.00232357 54.32887656 233.05612956 56.05712891 233.11352539 C56.28787109 231.89020508 56.51861328 230.66688477 56.75634766 229.40649414 C58.59531044 219.84216452 60.63611463 210.39226237 63.21801758 200.99902344 C64.4625426 196.46001677 65.58344225 191.90644322 66.63500977 187.31835938 C66.90220322 186.15441147 67.16939667 184.99046356 67.44468689 183.79124451 C67.64679276 182.9075972 67.84889862 182.02394989 68.05712891 181.11352539 C67.07486832 181.12240784 66.09260773 181.13129028 65.08058167 181.14044189 C55.79756357 181.22173212 46.51461824 181.28158857 37.2313242 181.32077408 C32.4593217 181.34159747 27.68760788 181.36981861 22.91577148 181.4152832 C18.30568057 181.45892897 13.69586632 181.48270193 9.08558464 181.49303436 C7.33180325 181.50039225 5.578036 181.51476022 3.82437325 181.53644562 C-16.32762105 181.77559943 -16.32762105 181.77559943 -24.00537109 174.36352539 C-24.64474609 173.62102539 -25.28412109 172.87852539 -25.94287109 172.11352539 C-14.03445239 163.86120015 -1.44527329 156.59378134 10.99609375 149.18334961 C14.33211183 147.18535995 17.5965826 145.11942517 20.80712891 142.92602539 C23.90279325 140.81403009 27.05910018 138.99503637 30.36962891 137.23852539 C35.50552283 134.50224718 40.24892016 131.34650215 45.05322266 128.07055664 C48.83917233 125.60402766 52.76099258 123.49730157 56.77978516 121.43774414 C58.92517925 120.19025083 60.41147844 118.95341657 62.05712891 117.11352539 C60.40712891 116.78352539 58.75712891 116.45352539 57.05712891 116.11352539 C57.05712891 116.77352539 57.05712891 117.43352539 57.05712891 118.11352539 C55.31031598 119.09836647 53.55954381 120.07618726 51.80712891 121.05102539 C50.83259766 121.59629883 49.85806641 122.14157227 48.85400391 122.70336914 C46.52102481 123.87963374 44.60362129 124.6345423 42.05712891 125.11352539 C42.05712891 125.77352539 42.05712891 126.43352539 42.05712891 127.11352539 C41.30947266 127.5118457 40.56181641 127.91016602 39.79150391 128.32055664 C38.80666016 128.85036133 37.82181641 129.38016602 36.80712891 129.92602539 C35.83259766 130.4480957 34.85806641 130.97016602 33.85400391 131.50805664 C31.41649548 132.90724095 29.28629684 134.41511172 27.05712891 136.11352539 C25.7589564 136.86790489 24.44534884 137.59618005 23.11962891 138.30102539 C15.83196503 142.28269605 8.65273077 146.59529023 1.85009766 151.35961914 C-0.94287109 153.11352539 -0.94287109 153.11352539 -3.94287109 153.11352539 C-3.94287109 153.77352539 -3.94287109 154.43352539 -3.94287109 155.11352539 C-5.23200597 155.78507472 -6.52427313 156.45061398 -7.81787109 157.11352539 C-8.89681641 157.67040039 -8.89681641 157.67040039 -9.99755859 158.23852539 C-11.94287109 159.11352539 -11.94287109 159.11352539 -13.94287109 159.11352539 C-13.94287109 159.77352539 -13.94287109 160.43352539 -13.94287109 161.11352539 C-15.66727475 162.10105603 -17.39762136 163.07821345 -19.13037109 164.05102539 C-20.09330078 164.59629883 -21.05623047 165.14157227 -22.04833984 165.70336914 C-24.74949951 167.01931872 -26.9864321 167.68654426 -29.94287109 168.11352539 C-32.76319624 162.49023603 -33.4614604 157.86060714 -33.62207031 151.61157227 C-33.6551573 150.69675835 -33.68824429 149.78194443 -33.72233391 148.83940887 C-34.06956164 138.27715401 -34.08772664 127.71157958 -34.07568359 117.14477539 C-34.07636023 115.00549305 -34.07733321 112.86621079 -34.07858276 110.72692871 C-34.08004287 106.27977759 -34.07796025 101.83264678 -34.07324219 97.38549805 C-34.06754598 91.74838899 -34.07083414 86.11132759 -34.07681465 80.47422028 C-34.08046631 76.06756241 -34.07926078 71.66091543 -34.07668686 67.2542572 C-34.07603025 65.17829889 -34.07680043 63.10233951 -34.07916641 61.02638245 C-34.08507628 54.3877023 -34.04534716 47.7514402 -33.94287109 41.11352539 C-33.92306309 39.68431259 -33.92306309 39.68431259 -33.90285492 38.22622681 C-33.85311461 35.39651283 -33.7738088 32.5691963 -33.68457031 29.74047852 C-33.67098543 28.90266594 -33.65740055 28.06485336 -33.64340401 27.20165253 C-33.40330098 21.13070343 -31.7405493 16.48627743 -28.94287109 11.11352539 C-28.28287109 11.11352539 -27.62287109 11.11352539 -26.94287109 11.11352539 C-26.71599609 10.53602539 -26.48912109 9.95852539 -26.25537109 9.36352539 C-23.67728572 4.94395047 -19.72811966 2.63079933 -14.94287109 1.11352539 C-9.92012749 0.06371499 -5.10338377 -0.02237584 0 0 Z " fill="#4E617A" transform="translate(60.94287109375,46.886474609375)"/>
<path d="M0 0 C2.31 0 4.62 0 7 0 C7.66 1.32 8.32 2.64 9 4 C9.66 3.34 10.32 2.68 11 2 C13.61580479 2.3269756 15.64078137 2.82039068 18 4 C17.49396008 6.16874252 17.00016187 7.99967627 16 10 C17.98 9.67 19.96 9.34 22 9 C25 12.625 25 12.625 25 16 C24.01 16.66 23.02 17.32 22 18 C23.32 18.33 24.64 18.66 26 19 C26 21.64 26 24.28 26 27 C24.68 27 23.36 27 22 27 C22.53625 27.556875 23.0725 28.11375 23.625 28.6875 C25 31 25 31 24.5 33.6875 C23 36 23 36 20.5 36.875 C18 37 18 37 16 36 C16.66 36.99 17.32 37.98 18 39 C18 39.99 18 40.98 18 42 C14.77208445 44.1519437 13.71599191 44.20086443 10 44 C10 43.34 10 42.68 10 42 C9.01 42 8.02 42 7 42 C7 43.32 7 44.64 7 46 C4.69 46 2.38 46 0 46 C-0.66 44.68 -1.32 43.36 -2 42 C-2.33 42.66 -2.66 43.32 -3 44 C-6.71599191 44.20086443 -7.77208445 44.1519437 -11 42 C-11.1875 39.375 -11.1875 39.375 -11 37 C-12.65 37 -14.3 37 -16 37 C-17.1875 34.25 -17.1875 34.25 -18 31 C-16.625 28.625 -16.625 28.625 -15 27 C-16.65 27 -18.3 27 -20 27 C-20 24.36 -20 21.72 -20 19 C-18.35 18.67 -16.7 18.34 -15 18 C-15.99 17.34 -16.98 16.68 -18 16 C-17.125 11.25 -17.125 11.25 -16 9 C-13.03 9.495 -13.03 9.495 -10 10 C-10.33 8.02 -10.66 6.04 -11 4 C-8.70221327 2.6049152 -7.5207033 1.92561381 -4.8125 2.3125 C-3 3 -3 3 -2 4 C-1.34 2.68 -0.68 1.36 0 0 Z M-6.9921875 16.9375 C-8.70853674 20.45002867 -9.09294179 23.22639691 -8 27 C-6.08850225 30.59444685 -3.89872122 33.35618074 0.0390625 34.69140625 C3.48354368 35.20098305 6.72043927 35.22983527 10 34 C10 33.34 10 32.68 10 32 C10.99 31.67 11.98 31.34 13 31 C15.27138891 28.01133039 15.47044588 24.72736759 15.39453125 21.03515625 C14.68647817 17.38272403 12.62465368 15.56216192 10 13 C3.59652035 9.79826017 -2.92682261 11.17629718 -6.9921875 16.9375 Z " fill="#50637A" transform="translate(76,78)"/>
<path d="M0 0 C0.66 0.33 1.32 0.66 2 1 C1.67 1.66 1.34 2.32 1 3 C4.08809695 4.76462683 5.23312136 5 9 5 C9 4.34 9 3.68 9 3 C10.65 3 12.3 3 14 3 C11.41062662 5.04992059 8.70679454 6.89230354 5.9375 8.6875 C4.93009766 9.34298828 4.93009766 9.34298828 3.90234375 10.01171875 C2 11 2 11 -1 11 C-1 11.66 -1 12.32 -1 13 C-2.12148437 13.59748047 -2.12148437 13.59748047 -3.265625 14.20703125 C-4.25046875 14.73683594 -5.2353125 15.26664063 -6.25 15.8125 C-7.22453125 16.33457031 -8.1990625 16.85664063 -9.203125 17.39453125 C-11.64063342 18.79371555 -13.77083206 20.30158633 -16 22 C-17.2981725 22.7543795 -18.61178007 23.48265466 -19.9375 24.1875 C-25.0881577 26.98918445 -30.02955134 30.10079148 -34.984375 33.23046875 C-37.62149606 34.77789859 -40.1313392 35.96409471 -43 37 C-43.33 36.34 -43.66 35.68 -44 35 C-43.34 35 -42.68 35 -42 35 C-41.67 34.01 -41.34 33.02 -41 32 C-39.35 32 -37.7 32 -36 32 C-36.33 30.35 -36.66 28.7 -37 27 C-37.556875 27.515625 -38.11375 28.03125 -38.6875 28.5625 C-41 30 -41 30 -43.75 29.6875 C-44.4925 29.460625 -45.235 29.23375 -46 29 C-42.60191563 26.18267914 -39.15568699 23.77439745 -35.375 21.5 C-28.81799927 17.52919965 -22.34443775 13.43321103 -15.88818359 9.30078125 C-11.98377834 6.81833547 -8.05056309 4.39370152 -4.046875 2.07421875 C-3.31823242 1.65100342 -2.58958984 1.22778809 -1.83886719 0.79174805 C-1.23204102 0.53047119 -0.62521484 0.26919434 0 0 Z " fill="#596B7F" transform="translate(104,161)"/>
<path d="M0 0 C0.99 0.66 1.98 1.32 3 2 C2.34 2 1.68 2 1 2 C1 2.99 1 3.98 1 5 C-1.64 5 -4.28 5 -7 5 C-6.505 6.485 -6.505 6.485 -6 8 C-3.03 8.33 -0.06 8.66 3 9 C-0.4048545 11.84047971 -3.83524431 14.18399743 -7.6875 16.375 C-9.26917969 17.28378906 -9.26917969 17.28378906 -10.8828125 18.2109375 C-11.91148438 18.80132812 -12.94015625 19.39171875 -14 20 C-20.33478361 23.72523096 -26.53169999 27.61100057 -32.65234375 31.6796875 C-35 33 -35 33 -38 33 C-38 33.66 -38 34.32 -38 35 C-40.08203125 36.5078125 -40.08203125 36.5078125 -42.8125 38.125 C-43.70582031 38.66382813 -44.59914063 39.20265625 -45.51953125 39.7578125 C-48 41 -48 41 -51 41 C-51 40.01 -51 39.02 -51 38 C-48.525 37.505 -48.525 37.505 -46 37 C-46 36.34 -46 35.68 -46 35 C-44.02 34.01 -42.04 33.02 -40 32 C-40.99 31.01 -41.98 30.02 -43 29 C-43.66 29.66 -44.32 30.32 -45 31 C-45.33 30.01 -45.66 29.02 -46 28 C-38.39294054 22.80543578 -30.85703348 17.77927944 -22.6875 13.5 C-18.56144759 11.19708703 -14.72021495 8.49276689 -10.81640625 5.8359375 C-7.32329992 3.5588779 -3.78218947 1.74562591 0 0 Z " fill="#5E6E7F" transform="translate(117,169)"/>
<path d="M0 0 C6.6 0 13.2 0 20 0 C20 6.6 20 13.2 20 20 C13.4 20 6.8 20 0 20 C0 13.4 0 6.8 0 0 Z " fill="#5F6F83" transform="translate(223,46)"/>
<path d="M0 0 C6.6 0 13.2 0 20 0 C20.020625 3.114375 20.04125 6.22875 20.0625 9.4375 C20.071604 10.42032959 20.08070801 11.40315918 20.09008789 12.41577148 C20.09258545 13.18477783 20.09508301 13.95378418 20.09765625 14.74609375 C20.10551147 15.93223267 20.10551147 15.93223267 20.11352539 17.14233398 C20 19 20 19 19 20 C17.58429877 20.08651611 16.164405 20.10704904 14.74609375 20.09765625 C13.9770874 20.09515869 13.20808105 20.09266113 12.41577148 20.09008789 C11.43294189 20.08098389 10.4501123 20.07187988 9.4375 20.0625 C4.7659375 20.0315625 4.7659375 20.0315625 0 20 C0 13.4 0 6.8 0 0 Z " fill="#297CB7" transform="translate(148,69)"/>
<path d="M0 0 C3.114375 -0.020625 6.22875 -0.04125 9.4375 -0.0625 C10.91174438 -0.07615601 10.91174438 -0.07615601 12.41577148 -0.09008789 C13.18477783 -0.09258545 13.95378418 -0.09508301 14.74609375 -0.09765625 C15.93223267 -0.10551147 15.93223267 -0.10551147 17.14233398 -0.11352539 C19 0 19 0 20 1 C20.08651611 2.41570123 20.10704904 3.835595 20.09765625 5.25390625 C20.09515869 6.0229126 20.09266113 6.79191895 20.09008789 7.58422852 C20.08098389 8.56705811 20.07187988 9.5498877 20.0625 10.5625 C20.041875 13.676875 20.02125 16.79125 20 20 C13.4 20 6.8 20 0 20 C0 13.4 0 6.8 0 0 Z " fill="#4085B7" transform="translate(271,46)"/>
<path d="M0 0 C3.114375 -0.020625 6.22875 -0.04125 9.4375 -0.0625 C10.91174438 -0.07615601 10.91174438 -0.07615601 12.41577148 -0.09008789 C13.18477783 -0.09258545 13.95378418 -0.09508301 14.74609375 -0.09765625 C15.93223267 -0.10551147 15.93223267 -0.10551147 17.14233398 -0.11352539 C19 0 19 0 20 1 C20.08651611 2.41570123 20.10704904 3.835595 20.09765625 5.25390625 C20.09515869 6.0229126 20.09266113 6.79191895 20.09008789 7.58422852 C20.08098389 8.56705811 20.07187988 9.5498877 20.0625 10.5625 C20.041875 13.676875 20.02125 16.79125 20 20 C13.4 20 6.8 20 0 20 C0 13.4 0 6.8 0 0 Z " fill="#297DB8" transform="translate(247,46)"/>
<path d="M0 0 C3.114375 -0.020625 6.22875 -0.04125 9.4375 -0.0625 C10.91174438 -0.07615601 10.91174438 -0.07615601 12.41577148 -0.09008789 C13.18477783 -0.09258545 13.95378418 -0.09508301 14.74609375 -0.09765625 C15.93223267 -0.10551147 15.93223267 -0.10551147 17.14233398 -0.11352539 C19 0 19 0 20 1 C20.08651611 2.41570123 20.10704904 3.835595 20.09765625 5.25390625 C20.09515869 6.0229126 20.09266113 6.79191895 20.09008789 7.58422852 C20.08098389 8.56705811 20.07187988 9.5498877 20.0625 10.5625 C20.041875 13.676875 20.02125 16.79125 20 20 C13.4 20 6.8 20 0 20 C0 13.4 0 6.8 0 0 Z " fill="#428ABB" transform="translate(151,46)"/>
<path d="M0 0 C6.6 0 13.2 0 20 0 C20.020625 3.114375 20.04125 6.22875 20.0625 9.4375 C20.071604 10.42032959 20.08070801 11.40315918 20.09008789 12.41577148 C20.09258545 13.18477783 20.09508301 13.95378418 20.09765625 14.74609375 C20.10551147 15.93223267 20.10551147 15.93223267 20.11352539 17.14233398 C20 19 20 19 19 20 C17.66956375 20.0983721 16.33406656 20.13078592 15 20.1328125 C14.195625 20.13410156 13.39125 20.13539062 12.5625 20.13671875 C11.716875 20.13285156 10.87125 20.12898438 10 20.125 C9.154375 20.12886719 8.30875 20.13273437 7.4375 20.13671875 C6.633125 20.13542969 5.82875 20.13414063 5 20.1328125 C4.2575 20.13168457 3.515 20.13055664 2.75 20.12939453 C1 20 1 20 0 19 C-0.08651611 17.58429877 -0.10704904 16.164405 -0.09765625 14.74609375 C-0.09515869 13.9770874 -0.09266113 13.20808105 -0.09008789 12.41577148 C-0.07643188 10.9415271 -0.07643188 10.9415271 -0.0625 9.4375 C-0.041875 6.323125 -0.02125 3.20875 0 0 Z " fill="#287DBA" transform="translate(263,90)"/>
<path d="M0 0 C0.804375 -0.00128906 1.60875 -0.00257812 2.4375 -0.00390625 C3.283125 -0.00003906 4.12875 0.00382812 5 0.0078125 C6.2684375 0.00201172 6.2684375 0.00201172 7.5625 -0.00390625 C8.366875 -0.00261719 9.17125 -0.00132813 10 0 C10.7425 0.00112793 11.485 0.00225586 12.25 0.00341797 C14 0.1328125 14 0.1328125 15 1.1328125 C15.08651611 2.54851373 15.10704904 3.9684075 15.09765625 5.38671875 C15.09515869 6.1557251 15.09266113 6.92473145 15.09008789 7.71704102 C15.08098389 8.69987061 15.07187988 9.6827002 15.0625 10.6953125 C15.041875 13.8096875 15.02125 16.9240625 15 20.1328125 C8.4 20.1328125 1.8 20.1328125 -5 20.1328125 C-5.0309375 15.46125 -5.0309375 15.46125 -5.0625 10.6953125 C-5.071604 9.71248291 -5.08070801 8.72965332 -5.09008789 7.71704102 C-5.09258545 6.94803467 -5.09508301 6.17902832 -5.09765625 5.38671875 C-5.10551147 4.20057983 -5.10551147 4.20057983 -5.11352539 2.99047852 C-4.89918292 -0.51690185 -3.04503548 0.0046257 0 0 Z " fill="#297DB8" transform="translate(243,80.8671875)"/>
<path d="M0 0 C1.18613892 0.00785522 1.18613892 0.00785522 2.39624023 0.01586914 C3.16524658 0.0183667 3.93425293 0.02086426 4.7265625 0.0234375 C5.70939209 0.0325415 6.69222168 0.04164551 7.70483398 0.05102539 C12.37639648 0.08196289 12.37639648 0.08196289 17.14233398 0.11352539 C17.14233398 6.71352539 17.14233398 13.31352539 17.14233398 20.11352539 C14.02795898 20.13415039 10.91358398 20.15477539 7.70483398 20.17602539 C6.2305896 20.1896814 6.2305896 20.1896814 4.7265625 20.20361328 C3.95755615 20.20611084 3.1885498 20.2086084 2.39624023 20.21118164 C1.60548096 20.21641846 0.81472168 20.22165527 0 20.22705078 C-1.85766602 20.11352539 -1.85766602 20.11352539 -2.85766602 19.11352539 C-2.95603812 17.78308914 -2.98845194 16.44759195 -2.99047852 15.11352539 C-2.99176758 14.30915039 -2.99305664 13.50477539 -2.99438477 12.67602539 C-2.99051758 11.83040039 -2.98665039 10.98477539 -2.98266602 10.11352539 C-2.9865332 9.26790039 -2.99040039 8.42227539 -2.99438477 7.55102539 C-2.9930957 6.74665039 -2.99180664 5.94227539 -2.99047852 5.11352539 C-2.98935059 4.37102539 -2.98822266 3.62852539 -2.98706055 2.86352539 C-2.80531182 0.4054596 -2.45586934 0.1500827 0 0 Z " fill="#455A72" transform="translate(216.857666015625,71.886474609375)"/>
<path d="M0 0 C0.804375 -0.00128906 1.60875 -0.00257812 2.4375 -0.00390625 C3.283125 -0.00003906 4.12875 0.00382812 5 0.0078125 C6.2684375 0.00201172 6.2684375 0.00201172 7.5625 -0.00390625 C8.366875 -0.00261719 9.17125 -0.00132813 10 0 C10.7425 0.00112793 11.485 0.00225586 12.25 0.00341797 C14 0.1328125 14 0.1328125 15 1.1328125 C15.0983721 2.46324875 15.13078592 3.79874594 15.1328125 5.1328125 C15.13474609 6.339375 15.13474609 6.339375 15.13671875 7.5703125 C15.13285156 8.4159375 15.12898438 9.2615625 15.125 10.1328125 C15.13080078 11.40125 15.13080078 11.40125 15.13671875 12.6953125 C15.13542969 13.4996875 15.13414062 14.3040625 15.1328125 15.1328125 C15.13168457 15.8753125 15.13055664 16.6178125 15.12939453 17.3828125 C15 19.1328125 15 19.1328125 14 20.1328125 C12.58429877 20.21932861 11.164405 20.23986154 9.74609375 20.23046875 C8.89208984 20.22724609 8.03808594 20.22402344 7.15820312 20.22070312 C6.26037109 20.21232422 5.36253906 20.20394531 4.4375 20.1953125 C3.53580078 20.19080078 2.63410156 20.18628906 1.70507812 20.18164062 C-0.53001314 20.16981475 -2.76497437 20.1533347 -5 20.1328125 C-5.02888514 16.98699827 -5.04675923 13.84121781 -5.0625 10.6953125 C-5.07087891 9.79748047 -5.07925781 8.89964844 -5.08789062 7.97460938 C-5.09111328 7.12060547 -5.09433594 6.26660156 -5.09765625 5.38671875 C-5.10551147 4.20057983 -5.10551147 4.20057983 -5.11352539 2.99047852 C-4.89918292 -0.51690185 -3.04503548 0.0046257 0 0 Z " fill="#287DBB" transform="translate(180,45.8671875)"/>
<path d="M0 0 C0.79341797 -0.00386719 1.58683594 -0.00773437 2.40429688 -0.01171875 C8.31086933 -0.00163067 8.31086933 -0.00163067 9.4375 1.125 C9.5358721 2.45543625 9.56828592 3.79093344 9.5703125 5.125 C9.57224609 6.3315625 9.57224609 6.3315625 9.57421875 7.5625 C9.57035156 8.408125 9.56648438 9.25375 9.5625 10.125 C9.56830078 11.3934375 9.56830078 11.3934375 9.57421875 12.6875 C9.57292969 13.491875 9.57164062 14.29625 9.5703125 15.125 C9.56918457 15.8675 9.56805664 16.61 9.56689453 17.375 C9.4375 19.125 9.4375 19.125 8.4375 20.125 C7.10706375 20.2233721 5.77156656 20.25578592 4.4375 20.2578125 C3.633125 20.25910156 2.82875 20.26039063 2 20.26171875 C1.154375 20.25785156 0.30875 20.25398438 -0.5625 20.25 C-1.408125 20.25386719 -2.25375 20.25773437 -3.125 20.26171875 C-3.929375 20.26042969 -4.73375 20.25914062 -5.5625 20.2578125 C-6.305 20.25668457 -7.0475 20.25555664 -7.8125 20.25439453 C-9.5625 20.125 -9.5625 20.125 -10.5625 19.125 C-10.64881874 17.78232587 -10.66956473 16.43525678 -10.66015625 15.08984375 C-10.65693359 14.28095703 -10.65371094 13.47207031 -10.65039062 12.63867188 C-10.64201172 11.78853516 -10.63363281 10.93839844 -10.625 10.0625 C-10.62048828 9.20849609 -10.61597656 8.35449219 -10.61132812 7.47460938 C-10.59950373 5.35804337 -10.58156769 3.24151315 -10.5625 1.125 C-7.26572112 -0.52338944 -3.61933956 -0.01772738 0 0 Z " fill="#297CB7" transform="translate(239.5625,126.875)"/>
<path d="M0 0 C0.804375 -0.00128906 1.60875 -0.00257812 2.4375 -0.00390625 C3.283125 -0.00003906 4.12875 0.00382812 5 0.0078125 C6.2684375 0.00201172 6.2684375 0.00201172 7.5625 -0.00390625 C8.366875 -0.00261719 9.17125 -0.00132813 10 0 C10.7425 0.00112793 11.485 0.00225586 12.25 0.00341797 C14 0.1328125 14 0.1328125 15 1.1328125 C15.08651611 2.54851373 15.10704904 3.9684075 15.09765625 5.38671875 C15.09515869 6.1557251 15.09266113 6.92473145 15.09008789 7.71704102 C15.08098389 8.69987061 15.07187988 9.6827002 15.0625 10.6953125 C15.041875 13.8096875 15.02125 16.9240625 15 20.1328125 C8.73 20.1328125 2.46 20.1328125 -4 20.1328125 C-5.24674334 16.39258248 -5.14552755 12.9012039 -5.125 9.0078125 C-5.12886719 8.26660156 -5.13273438 7.52539062 -5.13671875 6.76171875 C-5.12437152 0.00778442 -5.12437152 0.00778442 0 0 Z " fill="#3181B8" transform="translate(204,45.8671875)"/>
<path d="M0 0 C0.804375 -0.00128906 1.60875 -0.00257812 2.4375 -0.00390625 C3.283125 -0.00003906 4.12875 0.00382812 5 0.0078125 C6.2684375 0.00201172 6.2684375 0.00201172 7.5625 -0.00390625 C8.366875 -0.00261719 9.17125 -0.00132813 10 0 C10.7425 0.00112793 11.485 0.00225586 12.25 0.00341797 C14 0.1328125 14 0.1328125 15 1.1328125 C15.08631874 2.47548663 15.10706473 3.82255572 15.09765625 5.16796875 C15.09443359 5.97685547 15.09121094 6.78574219 15.08789062 7.61914062 C15.07951172 8.46927734 15.07113281 9.31941406 15.0625 10.1953125 C15.05798828 11.04931641 15.05347656 11.90332031 15.04882812 12.78320312 C15.03700373 14.89976913 15.01906769 17.01629935 15 19.1328125 C11.08860624 20.21772464 7.34739962 20.28084713 3.3125 20.2578125 C2.62349609 20.26167969 1.93449219 20.26554687 1.22460938 20.26953125 C-3.87330665 20.25950585 -3.87330665 20.25950585 -5 19.1328125 C-5.0983721 17.80237625 -5.13078592 16.46687906 -5.1328125 15.1328125 C-5.13410156 14.3284375 -5.13539063 13.5240625 -5.13671875 12.6953125 C-5.13285156 11.8496875 -5.12898437 11.0040625 -5.125 10.1328125 C-5.12886719 9.2871875 -5.13273438 8.4415625 -5.13671875 7.5703125 C-5.13542969 6.7659375 -5.13414062 5.9615625 -5.1328125 5.1328125 C-5.13168457 4.3903125 -5.13055664 3.6478125 -5.12939453 2.8828125 C-4.87704063 -0.53015494 -2.94665813 0.00447626 0 0 Z " fill="#4C607A" transform="translate(174,81.8671875)"/>
<path d="M0 0 C2.97922593 -0.02683987 5.95821295 -0.04676037 8.9375 -0.0625 C9.78763672 -0.07087891 10.63777344 -0.07925781 11.51367188 -0.08789062 C12.32255859 -0.09111328 13.13144531 -0.09433594 13.96484375 -0.09765625 C14.7137085 -0.10289307 15.46257324 -0.10812988 16.23413086 -0.11352539 C18 0 18 0 19 1 C19.08651611 2.41570123 19.10704904 3.835595 19.09765625 5.25390625 C19.09515869 6.0229126 19.09266113 6.79191895 19.09008789 7.58422852 C19.08098389 8.56705811 19.07187988 9.5498877 19.0625 10.5625 C19.041875 13.676875 19.02125 16.79125 19 20 C12.73 20 6.46 20 0 20 C-1.01295167 16.96114499 -1.13379163 14.86567275 -1.125 11.6875 C-1.12757813 10.76324219 -1.13015625 9.83898437 -1.1328125 8.88671875 C-0.99345588 5.85776153 -0.55437015 2.97863961 0 0 Z " fill="#458DBE" transform="translate(214,95)"/>
<path d="M0 0 C0.74121094 0.00386719 1.48242188 0.00773438 2.24609375 0.01171875 C3.34630859 0.00591797 3.34630859 0.00591797 4.46875 0 C7.69542613 0.00587737 10.28952796 0.10953015 13.37109375 1.13671875 C13.37109375 7.40671875 13.37109375 13.67671875 13.37109375 20.13671875 C6.77109375 20.13671875 0.17109375 20.13671875 -6.62890625 20.13671875 C-6.65984375 15.46515625 -6.65984375 15.46515625 -6.69140625 10.69921875 C-6.70051025 9.71638916 -6.70961426 8.73355957 -6.71899414 7.72094727 C-6.7214917 6.95194092 -6.72398926 6.18293457 -6.7265625 5.390625 C-6.73441772 4.20448608 -6.73441772 4.20448608 -6.74243164 2.99438477 C-6.49218782 -1.10046519 -3.38775069 0.00619333 0 0 Z " fill="#287DB9" transform="translate(269.62890625,132.86328125)"/>
<path d="M0 0 C1.18613892 0.07069702 1.18613892 0.07069702 2.39624023 0.14282227 C3.67724609 0.21533203 3.67724609 0.21533203 4.98413086 0.28930664 C5.88196289 0.34538086 6.77979492 0.40145508 7.70483398 0.45922852 C8.6065332 0.51143555 9.50823242 0.56364258 10.43725586 0.61743164 C12.67259948 0.74753101 14.90754288 0.88250788 17.14233398 1.02172852 C17.16917386 4.00095445 17.18909435 6.97994146 17.20483398 9.95922852 C17.21321289 10.80936523 17.2215918 11.65950195 17.23022461 12.53540039 C17.23505859 13.74873047 17.23505859 13.74873047 17.23999023 14.98657227 C17.24784546 16.10986938 17.24784546 16.10986938 17.25585938 17.25585938 C17.14233398 19.02172852 17.14233398 19.02172852 16.14233398 20.02172852 C14.72663275 20.10824462 13.30673898 20.12877756 11.88842773 20.11938477 C11.03442383 20.11616211 10.18041992 20.11293945 9.30053711 20.10961914 C8.40270508 20.10124023 7.50487305 20.09286133 6.57983398 20.08422852 C5.67813477 20.0797168 4.77643555 20.07520508 3.84741211 20.07055664 C1.61232085 20.05873076 -0.62264038 20.04225072 -2.85766602 20.02172852 C-2.88655116 16.87591428 -2.90442525 13.73013383 -2.92016602 10.58422852 C-2.92854492 9.68639648 -2.93692383 8.78856445 -2.94555664 7.86352539 C-2.9487793 7.00952148 -2.95200195 6.15551758 -2.95532227 5.27563477 C-2.96317749 4.08949585 -2.96317749 4.08949585 -2.97119141 2.87939453 C-2.81660884 0.34989185 -2.54416084 0.02975822 0 0 Z " fill="#445870" transform="translate(207.857666015625,119.978271484375)"/>
<path d="M0 0 C6.6 0 13.2 0 20 0 C20 6.27 20 12.54 20 19 C13.4 19 6.8 19 0 19 C0 12.73 0 6.46 0 0 Z " fill="#455A75" transform="translate(263,112)"/>
<path d="M0 0 C6.6 0 13.2 0 20 0 C20 6.27 20 12.54 20 19 C13.4 19 6.8 19 0 19 C0 12.73 0 6.46 0 0 Z " fill="#455972" transform="translate(263,69)"/>
<path d="M0 0 C1.18613892 0.00785522 1.18613892 0.00785522 2.39624023 0.01586914 C3.16524658 0.0183667 3.93425293 0.02086426 4.7265625 0.0234375 C5.70939209 0.0325415 6.69222168 0.04164551 7.70483398 0.05102539 C12.37639648 0.08196289 12.37639648 0.08196289 17.14233398 0.11352539 C17.14233398 6.38352539 17.14233398 12.65352539 17.14233398 19.11352539 C10.54233398 19.11352539 3.94233398 19.11352539 -2.85766602 19.11352539 C-2.87829102 16.16415039 -2.89891602 13.21477539 -2.92016602 10.17602539 C-2.92927002 9.24540283 -2.93837402 8.31478027 -2.94775391 7.35595703 C-2.95025146 6.62755615 -2.95274902 5.89915527 -2.95532227 5.14868164 C-2.96055908 4.39981689 -2.9657959 3.65095215 -2.97119141 2.87939453 C-2.81232325 0.40822605 -2.46633109 0.15072203 0 0 Z " fill="#465A74" transform="translate(240.857666015625,150.886474609375)"/>
<path d="M0 0 C6.27 0 12.54 0 19 0 C19.020625 3.114375 19.04125 6.22875 19.0625 9.4375 C19.071604 10.42032959 19.08070801 11.40315918 19.09008789 12.41577148 C19.09258545 13.18477783 19.09508301 13.95378418 19.09765625 14.74609375 C19.10551147 15.93223267 19.10551147 15.93223267 19.11352539 17.14233398 C19 19 19 19 18 20 C16.65732587 20.08631874 15.31025678 20.10706473 13.96484375 20.09765625 C12.87224243 20.09390991 12.87224243 20.09390991 11.75756836 20.09008789 C10.8269458 20.08098389 9.89632324 20.07187988 8.9375 20.0625 C4.5134375 20.0315625 4.5134375 20.0315625 0 20 C0 13.4 0 6.8 0 0 Z " fill="#357EB3" transform="translate(183,107)"/>
<path d="M0 0 C0.79792969 0.00386719 1.59585938 0.00773437 2.41796875 0.01171875 C3.21589844 0.00785156 4.01382813 0.00398438 4.8359375 0 C10.79136108 0.01011108 10.79136108 0.01011108 11.91796875 1.13671875 C12.00448486 2.55241998 12.02501779 3.97231375 12.015625 5.390625 C12.01312744 6.15963135 12.01062988 6.9286377 12.00805664 7.72094727 C11.99895264 8.70377686 11.98984863 9.68660645 11.98046875 10.69921875 C11.95984375 13.81359375 11.93921875 16.92796875 11.91796875 20.13671875 C5.64796875 20.13671875 -0.62203125 20.13671875 -7.08203125 20.13671875 C-7.11296875 15.46515625 -7.11296875 15.46515625 -7.14453125 10.69921875 C-7.15363525 9.71638916 -7.16273926 8.73355957 -7.17211914 7.72094727 C-7.1746167 6.95194092 -7.17711426 6.18293457 -7.1796875 5.390625 C-7.18754272 4.20448608 -7.18754272 4.20448608 -7.19555664 2.99438477 C-6.93624032 -1.24892244 -3.45896681 0.00587261 0 0 Z " fill="#516378" transform="translate(244.08203125,103.86328125)"/>
<path d="M0 0 C6.27 0 12.54 0 19 0 C19 6.27 19 12.54 19 19 C12.73 19 6.46 19 0 19 C0 12.73 0 6.46 0 0 Z " fill="#52657C" transform="translate(192,85)"/>
<path d="M0 0 C2.31 0 4.62 0 7 0 C7.66 1.32 8.32 2.64 9 4 C9.66 3.34 10.32 2.68 11 2 C13.61580479 2.3269756 15.64078137 2.82039068 18 4 C17.49396008 6.16874252 17.00016187 7.99967627 16 10 C17.98 9.67 19.96 9.34 22 9 C25 12.625 25 12.625 25 16 C24.01 16.66 23.02 17.32 22 18 C23.32 18.33 24.64 18.66 26 19 C26 21.64 26 24.28 26 27 C25.67 27 25.34 27 25 27 C25 24.69 25 22.38 25 20 C23.02 20 21.04 20 19 20 C18.33333333 18.66666667 17.66666667 17.33333333 17 16 C16.443125 16.2475 15.88625 16.495 15.3125 16.75 C14.549375 16.8325 13.78625 16.915 13 17 C12.319375 16.360625 11.63875 15.72125 10.9375 15.0625 C6.98350826 12.28629304 4.12468888 12.80262803 -0.57421875 13.15234375 C-1.37472656 13.10207031 -2.17523438 13.05179688 -3 13 C-3.66 12.01 -4.32 11.02 -5 10 C-4.34 10 -3.68 10 -3 10 C-3 9.01 -3 8.02 -3 7 C-4.32 6.34 -5.64 5.68 -7 5 C-7 5.99 -7 6.98 -7 8 C-7.33 8.99 -7.66 9.98 -8 11 C-9.32 10.67 -10.64 10.34 -12 10 C-11.34 10 -10.68 10 -10 10 C-10.33 8.02 -10.66 6.04 -11 4 C-8.70221327 2.6049152 -7.5207033 1.92561381 -4.8125 2.3125 C-3 3 -3 3 -2 4 C-1.34 2.68 -0.68 1.36 0 0 Z " fill="#59687F" transform="translate(76,78)"/>
<path d="M0 0 C3.3 0 6.6 0 10 0 C10.66 1.32 11.32 2.64 12 4 C12.99 4.33 13.98 4.66 15 5 C16.54893065 12.89954634 16.54893065 12.89954634 14 17 C11.28521935 19.51613816 9.38772206 20.98641708 5.60546875 21.0234375 C3.37364132 20.77740928 1.19920138 20.4496145 -1 20 C-1.33 19.01 -1.66 18.02 -2 17 C-2.99 16.67 -3.98 16.34 -5 16 C-6.28571429 7.42857143 -6.28571429 7.42857143 -5 4 C-4.01 4 -3.02 4 -2 4 C-1.34 2.68 -0.68 1.36 0 0 Z M2 6 C-0.31543207 8.76988076 -0.31543207 8.76988076 0.3125 11.625 C0.7741514 13.93501965 0.7741514 13.93501965 2 15 C4.45809998 15.2500773 4.45809998 15.2500773 7 15 C7.66 14.34 8.32 13.68 9 13 C8.67673447 9.40320934 8.67673447 9.40320934 8 6 C5.08365871 5.7497843 5.08365871 5.7497843 2 6 Z " fill="#588FB2" transform="translate(87,123)"/>
<path d="M0 0 C0.66 0.33 1.32 0.66 2 1 C1.67 1.66 1.34 2.32 1 3 C4.08809695 4.76462683 5.23312136 5 9 5 C9 4.34 9 3.68 9 3 C10.65 3 12.3 3 14 3 C11.41062662 5.04992059 8.70679454 6.89230354 5.9375 8.6875 C5.26589844 9.12449219 4.59429687 9.56148437 3.90234375 10.01171875 C2 11 2 11 -1 11 C-1 11.66 -1 12.32 -1 13 C-10.36177715 18.82510578 -10.36177715 18.82510578 -16 18 C-16.66 17.67 -17.32 17.34 -18 17 C-18 17.66 -18 18.32 -18 19 C-18.66 18.67 -19.32 18.34 -20 18 C-20 17.01 -20 16.02 -20 15 C-19.43410156 14.74605469 -18.86820312 14.49210938 -18.28515625 14.23046875 C-17.55167969 13.88628906 -16.81820312 13.54210937 -16.0625 13.1875 C-15.33160156 12.85105469 -14.60070312 12.51460937 -13.84765625 12.16796875 C-11.66970511 11.06399866 -11.66970511 11.06399866 -11 8 C-8.92425239 4.88637859 -7.6945425 4.01322151 -4.5 2.25 C-3.7059375 1.80140625 -2.911875 1.3528125 -2.09375 0.890625 C-1.05734375 0.44976562 -1.05734375 0.44976562 0 0 Z " fill="#53667B" transform="translate(104,161)"/>
<path d="M0 0 C0.74121094 0.00386719 1.48242188 0.00773438 2.24609375 0.01171875 C3.34630859 0.00591797 3.34630859 0.00591797 4.46875 0 C7.69542613 0.00587737 10.28952796 0.10953015 13.37109375 1.13671875 C13.37109375 7.40671875 13.37109375 13.67671875 13.37109375 20.13671875 C6.77109375 20.13671875 0.17109375 20.13671875 -6.62890625 20.13671875 C-6.65984375 15.46515625 -6.65984375 15.46515625 -6.69140625 10.69921875 C-6.70051025 9.71638916 -6.70961426 8.73355957 -6.71899414 7.72094727 C-6.7214917 6.95194092 -6.72398926 6.18293457 -6.7265625 5.390625 C-6.73441772 4.20448608 -6.73441772 4.20448608 -6.74243164 2.99438477 C-6.49218782 -1.10046519 -3.38775069 0.00619333 0 0 Z M-3.62890625 3.13671875 C-4.12390625 10.56171875 -4.12390625 10.56171875 -4.62890625 18.13671875 C0.65109375 18.13671875 5.93109375 18.13671875 11.37109375 18.13671875 C11.39171875 16.77546875 11.41234375 15.41421875 11.43359375 14.01171875 C11.44519531 13.24601563 11.45679688 12.4803125 11.46875 11.69140625 C11.40241758 8.54395967 11.40241758 8.54395967 10.37109375 3.13671875 C6.08109375 3.79671875 1.79109375 4.45671875 -2.62890625 5.13671875 C-2.95890625 4.47671875 -3.28890625 3.81671875 -3.62890625 3.13671875 Z " fill="#5E94B8" transform="translate(269.62890625,132.86328125)"/>
<path d="M0 0 C0.99 0.66 1.98 1.32 3 2 C2.34 2 1.68 2 1 2 C1 2.99 1 3.98 1 5 C-1.64 5 -4.28 5 -7 5 C-6.67 5.99 -6.34 6.98 -6 8 C-3.03 8.33 -0.06 8.66 3 9 C-0.47591382 11.90828752 -3.99613562 14.26808195 -7.9375 16.5 C-11.24931114 18.38781372 -14.47417513 20.26523226 -17.5625 22.5 C-18.366875 22.995 -19.17125 23.49 -20 24 C-20.99 23.67 -21.98 23.34 -23 23 C-23 22.34 -23 21.68 -23 21 C-22.401875 20.71125 -21.80375 20.4225 -21.1875 20.125 C-17.02297418 18.04797494 -17.02297418 18.04797494 -15 14 C-15.99 13.01 -16.98 12.02 -18 11 C-12.19623036 6.76610248 -6.52522047 3.0209354 0 0 Z " fill="#677688" transform="translate(117,169)"/>
<path d="M0 0 C3.96 0 7.92 0 12 0 C12 4.29 12 8.58 12 13 C8.04 13 4.08 13 0 13 C0 8.71 0 4.42 0 0 Z " fill="#3076A9" transform="translate(179,67)"/>
<path d="M0 0 C3.96 0 7.92 0 12 0 C12.09765625 9.27734375 12.09765625 9.27734375 12 12 C11 13 11 13 8.75 13.1328125 C7.8425 13.13023438 6.935 13.12765625 6 13.125 C4.63875 13.12886719 4.63875 13.12886719 3.25 13.1328125 C1 13 1 13 0 12 C-0.14355117 7.99779347 -0.04216403 4.00558317 0 0 Z " fill="#2B78B0" transform="translate(242,67)"/>
<path d="M0 0 C8.21324503 -0.61986755 8.21324503 -0.61986755 11.0625 1.625 C12.23149878 4.58646357 12.27466391 6.84136499 12 10 C11.67 10.66 11.34 11.32 11 12 C10.34 12 9.68 12 9 12 C9 12.66 9 13.32 9 14 C5.62182575 14.84454356 3.32534757 15.10844919 0 14 C0 13.34 0 12.68 0 12 C-0.66 12 -1.32 12 -2 12 C-3.125 5.375 -3.125 5.375 -2 2 C-1.34 2 -0.68 2 0 2 C0 1.34 0 0.68 0 0 Z M3 4 C2.01 5.485 2.01 5.485 1 7 C1.99 8.485 1.99 8.485 3 10 C4.32 9.67 5.64 9.34 7 9 C6.67 7.35 6.34 5.7 6 4 C5.01 4 4.02 4 3 4 Z " fill="#737B8A" transform="translate(101,112)"/>
<path d="M0 0 C3.114375 -0.020625 6.22875 -0.04125 9.4375 -0.0625 C10.91174438 -0.07615601 10.91174438 -0.07615601 12.41577148 -0.09008789 C13.18477783 -0.09258545 13.95378418 -0.09508301 14.74609375 -0.09765625 C15.93223267 -0.10551147 15.93223267 -0.10551147 17.14233398 -0.11352539 C19 0 19 0 20 1 C20.08651611 2.41570123 20.10704904 3.835595 20.09765625 5.25390625 C20.09515869 6.0229126 20.09266113 6.79191895 20.09008789 7.58422852 C20.08098389 8.56705811 20.07187988 9.5498877 20.0625 10.5625 C20.041875 13.676875 20.02125 16.79125 20 20 C13.4 20 6.8 20 0 20 C0 13.4 0 6.8 0 0 Z M2 2 C1.95875 3.711875 1.9175 5.42375 1.875 7.1875 C1.85179687 8.15042969 1.82859375 9.11335938 1.8046875 10.10546875 C1.8808501 13.44655516 1.8808501 13.44655516 4 18 C8.62 18 13.24 18 18 18 C18 12.72 18 7.44 18 2 C12.72 2 7.44 2 2 2 Z " fill="#6894B6" transform="translate(247,46)"/>
<path d="M0 0 C0.9075 0.00257812 1.815 0.00515625 2.75 0.0078125 C4.11125 0.00394531 4.11125 0.00394531 5.5 0 C7.75 0.1328125 7.75 0.1328125 8.75 1.1328125 C8.82244053 3.15245449 8.83377188 5.17448374 8.8125 7.1953125 C8.80347656 8.30003906 8.79445312 9.40476562 8.78515625 10.54296875 C8.77355469 11.39761719 8.76195312 12.25226563 8.75 13.1328125 C5.12 13.1328125 1.49 13.1328125 -2.25 13.1328125 C-3.19738023 10.29067182 -3.38460559 8.45672859 -3.375 5.5078125 C-3.37757813 4.71117188 -3.38015625 3.91453125 -3.3828125 3.09375 C-3.19039719 0.25279447 -2.84557052 0.1679677 0 0 Z " fill="#468ABB" transform="translate(202.25,66.8671875)"/>
<path d="M0 0 C0.804375 -0.00128906 1.60875 -0.00257812 2.4375 -0.00390625 C3.283125 -0.00003906 4.12875 0.00382812 5 0.0078125 C6.2684375 0.00201172 6.2684375 0.00201172 7.5625 -0.00390625 C8.366875 -0.00261719 9.17125 -0.00132813 10 0 C10.7425 0.00112793 11.485 0.00225586 12.25 0.00341797 C14 0.1328125 14 0.1328125 15 1.1328125 C15.08651611 2.54851373 15.10704904 3.9684075 15.09765625 5.38671875 C15.09515869 6.1557251 15.09266113 6.92473145 15.09008789 7.71704102 C15.08098389 8.69987061 15.07187988 9.6827002 15.0625 10.6953125 C15.041875 13.8096875 15.02125 16.9240625 15 20.1328125 C8.4 20.1328125 1.8 20.1328125 -5 20.1328125 C-5.0309375 15.46125 -5.0309375 15.46125 -5.0625 10.6953125 C-5.071604 9.71248291 -5.08070801 8.72965332 -5.09008789 7.71704102 C-5.09258545 6.94803467 -5.09508301 6.17902832 -5.09765625 5.38671875 C-5.10551147 4.20057983 -5.10551147 4.20057983 -5.11352539 2.99047852 C-4.89918292 -0.51690185 -3.04503548 0.0046257 0 0 Z M-3 2.1328125 C-3 7.4128125 -3 12.6928125 -3 18.1328125 C2.28 18.1328125 7.56 18.1328125 13 18.1328125 C13 12.8528125 13 7.5728125 13 2.1328125 C7.72 2.1328125 2.44 2.1328125 -3 2.1328125 Z " fill="#6E99B7" transform="translate(243,80.8671875)"/>
<path d="M0 0 C0.79341797 -0.00386719 1.58683594 -0.00773437 2.40429688 -0.01171875 C8.31086933 -0.00163067 8.31086933 -0.00163067 9.4375 1.125 C9.5358721 2.45543625 9.56828592 3.79093344 9.5703125 5.125 C9.57224609 6.3315625 9.57224609 6.3315625 9.57421875 7.5625 C9.57035156 8.408125 9.56648438 9.25375 9.5625 10.125 C9.56830078 11.3934375 9.56830078 11.3934375 9.57421875 12.6875 C9.57292969 13.491875 9.57164062 14.29625 9.5703125 15.125 C9.56918457 15.8675 9.56805664 16.61 9.56689453 17.375 C9.4375 19.125 9.4375 19.125 8.4375 20.125 C7.10706375 20.2233721 5.77156656 20.25578592 4.4375 20.2578125 C3.633125 20.25910156 2.82875 20.26039063 2 20.26171875 C1.154375 20.25785156 0.30875 20.25398438 -0.5625 20.25 C-1.408125 20.25386719 -2.25375 20.25773437 -3.125 20.26171875 C-3.929375 20.26042969 -4.73375 20.25914062 -5.5625 20.2578125 C-6.305 20.25668457 -7.0475 20.25555664 -7.8125 20.25439453 C-9.5625 20.125 -9.5625 20.125 -10.5625 19.125 C-10.64881874 17.78232587 -10.66956473 16.43525678 -10.66015625 15.08984375 C-10.65693359 14.28095703 -10.65371094 13.47207031 -10.65039062 12.63867188 C-10.64201172 11.78853516 -10.63363281 10.93839844 -10.625 10.0625 C-10.62048828 9.20849609 -10.61597656 8.35449219 -10.61132812 7.47460938 C-10.59950373 5.35804337 -10.58156769 3.24151315 -10.5625 1.125 C-7.26572112 -0.52338944 -3.61933956 -0.01772738 0 0 Z M-8.5625 2.125 C-8.5625 7.405 -8.5625 12.685 -8.5625 18.125 C-3.2825 18.125 1.9975 18.125 7.4375 18.125 C7.4375 12.845 7.4375 7.565 7.4375 2.125 C2.1575 2.125 -3.1225 2.125 -8.5625 2.125 Z " fill="#6696B5" transform="translate(239.5625,126.875)"/>
<path d="M0 0 C0.99 0.33 1.98 0.66 3 1 C3 1.66 3 2.32 3 3 C3.66 3.33 4.32 3.66 5 4 C1.375 7 1.375 7 -2 7 C-2 7.66 -2 8.32 -2 9 C-3.65 9.33 -5.3 9.66 -7 10 C-7.33 11.32 -7.66 12.64 -8 14 C-11.3 13.34 -14.6 12.68 -18 12 C-15.75842042 7.51684085 -14.35768462 6.64535476 -10.125 4.1875 C-9.07570313 3.56230469 -8.02640625 2.93710938 -6.9453125 2.29296875 C-4 1 -4 1 -1.6171875 1.30078125 C-1.08351563 1.53152344 -0.54984375 1.76226562 0 2 C0 1.34 0 0.68 0 0 Z " fill="#44586E" transform="translate(73,197)"/>
<path d="M0 0 C5.28 0 10.56 0 16 0 C16 0.33 16 0.66 16 1 C11.29654425 2.21379503 6.82569313 2.07202527 2 2 C2 7.28 2 12.56 2 18 C7.28 18 12.56 18 18 18 C17.67 12.06 17.34 6.12 17 0 C17.99 0 18.98 0 20 0 C20.02888514 3.14581423 20.04675923 6.29159469 20.0625 9.4375 C20.07087891 10.33533203 20.07925781 11.23316406 20.08789062 12.15820312 C20.09272461 13.43920898 20.09272461 13.43920898 20.09765625 14.74609375 C20.10551147 15.93223267 20.10551147 15.93223267 20.11352539 17.14233398 C20 19 20 19 19 20 C17.58429877 20.08651611 16.164405 20.10704904 14.74609375 20.09765625 C13.9770874 20.09515869 13.20808105 20.09266113 12.41577148 20.09008789 C11.43294189 20.08098389 10.4501123 20.07187988 9.4375 20.0625 C4.7659375 20.0315625 4.7659375 20.0315625 0 20 C0 13.4 0 6.8 0 0 Z " fill="#6D95B2" transform="translate(148,69)"/>
<path d="M0 0 C1.18613892 0.00785522 1.18613892 0.00785522 2.39624023 0.01586914 C3.16524658 0.0183667 3.93425293 0.02086426 4.7265625 0.0234375 C5.70939209 0.0325415 6.69222168 0.04164551 7.70483398 0.05102539 C12.37639648 0.08196289 12.37639648 0.08196289 17.14233398 0.11352539 C17.14233398 6.71352539 17.14233398 13.31352539 17.14233398 20.11352539 C14.02795898 20.13415039 10.91358398 20.15477539 7.70483398 20.17602539 C6.2305896 20.1896814 6.2305896 20.1896814 4.7265625 20.20361328 C3.95755615 20.20611084 3.1885498 20.2086084 2.39624023 20.21118164 C1.60548096 20.21641846 0.81472168 20.22165527 0 20.22705078 C-1.85766602 20.11352539 -1.85766602 20.11352539 -2.85766602 19.11352539 C-2.95603812 17.78308914 -2.98845194 16.44759195 -2.99047852 15.11352539 C-2.99176758 14.30915039 -2.99305664 13.50477539 -2.99438477 12.67602539 C-2.99051758 11.83040039 -2.98665039 10.98477539 -2.98266602 10.11352539 C-2.9865332 9.26790039 -2.99040039 8.42227539 -2.99438477 7.55102539 C-2.9930957 6.74665039 -2.99180664 5.94227539 -2.99047852 5.11352539 C-2.98935059 4.37102539 -2.98822266 3.62852539 -2.98706055 2.86352539 C-2.80531182 0.4054596 -2.45586934 0.1500827 0 0 Z M-0.85766602 2.11352539 C-0.85766602 7.39352539 -0.85766602 12.67352539 -0.85766602 18.11352539 C2.20766563 19.64619121 5.4098767 19.2162901 8.76733398 19.17602539 C9.47374023 19.17151367 10.18014648 19.16700195 10.90795898 19.16235352 C12.65278674 19.15056414 14.39757098 19.13262864 16.14233398 19.11352539 C16.16925084 16.65511934 16.18913201 14.19700657 16.20483398 11.73852539 C16.21321289 11.03985352 16.2215918 10.34118164 16.23022461 9.62133789 C16.32587818 5.74057163 16.32587818 5.74057163 15.14233398 2.11352539 C9.86233398 2.11352539 4.58233398 2.11352539 -0.85766602 2.11352539 Z " fill="#88919F" transform="translate(216.857666015625,71.886474609375)"/>
<path d="M0 0 C0.66 0 1.32 0 2 0 C2.33 5.28 2.66 10.56 3 16 C7.95 16.33 12.9 16.66 18 17 C18 11.39 18 5.78 18 0 C18.66 0 19.32 0 20 0 C20 6.27 20 12.54 20 19 C13.4 19 6.8 19 0 19 C0 12.73 0 6.46 0 0 Z " fill="#828B98" transform="translate(263,112)"/>
<path d="M0 0 C6.6 0 13.2 0 20 0 C20.020625 3.114375 20.04125 6.22875 20.0625 9.4375 C20.071604 10.42032959 20.08070801 11.40315918 20.09008789 12.41577148 C20.09258545 13.18477783 20.09508301 13.95378418 20.09765625 14.74609375 C20.10551147 15.93223267 20.10551147 15.93223267 20.11352539 17.14233398 C20 19 20 19 19 20 C17.66956375 20.0983721 16.33406656 20.13078592 15 20.1328125 C14.195625 20.13410156 13.39125 20.13539062 12.5625 20.13671875 C11.716875 20.13285156 10.87125 20.12898438 10 20.125 C9.154375 20.12886719 8.30875 20.13273437 7.4375 20.13671875 C6.633125 20.13542969 5.82875 20.13414063 5 20.1328125 C4.2575 20.13168457 3.515 20.13055664 2.75 20.12939453 C1 20 1 20 0 19 C-0.08651611 17.58429877 -0.10704904 16.164405 -0.09765625 14.74609375 C-0.09515869 13.9770874 -0.09266113 13.20808105 -0.09008789 12.41577148 C-0.07643188 10.9415271 -0.07643188 10.9415271 -0.0625 9.4375 C-0.041875 6.323125 -0.02125 3.20875 0 0 Z M1 1 C1 6.61 1 12.22 1 18 C6.61 18 12.22 18 18 18 C18 12.39 18 6.78 18 1 C12.39 1 6.78 1 1 1 Z " fill="#7FA7C2" transform="translate(263,90)"/>
<path d="M0 0 C2.97922593 -0.02683987 5.95821295 -0.04676037 8.9375 -0.0625 C9.78763672 -0.07087891 10.63777344 -0.07925781 11.51367188 -0.08789062 C12.32255859 -0.09111328 13.13144531 -0.09433594 13.96484375 -0.09765625 C14.7137085 -0.10289307 15.46257324 -0.10812988 16.23413086 -0.11352539 C18 0 18 0 19 1 C19.0983721 2.33043625 19.13078592 3.66593344 19.1328125 5 C19.13474609 6.2065625 19.13474609 6.2065625 19.13671875 7.4375 C19.13285156 8.283125 19.12898438 9.12875 19.125 10 C19.13080078 11.2684375 19.13080078 11.2684375 19.13671875 12.5625 C19.13542969 13.366875 19.13414062 14.17125 19.1328125 15 C19.13168457 15.7425 19.13055664 16.485 19.12939453 17.25 C19 19 19 19 18 20 C16.58429877 20.08651611 15.164405 20.10704904 13.74609375 20.09765625 C12.89208984 20.09443359 12.03808594 20.09121094 11.15820312 20.08789062 C10.26037109 20.07951172 9.36253906 20.07113281 8.4375 20.0625 C7.53580078 20.05798828 6.63410156 20.05347656 5.70507812 20.04882812 C3.46998686 20.03700225 1.23502563 20.0205222 -1 20 C-0.505 18.515 -0.505 18.515 0 17 C0 17.66 0 18.32 0 19 C5.61 19 11.22 19 17 19 C17 13.39 17 7.78 17 2 C11.72 2 6.44 2 1 2 C1 6.29 1 10.58 1 15 C0.67 15 0.34 15 0 15 C0 10.05 0 5.1 0 0 Z " fill="#77A1BC" transform="translate(176,46)"/>
<path d="M0 0 C0.33 0.66 0.66 1.32 1 2 C0.54625 2.433125 0.0925 2.86625 -0.375 3.3125 C-2.20024334 5.10798342 -2.20024334 5.10798342 -4 8 C-6.625 8.1875 -6.625 8.1875 -9 8 C-9 8.66 -9 9.32 -9 10 C-11.3125 10.6875 -11.3125 10.6875 -14 11 C-15.875 9.8125 -15.875 9.8125 -17 8 C-16.83984375 5.98828125 -16.83984375 5.98828125 -16 4 C-14.07421875 3.0234375 -14.07421875 3.0234375 -11.6875 2.375 C-9.24015046 1.687315 -7.13130591 1.07162141 -4.89453125 -0.1484375 C-3 -1 -3 -1 0 0 Z " fill="#475B72" transform="translate(122,156)"/>
<path d="M0 0 C1.98 0.99 3.96 1.98 6 3 C6 3.33 6 3.66 6 4 C7.65 4.33 9.3 4.66 11 5 C11 7.31 11 9.62 11 12 C10.01 12 9.02 12 8 12 C8 12.66 8 13.32 8 14 C2.25 15.125 2.25 15.125 0 14 C0 9.38 0 4.76 0 0 Z " fill="#475971" transform="translate(90,93)"/>
<path d="M0 0 C2.31 0 4.62 0 7 0 C7 1.32 7 2.64 7 4 C5.35 4 3.7 4 2 4 C2 4.66 2 5.32 2 6 C1.34 6 0.68 6 0 6 C0 6.66 0 7.32 0 8 C0.99 8.33 1.98 8.66 3 9 C3 9.33 3 9.66 3 10 C1.35 10 -0.3 10 -2 10 C-2.33 10.99 -2.66 11.98 -3 13 C-3.66 12.01 -4.32 11.02 -5 10 C-4.34 10 -3.68 10 -3 10 C-3 9.01 -3 8.02 -3 7 C-4.32 6.34 -5.64 5.68 -7 5 C-7 5.99 -7 6.98 -7 8 C-7.33 8.99 -7.66 9.98 -8 11 C-9.32 10.67 -10.64 10.34 -12 10 C-11.34 10 -10.68 10 -10 10 C-10.33 8.02 -10.66 6.04 -11 4 C-8.70221327 2.6049152 -7.5207033 1.92561381 -4.8125 2.3125 C-3 3 -3 3 -2 4 C-1.34 2.68 -0.68 1.36 0 0 Z " fill="#4D5F76" transform="translate(76,78)"/>
<path d="M0 0 C0.66 0.66 1.32 1.32 2 2 C1.625 4.625 1.625 4.625 1 7 C-0.175625 7.12375 -0.175625 7.12375 -1.375 7.25 C-2.674375 7.62125 -2.674375 7.62125 -4 8 C-4.433125 8.99 -4.433125 8.99 -4.875 10 C-5.24625 10.66 -5.6175 11.32 -6 12 C-9.625 12.75 -9.625 12.75 -13 13 C-13.68707555 10.50935112 -14 8.62113708 -14 6 C-11 4 -11 4 -7.5625 4.125 C-3.93411804 4.35843 -3.93411804 4.35843 -1.5625 2 C-1.046875 1.34 -0.53125 0.68 0 0 Z " fill="#495E76" transform="translate(67,186)"/>
<path d="M0 0 C0.33 0 0.66 0 1 0 C1 6.27 1 12.54 1 19 C-5.6 19 -12.2 19 -19 19 C-19 13.06 -19 7.12 -19 1 C-18.34 1 -17.68 1 -17 1 C-17 6.28 -17 11.56 -17 17 C-11.72 17.33 -6.44 17.66 -1 18 C-1.01160156 16.78441406 -1.02320313 15.56882813 -1.03515625 14.31640625 C-1.04453278 12.73177236 -1.05363313 11.14713682 -1.0625 9.5625 C-1.07087891 8.76005859 -1.07925781 7.95761719 -1.08789062 7.13085938 C-1.0965143 5.08704779 -1.0522815 3.04316098 -1 1 C-0.67 0.67 -0.34 0.34 0 0 Z " fill="#6D7789" transform="translate(257,151)"/>
<path d="M0 0 C5.61 0 11.22 0 17 0 C17 5.94 17 11.88 17 18 C13.349375 18.0309375 13.349375 18.0309375 9.625 18.0625 C8.47765381 18.07615601 8.47765381 18.07615601 7.30712891 18.09008789 C2.22222222 18.11111111 2.22222222 18.11111111 0 17 C0 12.05 0 7.1 0 2 C1.98 2 3.96 2 6 2 C5.34 2.66 4.68 3.32 4 4 C3.01 4 2.02 4 1 4 C1 7.96 1 11.92 1 16 C5.29 16 9.58 16 14 16 C14 11.38 14 6.76 14 2 C7.07 1.505 7.07 1.505 0 1 C0 0.67 0 0.34 0 0 Z " fill="#2D72A1" transform="translate(215,96)"/>
<path d="M0 0 C1.18613892 0.07069702 1.18613892 0.07069702 2.39624023 0.14282227 C3.67724609 0.21533203 3.67724609 0.21533203 4.98413086 0.28930664 C5.88196289 0.34538086 6.77979492 0.40145508 7.70483398 0.45922852 C8.6065332 0.51143555 9.50823242 0.56364258 10.43725586 0.61743164 C12.67259948 0.74753101 14.90754288 0.88250788 17.14233398 1.02172852 C17.16917386 4.00095445 17.18909435 6.97994146 17.20483398 9.95922852 C17.21321289 10.80936523 17.2215918 11.65950195 17.23022461 12.53540039 C17.23505859 13.74873047 17.23505859 13.74873047 17.23999023 14.98657227 C17.24784546 16.10986938 17.24784546 16.10986938 17.25585938 17.25585938 C17.14233398 19.02172852 17.14233398 19.02172852 16.14233398 20.02172852 C14.72663275 20.10824462 13.30673898 20.12877756 11.88842773 20.11938477 C11.03442383 20.11616211 10.18041992 20.11293945 9.30053711 20.10961914 C8.40270508 20.10124023 7.50487305 20.09286133 6.57983398 20.08422852 C5.67813477 20.0797168 4.77643555 20.07520508 3.84741211 20.07055664 C1.61232085 20.05873076 -0.62264038 20.04225072 -2.85766602 20.02172852 C-2.88655116 16.87591428 -2.90442525 13.73013383 -2.92016602 10.58422852 C-2.92854492 9.68639648 -2.93692383 8.78856445 -2.94555664 7.86352539 C-2.9487793 7.00952148 -2.95200195 6.15551758 -2.95532227 5.27563477 C-2.96317749 4.08949585 -2.96317749 4.08949585 -2.97119141 2.87939453 C-2.81660884 0.34989185 -2.54416084 0.02975822 0 0 Z M-1.85766602 2.02172852 C-1.85766602 7.63172852 -1.85766602 13.24172852 -1.85766602 19.02172852 C4.08233398 19.02172852 10.02233398 19.02172852 16.14233398 19.02172852 C16.14233398 13.41172852 16.14233398 7.80172852 16.14233398 2.02172852 C12.51233398 2.02172852 8.88233398 2.02172852 5.14233398 2.02172852 C5.14233398 2.68172852 5.14233398 3.34172852 5.14233398 4.02172852 C3.16233398 4.35172852 1.18233398 4.68172852 -0.85766602 5.02172852 C-1.18766602 4.03172852 -1.51766602 3.04172852 -1.85766602 2.02172852 Z " fill="#929AA8" transform="translate(207.857666015625,119.978271484375)"/>
<path d="M0 0 C0.33 0 0.66 0 1 0 C1.33 5.61 1.66 11.22 2 17 C6.95 16.67 11.9 16.34 17 16 C17 13.69 17 11.38 17 9 C17.33 9 17.66 9 18 9 C18.33 6.03 18.66 3.06 19 0 C19.33 0 19.66 0 20 0 C20 6.27 20 12.54 20 19 C13.73 19 7.46 19 1 19 C-0.25433458 15.23699626 -0.10695422 11.72789091 -0.0625 7.8125 C-0.05798828 7.06291016 -0.05347656 6.31332031 -0.04882812 5.54101562 C-0.03706354 3.69397617 -0.01912865 1.84697787 0 0 Z " fill="#87B2D0" transform="translate(199,47)"/>
<path d="M0 0 C0.66 0.33 1.32 0.66 2 1 C1.8125 2.875 1.8125 2.875 1 5 C-1.88719595 6.48261414 -4.83976631 7.29772585 -8 8 C-7.34 9.32 -6.68 10.64 -6 12 C-6 11.34 -6 10.68 -6 10 C-3.03 10.495 -3.03 10.495 0 11 C-3.01887244 14.48331435 -5.56909529 15.79157144 -10 17 C-10 14 -10 14 -9 13 C-10.32 11.68 -11.64 10.36 -13 9 C-9.00302635 5.62755348 -4.72909821 2.28625278 0 0 Z " fill="#6D7A89" transform="translate(92,168)"/>
<path d="M0 0 C0.33 0 0.66 0 1 0 C1.2475 1.2375 1.495 2.475 1.75 3.75 C3.05238111 8.97799792 5.58018577 11.05345718 10 14 C7.36 13.67 4.72 13.34 2 13 C1.67 12.01 1.34 11.02 1 10 C0.67 11.65 0.34 13.3 0 15 C-2.31 15.33 -4.62 15.66 -7 16 C-7.66 14.02 -8.32 12.04 -9 10 C-7.68 8.68 -6.36 7.36 -5 6 C-5 8.33333333 -5 10.66666667 -5 13 C-2.63019987 10.04622502 -2.63019987 10.04622502 -3 6 C-2.01 6 -1.02 6 0 6 C0 4.02 0 2.04 0 0 Z " fill="#536478" transform="translate(67,99)"/>
<path d="M0 0 C0.99 0.495 0.99 0.495 2 1 C3.37342831 1.0689472 4.75002102 1.08467708 6.125 1.0625 C7.40375 1.041875 8.6825 1.02125 10 1 C10 1.33 10 1.66 10 2 C7.69 2 5.38 2 3 2 C3 6.62 3 11.24 3 16 C9.93 16.495 9.93 16.495 17 17 C17 12.05 17 7.1 17 2 C15.68 1.67 14.36 1.34 13 1 C14.65 1 16.3 1 18 1 C18 6.61 18 12.22 18 18 C12.39 18 6.78 18 1 18 C-0.59412284 14.81175432 -0.10174735 11.37103338 -0.0625 7.875 C-0.05798828 7.12089844 -0.05347656 6.36679687 -0.04882812 5.58984375 C-0.03703499 3.72652873 -0.01909942 1.86325445 0 0 Z " fill="#407DAC" transform="translate(175,47)"/>
<path d="M0 0 C6.6 0 13.2 0 20 0 C20 6.27 20 12.54 20 19 C19.34 19 18.68 19 18 19 C18 13.39 18 7.78 18 2 C12.39 1.67 6.78 1.34 1 1 C1 6.94 1 12.88 1 19 C0.67 19 0.34 19 0 19 C0 12.73 0 6.46 0 0 Z " fill="#97A1AC" transform="translate(263,69)"/>
<path d="M0 0 C5.94 0 11.88 0 18 0 C18 5.94 18 11.88 18 18 C12.06 18 6.12 18 0 18 C0 12.06 0 6.12 0 0 Z M1 1 C1 6.28 1 11.56 1 17 C8.66538458 17.58791004 8.66538458 17.58791004 16 16 C16 11.05 16 6.1 16 1 C11.05 1 6.1 1 1 1 Z " fill="#32719D" transform="translate(152,47)"/>
<path d="M0 0 C0 3 0 3 -1 6 C-2.9375 7.0625 -2.9375 7.0625 -5 8 C-5.66 8.66 -6.32 9.32 -7 10 C-7.66 10.66 -8.32 11.32 -9 12 C-9 11.34 -9 10.68 -9 10 C-10.65 10.33 -12.3 10.66 -14 11 C-12.4911799 7.76681408 -11.29394556 5.64697278 -8 4 C-7.835 3.34 -7.67 2.68 -7.5 2 C-7.335 1.34 -7.17 0.68 -7 0 C-4.3333581 -1.33332095 -2.83319697 -0.67102033 0 0 Z " fill="#495F76" transform="translate(102,182)"/>
<path d="M0 0 C0.66 0.33 1.32 0.66 2 1 C1.34 2.32 0.68 3.64 0 5 C2.475 6.98 2.475 6.98 5 9 C3.68 9.33 2.36 9.66 1 10 C1 10.66 1 11.32 1 12 C-1.08203125 13.5078125 -1.08203125 13.5078125 -3.8125 15.125 C-4.70582031 15.66382813 -5.59914063 16.20265625 -6.51953125 16.7578125 C-9 18 -9 18 -12 18 C-12 17.01 -12 16.02 -12 15 C-10.35 14.67 -8.7 14.34 -7 14 C-7 13.34 -7 12.68 -7 12 C-5.02 11.01 -3.04 10.02 -1 9 C-1.99 8.01 -2.98 7.02 -4 6 C-4.66 6.66 -5.32 7.32 -6 8 C-6.33 7.01 -6.66 6.02 -7 5 C-4.69 3.35 -2.38 1.7 0 0 Z " fill="#768290" transform="translate(78,192)"/>
<path d="M0 0 C0.99 0 1.98 0 3 0 C3.33 1.65 3.66 3.3 4 5 C4.66 5 5.32 5 6 5 C6 4.34 6 3.68 6 3 C7.65 3.33 9.3 3.66 11 4 C11.33 5.32 11.66 6.64 12 8 C8.77208445 10.1519437 7.71599191 10.20086443 4 10 C4 9.34 4 8.68 4 8 C3.01 8 2.02 8 1 8 C1 9.32 1 10.64 1 12 C-1.31 12 -3.62 12 -6 12 C-6 11.67 -6 11.34 -6 11 C-4.02 11 -2.04 11 0 11 C0 9.741875 0 8.48375 0 7.1875 C0 4.79166667 0 2.39583333 0 0 Z " fill="#657686" transform="translate(82,112)"/>
<path d="M0 0 C3.96 0 7.92 0 12 0 C12.09765625 9.27734375 12.09765625 9.27734375 12 12 C11 13 11 13 8.75 13.1328125 C7.8425 13.13023438 6.935 13.12765625 6 13.125 C4.63875 13.12886719 4.63875 13.12886719 3.25 13.1328125 C1 13 1 13 0 12 C-0.14355117 7.99779347 -0.04216403 4.00558317 0 0 Z M1 1 C1.12375 2.27875 1.2475 3.5575 1.375 4.875 C1.44460937 5.59429687 1.51421875 6.31359375 1.5859375 7.0546875 C1.86374749 9.22668245 1.86374749 9.22668245 4 11 C7.08347826 11.16681109 7.08347826 11.16681109 10 11 C10.33 7.7 10.66 4.4 11 1 C7.7 1 4.4 1 1 1 Z " fill="#75A2C1" transform="translate(242,67)"/>
<path d="M0 0 C2.97922593 -0.02683987 5.95821295 -0.04676037 8.9375 -0.0625 C9.78763672 -0.07087891 10.63777344 -0.07925781 11.51367188 -0.08789062 C12.32255859 -0.09111328 13.13144531 -0.09433594 13.96484375 -0.09765625 C14.7137085 -0.10289307 15.46257324 -0.10812988 16.23413086 -0.11352539 C18 0 18 0 19 1 C19.08631874 2.34267413 19.10706473 3.68974322 19.09765625 5.03515625 C19.09443359 5.84404297 19.09121094 6.65292969 19.08789062 7.48632812 C19.07951172 8.33646484 19.07113281 9.18660156 19.0625 10.0625 C19.05798828 10.91650391 19.05347656 11.77050781 19.04882812 12.65039062 C19.03700373 14.76695663 19.01906769 16.88348685 19 19 C17.02 19 15.04 19 13 19 C14.32 18.67 15.64 18.34 17 18 C17 12.72 17 7.44 17 2 C12.55664062 2.04882812 12.55664062 2.04882812 8.11328125 2.09765625 C5.27589738 2.00865425 2.7561081 1.64939838 0 1 C0 0.67 0 0.34 0 0 Z " fill="#909AA6" transform="translate(170,82)"/>
<path d="M0 0 C3.96 0 7.92 0 12 0 C12 0.33 12 0.66 12 1 C8.37 1 4.74 1 1 1 C1.33 1.66 1.66 2.32 2 3 C2.04022391 5.3329866 2.04320247 7.66706666 2 10 C4.31 10 6.62 10 9 10 C9 8.35 9 6.7 9 5 C10.4731994 7.74997221 11.22404875 9.89619499 12 13 C8.04 13 4.08 13 0 13 C0 8.71 0 4.42 0 0 Z " fill="#719BBD" transform="translate(179,67)"/>
<path d="M0 0 C0.66 0.33 1.32 0.66 2 1 C1.67 1.66 1.34 2.32 1 3 C4.08809695 4.76462683 5.23312136 5 9 5 C9 4.34 9 3.68 9 3 C10.65 3 12.3 3 14 3 C10.93240077 5.42639084 7.75089739 7.32828646 4.3125 9.1875 C3.33925781 9.71730469 2.36601563 10.24710938 1.36328125 10.79296875 C-1 12 -1 12 -2 12 C-2.125 6.25 -2.125 6.25 -1 4 C-1.66 3.34 -2.32 2.68 -3 2 C-2.01 1.34 -1.02 0.68 0 0 Z " fill="#50647B" transform="translate(104,161)"/>
<path d="M0 0 C5.61 0 11.22 0 17 0 C17 0.33 17 0.66 17 1 C12.05 1 7.1 1 2 1 C2.33 5.62 2.66 10.24 3 15 C7.62 15 12.24 15 17 15 C17 15.66 17 16.32 17 17 C11.39 17 5.78 17 0 17 C0 11.39 0 5.78 0 0 Z " fill="#3877A3" transform="translate(264,91)"/>
<path d="M0 0 C-0.33 0.33 -0.66 0.66 -1 1 C-1.23075082 2.34747084 -1.41153063 3.70377565 -1.5625 5.0625 C-1.706875 6.361875 -1.85125 7.66125 -2 9 C-3.98 9 -5.96 9 -8 9 C-7.67 7.35 -7.34 5.7 -7 4 C-8.98 3.34 -10.96 2.68 -13 2 C-10.63546807 -0.36453193 -9.74130071 -0.36652704 -6.5 -0.6875 C-5.7059375 -0.77386719 -4.911875 -0.86023438 -4.09375 -0.94921875 C-2 -1 -2 -1 0 0 Z " fill="#455971" transform="translate(84,114)"/>
<path d="M0 0 C2.0625 0.25 2.0625 0.25 4 1 C4.33 1.66 4.66 2.32 5 3 C4.01 3 3.02 3 2 3 C2 3.66 2 4.32 2 5 C1.01 5.33 0.02 5.66 -1 6 C-0.67 6.99 -0.34 7.98 0 9 C-5.75 9.125 -5.75 9.125 -8 8 C-8 8.66 -8 9.32 -8 10 C-8.66 9.67 -9.32 9.34 -10 9 C-10 8.01 -10 7.02 -10 6 C-9.44570312 5.73445312 -8.89140625 5.46890625 -8.3203125 5.1953125 C-7.59585938 4.84210938 -6.87140625 4.48890625 -6.125 4.125 C-5.40570313 3.77695313 -4.68640625 3.42890625 -3.9453125 3.0703125 C-1.84864981 2.03442457 -1.84864981 2.03442457 0 0 Z " fill="#495E77" transform="translate(94,170)"/>
<path d="M0 0 C0.66 0.33 1.32 0.66 2 1 C3.06148512 5.59976884 3.54289022 8.90926356 1 13 C-1.71478065 15.51613816 -3.61227794 16.98641708 -7.39453125 17.0234375 C-9.62635868 16.77740928 -11.80079862 16.4496145 -14 16 C-14.33 15.01 -14.66 14.02 -15 13 C-15.66 12.67 -16.32 12.34 -17 12 C-16.195625 12.2165625 -16.195625 12.2165625 -15.375 12.4375 C-10.14692854 13.67572745 -6.96810276 14.41691486 -2 12 C-1.01 11.67 -0.02 11.34 1 11 C0.835 9.9275 0.67 8.855 0.5 7.75 C0 4 0 4 0 0 Z " fill="#6A97B1" transform="translate(100,127)"/>
<path d="M0 0 C0.66 0.33 1.32 0.66 2 1 C2 2.65 2 4.3 2 6 C2.99 6 3.98 6 5 6 C5 7.98 5 9.96 5 12 C2.6875 12.6875 2.6875 12.6875 0 13 C-1.8125 12 -1.8125 12 -3 10 C-3.65882353 3.85098039 -3.65882353 3.85098039 -1.5 1.0625 C-1.005 0.711875 -0.51 0.36125 0 0 Z " fill="#4C5C74" transform="translate(102,280)"/>
<path d="M0 0 C0.99 0.33 1.98 0.66 3 1 C3 1.66 3 2.32 3 3 C3.66 3.33 4.32 3.66 5 4 C1.375 7 1.375 7 -2 7 C-2 7.66 -2 8.32 -2 9 C-3.32 9.33 -4.64 9.66 -6 10 C-6.33 8.68 -6.66 7.36 -7 6 C-6.01 5.67 -5.02 5.34 -4 5 C-4 4.34 -4 3.68 -4 3 C-4.66 2.67 -5.32 2.34 -6 2 C-4.7934375 1.7834375 -4.7934375 1.7834375 -3.5625 1.5625 C-1.07896294 1.25864751 -1.07896294 1.25864751 0 0 Z " fill="#52667F" transform="translate(73,197)"/>
<path d="M0 0 C1.9375 0.8125 1.9375 0.8125 3.9375 3.8125 C3.9375 4.8025 3.9375 5.7925 3.9375 6.8125 C2.9475 7.4725 1.9575 8.1325 0.9375 8.8125 C2.2575 9.1425 3.5775 9.4725 4.9375 9.8125 C4.9375 12.4525 4.9375 15.0925 4.9375 17.8125 C4.6075 17.8125 4.2775 17.8125 3.9375 17.8125 C3.9375 15.5025 3.9375 13.1925 3.9375 10.8125 C1.9575 10.8125 -0.0225 10.8125 -2.0625 10.8125 C-2.72916667 9.47916667 -3.39583333 8.14583333 -4.0625 6.8125 C-4.7225 6.4825 -5.3825 6.1525 -6.0625 5.8125 C-3.05218256 4.87826355 -2.19599732 4.76800089 0.9375 5.8125 C0.9375 4.4925 0.9375 3.1725 0.9375 1.8125 C-1.0425 1.8125 -3.0225 1.8125 -5.0625 1.8125 C-2.0625 -0.1875 -2.0625 -0.1875 0 0 Z " fill="#667689" transform="translate(97.0625,87.1875)"/>
<path d="M0 0 C2 1 2 1 3.125 3.9375 C4 7 4 7 4 9 C4.99 9 5.98 9 7 9 C7 9.66 7 10.32 7 11 C2.4926374 10.46972205 -0.4539073 8.80388725 -4 6 C-4 5.01 -4 4.02 -4 3 C-2 1.3125 -2 1.3125 0 0 Z " fill="#6B7786" transform="translate(40,215)"/>
<path d="M0 0 C2.97 0.495 2.97 0.495 6 1 C6 2.32 6 3.64 6 5 C6.66 5.33 7.32 5.66 8 6 C5 8 5 8 2.5 7.8125 C-0.13662075 6.95559826 -1.25689748 6.11007147 -3 4 C-2.01 2.68 -1.02 1.36 0 0 Z " fill="#4D6176" transform="translate(80,192)"/>
<path d="M0 0 C2.375 0.3125 2.375 0.3125 5 1 C7.30441554 4.45662331 7.25860135 5.94857881 7 10 C6.67 10.66 6.34 11.32 6 12 C5.34 12 4.68 12 4 12 C4 12.66 4 13.32 4 14 C2.35 14.33 0.7 14.66 -1 15 C-0.67 14.34 -0.34 13.68 0 13 C0.99 13 1.98 13 3 13 C3 12.34 3 11.68 3 11 C3.66 11 4.32 11 5 11 C4.67 9.68 4.34 8.36 4 7 C3.67 7.99 3.34 8.98 3 10 C2.34 9.67 1.68 9.34 1 9 C1 7.68 1 6.36 1 5 C0.01 4.34 -0.98 3.68 -2 3 C-1.34 3 -0.68 3 0 3 C0 2.01 0 1.02 0 0 Z " fill="#9AA2AC" transform="translate(106,112)"/>
<path d="M0 0 C0.66 0 1.32 0 2 0 C2.02683987 2.97922593 2.04676037 5.95821295 2.0625 8.9375 C2.07087891 9.78763672 2.07925781 10.63777344 2.08789062 11.51367188 C2.09272461 12.72700195 2.09272461 12.72700195 2.09765625 13.96484375 C2.10551147 15.08814087 2.10551147 15.08814087 2.11352539 16.23413086 C2 18 2 18 1 19 C-0.34267413 19.08631874 -1.68974322 19.10706473 -3.03515625 19.09765625 C-3.84404297 19.09443359 -4.65292969 19.09121094 -5.48632812 19.08789062 C-6.33646484 19.07951172 -7.18660156 19.07113281 -8.0625 19.0625 C-8.91650391 19.05798828 -9.77050781 19.05347656 -10.65039062 19.04882812 C-12.76695663 19.03700373 -14.88348685 19.01906769 -17 19 C-17 18.67 -17 18.34 -17 18 C-11.72 17.67 -6.44 17.34 -1 17 C-0.67 11.39 -0.34 5.78 0 0 Z " fill="#89AFC2" transform="translate(247,128)"/>
<path d="M0 0 C3.3 0 6.6 0 10 0 C10 3.96 10 7.92 10 12 C6.37 12 2.74 12 -1 12 C-1 11.34 -1 10.68 -1 10 C1.97 10 4.94 10 8 10 C8 7.36 8 4.72 8 2 C5.36 1.67 2.72 1.34 0 1 C0 0.67 0 0.34 0 0 Z " fill="#5D8CAD" transform="translate(201,68)"/>
<path d="M0 0 C1.23666047 3.57257469 0.89093449 6.35526801 0 10 C-0.99 10.495 -0.99 10.495 -2 11 C-2.59070014 12.94603274 -2.59070014 12.94603274 -3 15 C-3.33 15.66 -3.66 16.32 -4 17 C-3.01 17.33 -2.02 17.66 -1 18 C-2.65 17.67 -4.3 17.34 -6 17 C-6 14 -6 11 -6 8 C-5.01 8 -4.02 8 -3 8 C-2.690625 6.865625 -2.38125 5.73125 -2.0625 4.5625 C-1 1 -1 1 0 0 Z " fill="#45566A" transform="translate(67,95)"/>
<path d="M0 0 C1.98 0 3.96 0 6 0 C4.68 0.33 3.36 0.66 2 1 C2.08378906 1.98742187 2.16757813 2.97484375 2.25390625 3.9921875 C2.35574219 5.27351563 2.45757812 6.55484375 2.5625 7.875 C2.66691406 9.15117188 2.77132812 10.42734375 2.87890625 11.7421875 C3 15 3 15 2 17 C5.63 17 9.26 17 13 17 C13 17.33 13 17.66 13 18 C8.71 18 4.42 18 0 18 C0 12.06 0 6.12 0 0 Z " fill="#5A6877" transform="translate(169,83)"/>
<path d="M0 0 C1.65 0 3.3 0 5 0 C5 0.66 5 1.32 5 2 C5.66 2 6.32 2 7 2 C7 3.65 7 5.3 7 7 C3.37 7.33 -0.26 7.66 -4 8 C-4 7.34 -4 6.68 -4 6 C-2.68 5.67 -1.36 5.34 0 5 C-0.66 4.67 -1.32 4.34 -2 4 C-2 3.34 -2 2.68 -2 2 C-1.34 2 -0.68 2 0 2 C0 1.34 0 0.68 0 0 Z " fill="#405369" transform="translate(78,82)"/>
<path d="M0 0 C1.65 0.33 3.3 0.66 5 1 C4.814375 1.928125 4.62875 2.85625 4.4375 3.8125 C3.75876119 7.01343771 3.75876119 7.01343771 5 10 C4.01 10.495 4.01 10.495 3 11 C3 10.01 3 9.02 3 8 C2.01 8 1.02 8 0 8 C-0.33 8.99 -0.66 9.98 -1 11 C-1.33 11 -1.66 11 -2 11 C-2.28571429 3.57142857 -2.28571429 3.57142857 0 0 Z " fill="#528AB1" transform="translate(84,128)"/>
<path d="M0 0 C2.31 0 4.62 0 7 0 C6.42415568 2.38564077 5.77772405 4.66682784 5 7 C5.99 7.33 6.98 7.66 8 8 C6.3125 8.8125 6.3125 8.8125 4 9 C1.1875 6.8125 1.1875 6.8125 -1 4 C-0.8125 1.6875 -0.8125 1.6875 0 0 Z " fill="#526478" transform="translate(87,82)"/>
<path d="M0 0 C0.33 0 0.66 0 1 0 C2.67226118 7.98268072 4.28621973 15.86290495 5 24 C4.34 24 3.68 24 3 24 C2.51960995 21.62524166 2.04065526 19.25020845 1.5625 16.875 C1.42779297 16.20984375 1.29308594 15.5446875 1.15429688 14.859375 C0.762056 12.9077375 0.38090811 10.95388097 0 9 C-0.21785156 7.90945313 -0.43570313 6.81890625 -0.66015625 5.6953125 C-1 3 -1 3 0 0 Z " fill="#6D7987" transform="translate(186,256)"/>
<path d="M0 0 C0 5.94 0 11.88 0 18 C-0.33 18 -0.66 18 -1 18 C-1.33 12.72 -1.66 7.44 -2 2 C-6.62 2 -11.24 2 -16 2 C-16.33 2.66 -16.66 3.32 -17 4 C-17 3.01 -17 2.02 -17 1 C-15.10440036 0.83069605 -13.20850769 0.66467136 -11.3125 0.5 C-10.25675781 0.4071875 -9.20101562 0.314375 -8.11328125 0.21875 C-5.41452498 0.02912597 -2.70540989 0 0 0 Z " fill="#2F6E9B" transform="translate(218,47)"/>
<path d="M0 0 C0.33 0.66 0.66 1.32 1 2 C-2.96 2 -6.92 2 -11 2 C-11 2.66 -11 3.32 -11 4 C-10.34 4 -9.68 4 -9 4 C-9.33 5.65 -9.66 7.3 -10 9 C-10.33 8.34 -10.66 7.68 -11 7 C-12.65 7.66 -14.3 8.32 -16 9 C-15.125 2.125 -15.125 2.125 -14 1 C-11.65012738 0.76472227 -9.29443961 0.58613583 -6.9375 0.4375 C-5.64714844 0.35371094 -4.35679688 0.26992188 -3.02734375 0.18359375 C-2.02832031 0.12300781 -1.02929688 0.06242187 0 0 Z " fill="#42556D" transform="translate(118,279)"/>
<path d="M0 0 C1.32 0.99 2.64 1.98 4 3 C3.814375 3.61875 3.62875 4.2375 3.4375 4.875 C2.76313824 7.04160178 2.76313824 7.04160178 4 9 C0.33333333 9 -3.33333333 9 -7 9 C-7.33 8.01 -7.66 7.02 -8 6 C-5.69 6 -3.38 6 -1 6 C-1.20625 5.38125 -1.4125 4.7625 -1.625 4.125 C-1.74875 3.42375 -1.8725 2.7225 -2 2 C-1.34 1.34 -0.68 0.68 0 0 Z " fill="#405469" transform="translate(69,82)"/>
<path d="M0 0 C4 2 4 2 5 3 C5.45506692 9.14340344 5.45506692 9.14340344 3.9375 12 C0.86664787 13.58495594 -1.72186775 12.68036707 -5 12 C-5 11.67 -5 11.34 -5 11 C-3.02 10.67 -1.04 10.34 1 10 C0.67 6.7 0.34 3.4 0 0 Z " fill="#697481" transform="translate(205,280)"/>
<path d="M0 0 C0.5690821 2.2104842 1.06179972 4.37079829 1.4375 6.625 C1.82100329 9.17107484 1.82100329 9.17107484 4 11 C3.01 11.33 2.02 11.66 1 12 C0.67 11.67 0.34 11.34 0 11 C-0.2165625 12.918125 -0.2165625 12.918125 -0.4375 14.875 C-0.70642746 17.25692894 -0.92226346 18.84452691 -2 21 C-2.66 21 -3.32 21 -4 21 C-3.39700836 13.76410027 -1.8849413 7.00629124 0 0 Z " fill="#7B8797" transform="translate(128,232)"/>
<path d="M0 0 C0 3 0 3 -2 6 C-1.34 6.33 -0.68 6.66 0 7 C-0.33 7.66 -0.66 8.32 -1 9 C-2.65 9 -4.3 9 -6 9 C-6 6.36 -6 3.72 -6 1 C-4.02 0.67 -2.04 0.34 0 0 Z " fill="#6D7A8A" transform="translate(62,96)"/>
<path d="M0 0 C1.134375 0.020625 2.26875 0.04125 3.4375 0.0625 C3.4375 1.3825 3.4375 2.7025 3.4375 4.0625 C1.7875 4.0625 0.1375 4.0625 -1.5625 4.0625 C-1.5625 4.7225 -1.5625 5.3825 -1.5625 6.0625 C-3.2125 6.0625 -4.8625 6.0625 -6.5625 6.0625 C-4.25951087 0.07472826 -4.25951087 0.07472826 0 0 Z " fill="#778691" transform="translate(79.5625,77.9375)"/>
<path d="M0 0 C0.33 0 0.66 0 1 0 C1.33 4.29 1.66 8.58 2 13 C-5.44230769 18.08557692 -5.44230769 18.08557692 -8.265625 17.65234375 C-8.83796875 17.43707031 -9.4103125 17.22179687 -10 17 C-8.71186658 16.16121545 -7.41936744 15.32913217 -6.125 14.5 C-5.40570313 14.0359375 -4.68640625 13.571875 -3.9453125 13.09375 C-2 12 -2 12 0 12 C0 8.04 0 4.08 0 0 Z " fill="#7D8895" transform="translate(119,141)"/>
<path d="M0 0 C3.375 -0.125 3.375 -0.125 7 0 C9 2 9 2 9 6 C7.02 6.99 7.02 6.99 5 8 C5 7.34 5 6.68 5 6 C3.35 6 1.7 6 0 6 C0.99 5.34 1.98 4.68 3 4 C2.34 4 1.68 4 1 4 C0.67 2.68 0.34 1.36 0 0 Z " fill="#6C9ABA" transform="translate(90,123)"/>
<path d="M0 0 C0.33 0.66 0.66 1.32 1 2 C2.64363134 2.72159424 4.31050386 3.39351421 6 4 C5.34 4.66 4.68 5.32 4 6 C3.67 6.66 3.34 7.32 3 8 C-0.0625 8.625 -0.0625 8.625 -3 9 C-3.33 7.68 -3.66 6.36 -4 5 C-2.68 4.34 -1.36 3.68 0 3 C0 2.01 0 1.02 0 0 Z " fill="#465A75" transform="translate(79,177)"/>
<path d="M0 0 C0.99 0.66 1.98 1.32 3 2 C2.3125 4.4375 2.3125 4.4375 1 7 C-1.625 7.8125 -1.625 7.8125 -4 8 C-4.33 6.35 -4.66 4.7 -5 3 C-3.35 2.01 -1.7 1.02 0 0 Z " fill="#58697E" transform="translate(98,107)"/>
<path d="M0 0 C0.763125 0.20625 1.52625 0.4125 2.3125 0.625 C1.6525 1.285 0.9925 1.945 0.3125 2.625 C-0.6775 2.625 -1.6675 2.625 -2.6875 2.625 C-3.0175 5.265 -3.3475 7.905 -3.6875 10.625 C-7.3175 10.295 -10.9475 9.965 -14.6875 9.625 C-14.6875 9.295 -14.6875 8.965 -14.6875 8.625 C-10.2325 8.13 -10.2325 8.13 -5.6875 7.625 C-5.3575 6.305 -5.0275 4.985 -4.6875 3.625 C-5.3475 3.625 -6.0075 3.625 -6.6875 3.625 C-5.07944847 0.40889695 -3.54044012 -0.4940149 0 0 Z " fill="#8B97A4" transform="translate(89.6875,80.375)"/>
<path d="M0 0 C2 3 2 3 1.625 5.6875 C1.41875 6.450625 1.2125 7.21375 1 8 C0.34 8 -0.32 8 -1 8 C-1 8.66 -1 9.32 -1 10 C-1.66 10 -2.32 10 -3 10 C-3.75 7.8125 -3.75 7.8125 -4 5 C-2.0625 2.1875 -2.0625 2.1875 0 0 Z " fill="#52667A" transform="translate(89,107)"/>
<path d="M0 0 C0.33 0 0.66 0 1 0 C1.2475 1.2375 1.495 2.475 1.75 3.75 C3.05238111 8.97799792 5.58018577 11.05345718 10 14 C7.36 13.67 4.72 13.34 2 13 C1.67 12.01 1.34 11.02 1 10 C0.34 9.67 -0.32 9.34 -1 9 C-0.67 6.03 -0.34 3.06 0 0 Z " fill="#8593A1" transform="translate(67,99)"/>
<path d="M0 0 C0.66 0.33 1.32 0.66 2 1 C1.979375 2.11375 1.95875 3.2275 1.9375 4.375 C1.73619282 7.83215921 1.73619282 7.83215921 3 10 C2.34 10 1.68 10 1 10 C1 10.66 1 11.32 1 12 C-0.32 12.33 -1.64 12.66 -3 13 C-3.33 12.01 -3.66 11.02 -4 10 C-3.01 9.34 -2.02 8.68 -1 8 C-1.20625 7.236875 -1.4125 6.47375 -1.625 5.6875 C-2 3 -2 3 0 0 Z " fill="#68768A" transform="translate(46,196)"/>
<path d="M0 0 C0 1.32 0 2.64 0 4 C-5.75 5.125 -5.75 5.125 -8 4 C-8 2.68 -8 1.36 -8 0 C-4.94736336 -0.98120464 -3.05263664 -0.98120464 0 0 Z " fill="#435973" transform="translate(118,174)"/>
<path d="M0 0 C0.66 0.33 1.32 0.66 2 1 C1.34 2.32 0.68 3.64 0 5 C0.66 5.33 1.32 5.66 2 6 C1.67 6.99 1.34 7.98 1 9 C-2 8 -2 8 -4 6 C-4.66 6.66 -5.32 7.32 -6 8 C-6.33 7.01 -6.66 6.02 -7 5 C-4.69 3.35 -2.38 1.7 0 0 Z " fill="#677587" transform="translate(78,192)"/>
<path d="M0 0 C1.65 0 3.3 0 5 0 C2.38928701 2.06681445 -0.33837839 3.93109607 -3.125 5.75 C-3.80820313 6.19859375 -4.49140625 6.6471875 -5.1953125 7.109375 C-6.08863281 7.55023438 -6.08863281 7.55023438 -7 8 C-7.66 7.67 -8.32 7.34 -9 7 C-8 4 -8 4 -6.1875 2.8125 C-4 2 -4 2 0 2 C0 1.34 0 0.68 0 0 Z " fill="#828C9A" transform="translate(113,164)"/>
<path d="M0 0 C0.99 0 1.98 0 3 0 C3 4.29 3 8.58 3 13 C2.01 13 1.02 13 0 13 C0 8.71 0 4.42 0 0 Z " fill="#9199A4" transform="translate(140,49)"/>
<path d="M0 0 C0.99 0.33 1.98 0.66 3 1 C3 1.66 3 2.32 3 3 C3.66 3.33 4.32 3.66 5 4 C2.525 5.485 2.525 5.485 0 7 C-0.99 6.34 -1.98 5.68 -3 5 C-1.125 1.125 -1.125 1.125 0 0 Z " fill="#455973" transform="translate(73,197)"/>
<path d="M0 0 C2.32590854 3.63423209 2.16265833 6.77088331 2 11 C1.01 10.67 0.02 10.34 -1 10 C-2.1875 6.4375 -2.1875 6.4375 -3 3 C-2.01 2.67 -1.02 2.34 0 2 C0 1.34 0 0.68 0 0 Z " fill="#3472A2" transform="translate(99,127)"/>
<path d="M0 0 C0.33 0 0.66 0 1 0 C1.33 2.31 1.66 4.62 2 7 C2.66 7 3.32 7 4 7 C4 7.99 4 8.98 4 10 C2.125 11.0625 2.125 11.0625 0 12 C-0.66 11.67 -1.32 11.34 -2 11 C-1.34 7.37 -0.68 3.74 0 0 Z " fill="#758293" transform="translate(119,269)"/>
<path d="M0 0 C-1.23944276 0.86941494 -2.49207059 1.72005457 -3.75 2.5625 C-4.44609375 3.03816406 -5.1421875 3.51382813 -5.859375 4.00390625 C-8 5 -8 5 -10.265625 4.65234375 C-10.83796875 4.43707031 -11.4103125 4.22179687 -12 4 C-11.67 3.01 -11.34 2.02 -11 1 C-6.90275533 -0.54613006 -4.18142349 -1.29227216 0 0 Z " fill="#788492" transform="translate(43,210)"/>
<path d="M0 0 C0.66 0.33 1.32 0.66 2 1 C3.06759874 5.62626123 3.39275874 8.8126722 1 13 C0.01 13.66 -0.98 14.32 -2 15 C-1.67 13.68 -1.34 12.36 -1 11 C-0.34 11 0.32 11 1 11 C0.835 9.9275 0.67 8.855 0.5 7.75 C0 4 0 4 0 0 Z " fill="#99B1C2" transform="translate(100,127)"/>
<path d="M0 0 C0.33 0.66 0.66 1.32 1 2 C2.32 1.34 3.64 0.68 5 0 C4.34 2.31 3.68 4.62 3 7 C1.35 7.33 -0.3 7.66 -2 8 C-1.47731534 5.23723823 -0.89130413 2.6739124 0 0 Z " fill="#627389" transform="translate(30,62)"/>
<path d="M0 0 C-2.85306797 2.32472205 -5.54074837 3.7508258 -9 5 C-9.66 4.34 -10.32 3.68 -11 3 C-9.68 2.67 -8.36 2.34 -7 2 C-7 1.34 -7 0.68 -7 0 C-3.86650268 -1.04449911 -3.01031744 -0.93423645 0 0 Z " fill="#687686" transform="translate(103,173)"/>
<path d="M0 0 C0.85659135 3.08084955 1.26941369 6.06792001 1.5625 9.25 C1.64628906 10.14203125 1.73007813 11.0340625 1.81640625 11.953125 C1.87699219 12.62859375 1.93757812 13.3040625 2 14 C1.01 14.33 0.02 14.66 -1 15 C-1.97798721 11.20431539 -1.92653069 8.4994001 -1.0625 4.6875 C-0.86785156 3.80449219 -0.67320312 2.92148438 -0.47265625 2.01171875 C-0.31667969 1.34785156 -0.16070312 0.68398437 0 0 Z " fill="#445368" transform="translate(130,226)"/>
<path d="M0 0 C0 0.66 0 1.32 0 2 C-0.99 2 -1.98 2 -3 2 C-3 3.32 -3 4.64 -3 6 C-5.64 6.33 -8.28 6.66 -11 7 C-4.48275862 0 -4.48275862 0 0 0 Z " fill="#7F8896" transform="translate(67,200)"/>
<path d="M0 0 C0.66 0 1.32 0 2 0 C2 2.97 2 5.94 2 9 C3.32 8.67 4.64 8.34 6 8 C6.66 8.33 7.32 8.66 8 9 C8 9.66 8 10.32 8 11 C2.25 12.125 2.25 12.125 0 11 C0 7.37 0 3.74 0 0 Z " fill="#7C8899" transform="translate(90,96)"/>
<path d="M0 0 C0.99 0.66 1.98 1.32 3 2 C1.73760288 2.86658615 0.46472499 3.71792059 -0.8125 4.5625 C-1.87404297 5.27599609 -1.87404297 5.27599609 -2.95703125 6.00390625 C-5 7 -5 7 -8 6 C-7.34 5.67 -6.68 5.34 -6 5 C-5.67 4.01 -5.34 3.02 -5 2 C-3.35 2 -1.7 2 0 2 C0 1.34 0 0.68 0 0 Z " fill="#727D8D" transform="translate(68,191)"/>
<path d="M0 0 C0.99 0 1.98 0 3 0 C3.33 0.66 3.66 1.32 4 2 C6.02463255 2.65213292 6.02463255 2.65213292 8 3 C7.67 3.99 7.34 4.98 7 6 C4.36 5.01 1.72 4.02 -1 3 C-0.67 2.01 -0.34 1.02 0 0 Z " fill="#3A79A3" transform="translate(84,136)"/>
<path d="M0 0 C1.32 0 2.64 0 4 0 C2.81323934 4.10801767 2.10551666 5.89448334 -1 9 C-0.67 6.03 -0.34 3.06 0 0 Z " fill="#828C9B" transform="translate(276,209)"/>
<path d="M0 0 C0.66 0.33 1.32 0.66 2 1 C-0.625 5.875 -0.625 5.875 -4 7 C-4 6.34 -4 5.68 -4 5 C-5.32 5.33 -6.64 5.66 -8 6 C-6.32169152 2.64338305 -3.29210653 1.67493139 0 0 Z " fill="#768291" transform="translate(93,183)"/>
<path d="M0 0 C2.31 0.66 4.62 1.32 7 2 C7 2.33 7 2.66 7 3 C5.35 3 3.7 3 2 3 C2 6.3 2 9.6 2 13 C1.67 13 1.34 13 1 13 C0.67 8.71 0.34 4.42 0 0 Z " fill="#4584AE" transform="translate(264,133)"/>
<path d="M0 0 C0.99 0.33 1.98 0.66 3 1 C2.67 2.65 2.34 4.3 2 6 C1.34 6 0.68 6 0 6 C0 6.66 0 7.32 0 8 C-1.32 8.33 -2.64 8.66 -4 9 C-4.33 8.01 -4.66 7.02 -5 6 C-3.35 5.67 -1.7 5.34 0 5 C0 3.35 0 1.7 0 0 Z " fill="#424C5B" transform="translate(109,117)"/>
<path d="M0 0 C1.98 0.99 3.96 1.98 6 3 C5.01 5.64 4.02 8.28 3 11 C2.67 11 2.34 11 2 11 C2 8.36 2 5.72 2 3 C1.34 3 0.68 3 0 3 C0 2.01 0 1.02 0 0 Z " fill="#435468" transform="translate(90,93)"/>
<path d="M0 0 C0.33 0.66 0.66 1.32 1 2 C1.66 2.33 2.32 2.66 3 3 C2.67 3.66 2.34 4.32 2 5 C1.34 5 0.68 5 0 5 C0 5.66 0 6.32 0 7 C-0.99 7.33 -1.98 7.66 -3 8 C-3.33 7.01 -3.66 6.02 -4 5 C-3.34 5 -2.68 5 -2 5 C-2 4.01 -2 3.02 -2 2 C-1.34 2 -0.68 2 0 2 C0 1.34 0 0.68 0 0 Z " fill="#5F6F81" transform="translate(163,162)"/>
<path d="M0 0 C0.66 0.33 1.32 0.66 2 1 C2 2.65 2 4.3 2 6 C1.01 6 0.02 6 -1 6 C-1.66 7.32 -2.32 8.64 -3 10 C-3.36923077 3.47692308 -3.36923077 3.47692308 -1.5 1.0625 C-1.005 0.711875 -0.51 0.36125 0 0 Z " fill="#717E91" transform="translate(102,280)"/>
<path d="M0 0 C0.66 0.33 1.32 0.66 2 1 C0.41641358 4.16717283 -0.45263699 5.73268318 -3.6875 7.3125 C-4.450625 7.539375 -5.21375 7.76625 -6 8 C-4.55746343 4.63408134 -2.66735273 2.48952921 0 0 Z " fill="#7A8696" transform="translate(129,127)"/>
<path d="M0 0 C1.65 0.33 3.3 0.66 5 1 C3.02 3.97 3.02 3.97 1 7 C0.34 6.34 -0.32 5.68 -1 5 C-0.625 2.375 -0.625 2.375 0 0 Z " fill="#6F7D89" transform="translate(68,90)"/>
<path d="M0 0 C2 1.3125 2 1.3125 4 3 C4 3.99 4 4.98 4 6 C1.03 5.505 1.03 5.505 -2 5 C-1.125 1.125 -1.125 1.125 0 0 Z " fill="#425A76" transform="translate(69,82)"/>
<path d="M0 0 C-0.165 0.763125 -0.33 1.52625 -0.5 2.3125 C-1.09145396 5.03596236 -1.09145396 5.03596236 -1 8 C-2.32 7.67 -3.64 7.34 -5 7 C-4.34 7 -3.68 7 -3 7 C-3.33 5.02 -3.66 3.04 -4 1 C-2 0 -2 0 0 0 Z " fill="#858F9E" transform="translate(69,81)"/>
<path d="M0 0 C0.66 0 1.32 0 2 0 C3.0326802 2.78823655 3.04509293 3.8677274 2.0625 6.75 C1.711875 7.4925 1.36125 8.235 1 9 C0.34 9 -0.32 9 -1 9 C-0.67 6.03 -0.34 3.06 0 0 Z " fill="#697585" transform="translate(125,244)"/>
<path d="M0 0 C0.33 0 0.66 0 1 0 C1 3.3 1 6.6 1 10 C-0.32 9.01 -1.64 8.02 -3 7 C-2.1654738 4.49642139 -1.20628008 2.33214148 0 0 Z " fill="#435367" transform="translate(169,145)"/>
<path d="M0 0 C1.32 0 2.64 0 4 0 C4.66 1.65 5.32 3.3 6 5 C4.35 5 2.7 5 1 5 C0.67 3.35 0.34 1.7 0 0 Z " fill="#4B586F" transform="translate(153,126)"/>
<path d="M0 0 C1.9375 0.8125 1.9375 0.8125 3.9375 3.8125 C3.6075 4.8025 3.2775 5.7925 2.9375 6.8125 C2.2775 6.4825 1.6175 6.1525 0.9375 5.8125 C0.9375 4.4925 0.9375 3.1725 0.9375 1.8125 C-1.0425 1.8125 -3.0225 1.8125 -5.0625 1.8125 C-2.0625 -0.1875 -2.0625 -0.1875 0 0 Z " fill="#8B93A0" transform="translate(97.0625,87.1875)"/>
<path d="M0 0 C1.65 0 3.3 0 5 0 C5.33 1.32 5.66 2.64 6 4 C4.68 4.33 3.36 4.66 2 5 C2 4.34 2 3.68 2 3 C1.34 3 0.68 3 0 3 C0 2.01 0 1.02 0 0 Z " fill="#435D77" transform="translate(78,82)"/>
<path d="M0 0 C1.0625 1.875 1.0625 1.875 2 4 C1.67 4.66 1.34 5.32 1 6 C-0.9375 5.6875 -0.9375 5.6875 -3 5 C-3.33 4.01 -3.66 3.02 -4 2 C-2.68 1.34 -1.36 0.68 0 0 Z " fill="#617183" transform="translate(83,174)"/>
<path d="M0 0 C0.66 0.66 1.32 1.32 2 2 C1.67 2.66 1.34 3.32 1 4 C1.99 4.33 2.98 4.66 4 5 C2.35 6.32 0.7 7.64 -1 9 C-1.33 6.36 -1.66 3.72 -2 1 C-1.34 0.67 -0.68 0.34 0 0 Z " fill="#42576B" transform="translate(68,108)"/>
<path d="M0 0 C1.98 0.495 1.98 0.495 4 1 C4 3.64 4 6.28 4 9 C3.67 9 3.34 9 3 9 C3 7.02 3 5.04 3 3 C1.68 3 0.36 3 -1 3 C-0.67 2.01 -0.34 1.02 0 0 Z " fill="#4F8BB2" transform="translate(277,133)"/>
<path d="M0 0 C2.475 0.99 2.475 0.99 5 2 C4.34 3.65 3.68 5.3 3 7 C1.68 5.68 0.36 4.36 -1 3 C-0.67 2.01 -0.34 1.02 0 0 Z " fill="#6B7A8D" transform="translate(73,116)"/>
<path d="M0 0 C0 2.66666667 0 5.33333333 0 8 C-0.66 8.66 -1.32 9.32 -2 10 C-3.1875 7.25 -3.1875 7.25 -4 4 C-1.78947368 0 -1.78947368 0 0 0 Z " fill="#828F99" transform="translate(62,105)"/>
<path d="M0 0 C1.32 0.33 2.64 0.66 4 1 C3.01 1 2.02 1 1 1 C1.33 1.99 1.66 2.98 2 4 C1.0625 6.1875 1.0625 6.1875 0 8 C-0.66 7.67 -1.32 7.34 -2 7 C-1.125 2.25 -1.125 2.25 0 0 Z " fill="#8E99A4" transform="translate(60,87)"/>
<path d="M0 0 C1.32 0.33 2.64 0.66 4 1 C4 1.99 4 2.98 4 4 C4.99 4.33 5.98 4.66 7 5 C6.01 5.33 5.02 5.66 4 6 C2.62437146 4.71034824 1.29233607 3.37310707 0 2 C0 1.34 0 0.68 0 0 Z " fill="#5F6D81" transform="translate(69,80)"/>
<path d="M0 0 C2 1 2 1 4 4 C1.125 4.625 1.125 4.625 -2 5 C-2.66 4.34 -3.32 3.68 -4 3 C-2.68 2.01 -1.36 1.02 0 0 Z " fill="#708091" transform="translate(77,177)"/>
<path d="M0 0 C-1.32 1.32 -2.64 2.64 -4 4 C-4.66 2.68 -5.32 1.36 -6 0 C-3.50907189 -1.24546405 -2.58919267 -0.7767578 0 0 Z " fill="#455A7B" transform="translate(113,163)"/>
<path d="M0 0 C1.67542976 0.28604898 3.34385343 0.61781233 5 1 C2.94766315 3.2477975 1.99332739 4.0022242 -1 5 C-1 1 -1 1 0 0 Z " fill="#667085" transform="translate(152,130)"/>
<path d="M0 0 C2.31 0 4.62 0 7 0 C7 0.66 7 1.32 7 2 C4.69 2.33 2.38 2.66 0 3 C0 2.01 0 1.02 0 0 Z " fill="#2E7BAF" transform="translate(244,69)"/>
<path d="M0 0 C0.33 0.66 0.66 1.32 1 2 C0.0625 4.125 0.0625 4.125 -1 6 C-2.65 5.67 -4.3 5.34 -6 5 C-5.195625 4.360625 -4.39125 3.72125 -3.5625 3.0625 C-1.7249496 1.59396498 -1.7249496 1.59396498 0 0 Z " fill="#7E8B9C" transform="translate(64,185)"/>
<path d="M0 0 C-0.99 1.32 -1.98 2.64 -3 4 C-3.99 3.67 -4.98 3.34 -6 3 C-6 2.01 -6 1.02 -6 0 C-2.25 -1.125 -2.25 -1.125 0 0 Z " fill="#4E5D73" transform="translate(109,177)"/>
<path d="M0 0 C5.75 1.625 5.75 1.625 8 5 C7.01 5 6.02 5 5 5 C4.67 4.01 4.34 3.02 4 2 C3.01 2.33 2.02 2.66 1 3 C0.67 2.01 0.34 1.02 0 0 Z " fill="#8793A0" transform="translate(153,124)"/>
<path d="M0 0 C0.99 0.66 1.98 1.32 3 2 C2.34 3.65 1.68 5.3 1 7 C0.34 6.34 -0.32 5.68 -1 5 C-1 4.34 -1 3.68 -1 3 C-1.33 2.34 -1.66 1.68 -2 1 C-1.34 0.67 -0.68 0.34 0 0 Z " fill="#868E9B" transform="translate(98,107)"/>
</svg>
