<?xml version="1.0" encoding="UTF-8"?>
<svg version="1.1" xmlns="http://www.w3.org/2000/svg" width="471" height="530">
<path d="M0 0 C0.90298828 -0.01611328 1.80597656 -0.03222656 2.73632812 -0.04882812 C24.79649499 -0.06480218 48.86082619 20.12988438 67.26025391 30.88452148 C83.31575162 40.26585334 99.43429417 49.53794938 115.58618164 58.75219727 C130.98457206 67.54226463 146.32524766 76.43323161 161.66381836 85.32714844 C166.4777085 88.11503217 171.30354392 90.88119163 176.13671875 93.63549805 C180.61553136 96.18830407 185.08983675 98.74893763 189.5625 101.3125 C190.59793945 101.90562988 191.63337891 102.49875977 192.70019531 103.10986328 C195.92862736 104.96307849 199.15233846 106.82427139 202.375 108.6875 C203.37104248 109.25831299 204.36708496 109.82912598 205.39331055 110.41723633 C220.07034845 118.93243487 230.06763009 127.82789027 235.5625 144.3125 C235.65563768 145.68177199 235.6951176 147.05509853 235.69951439 148.42752743 C235.7071262 149.68985916 235.7071262 149.68985916 235.71489179 150.97769254 C235.71538955 151.90237807 235.71588731 152.8270636 235.71640015 153.7797699 C235.7207824 154.76208605 235.72516465 155.74440221 235.7296797 156.75648552 C235.74308391 160.063489 235.7492503 163.37046582 235.75537109 166.67749023 C235.76327097 169.04266989 235.77153985 171.40784834 235.78015137 173.77302551 C235.80412485 180.88349342 235.81930444 187.99396664 235.83221143 195.10446152 C235.83592449 197.1140513 235.83989765 199.1236404 235.8439641 201.13322949 C235.86920812 213.6207439 235.89125466 226.10825943 235.90369225 238.59579372 C235.90662181 241.48826031 235.90958349 244.38072686 235.91259766 247.27319336 C235.91334371 247.9920779 235.91408976 248.71096245 235.91485842 249.45163137 C235.92749744 261.08315648 235.9607005 272.71452821 236.00239949 284.34598171 C236.04489195 296.29714678 236.06839593 308.24823353 236.07361281 320.19947392 C236.0770193 326.90577182 236.08925528 333.61179368 236.12171555 340.31802177 C236.15183993 346.63244732 236.15809199 352.94645653 236.14633179 359.26093864 C236.1461114 361.57316135 236.15438713 363.88540361 236.17198563 366.19755936 C236.28901841 382.46515452 235.36848996 394.96370591 223.5625 407.3125 C217.91620682 412.87769741 211.30958439 416.57264457 204.4375 420.4375 C203.27253586 421.10010385 202.10799092 421.76344522 200.94384766 422.42749023 C198.59504901 423.76577621 196.24401482 425.09998013 193.890625 426.43017578 C189.23191265 429.0650549 184.58454174 431.71961186 179.9375 434.375 C179.09582275 434.85493408 178.25414551 435.33486816 177.38696289 435.8293457 C169.84588022 440.13454543 162.34699739 444.51067928 154.85058594 448.89306641 C144.20684755 455.1123955 133.52678369 461.26817917 122.84472656 467.42138672 C117.41590058 470.54930148 111.98930719 473.68108448 106.5625 476.8125 C104.39584417 478.06251879 102.2291775 479.31251878 100.0625 480.5625 C98.99 481.18125 97.9175 481.8 96.8125 482.4375 C93.5625 484.3125 90.3125 486.1875 87.0625 488.0625 C85.9897583 488.68141113 84.9170166 489.30032227 83.81176758 489.93798828 C81.6476182 491.18649222 79.48339307 492.43486487 77.3190918 493.68310547 C71.86327827 496.82991658 66.40884816 499.97908171 60.95703125 503.1328125 C55.5573128 506.25579145 50.15274492 509.37023061 44.74511719 512.47949219 C42.60600594 513.7114995 40.46866004 514.94657657 38.33300781 516.18457031 C35.22634348 517.98486191 32.11386123 519.77469278 29 521.5625 C28.07872314 522.09955566 27.15744629 522.63661133 26.20825195 523.18994141 C17.58389426 528.11519424 10.17021068 530.84060216 0.1875 530.75 C-0.5859375 530.76998047 -1.359375 530.78996094 -2.15625 530.81054688 C-13.39320847 530.80127546 -22.74724654 525.3414593 -32.25 519.875 C-33.33458496 519.25955322 -34.41916992 518.64410645 -35.53662109 518.01000977 C-43.49640488 513.47556654 -51.38979061 508.83068783 -59.26025391 504.14331055 C-66.78802314 499.66728456 -74.39737652 495.34688753 -82.03027344 491.05322266 C-93.93133057 484.35608839 -105.73870071 477.50175195 -117.5 470.5625 C-133.56179429 461.08715544 -149.75404772 451.83317971 -165.95166016 442.5925293 C-173.22487486 438.44070674 -180.47617191 434.25187492 -187.71875 430.046875 C-190.98404839 428.15168925 -194.25555979 426.26778994 -197.53125 424.390625 C-198.79461182 423.6646814 -198.79461182 423.6646814 -200.08349609 422.92407227 C-201.67356295 422.01065292 -203.26492343 421.09947968 -204.85791016 420.19116211 C-219.58940641 411.71348026 -229.87172951 403.00981147 -235.4375 386.3125 C-235.53063768 384.94322801 -235.5701176 383.56990147 -235.57451439 382.19747257 C-235.5821262 380.93514084 -235.5821262 380.93514084 -235.58989179 379.64730746 C-235.59038955 378.72262193 -235.59088731 377.7979364 -235.59140015 376.8452301 C-235.5957824 375.86291395 -235.60016465 374.88059779 -235.6046797 373.86851448 C-235.61808391 370.561511 -235.6242503 367.25453418 -235.63037109 363.94750977 C-235.63827097 361.58233011 -235.64653985 359.21715166 -235.65515137 356.85197449 C-235.67912485 349.74150658 -235.69430444 342.63103336 -235.70721143 335.52053848 C-235.71092449 333.5109487 -235.71489765 331.5013596 -235.7189641 329.49177051 C-235.74420812 317.0042561 -235.76625466 304.51674057 -235.77869225 292.02920628 C-235.78162181 289.13673969 -235.78458349 286.24427314 -235.78759766 283.35180664 C-235.78834371 282.6329221 -235.78908976 281.91403755 -235.78985842 281.17336863 C-235.80249744 269.54184352 -235.8357005 257.91047179 -235.87739949 246.27901829 C-235.91989195 234.32785322 -235.94339593 222.37676647 -235.94861281 210.42552608 C-235.9520193 203.71922818 -235.96425528 197.01320632 -235.99671555 190.30697823 C-236.02683993 183.99255268 -236.03309199 177.67854347 -236.02133179 171.36406136 C-236.0211114 169.05183865 -236.02938713 166.73959639 -236.04698563 164.42744064 C-236.16928271 147.42810605 -234.77004038 134.94834392 -222.44140625 122.2578125 C-217.91396735 117.98055294 -213.27737604 114.89903083 -207.7578125 112.0546875 C-203.5798162 109.86246827 -199.51356801 107.50006418 -195.4375 105.125 C-193.77474616 104.15884285 -192.11198566 103.19269717 -190.44921875 102.2265625 C-189.1969751 101.49808105 -189.1969751 101.49808105 -187.91943359 100.75488281 C-184.79905219 98.94146423 -181.67447645 97.13535785 -178.54980469 95.3293457 C-172.59669608 91.88829726 -166.64867561 88.43905619 -160.71484375 84.96484375 C-149.76489145 78.55515921 -138.78105703 72.21694456 -127.72485352 65.9921875 C-120.2812341 61.79881465 -112.87921996 57.538164 -105.4921875 53.24609375 C-100.69153674 50.45678664 -95.88122927 47.68439533 -91.0703125 44.9128418 C-81.40537179 39.34484103 -71.75402238 33.75490034 -62.125 28.125 C-53.63108954 23.1591146 -45.11191729 18.24050889 -36.55688477 13.38061523 C-32.92110044 11.31365087 -29.29252702 9.24183827 -25.7109375 7.08203125 C-24.67195312 6.45683594 -23.63296875 5.83164063 -22.5625 5.1875 C-21.71945313 4.66929687 -20.87640625 4.15109375 -20.0078125 3.6171875 C-13.4391321 0.28293331 -7.20440224 -0.025602 0 0 Z M-27.4375 111.3125 C-29.33048828 111.621875 -29.33048828 111.621875 -31.26171875 111.9375 C-40.02434434 113.52251758 -48.1887012 115.98592831 -56.4375 119.3125 C-57.12183105 119.5815918 -57.80616211 119.85068359 -58.51123047 120.12792969 C-70.15987583 124.76225252 -80.3270543 130.75273888 -90.54492188 137.99414062 C-92.31931493 139.23017294 -94.1261066 140.39083178 -95.953125 141.546875 C-96.77296875 142.12953125 -97.5928125 142.7121875 -98.4375 143.3125 C-98.4375 143.9725 -98.4375 144.6325 -98.4375 145.3125 C-99.159375 145.539375 -99.88125 145.76625 -100.625 146 C-104.00182417 147.57585128 -105.99517039 149.52126616 -108.4375 152.3125 C-108.4375 152.9725 -108.4375 153.6325 -108.4375 154.3125 C-109.0975 154.3125 -109.7575 154.3125 -110.4375 154.3125 C-110.4375 154.9725 -110.4375 155.6325 -110.4375 156.3125 C-111.0975 156.3125 -111.7575 156.3125 -112.4375 156.3125 C-112.4375 156.9725 -112.4375 157.6325 -112.4375 158.3125 C-113.0975 158.3125 -113.7575 158.3125 -114.4375 158.3125 C-124.81435915 168.71649022 -124.81435915 168.71649022 -130.4375 181.3125 C-131.0975 181.3125 -131.7575 181.3125 -132.4375 181.3125 C-154.07747084 220.5196127 -163.33733342 263.18873673 -151.09423828 307.13574219 C-145.95430908 324.17202796 -137.95956528 341.88788469 -127.4375 356.3125 C-126.7775 356.3125 -126.1175 356.3125 -125.4375 356.3125 C-125.21191406 357.02019531 -124.98632812 357.72789062 -124.75390625 358.45703125 C-123.14186549 361.95377248 -121.0201116 364.2102636 -118.375 367 C-113.51994275 372.1476145 -113.51994275 372.1476145 -112.4375 374.3125 C-111.7775 374.3125 -111.1175 374.3125 -110.4375 374.3125 C-110.4375 374.9725 -110.4375 375.6325 -110.4375 376.3125 C-107.97235214 378.86027852 -105.16343285 381.04979757 -102.4375 383.3125 C-101.31601563 384.26382813 -101.31601563 384.26382813 -100.171875 385.234375 C-66.22934332 413.33249725 -24.73166083 424.42143327 18.84765625 420.77734375 C52.03153922 416.62499667 87.34232188 401.00586163 110.5625 376.3125 C110.5625 375.6525 110.5625 374.9925 110.5625 374.3125 C111.2225 374.3125 111.8825 374.3125 112.5625 374.3125 C112.5625 373.6525 112.5625 372.9925 112.5625 372.3125 C113.2225 372.3125 113.8825 372.3125 114.5625 372.3125 C116.12918459 370.64351325 117.617681 368.90053244 119.0625 367.125 C119.8565625 366.16207031 120.650625 365.19914063 121.46875 364.20703125 C123.36308529 361.5881834 124.53845287 359.35681404 125.5625 356.3125 C126.2225 356.3125 126.8825 356.3125 127.5625 356.3125 C129.38755013 353.90689414 129.38755013 353.90689414 131.1875 350.9375 C131.81914062 349.93976563 132.45078125 348.94203125 133.1015625 347.9140625 C134.72571318 345.51914169 134.72571318 345.51914169 134.5625 343.3125 C133.83099731 342.91309204 133.83099731 342.91309204 133.0847168 342.50561523 C124.58711026 337.85499957 116.17388564 333.18574496 108.05859375 327.88671875 C104.61391837 325.71425525 101.03592997 323.82822114 97.4453125 321.91015625 C94.25204589 320.14044616 91.16120457 318.24278051 88.0625 316.3125 C78.43544633 309.47101004 78.43544633 309.47101004 67.5625 306.3125 C64.57335343 309.92744384 64.57335343 309.92744384 63.5625 314.3125 C62.9025 314.3125 62.2425 314.3125 61.5625 314.3125 C60.9025 315.9625 60.2425 317.6125 59.5625 319.3125 C58.9025 319.3125 58.2425 319.3125 57.5625 319.3125 C57.5625 319.9725 57.5625 320.6325 57.5625 321.3125 C56.9025 321.3125 56.2425 321.3125 55.5625 321.3125 C55.5625 321.9725 55.5625 322.6325 55.5625 323.3125 C54.73105469 323.68955078 54.73105469 323.68955078 53.8828125 324.07421875 C51.17485042 325.51937697 48.87836357 327.26410839 46.4375 329.125 C29.09842302 341.79145914 7.61098652 345.77270441 -13.51953125 342.81640625 C-28.0959194 340.15933035 -42.82597662 333.95792601 -53.4375 323.3125 C-54.0975 323.3125 -54.7575 323.3125 -55.4375 323.3125 C-55.4375 322.6525 -55.4375 321.9925 -55.4375 321.3125 C-56.0975 321.3125 -56.7575 321.3125 -57.4375 321.3125 C-57.4375 320.6525 -57.4375 319.9925 -57.4375 319.3125 C-58.0975 319.3125 -58.7575 319.3125 -59.4375 319.3125 C-60.4275 316.8375 -60.4275 316.8375 -61.4375 314.3125 C-62.0975 314.3125 -62.7575 314.3125 -63.4375 314.3125 C-63.70949219 313.57902344 -63.98148437 312.84554687 -64.26171875 312.08984375 C-65.38222515 309.44306618 -66.67601601 307.27127642 -68.25 304.875 C-79.04551977 287.11122297 -80.91484192 265.89415805 -76.4140625 245.9140625 C-74.00491681 237.02913318 -70.66043799 229.07592441 -65.671875 221.3359375 C-64.28794513 219.23733237 -64.28794513 219.23733237 -63.4375 216.3125 C-62.7775 216.3125 -62.1175 216.3125 -61.4375 216.3125 C-60.7775 214.6625 -60.1175 213.0125 -59.4375 211.3125 C-58.7775 211.3125 -58.1175 211.3125 -57.4375 211.3125 C-57.4375 210.6525 -57.4375 209.9925 -57.4375 209.3125 C-56.7775 209.3125 -56.1175 209.3125 -55.4375 209.3125 C-55.4375 208.6525 -55.4375 207.9925 -55.4375 207.3125 C-54.87675781 207.05855469 -54.31601563 206.80460937 -53.73828125 206.54296875 C-51.12166487 205.14358987 -48.96264849 203.45274667 -46.625 201.625 C-28.66229181 188.50482802 -7.30115145 184.66233889 14.59375 187.81640625 C28.72392523 190.55178309 43.27899848 196.99614385 53.5625 207.3125 C54.2225 207.3125 54.8825 207.3125 55.5625 207.3125 C55.5625 207.9725 55.5625 208.6325 55.5625 209.3125 C56.2225 209.3125 56.8825 209.3125 57.5625 209.3125 C57.5625 209.9725 57.5625 210.6325 57.5625 211.3125 C58.2225 211.3125 58.8825 211.3125 59.5625 211.3125 C60.2225 212.9625 60.8825 214.6125 61.5625 216.3125 C62.2225 216.3125 62.8825 216.3125 63.5625 216.3125 C64.89583333 218.97916667 66.22916667 221.64583333 67.5625 224.3125 C72.1276135 222.97503775 75.75146177 221.12553817 79.75 218.5625 C84.66737593 215.45497696 89.65520014 212.57012797 94.78515625 209.828125 C98.92887969 207.56685257 102.97672162 205.14718106 107.03125 202.73046875 C109.5625 201.3125 109.5625 201.3125 112.5625 200.3125 C112.5625 199.6525 112.5625 198.9925 112.5625 198.3125 C113.13323242 198.19463135 113.70396484 198.0767627 114.29199219 197.95532227 C116.74542924 197.26070939 118.67165853 196.27947483 120.890625 195.02734375 C121.68984375 194.57939453 122.4890625 194.13144531 123.3125 193.66992188 C124.1375 193.20134766 124.9625 192.73277344 125.8125 192.25 C127.07320313 191.54133789 127.07320313 191.54133789 128.359375 190.81835938 C130.42948876 189.65392039 132.49705014 188.4851855 134.5625 187.3125 C133.23525585 182.44107642 131.07281194 178.93979648 127.9375 175.0625 C127.49599609 174.50473877 127.05449219 173.94697754 126.59960938 173.37231445 C125.69709334 172.23394306 124.79117904 171.09825734 123.88183594 169.96533203 C122.63653551 168.40524989 121.4151108 166.82619551 120.1953125 165.24609375 C119.49148438 164.33988281 118.78765625 163.43367188 118.0625 162.5 C117.4334375 161.68917969 116.804375 160.87835938 116.15625 160.04296875 C115.6303125 159.47191406 115.104375 158.90085938 114.5625 158.3125 C113.9025 158.3125 113.2425 158.3125 112.5625 158.3125 C112.5625 157.6525 112.5625 156.9925 112.5625 156.3125 C111.9025 156.3125 111.2425 156.3125 110.5625 156.3125 C110.5625 155.6525 110.5625 154.9925 110.5625 154.3125 C109.9025 154.3125 109.2425 154.3125 108.5625 154.3125 C108.5625 153.6525 108.5625 152.9925 108.5625 152.3125 C106.84918011 150.50182626 106.84918011 150.50182626 104.6875 148.6875 C103.96820313 148.05585938 103.24890625 147.42421875 102.5078125 146.7734375 C100.70143067 145.11232877 100.70143067 145.11232877 98.5625 145.3125 C98.5625 144.6525 98.5625 143.9925 98.5625 143.3125 C97.01676597 141.99074627 97.01676597 141.99074627 94.9765625 140.703125 C94.21585449 140.19869873 93.45514648 139.69427246 92.67138672 139.17456055 C91.8517041 138.64258057 91.03202148 138.11060059 90.1875 137.5625 C89.35621582 137.01827393 88.52493164 136.47404785 87.66845703 135.91333008 C85.30480142 134.3718457 82.93422466 132.84152591 80.5625 131.3125 C79.61890625 130.69246094 78.6753125 130.07242188 77.703125 129.43359375 C58.13807353 117.05363877 33.64375912 109.88455707 10.5625 109.3125 C9.75941406 109.29203613 8.95632812 109.27157227 8.12890625 109.25048828 C-3.91136916 108.9861789 -15.54813498 109.3205645 -27.4375 111.3125 Z M122.5625 239.3125 C122.5625 245.2525 122.5625 251.1925 122.5625 257.3125 C116.9525 257.3125 111.3425 257.3125 105.5625 257.3125 C105.5625 262.5925 105.5625 267.8725 105.5625 273.3125 C111.1725 273.3125 116.7825 273.3125 122.5625 273.3125 C122.5625 278.9225 122.5625 284.5325 122.5625 290.3125 C127.8425 290.3125 133.1225 290.3125 138.5625 290.3125 C138.5625 284.7025 138.5625 279.0925 138.5625 273.3125 C144.5025 273.3125 150.4425 273.3125 156.5625 273.3125 C156.5625 268.0325 156.5625 262.7525 156.5625 257.3125 C150.9525 256.9825 145.3425 256.6525 139.5625 256.3125 C139.2325 250.7025 138.9025 245.0925 138.5625 239.3125 C133.2825 239.3125 128.0025 239.3125 122.5625 239.3125 Z M188.5625 239.3125 C188.5625 245.2525 188.5625 251.1925 188.5625 257.3125 C182.9525 257.3125 177.3425 257.3125 171.5625 257.3125 C171.5625 262.5925 171.5625 267.8725 171.5625 273.3125 C177.1725 273.3125 182.7825 273.3125 188.5625 273.3125 C188.5625 278.9225 188.5625 284.5325 188.5625 290.3125 C193.8425 290.3125 199.1225 290.3125 204.5625 290.3125 C204.5625 284.7025 204.5625 279.0925 204.5625 273.3125 C210.1725 273.3125 215.7825 273.3125 221.5625 273.3125 C221.5625 268.0325 221.5625 262.7525 221.5625 257.3125 C215.9525 257.3125 210.3425 257.3125 204.5625 257.3125 C204.5625 251.3725 204.5625 245.4325 204.5625 239.3125 C199.2825 239.3125 194.0025 239.3125 188.5625 239.3125 Z " fill="#025A9D" transform="translate(235.4375,-0.3125)"/>
<path d="M0 0 C0.90298828 -0.01611328 1.80597656 -0.03222656 2.73632812 -0.04882812 C24.79649499 -0.06480218 48.86082619 20.12988438 67.26025391 30.88452148 C83.31575162 40.26585334 99.43429417 49.53794938 115.58618164 58.75219727 C130.98457206 67.54226463 146.32524766 76.43323161 161.66381836 85.32714844 C166.4777085 88.11503217 171.30354392 90.88119163 176.13671875 93.63549805 C180.61553136 96.18830407 185.08983675 98.74893763 189.5625 101.3125 C190.59793945 101.90562988 191.63337891 102.49875977 192.70019531 103.10986328 C195.92862736 104.96307849 199.15233846 106.82427139 202.375 108.6875 C203.37104248 109.25831299 204.36708496 109.82912598 205.39331055 110.41723633 C212.99390436 114.82688395 220.19538309 119.30775555 226 126 C226.65871094 126.74636719 227.31742187 127.49273437 227.99609375 128.26171875 C229.5625 130.3125 229.5625 130.3125 230.5625 133.3125 C230.00046875 133.61800781 229.4384375 133.92351562 228.859375 134.23828125 C226.41845324 135.56731074 223.97963888 136.9001578 221.54101562 138.23339844 C220.11362216 139.01191264 218.68509488 139.78834926 217.25585938 140.56347656 C208.33772437 145.40025331 199.47572297 150.20923122 190.984375 155.7734375 C187.58730528 157.93222052 184.06213708 159.81492656 180.515625 161.71484375 C172.35964305 166.12727314 164.35149692 170.81163959 156.41015625 175.59765625 C155.47042969 176.16355469 154.53070313 176.72945312 153.5625 177.3125 C152.89718262 177.7132373 152.23186523 178.11397461 151.54638672 178.52685547 C149.26328206 179.8983124 146.97574011 181.26213161 144.6875 182.625 C143.94910889 183.07020996 143.21071777 183.51541992 142.44995117 183.97412109 C141.74717041 184.39129395 141.04438965 184.8084668 140.3203125 185.23828125 C139.6927002 185.61380127 139.06508789 185.98932129 138.41845703 186.3762207 C136.4829013 187.35265535 134.6784996 187.86852055 132.5625 188.3125 C133.2225 187.9825 133.8825 187.6525 134.5625 187.3125 C131.25870526 181.36298346 127.58282085 175.82396697 123.4375 170.4375 C123.01807129 169.8906958 122.59864258 169.3438916 122.16650391 168.78051758 C120.30447232 166.39398558 118.42169526 164.17455908 116.2578125 162.0546875 C114.5625 160.3125 114.5625 160.3125 114.5625 158.3125 C113.9025 158.3125 113.2425 158.3125 112.5625 158.3125 C112.5625 157.6525 112.5625 156.9925 112.5625 156.3125 C111.9025 156.3125 111.2425 156.3125 110.5625 156.3125 C110.5625 155.6525 110.5625 154.9925 110.5625 154.3125 C109.9025 154.3125 109.2425 154.3125 108.5625 154.3125 C108.5625 153.6525 108.5625 152.9925 108.5625 152.3125 C107.923125 152.044375 107.28375 151.77625 106.625 151.5 C104.5625 150.3125 104.5625 150.3125 103.5625 147.3125 C101.05802484 146.09380071 101.05802484 146.09380071 98.5625 145.3125 C98.5625 144.6525 98.5625 143.9925 98.5625 143.3125 C97.84191406 143.05855469 97.12132812 142.80460938 96.37890625 142.54296875 C93.36040525 141.22420618 91.10981931 139.62861694 88.5 137.625 C66.28541914 121.2158296 38.2698713 110.99921287 10.5625 110.3125 C9.75941406 110.29203613 8.95632812 110.27157227 8.12890625 110.25048828 C-3.91136916 109.9861789 -15.54813498 110.3205645 -27.4375 112.3125 C-29.33048828 112.621875 -29.33048828 112.621875 -31.26171875 112.9375 C-40.02434434 114.52251758 -48.1887012 116.98592831 -56.4375 120.3125 C-57.12183105 120.5815918 -57.80616211 120.85068359 -58.51123047 121.12792969 C-71.73144328 126.38748839 -83.58909499 133.42234856 -94.8203125 142.16796875 C-96.4375 143.3125 -96.4375 143.3125 -98.4375 143.3125 C-98.4375 143.9725 -98.4375 144.6325 -98.4375 145.3125 C-99.22125 145.56 -100.005 145.8075 -100.8125 146.0625 C-103.84687999 147.50744285 -104.10779725 148.36815819 -105.4375 151.3125 C-106.4275 151.6425 -107.4175 151.9725 -108.4375 152.3125 C-108.4375 152.9725 -108.4375 153.6325 -108.4375 154.3125 C-109.0975 154.3125 -109.7575 154.3125 -110.4375 154.3125 C-110.4375 154.9725 -110.4375 155.6325 -110.4375 156.3125 C-111.0975 156.3125 -111.7575 156.3125 -112.4375 156.3125 C-112.4375 156.9725 -112.4375 157.6325 -112.4375 158.3125 C-113.0975 158.3125 -113.7575 158.3125 -114.4375 158.3125 C-114.84935547 159.20582031 -114.84935547 159.20582031 -115.26953125 160.1171875 C-116.38760776 162.21872261 -117.52442985 163.69222077 -119.125 165.4375 C-123.36379113 170.2505116 -127.5606511 175.55880221 -130.4375 181.3125 C-131.0975 181.3125 -131.7575 181.3125 -132.4375 181.3125 C-132.69144531 182.16457031 -132.94539063 183.01664063 -133.20703125 183.89453125 C-134.50628313 187.50356426 -136.23454798 190.68403521 -138.125 194 C-156.80460439 228.04619003 -160.46741548 269.90087064 -150.09423828 307.13574219 C-145.39050634 322.72625297 -138.19900352 337.62265075 -129.4375 351.3125 C-129.4375 351.9725 -129.4375 352.6325 -129.4375 353.3125 C-130.4275 352.9825 -131.4175 352.6525 -132.4375 352.3125 C-132.4375 351.3225 -132.4375 350.3325 -132.4375 349.3125 C-133.4275 348.9825 -134.4175 348.6525 -135.4375 348.3125 C-135.4375 347.3225 -135.4375 346.3325 -135.4375 345.3125 C-141.8943583 347.87532033 -147.83406865 351.20966552 -153.875 354.625 C-154.968125 355.24020508 -156.06125 355.85541016 -157.1875 356.48925781 C-170.32520025 363.90655299 -183.34365249 371.52805261 -196.33203125 379.203125 C-203.96469532 383.7125115 -211.62091998 388.12631343 -219.4375 392.3125 C-221.50079098 393.43604866 -223.56330145 394.56103192 -225.625 395.6875 C-227.22912058 396.56258448 -228.83327926 397.43759915 -230.4375 398.3125 C-237.06004744 387.16483902 -236.14491315 375.47129529 -236.08447266 362.92578125 C-236.09125581 360.55926848 -236.10016284 358.192761 -236.11102295 355.82626343 C-236.13373942 349.42541333 -236.12501125 343.02496799 -236.10912752 336.62411118 C-236.1015539 332.62045143 -236.10192552 328.6168493 -236.10657883 324.6131897 C-236.10734499 323.94664283 -236.10811116 323.28009596 -236.10890054 322.59335071 C-236.11049931 321.23888387 -236.11212038 319.88441705 -236.1137635 318.52995026 C-236.12798984 305.85650855 -236.11167741 293.18324826 -236.08476166 280.50983632 C-236.06242564 269.65718292 -236.06630665 258.80479701 -236.08935547 247.95214844 C-236.11616879 235.3212186 -236.12661684 222.69044739 -236.11129415 210.05949306 C-236.10970156 208.7102655 -236.1081297 207.36103791 -236.10657883 206.0118103 C-236.10580745 205.34812402 -236.10503607 204.68443773 -236.10424132 204.00063974 C-236.09994085 199.34434999 -236.10742204 194.68816565 -236.11897659 190.03189087 C-236.13346776 183.75421523 -236.12331398 177.4770425 -236.09450531 171.19942093 C-236.08791942 168.90172789 -236.08974913 166.60399219 -236.10081863 164.30631638 C-236.1748577 147.37100774 -234.72076366 134.89762072 -222.44140625 122.2578125 C-217.91396735 117.98055294 -213.27737604 114.89903083 -207.7578125 112.0546875 C-203.5798162 109.86246827 -199.51356801 107.50006418 -195.4375 105.125 C-193.77474616 104.15884285 -192.11198566 103.19269717 -190.44921875 102.2265625 C-189.1969751 101.49808105 -189.1969751 101.49808105 -187.91943359 100.75488281 C-184.79905219 98.94146423 -181.67447645 97.13535785 -178.54980469 95.3293457 C-172.59669608 91.88829726 -166.64867561 88.43905619 -160.71484375 84.96484375 C-149.76489145 78.55515921 -138.78105703 72.21694456 -127.72485352 65.9921875 C-120.2812341 61.79881465 -112.87921996 57.538164 -105.4921875 53.24609375 C-100.69153674 50.45678664 -95.88122927 47.68439533 -91.0703125 44.9128418 C-81.40537179 39.34484103 -71.75402238 33.75490034 -62.125 28.125 C-53.63108954 23.1591146 -45.11191729 18.24050889 -36.55688477 13.38061523 C-32.92110044 11.31365087 -29.29252702 9.24183827 -25.7109375 7.08203125 C-24.67195312 6.45683594 -23.63296875 5.83164063 -22.5625 5.1875 C-21.71945313 4.66929687 -20.87640625 4.15109375 -20.0078125 3.6171875 C-13.4391321 0.28293331 -7.20440224 -0.025602 0 0 Z " fill="#669AD2" transform="translate(235.4375,-0.3125)"/>
<path d="M0 0 C3.4375 1.1875 3.4375 1.1875 4.4375 3.1875 C6.08113134 3.90909424 7.74800386 4.58101421 9.4375 5.1875 C9.4375 5.8475 9.4375 6.5075 9.4375 7.1875 C10.01886719 7.31125 10.60023438 7.435 11.19921875 7.5625 C18.4467534 9.5862444 25.01557347 14.72877831 31.41503906 18.59423828 C36.2343198 21.4937308 41.09866611 24.30410937 46 27.0625 C46.65427979 27.43149414 47.30855957 27.80048828 47.98266602 28.18066406 C51.75157859 30.29051753 55.5574562 32.28633832 59.4375 34.1875 C59.4375 34.8475 59.4375 35.5075 59.4375 36.1875 C59.98921875 36.29964844 60.5409375 36.41179687 61.109375 36.52734375 C63.83815211 37.30110773 66.16522943 38.45567694 68.6875 39.75 C69.57953125 40.20503906 70.4715625 40.66007812 71.390625 41.12890625 C72.40382813 41.65291016 72.40382813 41.65291016 73.4375 42.1875 C73.4375 42.8475 73.4375 43.5075 73.4375 44.1875 C74.14261719 44.45304687 74.84773438 44.71859375 75.57421875 44.9921875 C78.59317786 46.25248967 81.38935076 47.72707994 84.25 49.3125 C85.22582031 49.85132813 86.20164062 50.39015625 87.20703125 50.9453125 C87.94308594 51.35523438 88.67914063 51.76515625 89.4375 52.1875 C88.90371556 56.03742031 88.00825076 58.21505295 85.4375 61.125 C84.633125 62.06666016 84.633125 62.06666016 83.8125 63.02734375 C77.58441774 68.69203041 69.98838405 72.70240361 62.6875 76.8125 C60.8241923 77.86974505 58.9609118 78.92703804 57.09765625 79.984375 C56.1555127 80.51740234 55.21336914 81.05042969 54.24267578 81.59960938 C49.86471792 84.077785 45.49391043 86.56841568 41.125 89.0625 C40.26382568 89.55403564 39.40265137 90.04557129 38.51538086 90.55200195 C30.89234646 94.91133471 23.30785954 99.33551278 15.72680664 103.76733398 C5.08268761 109.9869521 -5.59780529 116.14294241 -16.28027344 122.29638672 C-21.70909942 125.42430148 -27.13569281 128.55608448 -32.5625 131.6875 C-34.72915583 132.93751879 -36.8958225 134.18751878 -39.0625 135.4375 C-40.135 136.05625 -41.2075 136.675 -42.3125 137.3125 C-45.5625 139.1875 -48.8125 141.0625 -52.0625 142.9375 C-53.1352417 143.55641113 -54.2079834 144.17532227 -55.31323242 144.81298828 C-57.4773818 146.06149222 -59.64160693 147.30986487 -61.8059082 148.55810547 C-67.26172173 151.70491658 -72.71615184 154.85408171 -78.16796875 158.0078125 C-83.5676872 161.13079145 -88.97225508 164.24523061 -94.37988281 167.35449219 C-96.51899406 168.5864995 -98.65633996 169.82157657 -100.79199219 171.05957031 C-103.89865652 172.85986191 -107.01113877 174.64969278 -110.125 176.4375 C-111.04627686 176.97455566 -111.96755371 177.51161133 -112.91674805 178.06494141 C-121.54110574 182.99019424 -128.95478932 185.71560216 -138.9375 185.625 C-139.7109375 185.64498047 -140.484375 185.66496094 -141.28125 185.68554688 C-152.51820847 185.67627546 -161.87224654 180.2164593 -171.375 174.75 C-172.45958496 174.13455322 -173.54416992 173.51910645 -174.66162109 172.88500977 C-182.62140488 168.35056654 -190.51479061 163.70568783 -198.38525391 159.01831055 C-205.91302314 154.54228456 -213.52237652 150.22188753 -221.15527344 145.92822266 C-233.05633057 139.23108839 -244.86370071 132.37675195 -256.625 125.4375 C-272.68679429 115.96215544 -288.87904772 106.70817971 -305.07666016 97.4675293 C-312.34987486 93.31570674 -319.60117191 89.12687492 -326.84375 84.921875 C-330.10904839 83.02668925 -333.38055979 81.14278994 -336.65625 79.265625 C-337.49849121 78.7816626 -338.34073242 78.2977002 -339.20849609 77.79907227 C-340.79856295 76.88565292 -342.38992343 75.97447968 -343.98291016 75.06616211 C-359.01718684 66.41423617 -359.01718684 66.41423617 -364.0625 60.5625 C-365.03703125 59.46035156 -365.03703125 59.46035156 -366.03125 58.3359375 C-367.54129594 56.21725059 -368.14818973 54.73090474 -368.5625 52.1875 C-359.16460908 46.59922393 -349.71468432 41.1152168 -340.1875 35.75 C-331.65515019 30.94443171 -323.15835575 26.08378137 -314.69140625 21.1640625 C-310.72463076 18.85922778 -306.75215137 16.56438444 -302.77734375 14.2734375 C-302.19109726 13.93551178 -301.60485077 13.59758606 -301.00083923 13.24942017 C-298.09419347 11.57414028 -295.18724118 9.89939508 -292.2800293 8.22509766 C-291.22082275 7.61456543 -290.16161621 7.0040332 -289.0703125 6.375 C-288.12816895 5.83230469 -287.18602539 5.28960937 -286.21533203 4.73046875 C-284.43810338 3.69677787 -282.68814818 2.61480203 -280.96826172 1.48828125 C-278.5625 0.1875 -278.5625 0.1875 -274.5625 0.1875 C-274.0675 1.6725 -274.0675 1.6725 -273.5625 3.1875 C-272.5725 3.6825 -272.5725 3.6825 -271.5625 4.1875 C-271.0675 5.6725 -271.0675 5.6725 -270.5625 7.1875 C-268.56233534 8.39632096 -268.56233534 8.39632096 -266.5625 9.1875 C-266.5625 9.8475 -266.5625 10.5075 -266.5625 11.1875 C-265.9025 11.1875 -265.2425 11.1875 -264.5625 11.1875 C-263.2287784 12.86863694 -261.96978884 14.60945478 -260.75 16.375 C-257.44969151 21.06283346 -257.44969151 21.06283346 -253.5625 25.25 C-252.9025 25.889375 -252.2425 26.52875 -251.5625 27.1875 C-251.5625 27.8475 -251.5625 28.5075 -251.5625 29.1875 C-250.9025 29.1875 -250.2425 29.1875 -249.5625 29.1875 C-249.5625 29.8475 -249.5625 30.5075 -249.5625 31.1875 C-249.00175781 31.4246875 -248.44101563 31.661875 -247.86328125 31.90625 C-245.04018676 33.47836374 -243.06906888 35.43611516 -240.75 37.6875 C-209.70292788 66.66476731 -168.29640663 76.10783919 -127.0390625 75.1015625 C-93.37195857 73.45352245 -56.54605609 57.92133496 -32.875 33.5625 C-32.111875 32.77875 -31.34875 31.995 -30.5625 31.1875 C-29.9025 31.1875 -29.2425 31.1875 -28.5625 31.1875 C-28.5625 30.5275 -28.5625 29.8675 -28.5625 29.1875 C-27.9025 29.1875 -27.2425 29.1875 -26.5625 29.1875 C-26.5625 28.5275 -26.5625 27.8675 -26.5625 27.1875 C-25.9025 27.1875 -25.2425 27.1875 -24.5625 27.1875 C-24.15837891 26.30384766 -24.15837891 26.30384766 -23.74609375 25.40234375 C-22.56742673 23.19671933 -21.30027121 21.59578228 -19.625 19.75 C-17.72745937 17.60776435 -16.29068945 15.73124658 -14.8125 13.25 C-14.4 12.569375 -13.9875 11.88875 -13.5625 11.1875 C-12.9025 11.1875 -12.2425 11.1875 -11.5625 11.1875 C-11.19125 10.135625 -11.19125 10.135625 -10.8125 9.0625 C-6.25229875 -1.42596287 -6.25229875 -1.42596287 0 0 Z " fill="#024581" transform="translate(374.5625,344.8125)"/>
<path d="M0 0 C0.68964844 0.60972656 1.37929688 1.21945313 2.08984375 1.84765625 C2.08984375 2.50765625 2.08984375 3.16765625 2.08984375 3.84765625 C2.74984375 3.84765625 3.40984375 3.84765625 4.08984375 3.84765625 C4.08984375 4.50765625 4.08984375 5.16765625 4.08984375 5.84765625 C4.74984375 5.84765625 5.40984375 5.84765625 6.08984375 5.84765625 C7.07984375 8.32265625 7.07984375 8.32265625 8.08984375 10.84765625 C8.74984375 10.84765625 9.40984375 10.84765625 10.08984375 10.84765625 C14.08984375 16.25942096 14.08984375 16.25942096 14.08984375 18.84765625 C15.40984375 18.51765625 16.72984375 18.18765625 18.08984375 17.84765625 C18.08984375 18.50765625 18.08984375 19.16765625 18.08984375 19.84765625 C16.76984375 19.84765625 15.44984375 19.84765625 14.08984375 19.84765625 C14.08984375 20.50765625 14.08984375 21.16765625 14.08984375 21.84765625 C13.43790039 22.20174561 12.78595703 22.55583496 12.11425781 22.9206543 C-9.69630845 34.78738838 -9.69630845 34.78738838 -31.09326172 47.37646484 C-37.06970795 51.00141381 -43.17907842 54.38460043 -49.28515625 57.78515625 C-58.45432346 62.89337271 -67.54381541 68.10718934 -76.56933594 73.46386719 C-84.41401992 78.10129614 -92.29660285 82.6748476 -100.17431641 87.25585938 C-101.88835702 88.25314162 -103.6016875 89.25164648 -105.31396484 90.25195312 C-107.30198574 91.413011 -109.29292191 92.56884844 -111.28515625 93.72265625 C-112.34476563 94.33882813 -113.404375 94.955 -114.49609375 95.58984375 C-116.91015625 96.84765625 -116.91015625 96.84765625 -118.91015625 96.84765625 C-118.91015625 99.15765625 -118.91015625 101.46765625 -118.91015625 103.84765625 C-128.22698636 95.6954299 -131.67511284 79.6491822 -132.91015625 67.84765625 C-134.17095447 46.71841714 -128.62317342 28.417182 -116.91015625 10.84765625 C-116.25015625 10.84765625 -115.59015625 10.84765625 -114.91015625 10.84765625 C-114.25015625 9.19765625 -113.59015625 7.54765625 -112.91015625 5.84765625 C-112.25015625 5.84765625 -111.59015625 5.84765625 -110.91015625 5.84765625 C-110.91015625 5.18765625 -110.91015625 4.52765625 -110.91015625 3.84765625 C-110.25015625 3.84765625 -109.59015625 3.84765625 -108.91015625 3.84765625 C-108.91015625 3.18765625 -108.91015625 2.52765625 -108.91015625 1.84765625 C-77.08703355 -27.20299742 -33.22333488 -24.57188929 0 0 Z " fill="#679AD2" transform="translate(288.91015625,205.15234375)"/>
<path d="M0 0 C0.99 0.99 0.99 0.99 2 2 C4.06874034 2.6425235 4.06874034 2.6425235 6 3 C6 3.66 6 4.32 6 5 C6.721875 5.28875 7.44375 5.5775 8.1875 5.875 C10.79166667 6.91666667 13.39583333 7.95833333 16 9 C16 9.66 16 10.32 16 11 C16.58789307 11.12455566 17.17578613 11.24911133 17.78149414 11.37744141 C19.98116062 11.99471328 21.55633884 12.77237949 23.49609375 13.9609375 C24.45805664 14.54488281 24.45805664 14.54488281 25.43945312 15.140625 C26.09880859 15.54796875 26.75816406 15.9553125 27.4375 16.375 C28.09298828 16.77460938 28.74847656 17.17421875 29.42382812 17.5859375 C32.23052454 19.29754374 35.03088684 21.01906964 37.828125 22.74609375 C39.91380948 23.95023893 41.64394946 24.56369435 44 25 C44 25.66 44 26.32 44 27 C44.70125 27.2578125 45.4025 27.515625 46.125 27.78125 C50.34466043 29.5700191 54.14201776 31.98345967 58.0625 34.34375 C60.66854949 35.81311833 63.19709483 36.96952016 66 38 C65.01 38.33 64.02 38.66 63 39 C62.67 39.99 62.34 40.98 62 42 C61.01 42.495 61.01 42.495 60 43 C59.65458149 45.33157492 59.32205743 47.66508361 59 50 C58.34 50.99 57.68 51.98 57 53 C56.34 53 55.68 53 55 53 C55 53.66 55 54.32 55 55 C54.34 55 53.68 55 53 55 C53 55.66 53 56.32 53 57 C34.40613582 73.44970687 12.39394881 79.44775829 -12 78 C-29.13644215 76.21570239 -45.13163157 68.37708087 -58 57 C-58 56.34 -58 55.68 -58 55 C-58.66 55 -59.32 55 -60 55 C-60 54.34 -60 53.68 -60 53 C-60.66 53 -61.32 53 -62 53 C-62.66 51.35 -63.32 49.7 -64 48 C-64.66 48 -65.32 48 -66 48 C-69.02441731 41.83018868 -69.02441731 41.83018868 -68.92578125 38.4765625 C-67.62701538 35.00222679 -65.86074288 34.29682491 -62.625 32.5625 C-61.64789063 32.02753906 -60.67078125 31.49257813 -59.6640625 30.94140625 C-59.10525391 30.64532471 -58.54644531 30.34924316 -57.97070312 30.04418945 C-49.61706787 25.61796324 -41.40730523 20.96434805 -33.25 16.1875 C-32.20666504 15.58019043 -31.16333008 14.97288086 -30.08837891 14.34716797 C-25.463894 11.64853904 -20.85612194 8.93546946 -16.3203125 6.08984375 C-15.64194336 5.66743408 -14.96357422 5.24502441 -14.26464844 4.80981445 C-12.51049116 3.70995331 -10.76650598 2.59391409 -9.0234375 1.4765625 C-5.68298446 -0.15482154 -3.66852426 -0.47301889 0 0 Z " fill="#034682" transform="translate(238,266)"/>
<path d="M0 0 C1.32 0.33 2.64 0.66 4 1 C4 1.99 4 2.98 4 4 C7.63 5.32 11.26 6.64 15 8 C15.33 7.34 15.66 6.68 16 6 C16.226875 7.11375 16.45375 8.2275 16.6875 9.375 C17.120625 10.57125 17.55375 11.7675 18 13 C20.50447516 14.21869929 20.50447516 14.21869929 23 15 C23.8125 17.125 23.8125 17.125 24 19 C18.93179391 16.18068743 14.10651667 13.13551184 9.3125 9.875 C3.8519237 6.10431479 3.8519237 6.10431479 -2 3 C-1.34 2.01 -0.68 1.02 0 0 Z " fill="#8CADD3" transform="translate(308,123)"/>
<path d="M0 0 C2 4.75 2 4.75 2 7 C2.66 7.33 3.32 7.66 4 8 C4 8.66 4 9.32 4 10 C4.66 10 5.32 10 6 10 C5.67 10.66 5.34 11.32 5 12 C-0.28 9.03 -5.56 6.06 -11 3 C-11 2.67 -11 2.34 -11 2 C-7.12315913 0.80712589 -4.08378077 0 0 0 Z " fill="#104A80" transform="translate(30,410)"/>
<path d="M0 0 C0.33 0.66 0.66 1.32 1 2 C0.43410156 2.33773437 -0.13179687 2.67546875 -0.71484375 3.0234375 C-1.44832031 3.46945313 -2.18179687 3.91546875 -2.9375 4.375 C-3.66839844 4.81585938 -4.39929688 5.25671875 -5.15234375 5.7109375 C-7.13772272 6.8773984 -7.13772272 6.8773984 -8 9 C-9.6396875 9.61875 -9.6396875 9.61875 -11.3125 10.25 C-15.3503014 11.84365168 -16.72442639 14.34282813 -19 18 C-19.99 18 -20.98 18 -22 18 C-22 18.66 -22 19.32 -22 20 C-22.66 19.67 -23.32 19.34 -24 19 C-17.1073427 10.5134157 -9.64981818 5.04828451 0 0 Z " fill="#7EA5CB" transform="translate(31,110)"/>
<path d="M0 0 C2.475 0.99 2.475 0.99 5 2 C5 2.99 5 3.98 5 5 C4.34 5 3.68 5 3 5 C3 5.66 3 6.32 3 7 C2.34 7 1.68 7 1 7 C1 7.66 1 8.32 1 9 C-0.53125 10.2890625 -0.53125 10.2890625 -2.5 11.625 C-3.1496875 12.07101562 -3.799375 12.51703125 -4.46875 12.9765625 C-4.9740625 13.31429688 -5.479375 13.65203125 -6 14 C-6 12.68 -6 11.36 -6 10 C-5.34 10 -4.68 10 -4 10 C-3.34 8.35 -2.68 6.7 -2 5 C-1.01 5.33 -0.02 5.66 1 6 C0.67 4.02 0.34 2.04 0 0 Z " fill="#4B779A" transform="translate(290,314)"/>
<path d="M0 0 C0 3 0 3 -2 6 C-1.69159401 8.15274948 -1.69159401 8.15274948 -1 10 C-2.98 10.99 -2.98 10.99 -5 12 C-5.99 11.34 -6.98 10.68 -8 10 C-8.99 10 -9.98 10 -11 10 C-5.555 5.05 -5.555 5.05 0 0 Z M-7 12 C-5 13 -5 13 -5 13 Z " fill="#44749F" transform="translate(343,377)"/>
<path d="M0 0 C3.3125 -0.3125 3.3125 -0.3125 7 0 C8.9375 2.5 8.9375 2.5 10 5 C9.236875 4.690625 8.47375 4.38125 7.6875 4.0625 C5.81210323 3.32106407 3.91315348 2.63771783 2 2 C1.5978125 3.1446875 1.5978125 3.1446875 1.1875 4.3125 C0.05575888 6.87380884 -0.91223401 8.19692938 -3 10 C-3.33 8.02 -3.66 6.04 -4 4 C-3.01 4 -2.02 4 -1 4 C-0.67 2.68 -0.34 1.36 0 0 Z " fill="#4E7FA7" transform="translate(301,304)"/>
<path d="M0 0 C0.33 0 0.66 0 1 0 C1.06058594 0.9178125 1.12117187 1.835625 1.18359375 2.78125 C1.69967807 10.68841157 1.69967807 10.68841157 2.5625 18.5625 C2.92766412 21.4316467 3.0901495 24.1152159 3 27 C-2.48104083 18.77843875 -0.90960705 9.32961821 0 0 Z " fill="#81A8D2" transform="translate(158,264)"/>
<path d="M0 0 C0.66 0 1.32 0 2 0 C2 5.61 2 11.22 2 17 C1.34 16.67 0.68 16.34 0 16 C-0.59765625 13.78515625 -0.59765625 13.78515625 -1.0625 11.0625 C-1.66805467 7.41227791 -1.66805467 7.41227791 -3 4 C-2.34 3.67 -1.68 3.34 -1 3 C-0.67 2.01 -0.34 1.02 0 0 Z " fill="#0C558E" transform="translate(421,274)"/>
<path d="M0 0 C-3.32307692 3.93846154 -3.32307692 3.93846154 -6.75 4.25 C-7.4925 4.1675 -8.235 4.085 -9 4 C-9.33 4.66 -9.66 5.32 -10 6 C-12.32156597 6.40729228 -14.6568787 6.74438677 -17 7 C-5.07692308 -2.53846154 -5.07692308 -2.53846154 0 0 Z " fill="#427097" transform="translate(320,399)"/>
<path d="M0 0 C1 3 1 3 0.07421875 5.12109375 C-0.61220703 6.26771484 -0.61220703 6.26771484 -1.3125 7.4375 C-2.97633327 10.25505147 -4.57113183 13.05505574 -6 16 C-6.66 16 -7.32 16 -8 16 C-7.42070126 11.97387377 -6.14350034 9.19196689 -4 5.75 C-3.46375 4.87859375 -2.9275 4.0071875 -2.375 3.109375 C-1 1 -1 1 0 0 Z " fill="#9BBBDB" transform="translate(171,218)"/>
<path d="M0 0 C0 0.66 0 1.32 0 2 C-0.99 2 -1.98 2 -3 2 C-3 2.66 -3 3.32 -3 4 C-4.66279327 5.0064275 -6.32983484 6.00585407 -8 7 C-8.99 8.485 -8.99 8.485 -10 10 C-12.97 9.505 -12.97 9.505 -16 9 C-11.97806144 5.49702126 -5.60566856 0 0 0 Z " fill="#89ABD2" transform="translate(95,74)"/>
<path d="M0 0 C4.62 0.66 9.24 1.32 14 2 C13.67 2.99 13.34 3.98 13 5 C4.2404908 5.44539877 4.2404908 5.44539877 0 2 C0 1.34 0 0.68 0 0 Z " fill="#396994" transform="translate(199,417)"/>
<path d="M0 0 C0.7734375 0.61875 0.7734375 0.61875 1.5625 1.25 C-2.75812966 5.20028998 -2.75812966 5.20028998 -6 5.4375 C-6.804375 5.375625 -7.60875 5.31375 -8.4375 5.25 C-9.78082728 5.54044914 -11.11975804 5.85955794 -12.4375 6.25 C-9.47126771 2.76031496 -4.66236549 -1.434574 0 0 Z " fill="#80A6D4" transform="translate(109.4375,66.75)"/>
<path d="M0 0 C6.93 0 13.86 0 21 0 C21 0.33 21 0.66 21 1 C18.91835982 1.36398622 16.83459438 1.71583287 14.75 2.0625 C13.00976562 2.35833984 13.00976562 2.35833984 11.234375 2.66015625 C6.38897287 3.16927459 4.38864904 2.19432452 0 0 Z " fill="#8AB0D8" transform="translate(225,186)"/>
<path d="M0 0 C2.31 0.66 4.62 1.32 7 2 C7 2.66 7 3.32 7 4 C10.3 4.66 13.6 5.32 17 6 C13 8 13 8 10.75 7.4375 C7.04341956 5.49996932 3.40992214 3.42840609 0 1 C0 0.67 0 0.34 0 0 Z " fill="#457FAA" transform="translate(317,312)"/>
<path d="M0 0 C0.33 0.66 0.66 1.32 1 2 C-0.88582694 3.34744891 -2.78409908 4.67749225 -4.6875 6 C-5.74324219 6.7425 -6.79898438 7.485 -7.88671875 8.25 C-11.0186289 10.01047145 -12.49551621 10.41611681 -16 10 C-12.75359085 7.439119 -9.33059284 5.37523283 -5.75 3.3125 C-4.13351563 2.37857422 -4.13351563 2.37857422 -2.484375 1.42578125 C-1.25460938 0.72001953 -1.25460938 0.72001953 0 0 Z " fill="#14609F" transform="translate(250,256)"/>
<path d="M0 0 C1.32 0.33 2.64 0.66 4 1 C3.01 1.495 3.01 1.495 2 2 C1.731875 2.556875 1.46375 3.11375 1.1875 3.6875 C-0.45027346 6.87684831 -2.65750026 9.28763188 -5 12 C-5.5534764 9.92446352 -6 8.15634036 -6 6 C-4.35 5.67 -2.7 5.34 -1 5 C-0.67 3.35 -0.34 1.7 0 0 Z " fill="#8BABD4" transform="translate(119,156)"/>
<path d="M0 0 C0.33 0 0.66 0 1 0 C1.33 7.92 1.66 15.84 2 24 C1.34 24 0.68 24 0 24 C-0.97758625 18.54724114 -0.97344509 13.57483237 -0.5625 8.0625 C-0.51029297 7.28326172 -0.45808594 6.50402344 -0.40429688 5.70117188 C-0.27601936 3.80033228 -0.13892679 1.90009096 0 0 Z " fill="#8FB2D5" transform="translate(78,256)"/>
<path d="M0 0 C0.66 0.33 1.32 0.66 2 1 C1.01 2.485 1.01 2.485 0 4 C0.33 4.66 0.66 5.32 1 6 C-2.69541586 6.95024979 -5.30458414 6.95024979 -9 6 C-6.12050853 3.76039553 -3.23257974 1.70135776 0 0 Z " fill="#83A9D5" transform="translate(41,104)"/>
<path d="M0 0 C-1.375 1.5 -1.375 1.5 -3 3 C-3.66 3 -4.32 3 -5 3 C-5.66 4.32 -6.32 5.64 -7 7 C-7 6.34 -7 5.68 -7 5 C-8.65 5 -10.3 5 -12 5 C-4.28571429 -1.42857143 -4.28571429 -1.42857143 0 0 Z " fill="#759CC7" transform="translate(171,32)"/>
<path d="M0 0 C5.75762166 1.08896667 11.39247819 2.29336293 17 4 C17 4.33 17 4.66 17 5 C10.54107286 5.40368295 5.93891422 4.5915262 0 2 C0 1.34 0 0.68 0 0 Z " fill="#5A83A6" transform="translate(182,412)"/>
<path d="M0 0 C0.33 0 0.66 0 1 0 C1.226875 1.11375 1.45375 2.2275 1.6875 3.375 C2.120625 4.57125 2.55375 5.7675 3 7 C5.50447516 8.21869929 5.50447516 8.21869929 8 9 C8.8125 11.125 8.8125 11.125 9 13 C4.71522208 10.69281189 1.27708863 8.67033927 -2 5 C-1.34 3.35 -0.68 1.7 0 0 Z " fill="#96B8DB" transform="translate(323,129)"/>
<path d="M0 0 C1.32 0.66 2.64 1.32 4 2 C1.51047079 4.66735273 -0.63408134 6.55746343 -4 8 C-3.50168276 4.31245243 -2.89932357 2.39509338 0 0 Z " fill="#8DB1DB" transform="translate(152,128)"/>
<path d="M0 0 C3.3 1.65 6.6 3.3 10 5 C9.34 5.66 8.68 6.32 8 7 C7.0925 6.649375 6.185 6.29875 5.25 5.9375 C2.12241564 5.03531221 0.94791919 4.86618493 -2 6 C-1.34 4.02 -0.68 2.04 0 0 Z " fill="#7CA5D1" transform="translate(318,40)"/>
<path d="M0 0 C0.33 0.66 0.66 1.32 1 2 C2.98 1.67 4.96 1.34 7 1 C7 1.66 7 2.32 7 3 C3.04 4.98 3.04 4.98 -1 7 C-1.33 5.68 -1.66 4.36 -2 3 C-1.34 3 -0.68 3 0 3 C0 2.01 0 1.02 0 0 Z " fill="#215588" transform="translate(393,440)"/>
<path d="M0 0 C3 2 3 2 5 4 C5 4.99 5 5.98 5 7 C5.66 7 6.32 7 7 7 C6.67 7.99 6.34 8.98 6 10 C5.34 9.67 4.68 9.34 4 9 C4 8.34 4 7.68 4 7 C3.34 7 2.68 7 2 7 C2 6.34 2 5.68 2 5 C1.34 5 0.68 5 0 5 C-0.5625 3.0625 -0.5625 3.0625 -1 1 C-0.67 0.67 -0.34 0.34 0 0 Z " fill="#4A719C" transform="translate(176,314)"/>
<path d="M0 0 C0.66 0.33 1.32 0.66 2 1 C1.34 2.32 0.68 3.64 0 5 C-0.99 5 -1.98 5 -3 5 C-3.33 6.65 -3.66 8.3 -4 10 C-5.32 10.33 -6.64 10.66 -8 11 C-8 10.34 -8 9.68 -8 9 C-7.34 9 -6.68 9 -6 9 C-5.34 7.35 -4.68 5.7 -4 4 C-3.34 4 -2.68 4 -2 4 C-2 3.34 -2 2.68 -2 2 C-1.34 2 -0.68 2 0 2 C0 1.34 0 0.68 0 0 Z " fill="#9DBCD9" transform="translate(180,207)"/>
<path d="M0 0 C0.66 0.33 1.32 0.66 2 1 C2 2.32 2 3.64 2 5 C0.02 5.99 0.02 5.99 -2 7 C-3.65 5.68 -5.3 4.36 -7 3 C-5.35 3 -3.7 3 -2 3 C-1.67 2.34 -1.34 1.68 -1 1 C-0.67 0.67 -0.34 0.34 0 0 Z " fill="#20568A" transform="translate(109,457)"/>
<path d="M0 0 C3.4375 -0.375 3.4375 -0.375 7 0 C7.99 0.99 8.98 1.98 10 3 C6.04 3 2.08 3 -2 3 C-1.34 2.01 -0.68 1.02 0 0 Z " fill="#0C568F" transform="translate(427,236)"/>
<path d="M0 0 C0.55171875 0.22558594 1.1034375 0.45117188 1.671875 0.68359375 C-0.328125 2.68359375 -0.328125 2.68359375 -2.765625 3.12109375 C-5.39204689 3.4489658 -5.39204689 3.4489658 -6.890625 5.30859375 C-7.365 5.76234375 -7.839375 6.21609375 -8.328125 6.68359375 C-10.41796875 6.26953125 -10.41796875 6.26953125 -12.328125 5.68359375 C-10.75465324 4.64762475 -9.16890954 3.63027643 -7.578125 2.62109375 C-6.69640625 2.05261719 -5.8146875 1.48414063 -4.90625 0.8984375 C-2.328125 -0.31640625 -2.328125 -0.31640625 0 0 Z " fill="#5E93B7" transform="translate(347.328125,200.31640625)"/>
<path d="M0 0 C-0.33 1.32 -0.66 2.64 -1 4 C-2.32 4.33 -3.64 4.66 -5 5 C-5 7.31 -5 9.62 -5 12 C-5.66 11.67 -6.32 11.34 -7 11 C-6.125 3.25 -6.125 3.25 -5 1 C-2 0 -2 0 0 0 Z " fill="#5D90C4" transform="translate(175,297)"/>
<path d="M0 0 C0.66 0 1.32 0 2 0 C1.86722656 0.59167969 1.73445313 1.18335938 1.59765625 1.79296875 C0.68994822 5.85446525 -0.2091113 9.91374171 -1 14 C-3 11 -3 11 -2.79296875 9.0625 C-2.59316406 8.381875 -2.39335938 7.70125 -2.1875 7 C-1.99542969 6.319375 -1.80335937 5.63875 -1.60546875 4.9375 C-1.08925826 3.28562643 -0.54728051 1.64184153 0 0 Z " fill="#99B9D9" transform="translate(86,212)"/>
<path d="M0 0 C0 3 0 3 -1.375 4.4375 C-1.91125 4.953125 -2.4475 5.46875 -3 6 C-4.17574711 8.09989652 -4.17574711 8.09989652 -5 10 C-5.99 10 -6.98 10 -8 10 C-8 10.66 -8 11.32 -8 12 C-8.66 11.67 -9.32 11.34 -10 11 C-8.89718873 9.72799029 -7.79269231 8.45744147 -6.6875 7.1875 C-6.07261719 6.47980469 -5.45773438 5.77210937 -4.82421875 5.04296875 C-3.26665665 3.29863261 -1.67341125 1.63221959 0 0 Z " fill="#89AAD4" transform="translate(17,118)"/>
<path d="M0 0 C3.37503669 1.1858237 5.64722731 2.27573689 8 5 C5.36 5.33 2.72 5.66 0 6 C0 4.02 0 2.04 0 0 Z " fill="#82A7D1" transform="translate(425,102)"/>
<path d="M0 0 C3.99500618 1.3697164 6.80009492 3.25722422 10 6 C3.9453125 6.1953125 3.9453125 6.1953125 2 6 C1.34 5.34 0.68 4.68 0 4 C0 2.68 0 1.36 0 0 Z " fill="#81A7CE" transform="translate(274,15)"/>
<path d="M0 0 C0.33 0.66 0.66 1.32 1 2 C1.66 2 2.32 2 3 2 C3 2.66 3 3.32 3 4 C3.61875 4.268125 4.2375 4.53625 4.875 4.8125 C7 6 7 6 9 9 C8.01 9.33 7.02 9.66 6 10 C6 9.01 6 8.02 6 7 C4.68 6.67 3.36 6.34 2 6 C2 5.01 2 4.02 2 3 C1.01 3 0.02 3 -1 3 C-0.67 2.01 -0.34 1.02 0 0 Z " fill="#678AA8" transform="translate(122,372)"/>
<path d="M0 0 C0.66 0 1.32 0 2 0 C3.2890625 1.6796875 3.2890625 1.6796875 4.625 3.875 C5.29402344 4.95394531 5.29402344 4.95394531 5.9765625 6.0546875 C7 8 7 8 7 10 C6.01 9.67 5.02 9.34 4 9 C4 8.01 4 7.02 4 6 C3.01 5.67 2.02 5.34 1 5 C1 4.01 1 3.02 1 2 C0.34 1.67 -0.32 1.34 -1 1 C-0.67 0.67 -0.34 0.34 0 0 Z " fill="#4F7A9C" transform="translate(99,343)"/>
<path d="M0 0 C5.71241466 0.38728235 8.73688282 0.87010523 13 5 C8.61667943 4.17812739 4.32059823 3.09845718 0 2 C0 1.34 0 0.68 0 0 Z " fill="#82A5CC" transform="translate(245,1)"/>
<path d="M0 0 C2.64 0.33 5.28 0.66 8 1 C6.35 2.32 4.7 3.64 3 5 C1.68 4.34 0.36 3.68 -1 3 C-0.67 2.01 -0.34 1.02 0 0 Z " fill="#306490" transform="translate(420,425)"/>
<path d="M0 0 C1.33617352 0.97528737 2.6688751 1.95533319 4 2.9375 C4.7425 3.48277344 5.485 4.02804687 6.25 4.58984375 C6.8275 5.05519531 7.405 5.52054687 8 6 C8 6.33 8 6.66 8 7 C6.35 7 4.7 7 3 7 C2.67 5.68 2.34 4.36 2 3 C1.01 3 0.02 3 -1 3 C-0.67 2.01 -0.34 1.02 0 0 Z " fill="#4A769F" transform="translate(131,381)"/>
<path d="M0 0 C2.475 0.99 2.475 0.99 5 2 C5 2.99 5 3.98 5 5 C4.34 5 3.68 5 3 5 C3 5.66 3 6.32 3 7 C2.34 7 1.68 7 1 7 C0.67 4.69 0.34 2.38 0 0 Z " fill="#316592" transform="translate(290,314)"/>
<path d="M0 0 C3.53586014 3.17320782 5.58578031 5.16743695 6 10 C4.125 9.5 4.125 9.5 2 8 C1.01505446 5.34822355 0.54087618 2.79452693 0 0 Z " fill="#5A7FA0" transform="translate(110,358)"/>
<path d="M0 0 C2.97 0.33 5.94 0.66 9 1 C9 2.32 9 3.64 9 5 C5.51694958 4.35499066 2.93797836 2.95865224 0 1 C0 0.67 0 0.34 0 0 Z " fill="#457FAE" transform="translate(332,321)"/>
<path d="M0 0 C2.31 0 4.62 0 7 0 C7 0.66 7 1.32 7 2 C4.03 2.66 1.06 3.32 -2 4 C-2.33 3.34 -2.66 2.68 -3 2 C-2.01 2 -1.02 2 0 2 C0 1.34 0 0.68 0 0 Z " fill="#92B0D8" transform="translate(184,114)"/>
<path d="M0 0 C-0.99 0.33 -1.98 0.66 -3 1 C-2.67 2.32 -2.34 3.64 -2 5 C-4.91517292 3.92598892 -6.77810176 3.22189824 -9 1 C-2.25 -1.125 -2.25 -1.125 0 0 Z " fill="#235886" transform="translate(28,411)"/>
<path d="M0 0 C0.66 0 1.32 0 2 0 C2.63394697 4.04141194 3.12404452 7.9065307 3 12 C0.97649676 8.96474514 0.67875982 7.80573798 0.375 4.3125 C0.30023438 3.50425781 0.22546875 2.69601562 0.1484375 1.86328125 C0.09945312 1.24839844 0.05046875 0.63351562 0 0 Z " fill="#A6C0DC" transform="translate(158,279)"/>
<path d="M0 0 C2.91517292 1.07401108 4.77810176 1.77810176 7 4 C6 5 6 5 3.4375 5.0625 C2.2309375 5.0315625 2.2309375 5.0315625 1 5 C0.67 3.35 0.34 1.7 0 0 Z " fill="#7CA1CF" transform="translate(329,47)"/>
<path d="M0 0 C0.99 0.33 1.98 0.66 3 1 C3.33333333 2.33333333 3.66666667 3.66666667 4 5 C4.99 5.33 5.98 5.66 7 6 C6.34 6.66 5.68 7.32 5 8 C2.5 5.6875 2.5 5.6875 0 3 C0 2.01 0 1.02 0 0 Z " fill="#215582" transform="translate(9,401)"/>
<path d="M0 0 C0.33 0 0.66 0 1 0 C0.88541307 1.43836751 0.75790884 2.87570966 0.625 4.3125 C0.55539062 5.11300781 0.48578125 5.91351563 0.4140625 6.73828125 C0 9 0 9 -2 12 C-2.28571429 3.42857143 -2.28571429 3.42857143 0 0 Z " fill="#3977A9" transform="translate(470,380)"/>
<path d="M0 0 C0.33 0.99 0.66 1.98 1 3 C-1.5654594 5.5654594 -3.47686668 5.54046087 -7 6 C-2.25 1.125 -2.25 1.125 0 0 Z " fill="#98B8DA" transform="translate(191,199)"/>
<path d="M0 0 C3.375 0.25 3.375 0.25 7 1 C8.4375 3.0625 8.4375 3.0625 9 5 C5.54074837 3.7508258 2.85306797 2.32472205 0 0 Z " fill="#336089" transform="translate(206,520)"/>
<path d="M0 0 C3.3 1.65 6.6 3.3 10 5 C10 5.33 10 5.66 10 6 C6.28400809 6.20086443 5.22791555 6.1519437 2 4 C2 3.34 2 2.68 2 2 C1.34 2 0.68 2 0 2 C0 1.34 0 0.68 0 0 Z " fill="#6A90B2" transform="translate(156,399)"/>
<path d="M0 0 C0.99 0.33 1.98 0.66 3 1 C3.33 3.64 3.66 6.28 4 9 C1.18167487 7.59083743 0.97406539 5.92219617 0 3 C0 2.01 0 1.02 0 0 Z " fill="#A0BCDC" transform="translate(161,291)"/>
<path d="M0 0 C0.33 0.66 0.66 1.32 1 2 C0.22265625 3.7265625 0.22265625 3.7265625 -0.9375 5.625 C-1.618125 6.73875 -2.29875 7.8525 -3 9 C-3.96516243 5.99727245 -4.22393475 3.95784231 -3 1 C-2.01 0.67 -1.02 0.34 0 0 Z " fill="#A1BDDA" transform="translate(99,187)"/>
<path d="M0 0 C1.98 0.66 3.96 1.32 6 2 C4.68 2.33 3.36 2.66 2 3 C2 3.66 2 4.32 2 5 C0.68 4.34 -0.64 3.68 -2 3 C-1.34 2.01 -0.68 1.02 0 0 Z " fill="#729ECC" transform="translate(417,98)"/>
<path d="M0 0 C2 1 2 1 2.6328125 2.84765625 C2.79523438 3.57855469 2.95765625 4.30945313 3.125 5.0625 C3.29257813 5.79597656 3.46015625 6.52945312 3.6328125 7.28515625 C3.75398437 7.85105469 3.87515625 8.41695313 4 9 C3.01 9.495 3.01 9.495 2 10 C0.39644899 6.49223216 -0.22036864 3.85645121 0 0 Z " fill="#8AAED2" transform="translate(1,384)"/>
<path d="M0 0 C0.66 0.33 1.32 0.66 2 1 C0.68 2.65 -0.64 4.3 -2 6 C-3.65 5.67 -5.3 5.34 -7 5 C-4.702779 3.25728062 -2.40133271 1.60088848 0 0 Z " fill="#104F8B" transform="translate(196,287)"/>
<path d="M0 0 C0 0.66 0 1.32 0 2 C-4.15267176 5.11450382 -4.15267176 5.11450382 -7.3125 4.6875 C-7.869375 4.460625 -8.42625 4.23375 -9 4 C-2.25 0 -2.25 0 0 0 Z " fill="#6395B9" transform="translate(363,191)"/>
<path d="M0 0 C1.98 0.495 1.98 0.495 4 1 C2.69593116 3.01920337 1.36176581 5.01924973 0 7 C-0.33 7 -0.66 7 -1 7 C-0.67 4.69 -0.34 2.38 0 0 Z " fill="#96B5D4" transform="translate(108,169)"/>
<path d="M0 0 C2.64 0.33 5.28 0.66 8 1 C8.33 1.99 8.66 2.98 9 4 C5.17902761 3.46930939 2.93828597 2.50298434 0 0 Z " fill="#9FBCDC" transform="translate(297,121)"/>
<path d="M0 0 C0.99 0.33 1.98 0.66 3 1 C2.67 1.99 2.34 2.98 2 4 C-0.0625 4.6875 -0.0625 4.6875 -2 5 C-2.33 4.01 -2.66 3.02 -3 2 C-2.01 1.34 -1.02 0.68 0 0 Z " fill="#78A2D3" transform="translate(157,37)"/>
<path d="M0 0 C2 1.375 2 1.375 4 3 C4 3.66 4 4.32 4 5 C2.68 5.33 1.36 5.66 0 6 C-0.38218767 4.34385343 -0.71395102 2.67542976 -1 1 C-0.67 0.67 -0.34 0.34 0 0 Z " fill="#1A5183" transform="translate(405,433)"/>
<path d="M0 0 C1.98 0.495 1.98 0.495 4 1 C3.67 1.99 3.34 2.98 3 4 C0.9375 4.6875 0.9375 4.6875 -1 5 C-0.67 3.35 -0.34 1.7 0 0 Z " fill="#1D5281" transform="translate(432,419)"/>
<path d="M0 0 C-6.75 4 -6.75 4 -9 4 C-9 3.34 -9 2.68 -9 2 C-3.375 -1.125 -3.375 -1.125 0 0 Z " fill="#5898D4" transform="translate(250,257)"/>
<path d="M0 0 C-6.75 4 -6.75 4 -9 4 C-9 3.34 -9 2.68 -9 2 C-8.01 2 -7.02 2 -6 2 C-6 1.34 -6 0.68 -6 0 C-3.50907189 -1.24546405 -2.58919267 -0.7767578 0 0 Z " fill="#5C9BD7" transform="translate(274,243)"/>
<path d="M0 0 C0.66 0.33 1.32 0.66 2 1 C1.01 2.485 1.01 2.485 0 4 C-3.625 4.6875 -3.625 4.6875 -7 5 C-2.25 1.125 -2.25 1.125 0 0 Z " fill="#6696BA" transform="translate(319,215)"/>
<path d="M0 0 C1.32 0 2.64 0 4 0 C4 1.98 4 3.96 4 6 C2.68 5.67 1.36 5.34 0 5 C0.66 5 1.32 5 2 5 C1.34 3.35 0.68 1.7 0 0 Z " fill="#7AA4CD" transform="translate(368,182)"/>
<path d="M0 0 C2.0625 0.4375 2.0625 0.4375 4 1 C3.01 1.495 3.01 1.495 2 2 C0.86649466 4.01669827 0.86649466 4.01669827 0 6 C-0.33 6 -0.66 6 -1 6 C-1.042721 4.33388095 -1.04063832 2.66617115 -1 1 C-0.67 0.67 -0.34 0.34 0 0 Z " fill="#9CB8D7" transform="translate(119,156)"/>
</svg>
