<?xml version="1.0" encoding="UTF-8"?>
<svg version="1.1" xmlns="http://www.w3.org/2000/svg" width="591" height="422">
<path d="M0 0 C1.32 0.66 2.64 1.32 4 2 C4.88558594 2.43828125 5.77117187 2.8765625 6.68359375 3.328125 C10.83543602 5.42116209 14.94960967 7.58163945 19.0625 9.75 C19.90522461 10.1939209 20.74794922 10.6378418 21.61621094 11.09521484 C28.43248566 14.69059821 35.21932654 18.33793468 42 22 C50.65338321 26.66992901 59.34432241 31.22152813 68.171875 35.5546875 C71 37 71 37 74 39 C74.71800781 38.61070313 75.43601562 38.22140625 76.17578125 37.8203125 C82.92840223 34.17070166 89.70408605 30.56837998 96.5 27 C105.98271926 22.01915883 115.4212578 16.96419374 124.8125 11.8125 C128.55246996 9.76610134 132.32246962 7.81699636 136.15234375 5.9453125 C138.08953435 4.95419173 139.94448725 3.86534791 141.8125 2.75 C145 1 145 1 148 1 C148.0154612 2.43700005 148.0154612 2.43700005 148.03123474 3.9030304 C148.12891289 12.923156 148.2316417 21.94321175 148.33933926 30.96322346 C148.39454705 35.60070223 148.44796368 40.23818733 148.49731445 44.87573242 C148.54498955 49.34966244 148.59733359 53.82351553 148.65294075 58.29735374 C148.67335003 60.00579098 148.69206548 61.7142493 148.70907402 63.42272377 C148.73314958 65.81224832 148.76319985 68.20162757 148.79467773 70.59106445 C148.8004332 71.30028549 148.80618866 72.00950653 148.81211853 72.74021912 C148.85750011 75.76299652 149.03606919 78.10820756 150 81 C150.66773438 81.0825 151.33546875 81.165 152.0234375 81.25 C155.93503384 82.23559908 159.11981706 84.04202672 162.625 86 C167.6624656 88.82283291 167.6624656 88.82283291 173 91 C173 91.66 173 92.32 173 93 C173.84820312 93.26167969 174.69640625 93.52335937 175.5703125 93.79296875 C179.16982424 95.0597673 182.46571685 96.60026537 185.875 98.3125 C186.48923828 98.62082764 187.10347656 98.92915527 187.73632812 99.24682617 C191.75276383 101.28950394 195.5478324 103.53349364 199.3125 106 C201.744236 107.44102874 204.28618602 108.25370116 207 109 C207 109.66 207 110.32 207 111 C207.721875 111.20625 208.44375 111.4125 209.1875 111.625 C212.8042682 113.39319779 215.04543816 115.52938501 217 119 C218.99857953 125.63075426 219.29013081 132.32832035 219.25878906 139.20385742 C219.26404602 140.65221733 219.26404602 140.65221733 219.26940918 142.12983704 C219.27813751 145.28845631 219.27241038 148.44684761 219.265625 151.60546875 C219.26697388 153.81643211 219.26891626 156.02739519 219.27142334 158.23835754 C219.27436226 162.85709475 219.27011543 167.47575428 219.26074219 172.09448242 C219.24932833 178.00573729 219.25592724 183.91681091 219.26788712 189.8280592 C219.27512186 194.38773459 219.27281069 198.94736714 219.26763153 203.50704384 C219.26630055 205.68667942 219.26792337 207.86631894 219.27259064 210.04594994 C219.2776846 213.09217992 219.26990609 216.13811787 219.25878906 219.18432617 C219.26283752 220.07852264 219.26688599 220.97271912 219.27105713 221.89401245 C219.23269969 227.5839623 219.09630303 233.29093147 215.4765625 237.96875 C210.54228416 242.04941901 205.35290659 245.29737882 199.76953125 248.4296875 C197.6181546 249.64950896 195.58708614 250.89999804 193.5625 252.3125 C191 254 191 254 188.5625 254.9375 C185.72862304 256.11252215 183.52275906 257.77152571 181.06640625 259.5859375 C177.84690354 261.78907546 174.41121051 263.55546812 170.97265625 265.390625 C166.89951331 267.59579569 162.91349189 269.94040395 158.921875 272.2890625 C156 274 156 274 152.37278748 275.59088135 C150.49110867 276.59481508 150.49110867 276.59481508 149 278 C148.26709259 281.08905442 148.05079359 283.16140798 148.11352539 286.25683594 C148.10274963 287.08647354 148.09197388 287.91611115 148.08087158 288.77088928 C148.05349042 291.50962226 148.07535378 294.24563333 148.09765625 296.984375 C148.08827298 298.88439646 148.07581632 300.78440504 148.06040955 302.68438721 C148.0281424 307.68236082 148.03764091 312.67941822 148.05578613 317.6774292 C148.06693257 322.77854495 148.0386518 327.87942461 148.01367188 332.98046875 C147.97048852 342.98714279 147.9714184 352.99329164 148 363 C144.23809388 362.32835569 141.9127764 361.50686162 138.8125 359.25 C135.70811173 357.09175972 132.66080675 355.25553201 129.25 353.625 C124.01107905 351.09894664 119.16124628 348.06265465 114.234375 344.98046875 C110.43019949 342.65110041 106.53944836 340.53280035 102.609375 338.42578125 C99.21877437 336.5731327 95.92184876 334.58277665 92.6171875 332.58203125 C89.64999441 330.78842945 86.67306356 329.01286944 83.6875 327.25 C82.72199219 326.67765625 81.75648438 326.1053125 80.76171875 325.515625 C77.0227842 323.40063309 77.0227842 323.40063309 73 322 C70.34049708 323.05843495 70.34049708 323.05843495 67.875 324.875 C63.26457399 328 63.26457399 328 60 328 C60 328.66 60 329.32 60 330 C58.88625 330.53625 57.7725 331.0725 56.625 331.625 C50.15497539 334.8600123 44.0469211 338.70008268 37.9375 342.5625 C34.42227209 344.7755281 30.82290948 346.80214438 27.17578125 348.7890625 C25.66125997 349.6319738 24.1620602 350.50276388 22.67578125 351.39453125 C18.8216333 353.70702002 14.90653406 355.91157894 10.99609375 358.12695312 C8.26827923 359.67858095 5.61261318 361.25825788 3 363 C2.01 363 1.02 363 0 363 C-0.33 334.95 -0.66 306.9 -1 278 C-3.97 276.35 -6.94 274.7 -10 273 C-12.13440988 271.70285863 -14.26035887 270.39162534 -16.375 269.0625 C-25.32608934 263.51886842 -34.54990919 258.6327994 -44 254 C-44 253.34 -44 252.68 -44 252 C-44.82371094 251.76539063 -45.64742187 251.53078125 -46.49609375 251.2890625 C-50.68687024 249.74730526 -54.26902198 247.70563356 -58.0625 245.375 C-58.75666016 244.97410156 -59.45082031 244.57320312 -60.16601562 244.16015625 C-60.84470703 243.74378906 -61.52339844 243.32742188 -62.22265625 242.8984375 C-63.13156616 242.35195557 -63.13156616 242.35195557 -64.05883789 241.79443359 C-68.47513707 237.71195353 -71.23611318 233.14471303 -71.62818909 227.08108521 C-71.65458813 225.22758438 -71.65399558 223.37356699 -71.63110352 221.52001953 C-71.63825882 220.50103577 -71.64541412 219.482052 -71.65278625 218.43218994 C-71.66961934 215.08193375 -71.65029823 211.73302608 -71.62890625 208.3828125 C-71.62973556 206.04165537 -71.63219731 203.70049831 -71.63621521 201.35934448 C-71.63906972 196.45862244 -71.62440736 191.55835827 -71.59692383 186.65771484 C-71.56288023 180.39450536 -71.56885048 174.13211636 -71.5875864 167.86886787 C-71.59818713 163.03536213 -71.58918992 158.2020452 -71.57420158 153.36855698 C-71.56903935 151.0602258 -71.56947763 148.75187473 -71.57574654 146.4435463 C-71.58123423 143.20819405 -71.5607075 139.97399066 -71.53344727 136.73876953 C-71.53997314 135.79611237 -71.54649902 134.8534552 -71.55322266 133.88223267 C-71.4526013 126.81205905 -70.16165957 119.68293435 -65.42293644 114.16292 C-60.91857258 109.92845037 -55.28853198 107.25576011 -49.8125 104.5 C-48.88646973 104.0244165 -47.96043945 103.54883301 -47.00634766 103.05883789 C-41.09041064 100.02843356 -35.15236203 97.03818261 -29.1796875 94.12109375 C-26.80552201 92.95175064 -26.80552201 92.95175064 -24 91 C-23.01 91 -22.02 91 -21 91 C-21 90.34 -21 89.68 -21 89 C-14.33333333 85.66666667 -7.66666667 82.33333333 -1 79 C-0.67 52.93 -0.34 26.86 0 0 Z M63.75 156.375 C62.53859565 157.11030364 61.32491812 157.84187112 60.109375 158.5703125 C59.45775391 158.96250977 58.80613281 159.35470703 58.13476562 159.75878906 C53.38232136 162.52198973 48.46121507 164.98472746 43.57324219 167.49755859 C40.16188015 169.26776727 36.83571183 171.03872117 33.65625 173.203125 C30.58489303 175.28080766 27.40370626 176.54126875 24 178 C21.92760261 179.25254788 19.97905927 180.60017759 18 182 C20.02809588 184.19116471 21.86136666 185.60817841 24.546875 186.90234375 C25.5678125 187.40217773 25.5678125 187.40217773 26.609375 187.91210938 C27.31578125 188.25048828 28.0221875 188.58886719 28.75 188.9375 C33.94898554 191.45454617 39.01243371 194.0865195 44 197 C53.20810043 202.27651102 62.44560468 207.3715732 72 212 C72.99 212.495 72.99 212.495 74 213 C75.82939936 212.32581245 75.82939936 212.32581245 77.82421875 211.19140625 C78.98497925 210.57144775 78.98497925 210.57144775 80.16918945 209.93896484 C81.00023193 209.48473145 81.83127441 209.03049805 82.6875 208.5625 C83.54239014 208.10311035 84.39728027 207.6437207 85.27807617 207.17041016 C87.02655242 206.23043923 88.77338098 205.28739699 90.51855469 204.34130859 C92.7064364 203.15868146 94.90078405 201.99042209 97.1015625 200.83203125 C104.4286219 196.97169057 111.63843099 192.95387324 118.78125 188.76171875 C121.14881791 187.46587758 123.36201031 186.40352776 125.84375 185.39453125 C129.08369476 184.36377012 129.08369476 184.36377012 130 182 C128.44038638 181.03697644 126.87716775 180.07978996 125.3125 179.125 C124.44238281 178.59132812 123.57226562 178.05765625 122.67578125 177.5078125 C120.15880298 176.08948606 117.67807169 175.06786532 115 174 C113.27457287 173.02979177 111.56759515 172.02641339 109.875 171 C103.61818711 167.2925469 97.21581898 163.90576545 90.76318359 160.55273438 C89.9892627 160.14990234 89.2153418 159.74707031 88.41796875 159.33203125 C87.66563965 158.94354004 86.91331055 158.55504883 86.13818359 158.15478516 C84.1504857 157.08127396 82.27020571 155.90798251 80.36328125 154.69921875 C73.90883211 151.43826012 69.66472275 152.68922449 63.75 156.375 Z " fill="#FD5826" transform="translate(231,30)"/>
<path d="M0 0 C3.79731796 0.51746204 6.84205785 1.17710634 10.19921875 3.03125 C10.93333984 3.42957031 11.66746094 3.82789062 12.42382812 4.23828125 C13.17083984 4.65464844 13.91785156 5.07101563 14.6875 5.5 C16.19035013 6.32484383 17.69421642 7.14783964 19.19921875 7.96875 C19.85752686 8.33419922 20.51583496 8.69964844 21.1940918 9.07617188 C23.14848305 10.13312041 23.14848305 10.13312041 26 11 C26 11.66 26 12.32 26 13 C26.84820312 13.26167969 27.69640625 13.52335937 28.5703125 13.79296875 C32.16982424 15.0597673 35.46571685 16.60026537 38.875 18.3125 C39.48923828 18.62082764 40.10347656 18.92915527 40.73632812 19.24682617 C44.75276383 21.28950394 48.5478324 23.53349364 52.3125 26 C54.744236 27.44102874 57.28618602 28.25370116 60 29 C60 29.66 60 30.32 60 31 C60.721875 31.20625 61.44375 31.4125 62.1875 31.625 C65.8042682 33.39319779 68.04543816 35.52938501 70 39 C71.99857953 45.63075426 72.29013081 52.32832035 72.25878906 59.20385742 C72.26404602 60.65221733 72.26404602 60.65221733 72.26940918 62.12983704 C72.27813751 65.28845631 72.27241038 68.44684761 72.265625 71.60546875 C72.26697388 73.81643211 72.26891626 76.02739519 72.27142334 78.23835754 C72.27436226 82.85709475 72.27011543 87.47575428 72.26074219 92.09448242 C72.24932833 98.00573729 72.25592724 103.91681091 72.26788712 109.8280592 C72.27512186 114.38773459 72.27281069 118.94736714 72.26763153 123.50704384 C72.26630055 125.68667942 72.26792337 127.86631894 72.27259064 130.04594994 C72.2776846 133.09217992 72.26990609 136.13811787 72.25878906 139.18432617 C72.26283752 140.07852264 72.26688599 140.97271912 72.27105713 141.89401245 C72.23269969 147.5839623 72.09630303 153.29093147 68.4765625 157.96875 C63.54228416 162.04941901 58.35290659 165.29737882 52.76953125 168.4296875 C50.6181546 169.64950896 48.58708614 170.89999804 46.5625 172.3125 C44 174 44 174 41.5625 174.9375 C38.72862304 176.11252215 36.52275906 177.77152571 34.06640625 179.5859375 C30.84690354 181.78907546 27.41121051 183.55546812 23.97265625 185.390625 C19.89951331 187.59579569 15.91349189 189.94040395 11.921875 192.2890625 C9 194 9 194 5.37278748 195.59088135 C3.49110867 196.59481508 3.49110867 196.59481508 2 198 C1.26709259 201.08905442 1.05079359 203.16140798 1.11352539 206.25683594 C1.10274963 207.08647354 1.09197388 207.91611115 1.08087158 208.77088928 C1.05349042 211.50962226 1.07535378 214.24563333 1.09765625 216.984375 C1.08827298 218.88439646 1.07581632 220.78440504 1.06040955 222.68438721 C1.0281424 227.68236082 1.03764091 232.67941822 1.05578613 237.6774292 C1.06693257 242.77854495 1.0386518 247.87942461 1.01367188 252.98046875 C0.97048852 262.98714279 0.9714184 272.99329164 1 283 C-2.76190612 282.32835569 -5.0872236 281.50686162 -8.1875 279.25 C-11.29188827 277.09175972 -14.33919325 275.25553201 -17.75 273.625 C-22.98892095 271.09894664 -27.83875372 268.06265465 -32.765625 264.98046875 C-36.56980051 262.65110041 -40.46055164 260.53280035 -44.390625 258.42578125 C-47.78122563 256.5731327 -51.07815124 254.58277665 -54.3828125 252.58203125 C-57.35000559 250.78842945 -60.32693644 249.01286944 -63.3125 247.25 C-64.27800781 246.67765625 -65.24351562 246.1053125 -66.23828125 245.515625 C-69.9772158 243.40063309 -69.9772158 243.40063309 -74 242 C-76.65950292 243.05843495 -76.65950292 243.05843495 -79.125 244.875 C-83.73542601 248 -83.73542601 248 -87 248 C-87 248.66 -87 249.32 -87 250 C-88.11375 250.53625 -89.2275 251.0725 -90.375 251.625 C-96.84502461 254.8600123 -102.9530789 258.70008268 -109.0625 262.5625 C-112.57772791 264.7755281 -116.17709052 266.80214438 -119.82421875 268.7890625 C-121.33874003 269.6319738 -122.8379398 270.50276388 -124.32421875 271.39453125 C-128.1783667 273.70702002 -132.09346594 275.91157894 -136.00390625 278.12695312 C-138.73172077 279.67858095 -141.38738682 281.25825788 -144 283 C-144.99 283 -145.98 283 -147 283 C-147.33 254.62 -147.66 226.24 -148 197 C-147.34 197 -146.68 197 -146 197 C-146.02618408 196.39003174 -146.05236816 195.78006348 -146.0793457 195.15161133 C-146.18365719 192.37217242 -146.24842982 189.59314561 -146.3125 186.8125 C-146.35439453 185.85279297 -146.39628906 184.89308594 -146.43945312 183.90429688 C-146.56399275 176.70590651 -146.56399275 176.70590651 -143.59375 172.98828125 C-142.7378125 172.33214844 -141.881875 171.67601562 -141 171 C-140.401875 170.13375 -139.80375 169.2675 -139.1875 168.375 C-136.76434295 165.74414377 -134.67600362 164.96999287 -131.32421875 163.8671875 C-127.65791765 162.49925667 -124.35351514 160.52540123 -120.9453125 158.6171875 C-116.934228 156.41481484 -112.83635644 154.40511777 -108.7265625 152.39453125 C-105.98039063 151.0340961 -105.98039063 151.0340961 -103.38671875 149.3984375 C-100.38417836 147.63917488 -97.35832968 146.85604482 -94 146 C-94 145.34 -94 144.68 -94 144 C-89.61538462 141 -89.61538462 141 -87 141 C-87 140.34 -87 139.68 -87 139 C-83.7 137.35 -80.4 135.7 -77 134 C-77.33 133.67 -77.66 133.34 -78 133 C-78 132.01 -78 131.02 -78 130 C-77.03707031 130.63035156 -77.03707031 130.63035156 -76.0546875 131.2734375 C-71.24514725 132.41739464 -68.26408864 130.00095191 -64.125 127.625 C-63.28364502 127.16109863 -62.44229004 126.69719727 -61.57543945 126.21923828 C-59.85763489 125.27196621 -58.14349009 124.31802654 -56.43310547 123.35742188 C-53.65098955 121.80528817 -50.84009595 120.31590515 -48.01904297 118.83618164 C-41.31538885 115.31814828 -34.74759719 111.59353026 -28.21875 107.76171875 C-24.86873347 105.92815388 -21.52991825 104.44851443 -18 103 C-19.39176632 102.03576974 -20.7886223 101.07888398 -22.1875 100.125 C-22.96480469 99.59132813 -23.74210937 99.05765625 -24.54296875 98.5078125 C-26.97855576 97.01315974 -29.3471246 96.04469822 -32 95 C-33.72542713 94.02979177 -35.43240485 93.02641339 -37.125 92 C-43.38181289 88.2925469 -49.78418102 84.90576545 -56.23681641 81.55273438 C-58.4957689 80.37693149 -60.74874613 79.19046427 -63 78 C-63.6914209 77.64212402 -64.3828418 77.28424805 -65.09521484 76.91552734 C-69.88528522 74.34414434 -69.88528522 74.34414434 -71 71 C-65.5 66 -65.5 66 -61 66 C-61 65.34 -61 64.68 -61 64 C-60.04480469 63.49210937 -59.08960938 62.98421875 -58.10546875 62.4609375 C-52.03464151 59.22972887 -45.9677248 55.99412879 -39.9375 52.6875 C-35.75657114 50.39970559 -31.53173202 48.23761007 -27.25 46.14453125 C-12.39981842 39.97888928 -12.39981842 39.97888928 -1.84228516 29.23583984 C-0.99074303 25.96443712 -0.68615131 23.10042742 -0.5859375 19.7265625 C-0.52792969 17.99599609 -0.52792969 17.99599609 -0.46875 16.23046875 C-0.4378125 15.04066406 -0.406875 13.85085937 -0.375 12.625 C-0.31699219 10.80548828 -0.31699219 10.80548828 -0.2578125 8.94921875 C-0.16386214 5.96629479 -0.07819193 2.98337175 0 0 Z " fill="#1E8F7A" transform="translate(378,110)"/>
<path d="M0 0 C3.79731796 0.51746204 6.84205785 1.17710634 10.19921875 3.03125 C10.93333984 3.42957031 11.66746094 3.82789062 12.42382812 4.23828125 C13.17083984 4.65464844 13.91785156 5.07101563 14.6875 5.5 C16.19035013 6.32484383 17.69421642 7.14783964 19.19921875 7.96875 C20.18668091 8.51692383 20.18668091 8.51692383 21.1940918 9.07617188 C23.14848305 10.13312041 23.14848305 10.13312041 26 11 C26 11.66 26 12.32 26 13 C26.84820312 13.26167969 27.69640625 13.52335937 28.5703125 13.79296875 C32.16982424 15.0597673 35.46571685 16.60026537 38.875 18.3125 C39.48923828 18.62082764 40.10347656 18.92915527 40.73632812 19.24682617 C44.75276383 21.28950394 48.5478324 23.53349364 52.3125 26 C54.744236 27.44102874 57.28618602 28.25370116 60 29 C60 29.66 60 30.32 60 31 C60.721875 31.20625 61.44375 31.4125 62.1875 31.625 C65.8042682 33.39319779 68.04543816 35.52938501 70 39 C71.99857953 45.63075426 72.29013081 52.32832035 72.25878906 59.20385742 C72.26404602 60.65221733 72.26404602 60.65221733 72.26940918 62.12983704 C72.27813751 65.28845631 72.27241038 68.44684761 72.265625 71.60546875 C72.26697388 73.81643211 72.26891626 76.02739519 72.27142334 78.23835754 C72.27436226 82.85709475 72.27011543 87.47575428 72.26074219 92.09448242 C72.24932833 98.00573729 72.25592724 103.91681091 72.26788712 109.8280592 C72.27512186 114.38773459 72.27281069 118.94736714 72.26763153 123.50704384 C72.26630055 125.68667942 72.26792337 127.86631894 72.27259064 130.04594994 C72.2776846 133.09217992 72.26990609 136.13811787 72.25878906 139.18432617 C72.26283752 140.07852264 72.26688599 140.97271912 72.27105713 141.89401245 C72.23148823 147.76366951 72.09281183 153.47231818 68.1953125 158.1796875 C67.17050781 159.01886719 67.17050781 159.01886719 66.125 159.875 C65.10792969 160.73738281 65.10792969 160.73738281 64.0703125 161.6171875 C62.00188446 162.99874132 60.4316377 163.57473601 58 164 C58.33 163.01 58.66 162.02 59 161 C59.99 161 60.98 161 62 161 C62 160.01 62 159.02 62 158 C63.32 157.67 64.64 157.34 66 157 C66 155.68 66 154.36 66 153 C66.99 153 67.98 153 69 153 C68.9231003 150.58537881 68.9231003 150.58537881 68 148 C65.60082451 146.29069854 65.60082451 146.29069854 62.5625 145.0625 C58.70383899 143.27566401 54.99037717 141.48989336 51.375 139.25 C38.5803671 131.42768889 25.2668999 124.50913543 11.94311523 117.64233398 C6.02636347 114.59084654 0.15195052 111.47674072 -5.68212891 108.26977539 C-10.57740022 105.42258071 -10.57740022 105.42258071 -15.8828125 103.609375 C-18.48085345 102.86159938 -20.2355367 101.62333707 -22.4375 100.0625 C-25.55246789 97.85764446 -28.45597037 96.39249238 -32 95 C-33.72542713 94.02979177 -35.43240485 93.02641339 -37.125 92 C-43.38181289 88.2925469 -49.78418102 84.90576545 -56.23681641 81.55273438 C-58.4957689 80.37693149 -60.74874613 79.19046427 -63 78 C-63.6914209 77.64212402 -64.3828418 77.28424805 -65.09521484 76.91552734 C-69.88528522 74.34414434 -69.88528522 74.34414434 -71 71 C-65.5 66 -65.5 66 -61 66 C-61 65.34 -61 64.68 -61 64 C-59.56720703 63.23816406 -59.56720703 63.23816406 -58.10546875 62.4609375 C-52.03464151 59.22972887 -45.9677248 55.99412879 -39.9375 52.6875 C-35.75657114 50.39970559 -31.53173202 48.23761007 -27.25 46.14453125 C-12.39981842 39.97888928 -12.39981842 39.97888928 -1.84228516 29.23583984 C-0.99074303 25.96443712 -0.68615131 23.10042742 -0.5859375 19.7265625 C-0.54726563 18.57285156 -0.50859375 17.41914062 -0.46875 16.23046875 C-0.4378125 15.04066406 -0.406875 13.85085937 -0.375 12.625 C-0.33632813 11.41199219 -0.29765625 10.19898437 -0.2578125 8.94921875 C-0.16386214 5.96629479 -0.07819193 2.98337175 0 0 Z " fill="#2B8C7E" transform="translate(378,110)"/>
<path d="M0 0 C1.3594494 0.69153459 2.71361094 1.39355508 4.0625 2.10546875 C4.73539062 2.44900391 5.40828125 2.79253906 6.1015625 3.14648438 C10.49433647 5.4064733 14.78880486 7.81689221 19.0625 10.29296875 C29.52030126 16.43045357 29.52030126 16.43045357 40.4375 21.66796875 C44.31808934 23.40754328 45.21064158 24.5892519 47.0625 28.29296875 C45.44000059 29.13116033 43.81441503 29.96338035 42.1875 30.79296875 C41.28257812 31.25703125 40.37765625 31.72109375 39.4453125 32.19921875 C37.0625 33.29296875 37.0625 33.29296875 35.0625 33.29296875 C35.0625 33.95296875 35.0625 34.61296875 35.0625 35.29296875 C30.67788462 38.29296875 30.67788462 38.29296875 28.0625 38.29296875 C28.0625 38.95296875 28.0625 39.61296875 28.0625 40.29296875 C23.52083333 42.56380208 18.97916667 44.83463542 14.4375 47.10546875 C13.42300781 47.61335938 12.40851563 48.12125 11.36328125 48.64453125 C9.02930073 49.81014046 6.6935934 50.9716833 4.35546875 52.12890625 C3.73430176 52.43723389 3.11313477 52.74556152 2.47314453 53.06323242 C0.71321211 53.93668898 -1.04766628 54.80823875 -2.80859375 55.6796875 C-5.90172778 57.2233197 -5.90172778 57.2233197 -8.59765625 58.9375 C-10.9375 60.29296875 -10.9375 60.29296875 -13.0546875 60.7578125 C-15.61074068 61.48432554 -16.45779965 62.77607955 -18.0625 64.85546875 C-19.5703125 66.796875 -19.5703125 66.796875 -20.9375 68.29296875 C-21.5975 68.29296875 -22.2575 68.29296875 -22.9375 68.29296875 C-23.2675 75.88296875 -23.5975 83.47296875 -23.9375 91.29296875 C-30.58667406 89.96313394 -35.43433858 87.06452507 -41.125 83.48046875 C-50.12395797 77.87432805 -59.42153907 72.95806023 -68.9375 68.29296875 C-68.9375 67.63296875 -68.9375 66.97296875 -68.9375 66.29296875 C-70.236875 65.92171875 -70.236875 65.92171875 -71.5625 65.54296875 C-76.57610683 63.68607733 -79.98026038 61.85646013 -82.8125 57.23046875 C-83.9375 54.29296875 -83.9375 54.29296875 -83.9375 51.29296875 C-87.8975 50.79796875 -87.8975 50.79796875 -91.9375 50.29296875 C-92.5975 47.65296875 -93.2575 45.01296875 -93.9375 42.29296875 C-81.06347412 35.00484883 -68.08654778 27.94187573 -55 21.04296875 C-54.19457764 20.61830322 -53.38915527 20.1936377 -52.55932617 19.75610352 C-49.34637366 18.06654234 -46.13885311 16.39043904 -42.87109375 14.80859375 C-40.55556253 13.61228734 -38.41695707 12.36581933 -36.22265625 10.97265625 C-31.38623609 7.90778909 -26.41276622 5.13642076 -21.375 2.41796875 C-20.46814453 1.9075 -19.56128906 1.39703125 -18.62695312 0.87109375 C-11.58380835 -2.90840381 -7.37226809 -3.36476502 0 0 Z " fill="#D1481F" transform="translate(255.9375,215.70703125)"/>
<path d="M0 0 C0 28.05 0 56.1 0 85 C-4.45175054 84.10964989 -5.78614163 83.72603574 -9.1875 81.25 C-12.29188827 79.09175972 -15.33919325 77.25553201 -18.75 75.625 C-23.98892095 73.09894664 -28.83875372 70.06265465 -33.765625 66.98046875 C-37.56980051 64.65110041 -41.46055164 62.53280035 -45.390625 60.42578125 C-48.78260658 58.57237814 -52.08145351 56.58351232 -55.3828125 54.57421875 C-59.29637413 52.22024064 -63.26860026 49.96872669 -67.23828125 47.7109375 C-70.01520447 45.99058054 -72.49374959 44.09082457 -75 42 C-69.77399893 38.23159106 -65.31715338 35.38977374 -59 34 C-55.72226496 33.24849977 -55.72226496 33.24849977 -54 30 C-52.1171875 29.078125 -52.1171875 29.078125 -49.875 28.25 C-45.44681399 26.40374353 -42.5133751 23.96521329 -39.0234375 20.73046875 C-35.67689773 17.86846659 -31.91457458 15.97335697 -28 14 C-26.65228516 13.29810547 -26.65228516 13.29810547 -25.27734375 12.58203125 C-18.30392157 9 -18.30392157 9 -16 9 C-15.91363281 8.37351562 -15.82726562 7.74703125 -15.73828125 7.1015625 C-15 5 -15 5 -13.29296875 4.0234375 C-12.59816406 3.80945313 -11.90335937 3.59546875 -11.1875 3.375 C-8.88635109 2.62301741 -6.84748679 1.92168241 -4.6875 0.8125 C-3 0 -3 0 0 0 Z " fill="#FA5C2A" transform="translate(379,308)"/>
<path d="M0 0 C1.98 0.99 1.98 0.99 4 2 C5.32837891 2.65742187 5.32837891 2.65742187 6.68359375 3.328125 C10.83543602 5.42116209 14.94960967 7.58163945 19.0625 9.75 C19.90522461 10.1939209 20.74794922 10.6378418 21.61621094 11.09521484 C28.43248566 14.69059821 35.21932654 18.33793468 42 22 C44.47726744 23.33689481 46.95659558 24.66986698 49.4375 26 C50.0574585 26.33370605 50.67741699 26.66741211 51.31616211 27.01123047 C54.5108067 28.7187487 57.72161614 30.36415544 60.9921875 31.921875 C61.63357666 32.22996094 62.27496582 32.53804687 62.93579102 32.85546875 C64.70876159 33.7005532 66.48894895 34.53044855 68.26953125 35.359375 C71.18906383 37.11360059 71.68797417 37.99821468 73 41 C68.95940191 43.02482887 64.91679052 45.04423245 60.859375 47.03515625 C60.18132812 47.36966797 59.50328125 47.70417969 58.8046875 48.04882812 C57.4207761 48.73157529 56.03532246 49.41120419 54.6484375 50.08789062 C51.81319767 51.4919318 49.26661444 52.79164921 46.765625 54.74609375 C45 56 45 56 41 56 C41 56.66 41 57.32 41 58 C40.14277344 58.45890625 39.28554688 58.9178125 38.40234375 59.390625 C37.25894531 60.00421875 36.11554688 60.6178125 34.9375 61.25 C33.81214844 61.85328125 32.68679688 62.4565625 31.52734375 63.078125 C29.19295784 64.33718859 26.90370864 65.63781928 24.609375 66.97265625 C20.6143447 69.26747209 16.48344019 71.23569041 12.3125 73.1875 C11.19391602 73.72020508 11.19391602 73.72020508 10.05273438 74.26367188 C9.33021484 74.60333984 8.60769531 74.94300781 7.86328125 75.29296875 C7.21657471 75.5974292 6.56986816 75.90188965 5.90356445 76.21557617 C4 77 4 77 0 78 C0 52.26 0 26.52 0 0 Z " fill="#26927F" transform="translate(231,30)"/>
<path d="M0 0 C-0.99 0.33 -1.98 0.66 -3 1 C-3 1.66 -3 2.32 -3 3 C-7.54166667 5.27083333 -12.08333333 7.54166667 -16.625 9.8125 C-17.63949219 10.32039063 -18.65398437 10.82828125 -19.69921875 11.3515625 C-22.03319927 12.51717171 -24.3689066 13.67871455 -26.70703125 14.8359375 C-27.32819824 15.14426514 -27.94936523 15.45259277 -28.58935547 15.77026367 C-30.34928789 16.64372023 -32.11016628 17.51527 -33.87109375 18.38671875 C-36.96422778 19.93035095 -36.96422778 19.93035095 -39.66015625 21.64453125 C-42 23 -42 23 -44.1171875 23.46484375 C-46.67324068 24.19135679 -47.52029965 25.4831108 -49.125 27.5625 C-50.6328125 29.50390625 -50.6328125 29.50390625 -52 31 C-52.66 31 -53.32 31 -54 31 C-54.33 38.59 -54.66 46.18 -55 54 C-61.64917406 52.67016519 -66.49683858 49.77155632 -72.1875 46.1875 C-81.18645797 40.5813593 -90.48403907 35.66509148 -100 31 C-95.15317852 29.37340231 -91.55707216 31.14311472 -87 33 C-83.9375 34.5625 -83.9375 34.5625 -82 36 C-82 36.66 -82 37.32 -82 38 C-80.68 37.34 -79.36 36.68 -78 36 C-78 36.66 -78 37.32 -78 38 C-77.34 38.33 -76.68 38.66 -76 39 C-75.67 39.99 -75.34 40.98 -75 42 C-73.9275 42.12375 -72.855 42.2475 -71.75 42.375 C-68.62136385 42.89643936 -66.66519576 43.40088254 -64 45 C-64 45.66 -64 46.32 -64 47 C-62.68 47 -61.36 47 -60 47 C-60 47.99 -60 48.98 -60 50 C-59.34 50 -58.68 50 -58 50 C-58.14308594 48.51886719 -58.14308594 48.51886719 -58.2890625 47.0078125 C-58.39992187 45.72648437 -58.51078125 44.44515625 -58.625 43.125 C-58.74101562 41.84882813 -58.85703125 40.57265625 -58.9765625 39.2578125 C-58.98816406 37.64519531 -58.98816406 37.64519531 -59 36 C-58.34 35.34 -57.68 34.68 -57 34 C-56.896875 33.360625 -56.79375 32.72125 -56.6875 32.0625 C-55.69070211 29.07210633 -53.65878621 28.52880207 -51 27 C-50.505 25.515 -50.505 25.515 -50 24 C-48.36328125 22.71875 -48.36328125 22.71875 -46.3125 21.5 C-45.58933594 21.06945312 -44.86617187 20.63890625 -44.12109375 20.1953125 C-41.45841259 18.69479605 -38.75717127 17.31864713 -36 16 C-35.071875 15.525625 -34.14375 15.05125 -33.1875 14.5625 C-29.85704138 12.92992224 -26.47632948 11.48241637 -23.05078125 10.0625 C-20.92478814 8.96103309 -19.66558491 7.6895847 -18 6 C-17.34 6 -16.68 6 -16 6 C-15.67 5.01 -15.34 4.02 -15 3 C-14.34 3 -13.68 3 -13 3 C-13 2.34 -13 1.68 -13 1 C-11.20994059 0.63779734 -9.41787943 0.28547531 -7.625 -0.0625 C-6.62726563 -0.25972656 -5.62953125 -0.45695313 -4.6015625 -0.66015625 C-2 -1 -2 -1 0 0 Z " fill="#A67049" transform="translate(287,253)"/>
<path d="M0 0 C2.625 1.75 2.625 1.75 3.5 4.4375 C3.54125 5.200625 3.5825 5.96375 3.625 6.75 C2.965 6.75 2.305 6.75 1.625 6.75 C1.295 7.41 0.965 8.07 0.625 8.75 C-5.17650795 8.84290671 -10.65365151 8.81443693 -16.375 7.75 C-22.57955501 7.10369219 -25.61116291 9.52109912 -30.3125 13.3125 C-33.14455762 15.28635834 -36.19023352 16.43216559 -39.375 17.75 C-43.97857454 19.7755728 -46.96707879 22.04137986 -50.375 25.75 C-50.375 24.76 -50.375 23.77 -50.375 22.75 C-53.94604439 24.62949705 -55.92244301 25.92053157 -57.375 29.75 C-58.096875 29.564375 -58.81875 29.37875 -59.5625 29.1875 C-62.50326973 28.73004693 -64.51603058 29.01483643 -67.375 29.75 C-63.97989395 25.82987755 -60.2186095 23.93580675 -55.625 21.75 C-54.94695312 21.42 -54.26890625 21.09 -53.5703125 20.75 C-50.83685635 19.41964872 -48.09995894 18.09668898 -45.35742188 16.78515625 C-41.24372495 14.78259411 -37.39221148 12.55080512 -33.53564453 10.09277344 C-29.38876269 7.51561523 -25.10799035 5.19290914 -20.8125 2.875 C-19.90564453 2.36453125 -18.99878906 1.8540625 -18.06445312 1.328125 C-11.23191488 -2.33835673 -7.39682529 -2.73956492 0 0 Z M-59.375 26.75 C-59.045 27.41 -58.715 28.07 -58.375 28.75 C-58.045 28.09 -57.715 27.43 -57.375 26.75 C-58.035 26.75 -58.695 26.75 -59.375 26.75 Z " fill="#81230B" transform="translate(255.375,215.25)"/>
<path d="M0 0 C0.82945913 2.89601035 1.1221994 5.45630756 1.11352539 8.46481323 C1.1134549 9.35354126 1.1133844 10.24226929 1.11331177 11.15792847 C1.10814545 12.12529938 1.10297913 13.09267029 1.09765625 14.08935547 C1.09619598 15.1141803 1.09473572 16.13900513 1.0932312 17.19488525 C1.08942605 19.42002722 1.08331036 21.64516616 1.07516479 23.87029648 C1.06240873 27.39238846 1.05588727 30.9144428 1.05102539 34.43655396 C1.03764807 43.18558692 1.01345947 51.93458417 0.98962402 60.68359375 C0.96989502 68.07412642 0.95425225 75.46464575 0.94406128 82.85519791 C0.93758074 86.32397093 0.92507141 89.79268914 0.91235352 93.26144409 C0.90872027 95.39158073 0.90536862 97.52171788 0.90234375 99.65185547 C0.89717743 100.61517792 0.89201111 101.57850037 0.88668823 102.5710144 C0.88632605 107.16596028 1.05116676 111.47914728 2 116 C2.556875 115.814375 3.11375 115.62875 3.6875 115.4375 C6.399133 114.92448835 8.34371039 115.3359276 11 116 C11.144375 116.7425 11.28875 117.485 11.4375 118.25 C11.90187492 120.52027739 12.41863569 122.75759479 13 125 C6.53923162 122.60028603 2.64831125 120.29411881 -0.93464851 114.3638649 C-2.83547227 110.1462047 -2.67033277 106.01566493 -2.59936523 101.45654297 C-2.60330795 100.43113403 -2.60725067 99.4057251 -2.61131287 98.34924316 C-2.61799362 94.97971813 -2.5889237 91.61156626 -2.55859375 88.2421875 C-2.55434057 85.89145164 -2.55201473 83.54071158 -2.55152893 81.18997192 C-2.54537359 76.27244932 -2.52271927 71.355384 -2.48706055 66.43798828 C-2.44173962 60.13868459 -2.42703115 53.83979401 -2.42332363 47.54034233 C-2.4188928 42.68986957 -2.4035857 37.83948322 -2.3844471 32.989048 C-2.3755771 30.66624791 -2.36884119 28.34343864 -2.36428642 26.02062607 C-2.35523149 22.77514944 -2.33283041 19.53004377 -2.30639648 16.28466797 C-2.30573181 15.3276297 -2.30506714 14.37059143 -2.30438232 13.384552 C-2.24985168 8.52694768 -1.89705495 4.55905856 0 0 Z " fill="#EA947C" transform="translate(162,150)"/>
<path d="M0 0 C0 28.05 0 56.1 0 85 C-4.24640078 84.15071984 -5.92519063 83.67656891 -9.3125 81.4375 C-10.00988281 80.98246094 -10.70726562 80.52742188 -11.42578125 80.05859375 C-11.94527344 79.70925781 -12.46476562 79.35992187 -13 79 C-8.77213125 77.37389663 -7.96360209 78.34546597 -3 80 C-2.67 54.59 -2.34 29.18 -2 3 C-3.32 3.99 -4.64 4.98 -6 6 C-8.64207321 6.90158338 -11.26265467 7.40690851 -14 8 C-14 8.66 -14 9.32 -14 10 C-14.99 10 -15.98 10 -17 10 C-17 10.66 -17 11.32 -17 12 C-18.32 11.67 -19.64 11.34 -21 11 C-20.195625 10.7525 -19.39125 10.505 -18.5625 10.25 C-17.716875 9.8375 -16.87125 9.425 -16 9 C-15.86078125 8.34773438 -15.7215625 7.69546875 -15.578125 7.0234375 C-15 5 -15 5 -13.29296875 4.0234375 C-12.59816406 3.80945313 -11.90335937 3.59546875 -11.1875 3.375 C-8.88635109 2.62301741 -6.84748679 1.92168241 -4.6875 0.8125 C-3 0 -3 0 0 0 Z " fill="#E68F6E" transform="translate(379,308)"/>
<path d="M0 0 C0.01030746 0.96022064 0.02061493 1.92044128 0.03123474 2.90975952 C0.12885641 11.94491344 0.2315797 20.97999676 0.33933926 30.01503563 C0.3945786 34.66038996 0.44800022 39.30575057 0.49731445 43.95117188 C0.54494309 48.43158181 0.59728535 52.91191382 0.65294075 57.39223099 C0.67337111 59.10428561 0.69208306 60.81636161 0.70907402 62.52845383 C0.73310298 64.920578 0.7631595 67.3125543 0.79467773 69.70458984 C0.80331093 70.77381432 0.80331093 70.77381432 0.81211853 71.86463928 C0.82056111 75.55649938 0.82056111 75.55649938 2 79 C1.01 79 0.02 79 -1 79 C-0.98952637 79.77714355 -0.97905273 80.55428711 -0.96826172 81.35498047 C-0.92679718 84.861621 -0.90070422 88.36821006 -0.875 91.875 C-0.85824219 93.09832031 -0.84148437 94.32164063 -0.82421875 95.58203125 C-0.81777344 96.74863281 -0.81132812 97.91523438 -0.8046875 99.1171875 C-0.79421387 100.19597168 -0.78374023 101.27475586 -0.77294922 102.38623047 C-1 105 -1 105 -3 107 C-3 73.01 -3 39.02 -3 4 C-5.475 5.485 -5.475 5.485 -8 7 C-10.68649553 7.61419008 -13.24041959 7.76613725 -16 8 C-13.70308628 5.70308628 -11.40808949 4.43950737 -8.5625 2.875 C-7.59441406 2.33617187 -6.62632812 1.79734375 -5.62890625 1.2421875 C-3 0 -3 0 0 0 Z " fill="#DF8160" transform="translate(379,31)"/>
<path d="M0 0 C0.66 0 1.32 0 2 0 C2.05898369 3.45825936 2.09392131 6.9163862 2.125 10.375 C2.14175781 11.34050781 2.15851563 12.30601563 2.17578125 13.30078125 C2.22799549 21.08070304 1.96045441 29.0956734 -2 36 C-3.62890625 37.30859375 -3.62890625 37.30859375 -5.5625 38.4375 C-6.27792969 38.85902344 -6.99335938 39.28054687 -7.73046875 39.71484375 C-8.85388672 40.35099609 -8.85388672 40.35099609 -10 41 C-11.07701172 41.62068359 -11.07701172 41.62068359 -12.17578125 42.25390625 C-14.43481214 43.53389 -16.71197288 44.7726477 -19 46 C-20.26070313 46.68835938 -20.26070313 46.68835938 -21.546875 47.390625 C-26.44755695 49.97462094 -30.45388267 51.6382967 -36 52 C-33.66819815 48.50229722 -32.82240801 48.41262905 -29 47 C-13.12950128 40.56622099 -13.12950128 40.56622099 -1.84228516 29.23583984 C-0.99074303 25.96443712 -0.68615131 23.10042742 -0.5859375 19.7265625 C-0.54726563 18.57285156 -0.50859375 17.41914062 -0.46875 16.23046875 C-0.4378125 15.04066406 -0.406875 13.85085937 -0.375 12.625 C-0.33632813 11.41199219 -0.29765625 10.19898437 -0.2578125 8.94921875 C-0.16386214 5.96629479 -0.07819193 2.98337175 0 0 Z " fill="#4B6048" transform="translate(378,110)"/>
<path d="M0 0 C5.43170818 0.34317982 9.45826935 0.75590668 14 4 C15.32608822 4.68096422 16.65686601 5.35330586 18 6 C18 6.66 18 7.32 18 8 C19.32 7.34 20.64 6.68 22 6 C22 6.66 22 7.32 22 8 C22.66 8.33 23.32 8.66 24 9 C24.33 9.99 24.66 10.98 25 12 C26.0725 12.12375 27.145 12.2475 28.25 12.375 C31.37863615 12.89643936 33.33480424 13.40088254 36 15 C36 15.66 36 16.32 36 17 C37.32 17 38.64 17 40 17 C40 17.99 40 18.98 40 20 C40.66 20 41.32 20 42 20 C41.67 15.38 41.34 10.76 41 6 C41.66 5.67 42.32 5.34 43 5 C43 10.61 43 16.22 43 22 C34.03975299 20.87996912 34.03975299 20.87996912 30.5625 18.25 C27.01030053 15.70063235 23.44430608 13.51166277 19.60546875 11.42578125 C16.25642359 9.59309537 12.94029991 7.70537574 9.625 5.8125 C9.01760986 5.46719238 8.41021973 5.12188477 7.78442383 4.76611328 C5.12803531 3.24934479 2.54664348 1.69776232 0 0 Z " fill="#EC734C" transform="translate(187,283)"/>
<path d="M0 0 C-1.34684007 4.04052022 -3.44847477 4.77159201 -7 7 C-7.9590625 7.7734375 -7.9590625 7.7734375 -8.9375 8.5625 C-11.76955762 10.53635834 -14.81523352 11.68216559 -18 13 C-22.60357454 15.0255728 -25.59207879 17.29137986 -29 21 C-29 20.01 -29 19.02 -29 18 C-32.57104439 19.87949705 -34.54744301 21.17053157 -36 25 C-36.721875 24.814375 -37.44375 24.62875 -38.1875 24.4375 C-41.12826973 23.98004693 -43.14103058 24.26483643 -46 25 C-42.60489395 21.07987755 -38.8436095 19.18580675 -34.25 17 C-33.57195312 16.67 -32.89390625 16.34 -32.1953125 16 C-30.82470826 15.33293786 -29.4529581 14.66822516 -28.08007812 14.00585938 C-20.86812437 10.56478871 -20.86812437 10.56478871 -14 6.5 C-3.81733746 0 -3.81733746 0 0 0 Z M-38 22 C-37.67 22.66 -37.34 23.32 -37 24 C-36.67 23.34 -36.34 22.68 -36 22 C-36.66 22 -37.32 22 -38 22 Z " fill="#952A0B" transform="translate(234,220)"/>
<path d="M0 0 C0.66 0 1.32 0 2 0 C2 27.39 2 54.78 2 83 C3.32 83 4.64 83 6 83 C6 82.34 6 81.68 6 81 C7.98 80.01 7.98 80.01 10 79 C10.33 79.99 10.66 80.98 11 82 C4.375 86 4.375 86 1 86 C0.67 57.62 0.34 29.24 0 0 Z " fill="#73BEB1" transform="translate(230,307)"/>
<path d="M0 0 C0.33 0 0.66 0 1 0 C1.13942502 7.44111245 1.24583373 14.88194033 1.31087303 22.32409763 C1.34209993 25.78042007 1.38440778 29.23584465 1.45263672 32.69165039 C1.53069714 36.67062383 1.55948975 40.64924211 1.5859375 44.62890625 C1.61690521 45.86145645 1.64787292 47.09400665 1.67977905 48.36390686 C1.683528 57.9655069 1.683528 57.9655069 -1.86474609 62.21459961 C-4.71428056 64.99215438 -7.84943674 68 -12 68 C-11.67 67.01 -11.34 66.02 -11 65 C-10.01 65 -9.02 65 -8 65 C-8 64.01 -8 63.02 -8 62 C-6.02 61.505 -6.02 61.505 -4 61 C-4 59.68 -4 58.36 -4 57 C-2.68 57 -1.36 57 0 57 C0 38.19 0 19.38 0 0 Z " fill="#518680" transform="translate(448,206)"/>
<path d="M0 0 C4.75 1.875 4.75 1.875 7 3 C-2.51145038 10 -2.51145038 10 -7 10 C-7 10.66 -7 11.32 -7 12 C-12.36933157 17.24625234 -19.16428895 20.16016416 -26 23 C-26.66 22.34 -27.32 21.68 -28 21 C-24.14522751 18.43015167 -20.47959418 17.14185734 -16 16 C-16 15.34 -16 14.68 -16 14 C-11.61538462 11 -11.61538462 11 -9 11 C-9 10.34 -9 9.68 -9 9 C-5.7 7.35 -2.4 5.7 1 4 C0.67 3.67 0.34 3.34 0 3 C0 2.01 0 1.02 0 0 Z " fill="#377E6B" transform="translate(300,240)"/>
<path d="M0 0 C0.66 0.33 1.32 0.66 2 1 C1.175 1.804375 0.35 2.60875 -0.5 3.4375 C-3.11638731 5.52263018 -3.11638731 5.52263018 -3 7 C-4.01191406 7.08636719 -5.02382813 7.17273438 -6.06640625 7.26171875 C-10.20202899 7.8554931 -13.42216243 9.63774063 -16.9375 11.8125 C-18.15929155 12.53921616 -19.3819437 13.26448747 -20.60546875 13.98828125 C-21.72566406 14.65214844 -22.84585937 15.31601563 -24 16 C-31.37190083 20 -31.37190083 20 -34 20 C-34 19.01 -34 18.02 -34 17 C-30.62902617 15.50178941 -28.79557881 15 -25 15 C-25 14.34 -25 13.68 -25 13 C-24.01 13 -23.02 13 -22 13 C-22 12.34 -22 11.68 -22 11 C-19.35261084 9.5393715 -18.10551666 9 -15 9 C-15 8.34 -15 7.68 -15 7 C-11.86501708 5.14223235 -9.62528568 4.79859524 -6 5 C-6 4.34 -6 3.68 -6 3 C-4.03533587 1.93224776 -2.03144641 0.93446535 0 0 Z " fill="#E57C61" transform="translate(311,176)"/>
<path d="M0 0 C3.12586629 1.13036377 6.13325156 2.30699573 9 4 C10.0625 6.75 10.0625 6.75 10 9 C9.34 9 8.68 9 8 9 C7.67 9.66 7.34 10.32 7 11 C3.37 11 -0.26 11 -4 11 C-3.34 10.01 -2.68 9.02 -2 8 C-1.34 8 -0.68 8 0 8 C0 5.36 0 2.72 0 0 Z " fill="#872A13" transform="translate(249,213)"/>
<path d="M0 0 C7.42004264 -0.49466951 7.42004264 -0.49466951 10.125 1.8125 C10.74375 2.534375 11.3625 3.25625 12 4 C13.96879323 5.06011943 15.96435867 6.07470849 18 7 C18 7.66 18 8.32 18 9 C18.7425 9.12375 19.485 9.2475 20.25 9.375 C22.80141485 9.95486701 24.7267573 10.73708739 27 12 C27 12.66 27 13.32 27 14 C27.639375 14.28875 28.27875 14.5775 28.9375 14.875 C31 16 31 16 32 18 C31.44183594 17.72027344 30.88367188 17.44054687 30.30859375 17.15234375 C28.74034641 16.36954686 27.16994805 15.59104758 25.59765625 14.81640625 C24.76105469 14.40261719 23.92445313 13.98882812 23.0625 13.5625 C22.22847656 13.15128906 21.39445312 12.74007812 20.53515625 12.31640625 C17.95329493 10.97574791 15.49230735 9.49986161 13 8 C10.73506659 6.75999542 8.46396142 5.53121167 6.1875 4.3125 C5.02605469 3.68988281 3.86460937 3.06726563 2.66796875 2.42578125 C1.78753906 1.95527344 0.90710938 1.48476562 0 1 C0 0.67 0 0.34 0 0 Z " fill="#5FC4AF" transform="translate(317,188)"/>
<path d="M0 0 C0.33 0.66 0.66 1.32 1 2 C1.66 2.33 2.32 2.66 3 3 C0.78460695 4.33903364 -1.43426687 5.67191813 -3.65625 7 C-5.47070426 8.08528105 -7.28437434 9.17189792 -9.09375 10.265625 C-11.37131115 11.64165153 -13.65405599 13.00876236 -15.9375 14.375 C-16.68314209 14.82794434 -17.42878418 15.28088867 -18.19702148 15.74755859 C-19.25771851 16.37911865 -19.25771851 16.37911865 -20.33984375 17.0234375 C-21.28911743 17.59457275 -21.28911743 17.59457275 -22.25756836 18.17724609 C-24 19 -24 19 -27 19 C-26.4375 17.0625 -26.4375 17.0625 -25 15 C-21.375 14.25 -21.375 14.25 -18 14 C-18 13.01 -18 12.02 -18 11 C-14.91190305 9.23537317 -13.76687864 9 -10 9 C-9.67 8.01 -9.34 7.02 -9 6 C-8.34 6.33 -7.68 6.66 -7 7 C-7 6.34 -7 5.68 -7 5 C-6.01 5 -5.02 5 -4 5 C-4 4.34 -4 3.68 -4 3 C-2 1.375 -2 1.375 0 0 Z " fill="#5DB19E" transform="translate(411,285)"/>
<path d="M0 0 C0.66 0 1.32 0 2 0 C1.99777939 0.55266037 1.99555878 1.10532074 1.99327087 1.67472839 C1.97112485 7.43361768 1.95605447 13.19249485 1.94506836 18.95141602 C1.94004371 21.09985852 1.93322292 23.2482976 1.92456055 25.39672852 C1.91241322 28.4871505 1.90675295 31.57752722 1.90234375 34.66796875 C1.89718246 35.62648239 1.89202118 36.58499603 1.88670349 37.57255554 C1.88662796 38.47311172 1.88655243 39.37366791 1.88647461 40.30151367 C1.884254 41.08983078 1.88203339 41.87814789 1.87974548 42.69035339 C2.01063184 45.20419855 2.45179104 47.54610177 3 50 C3.99 50 4.98 50 6 50 C6 50.66 6 51.32 6 52 C5.34 52 4.68 52 4 52 C4 52.66 4 53.32 4 54 C2.68 54 1.36 54 0 54 C0 36.18 0 18.36 0 0 Z " fill="#159A80" transform="translate(232,336)"/>
<path d="M0 0 C-0.99 0.33 -1.98 0.66 -3 1 C-3 1.66 -3 2.32 -3 3 C-4.94379786 3.97189893 -6.88802128 4.94261653 -8.8359375 5.90625 C-10.66398114 6.83017098 -12.46112275 7.81485692 -14.25 8.8125 C-17 10 -17 10 -19.375 9.6875 C-19.91125 9.460625 -20.4475 9.23375 -21 9 C-19.625 7.5 -19.625 7.5 -18 6 C-17.34 6 -16.68 6 -16 6 C-15.67 5.01 -15.34 4.02 -15 3 C-14.34 3 -13.68 3 -13 3 C-13 2.34 -13 1.68 -13 1 C-11.20994059 0.63779734 -9.41787943 0.28547531 -7.625 -0.0625 C-6.12839844 -0.35833984 -6.12839844 -0.35833984 -4.6015625 -0.66015625 C-2 -1 -2 -1 0 0 Z " fill="#C15B35" transform="translate(287,253)"/>
<path d="M0 0 C0.66 0.33 1.32 0.66 2 1 C-1.55072117 4.21784106 -4.72850578 5.80552472 -9.23046875 7.19140625 C-11.36670146 7.9799593 -11.36670146 7.9799593 -13 11 C-15.36486932 12.57657955 -16.41531841 13.09744693 -19.25 12.625 C-19.8275 12.41875 -20.405 12.2125 -21 12 C-19.34930881 8.40731917 -18.26907519 7.13707604 -14.6875 5.3125 C-11.46958339 4.16713985 -8.24723199 3.05888 -5 2 C-4.0925 1.608125 -3.185 1.21625 -2.25 0.8125 C-1.5075 0.544375 -0.765 0.27625 0 0 Z " fill="#5A886B" transform="translate(336,331)"/>
<path d="M0 0 C0.515625 0.2475 1.03125 0.495 1.5625 0.75 C0.77875 1.12125 -0.005 1.4925 -0.8125 1.875 C-3.7583079 3.33400863 -6.51981573 5.01750143 -9.3125 6.75 C-12.47089692 8.68702288 -15.42147732 10.21151613 -18.9375 11.375 C-22.52513362 12.31631367 -22.52513362 12.31631367 -23.3671875 14.7890625 C-23.89699219 15.75972656 -23.89699219 15.75972656 -24.4375 16.75 C-26.6015625 17.359375 -26.6015625 17.359375 -29.0625 17.5 C-29.87976563 17.55671875 -30.69703125 17.6134375 -31.5390625 17.671875 C-32.16554688 17.69765625 -32.79203125 17.7234375 -33.4375 17.75 C-32.1175 17.09 -30.7975 16.43 -29.4375 15.75 C-29.4375 15.09 -29.4375 14.43 -29.4375 13.75 C-28.76460938 13.49992187 -28.09171875 13.24984375 -27.3984375 12.9921875 C-23.83427626 11.49693252 -20.45925187 9.70979167 -17.0625 7.875 C-16.42828125 7.53597656 -15.7940625 7.19695312 -15.140625 6.84765625 C-11.92237528 5.12030997 -8.75203654 3.34468422 -5.61328125 1.4765625 C-2.4375 -0.25 -2.4375 -0.25 0 0 Z " fill="#A66A45" transform="translate(301.4375,72.25)"/>
<path d="M0 0 C1.32 0 2.64 0 4 0 C4 0.66 4 1.32 4 2 C4.94875 1.938125 5.8975 1.87625 6.875 1.8125 C7.90625 1.874375 8.9375 1.93625 10 2 C10.99 3.485 10.99 3.485 12 5 C14.05925139 5.72382467 14.05925139 5.72382467 16 6 C16 6.66 16 7.32 16 8 C18.31 8 20.62 8 23 8 C23.33 9.98 23.66 11.96 24 14 C18.37972742 11.7459199 13.2629045 8.96761416 8.0625 5.875 C7.28326172 5.41996094 6.50402344 4.96492188 5.70117188 4.49609375 C1.45718763 1.98913023 1.45718763 1.98913023 0 1 C0 0.67 0 0.34 0 0 Z " fill="#EC8D6A" transform="translate(342,372)"/>
<path d="M0 0 C2.31 0 4.62 0 7 0 C7 1.32 7 2.64 7 4 C5.5459375 4.5878125 5.5459375 4.5878125 4.0625 5.1875 C0.17204955 6.82766954 -3.3815076 8.91742071 -6.984375 11.109375 C-9 12 -9 12 -12 11 C-11.34 10.01 -10.68 9.02 -10 8 C-9.21625 7.87625 -8.4325 7.7525 -7.625 7.625 C-4.03364768 6.76991611 -3.03706509 4.9828453 -1 2 C-0.67 1.34 -0.34 0.68 0 0 Z " fill="#3D7C69" transform="translate(296,68)"/>
<path d="M0 0 C0 0.66 0 1.32 0 2 C-1.98689731 3.35278115 -3.98745218 4.68568305 -6 6 C-6.33 6.66 -6.66 7.32 -7 8 C-9.07421875 8.78125 -9.07421875 8.78125 -11.6875 9.5 C-14.6769398 10.33824063 -17.57270351 11.20453697 -20.5 12.25 C-23 13 -23 13 -25 12 C-22.8152247 10.72428516 -20.62738381 9.45439327 -18.4375 8.1875 C-17.82841797 7.83107422 -17.21933594 7.47464844 -16.59179688 7.10742188 C-12.49350489 4.74385666 -8.37497429 2.80082378 -4 1 C-2 0 -2 0 0 0 Z " fill="#EC7657" transform="translate(204,124)"/>
<path d="M0 0 C0.33 0.66 0.66 1.32 1 2 C0.67 2.66 0.34 3.32 0 4 C-0.15175549 5.59262066 -0.24900325 7.19064856 -0.31640625 8.7890625 C-0.35830078 9.73007812 -0.40019531 10.67109375 -0.44335938 11.640625 C-0.50233398 13.11789062 -0.50233398 13.11789062 -0.5625 14.625 C-0.60568359 15.61757813 -0.64886719 16.61015625 -0.69335938 17.6328125 C-0.79961069 20.08839838 -0.90164964 22.54408703 -1 25 C-4.37462715 24.45276317 -6.08235 23.9451 -9 22 C-7.02 22.33 -5.04 22.66 -3 23 C-3.01160156 21.74703125 -3.02320313 20.4940625 -3.03515625 19.203125 C-3.04453716 17.55208483 -3.05363704 15.90104304 -3.0625 14.25 C-3.07087891 13.425 -3.07925781 12.6 -3.08789062 11.75 C-3.09111328 10.95078125 -3.09433594 10.1515625 -3.09765625 9.328125 C-3.10289307 8.5949707 -3.10812988 7.86181641 -3.11352539 7.10644531 C-2.99565861 4.91944622 -2.71538093 3.07135937 -2 1 C-1.34 0.67 -0.68 0.34 0 0 Z " fill="#B97953" transform="translate(233,282)"/>
<path d="M0 0 C5.43170818 0.34317982 9.45826935 0.75590668 14 4 C14.66 4.268125 15.32 4.53625 16 4.8125 C19.05758202 6.62793933 20.81567207 9.20891431 23 12 C18.16162849 10.57738541 14.12309499 8.53943269 9.8125 6 C9.19697266 5.64421875 8.58144531 5.2884375 7.94726562 4.921875 C5.2425032 3.35117873 2.60320454 1.73546969 0 0 Z " fill="#E88366" transform="translate(187,283)"/>
<path d="M0 0 C-0.66 1.65 -1.32 3.3 -2 5 C-2.70125 4.79375 -3.4025 4.5875 -4.125 4.375 C-7.63570831 3.91708152 -9.7317275 4.72111076 -13 6 C-13.99 6.33 -14.98 6.66 -16 7 C-16 7.66 -16 8.32 -16 9 C-17.65 9 -19.3 9 -21 9 C-18.53004782 6.22234334 -15.81999181 4.63413398 -12.5625 2.875 C-11.61503906 2.35679687 -10.66757812 1.83859375 -9.69140625 1.3046875 C-5.84974244 -0.55759946 -4.11038911 -1.3701297 0 0 Z " fill="#3D6660" transform="translate(360,216)"/>
<path d="M0 0 C0.33 0 0.66 0 1 0 C1.02505615 0.64549805 1.0501123 1.29099609 1.07592773 1.95605469 C1.19214433 4.88755894 1.31475442 7.81876217 1.4375 10.75 C1.47681641 11.76578125 1.51613281 12.7815625 1.55664062 13.828125 C1.59853516 14.8078125 1.64042969 15.7875 1.68359375 16.796875 C1.72025146 17.69760742 1.75690918 18.59833984 1.79467773 19.52636719 C1.98306407 21.79596339 2.37366501 23.81562887 3 26 C3.33 25.67 3.66 25.34 4 25 C5.66617115 24.95936168 7.33388095 24.957279 9 25 C6.19350987 28.43015461 4.79707049 28.4009765 0 30 C0 20.1 0 10.2 0 0 Z " fill="#2F9E81" transform="translate(232,78)"/>
<path d="M0 0 C0 0.66 0 1.32 0 2 C-6.625 6 -6.625 6 -10 6 C-10.33 6.99 -10.66 7.98 -11 9 C-13.5 10.125 -13.5 10.125 -16 11 C-16.33 11.33 -16.66 11.66 -17 12 C-18.99958364 12.04080783 -21.00045254 12.04254356 -23 12 C-21.30443987 8.60887975 -17.48773872 7.59381608 -14.1875 6 C-13.09985352 5.46632812 -13.09985352 5.46632812 -11.99023438 4.921875 C-10.63049335 4.25506696 -9.26953441 3.59073265 -7.90698242 2.9296875 C-6.55456137 2.27035843 -5.21454888 1.58529776 -3.8840332 0.8828125 C-2 0 -2 0 0 0 Z " fill="#4A7C5B" transform="translate(342,162)"/>
<path d="M0 0 C0.66 0.33 1.32 0.66 2 1 C0.68 1.33 -0.64 1.66 -2 2 C-2.33 3.32 -2.66 4.64 -3 6 C-4.32 6 -5.64 6 -7 6 C-7.4021875 7.7015625 -7.4021875 7.7015625 -7.8125 9.4375 C-8.204375 10.613125 -8.59625 11.78875 -9 13 C-9.99 13.33 -10.98 13.66 -12 14 C-12.66 13.67 -13.32 13.34 -14 13 C-12.25609521 6.89633323 -7.98046642 4.14257678 -2.75 1.125 C-1.8425 0.75375 -0.935 0.3825 0 0 Z " fill="#F09B7F" transform="translate(177,137)"/>
<path d="M0 0 C1.32 1.32 2.64 2.64 4 4 C2.60823368 4.96423026 1.2113777 5.92111602 -0.1875 6.875 C-0.96480469 7.40867187 -1.74210937 7.94234375 -2.54296875 8.4921875 C-5.88410545 10.5425512 -9.29349404 11.76449801 -13 13 C-13.33 11.68 -13.66 10.36 -14 9 C-11.03 8.34 -8.06 7.68 -5 7 C-5 6.34 -5 5.68 -5 5 C-4.01 4.34 -3.02 3.68 -2 3 C-1.34 2.01 -0.68 1.02 0 0 Z " fill="#58AA99" transform="translate(427,274)"/>
<path d="M0 0 C3.17821143 1.51687364 5.95436664 3.16701393 8.75 5.3125 C8.75 6.3025 8.75 7.2925 8.75 8.3125 C6.44 8.6425 4.13 8.9725 1.75 9.3125 C1.09 6.6725 0.43 4.0325 -0.25 1.3125 C-1.57 0.9825 -2.89 0.6525 -4.25 0.3125 C-2.25 -0.6875 -2.25 -0.6875 0 0 Z " fill="#B85A3C" transform="translate(283.25,230.6875)"/>
<path d="M0 0 C1.32 0 2.64 0 4 0 C4 0.66 4 1.32 4 2 C4.56847656 1.90460938 5.13695312 1.80921875 5.72265625 1.7109375 C11.12968355 0.93463642 14.86074628 1.14112099 20 3 C19.67 4.32 19.34 5.64 19 7 C18.34 7 17.68 7 17 7 C17 6.34 17 5.68 17 5 C16.35933594 5.04640625 15.71867187 5.0928125 15.05859375 5.140625 C8.7085219 5.40560564 5.22455383 4.63447223 0 1 C0 0.67 0 0.34 0 0 Z " fill="#27B593" transform="translate(308,183)"/>
<path d="M0 0 C0.66 0.33 1.32 0.66 2 1 C-1.05354238 5.51924273 -3.82722169 7.30546917 -9 9 C-12.4375 9.1875 -12.4375 9.1875 -15 9 C-13.62032992 6.24065984 -11.9457655 5.82461359 -9.1875 4.5 C-8.31480469 4.0771875 -7.44210937 3.654375 -6.54296875 3.21875 C-5.70378906 2.8165625 -4.86460937 2.414375 -4 2 C-3.27425781 1.5978125 -2.54851562 1.195625 -1.80078125 0.78125 C-1.20652344 0.5234375 -0.61226563 0.265625 0 0 Z " fill="#F26F4E" transform="translate(322,60)"/>
<path d="M0 0 C0.66 0.33 1.32 0.66 2 1 C-0.42668707 4.64003061 -1.96302815 4.71160473 -6 6 C-6.33 6.66 -6.66 7.32 -7 8 C-8.70703125 8.88671875 -8.70703125 8.88671875 -10.8125 9.6875 C-11.49957031 9.95949219 -12.18664062 10.23148438 -12.89453125 10.51171875 C-15.31142349 11.07222252 -16.64807224 10.66780857 -19 10 C-16.39761208 8.51762714 -13.79321772 7.03899869 -11.1875 5.5625 C-10.44951172 5.14162109 -9.71152344 4.72074219 -8.95117188 4.28710938 C-8.23896484 3.88427734 -7.52675781 3.48144531 -6.79296875 3.06640625 C-6.1383667 2.69459229 -5.48376465 2.32277832 -4.80932617 1.93969727 C-3 1 -3 1 0 0 Z " fill="#EB7F62" transform="translate(343,49)"/>
<path d="M0 0 C6.11658892 1.33502386 11.79562701 4.58463023 17 8 C17 8.33 17 8.66 17 9 C10.541864 8.24021929 5.33809248 6.8129232 0 3 C0 2.01 0 1.02 0 0 Z " fill="#59958C" transform="translate(261,47)"/>
<path d="M0 0 C1.11375 0.3403125 1.11375 0.3403125 2.25 0.6875 C1.693125 0.935 1.13625 1.1825 0.5625 1.4375 C-2.19160479 2.92620529 -4.44174514 4.57159972 -6.75 6.6875 C-6.75 7.6775 -6.75 8.6675 -6.75 9.6875 C-8.4 9.3575 -10.05 9.0275 -11.75 8.6875 C-11.75 9.3475 -11.75 10.0075 -11.75 10.6875 C-12.74 10.6875 -13.73 10.6875 -14.75 10.6875 C-13.28781513 6.0572479 -13.28781513 6.0572479 -10.75 4.3125 C-8.75 3.6875 -8.75 3.6875 -6.75 4.6875 C-6.75 4.0275 -6.75 3.3675 -6.75 2.6875 C-4.35939287 0.29689287 -3.42334736 -0.38901675 0 0 Z " fill="#1D4E47" transform="translate(350.75,220.3125)"/>
<path d="M0 0 C0.33 0.66 0.66 1.32 1 2 C2.3921875 1.87625 2.3921875 1.87625 3.8125 1.75 C4.864375 1.8325 5.91625 1.915 7 2 C7.99 3.32 8.98 4.64 10 6 C5.05 8.475 5.05 8.475 0 11 C-0.33 10.34 -0.66 9.68 -1 9 C-0.01 8.34 0.98 7.68 2 7 C1.484375 6.5875 0.96875 6.175 0.4375 5.75 C-0.036875 5.1725 -0.51125 4.595 -1 4 C-0.6875 1.8125 -0.6875 1.8125 0 0 Z " fill="#BC4927" transform="translate(293,238)"/>
<path d="M0 0 C1.32 0 2.64 0 4 0 C3.625 2.4375 3.625 2.4375 3 5 C2.01 5.495 2.01 5.495 1 6 C1.66 6.66 2.32 7.32 3 8 C1.35 8 -0.3 8 -2 8 C-2 7.34 -2 6.68 -2 6 C-3.65 5.67 -5.3 5.34 -7 5 C-5.60683123 2.21366246 -3.84019484 2.06507306 -1 1 C-0.67 0.67 -0.34 0.34 0 0 Z " fill="#139E7C" transform="translate(314,177)"/>
<path d="M0 0 C0.8971875 0.309375 0.8971875 0.309375 1.8125 0.625 C-1.9375 3.625 -1.9375 3.625 -4.1875 3.625 C-4.1875 4.285 -4.1875 4.945 -4.1875 5.625 C-8.81190425 7.70126313 -13.2883651 9.32522952 -18.1875 10.625 C-15.07143007 6.96700486 -11.49054649 4.98782732 -7.30859375 2.7734375 C-1.66048494 -0.28465456 -1.66048494 -0.28465456 0 0 Z " fill="#A17653" transform="translate(356.1875,320.375)"/>
<path d="M0 0 C0.99 0 1.98 0 3 0 C3.79953138 3.28696233 4.09658936 4.71023192 3 8 C0.0625 9.25 0.0625 9.25 -3 10 C-3.66 9.67 -4.32 9.34 -5 9 C-3.49901406 5.88256767 -1.97568178 2.84498177 0 0 Z " fill="#77270E" transform="translate(246,213)"/>
<path d="M0 0 C1.10370043 3.3111013 0.92673641 5.24748949 0.5625 8.6875 C0.40974609 10.17830078 0.40974609 10.17830078 0.25390625 11.69921875 C0.12822266 12.83810547 0.12822266 12.83810547 0 14 C0.66 14 1.32 14 2 14 C1.855625 14.61488281 1.71125 15.22976563 1.5625 15.86328125 C1.376875 16.67152344 1.19125 17.47976563 1 18.3125 C0.814375 19.11300781 0.62875 19.91351563 0.4375 20.73828125 C-0.09495823 23.10695938 -0.09495823 23.10695938 0 26 C-0.3062434 27.33981486 -0.63451555 28.67511887 -1 30 C-1.33 30 -1.66 30 -2 30 C-2.11749355 23.10704511 -1.97301476 16.25482233 -1.5625 9.375 C-1.52326416 8.67632812 -1.48402832 7.97765625 -1.44360352 7.2578125 C-1.12225361 2.24450721 -1.12225361 2.24450721 0 0 Z " fill="#159A81" transform="translate(234,290)"/>
<path d="M0 0 C0.33 0.66 0.66 1.32 1 2 C1.66 2.33 2.32 2.66 3 3 C3.33 3.99 3.66 4.98 4 6 C5.60875 6.185625 5.60875 6.185625 7.25 6.375 C10.37863615 6.89643936 12.33480424 7.40088254 15 9 C15 9.66 15 10.32 15 11 C10.15600804 10.88391305 6.95628314 10.78997303 3.125 7.625 C2.42375 6.75875 1.7225 5.8925 1 5 C0.401875 4.401875 -0.19625 3.80375 -0.8125 3.1875 C-1.204375 2.795625 -1.59625 2.40375 -2 2 C-1.34 1.34 -0.68 0.68 0 0 Z " fill="#EE7049" transform="translate(208,289)"/>
<path d="M0 0 C0.66 0 1.32 0 2 0 C2.33 0.99 2.66 1.98 3 3 C2.67 3.33 2.34 3.66 2 4 C1.76518307 6.18292774 1.58636677 8.37203174 1.4375 10.5625 C1.31181641 12.35880859 1.31181641 12.35880859 1.18359375 14.19140625 C1.12300781 15.11824219 1.06242187 16.04507813 1 17 C1.99 17.33 2.98 17.66 4 18 C3.34 18.66 2.68 19.32 2 20 C1.855625 20.804375 1.71125 21.60875 1.5625 22.4375 C0.94203743 25.2640517 0.18992875 26.19092843 -2 28 C-1.76990234 26.34484375 -1.76990234 26.34484375 -1.53515625 24.65625 C-0.90498324 19.6148659 -0.66239916 14.57313521 -0.4375 9.5 C-0.39431641 8.5821875 -0.35113281 7.664375 -0.30664062 6.71875 C-0.20166544 4.47927939 -0.09950752 2.23971908 0 0 Z " fill="#256055" transform="translate(380,112)"/>
<path d="M0 0 C0.66 0.33 1.32 0.66 2 1 C1.01 1.33 0.02 1.66 -1 2 C-1 2.66 -1 3.32 -1 4 C-4.33333333 5.66666667 -7.66666667 7.33333333 -11 9 C-12.02867187 9.60714844 -12.02867187 9.60714844 -13.078125 10.2265625 C-15.45185001 11.18184208 -16.63176186 10.84579934 -19 10 C-16.58367661 8.70768774 -14.16695604 7.41612809 -11.75 6.125 C-11.06808594 5.76019531 -10.38617188 5.39539063 -9.68359375 5.01953125 C-8.36680294 4.31639053 -7.04849571 3.61608052 -5.72851562 2.91894531 C-4.35666255 2.18961551 -2.99644449 1.43840768 -1.640625 0.6796875 C-0.82851563 0.34324219 -0.82851563 0.34324219 0 0 Z " fill="#40846D" transform="translate(264,265)"/>
<path d="M0 0 C-0.66 1.32 -1.32 2.64 -2 4 C-1.01 4.33 -0.02 4.66 1 5 C0.67 5.66 0.34 6.32 0 7 C-4.30764815 5.43358249 -8.06171464 3.31663844 -12 1 C-11.401875 0.855625 -10.80375 0.71125 -10.1875 0.5625 C-6.17274183 -0.46986639 -4.09524555 -0.99614081 0 0 Z " fill="#F17A54" transform="translate(323,354)"/>
<path d="M0 0 C0 0.66 0 1.32 0 2 C-0.70125 2.2475 -1.4025 2.495 -2.125 2.75 C-5.15078961 3.96475048 -5.15078961 3.96475048 -8.1875 6.125 C-11 8 -11 8 -13 8 C-13 8.66 -13 9.32 -13 10 C-13.99 10 -14.98 10 -16 10 C-16 10.66 -16 11.32 -16 12 C-17.32 11.67 -18.64 11.34 -20 11 C-19.195625 10.7525 -18.39125 10.505 -17.5625 10.25 C-16.716875 9.8375 -15.87125 9.425 -15 9 C-14.86078125 8.34773438 -14.7215625 7.69546875 -14.578125 7.0234375 C-14 5 -14 5 -12.29296875 4.0234375 C-11.59816406 3.80945313 -10.90335937 3.59546875 -10.1875 3.375 C-7.87693205 2.61858867 -5.80601134 1.90300567 -3.625 0.8125 C-2 0 -2 0 0 0 Z " fill="#907C55" transform="translate(378,308)"/>
<path d="M0 0 C2.97 0.495 2.97 0.495 6 1 C6.144375 1.7425 6.28875 2.485 6.4375 3.25 C6.90187492 5.52027739 7.41863569 7.75759479 8 10 C4.10918157 8.70306052 1.51818326 7.29300888 -1 4 C-0.75 1.75 -0.75 1.75 0 0 Z " fill="#D8512A" transform="translate(167,265)"/>
<path d="M0 0 C4.68672532 1.32189689 8.61253385 3.35803543 12.80859375 5.7578125 C15.48888848 7.27712395 18.23075067 8.65087853 21 10 C17.95904675 10.97744926 16.00367313 11.16271218 13 10 C12 9 11 8 10 7 C9.01 7 8.02 7 7 7 C5.64567325 5.68799596 4.31266518 4.35368596 3 3 C2.01 2.67 1.02 2.34 0 2 C0 1.34 0 0.68 0 0 Z " fill="#0B5146" transform="translate(362,213)"/>
<path d="M0 0 C0 0.99 0 1.98 0 3 C-0.61875 3.0825 -1.2375 3.165 -1.875 3.25 C-4.18437567 3.81258459 -4.18437567 3.81258459 -5.25 6.0625 C-5.4975 6.701875 -5.745 7.34125 -6 8 C-11.75 7.125 -11.75 7.125 -14 6 C-9.25 3 -9.25 3 -7 3 C-7 2.34 -7 1.68 -7 1 C-4.53721199 -0.231394 -2.7204945 -0.07159196 0 0 Z " fill="#12977B" transform="translate(349,161)"/>
<path d="M0 0 C0.33 0.66 0.66 1.32 1 2 C-2.27194342 6.10398401 -5.15189388 9.71061656 -10 12 C-10.66 12 -11.32 12 -12 12 C-11.67 11.01 -11.34 10.02 -11 9 C-10.01 9 -9.02 9 -8 9 C-8 8.01 -8 7.02 -8 6 C-6.68 5.67 -5.36 5.34 -4 5 C-4 3.68 -4 2.36 -4 1 C-2.68 0.67 -1.36 0.34 0 0 Z " fill="#68AA9B" transform="translate(448,262)"/>
<path d="M0 0 C-1.46236559 5.60573477 -1.46236559 5.60573477 -3.875 7.375 C-7.44691475 8.42556316 -10.50603118 7.99827681 -14 7 C-12.37554381 6.01993141 -10.75041739 5.04097364 -9.125 4.0625 C-8.22007812 3.51722656 -7.31515625 2.97195312 -6.3828125 2.41015625 C-2.31024931 0 -2.31024931 0 0 0 Z M-6 5 C-5.67 5.66 -5.34 6.32 -5 7 C-4.67 6.34 -4.34 5.68 -4 5 C-4.66 5 -5.32 5 -6 5 Z " fill="#B43612" transform="translate(202,237)"/>
<path d="M0 0 C-1.36125 1.11375 -1.36125 1.11375 -2.75 2.25 C-5.3069423 4.37674584 -7.69110193 6.60229816 -10 9 C-10 8.01 -10 7.02 -10 6 C-10.99 6 -11.98 6 -13 6 C-13 5.34 -13 4.68 -13 4 C-11.40233897 3.13372601 -9.79660056 2.28233535 -8.1875 1.4375 C-7.29417969 0.96183594 -6.40085938 0.48617187 -5.48046875 -0.00390625 C-3 -1 -3 -1 0 0 Z " fill="#A12E0C" transform="translate(215,232)"/>
<path d="M0 0 C3.12586629 1.13036377 6.13325156 2.30699573 9 4 C10.0625 6.75 10.0625 6.75 10 9 C9.01 8.67 8.02 8.34 7 8 C7 7.34 7 6.68 7 6 C4.69 6 2.38 6 0 6 C0 4.02 0 2.04 0 0 Z " fill="#8C4937" transform="translate(249,213)"/>
<path d="M0 0 C-3.51358474 4.63154352 -8.47472975 5.97002802 -14 7 C-14.66 6.67 -15.32 6.34 -16 6 C-13.75421292 3.75421292 -11.930208 3.14349581 -9 2 C-5.5647952 -0.29013653 -4.014669 -0.17842973 0 0 Z " fill="#407858" transform="translate(358,155)"/>
<path d="M0 0 C4.75 1.875 4.75 1.875 7 3 C1.88233868 7.02879721 -2.73519555 9.25267359 -9 11 C-9 10.34 -9 9.68 -9 9 C-5.7 7.35 -2.4 5.7 1 4 C0.67 3.67 0.34 3.34 0 3 C0 2.01 0 1.02 0 0 Z " fill="#85735D" transform="translate(300,240)"/>
<path d="M0 0 C0.66 0.33 1.32 0.66 2 1 C0.75 3 0.75 3 -1 5 C-2.32 5 -3.64 5 -5 5 C-5 5.66 -5 6.32 -5 7 C-7.64 7.33 -10.28 7.66 -13 8 C-10.61664713 5.32561064 -8.12963852 3.84841988 -4.9375 2.25 C-4.05964844 1.80140625 -3.18179687 1.3528125 -2.27734375 0.890625 C-1.52582031 0.59671875 -0.77429688 0.3028125 0 0 Z " fill="#618B83" transform="translate(337,225)"/>
<path d="M0 0 C-2.74785763 2.13444066 -5.53140548 3.97962441 -8.5625 5.6875 C-9.32691406 6.12449219 -10.09132813 6.56148438 -10.87890625 7.01171875 C-13 8 -13 8 -16 8 C-15.67 7.01 -15.34 6.02 -15 5 C-13.02 4.67 -11.04 4.34 -9 4 C-9 3.34 -9 2.68 -9 2 C-8.01 2 -7.02 2 -6 2 C-6 1.34 -6 0.68 -6 0 C-3.50907189 -1.24546405 -2.58919267 -0.7767578 0 0 Z " fill="#43916E" transform="translate(272,87)"/>
<path d="M0 0 C0.66 0.33 1.32 0.66 2 1 C1.43152344 1.31453125 0.86304688 1.6290625 0.27734375 1.953125 C-0.49480469 2.38109375 -1.26695312 2.8090625 -2.0625 3.25 C-3.29226562 3.92675781 -3.29226562 3.92675781 -4.546875 4.6171875 C-6.05411357 5.46680924 -7.54777131 6.34182628 -9.015625 7.2578125 C-13.55562535 10.08050837 -13.55562535 10.08050837 -16.19921875 9.6015625 C-16.79347656 9.40304688 -17.38773438 9.20453125 -18 9 C-15.56401192 7.68462636 -13.1263175 6.37260857 -10.6875 5.0625 C-9.99720703 4.68931641 -9.30691406 4.31613281 -8.59570312 3.93164062 C-7.92861328 3.57392578 -7.26152344 3.21621094 -6.57421875 2.84765625 C-5.65515747 2.3527771 -5.65515747 2.3527771 -4.7175293 1.84790039 C-3 1 -3 1 0 0 Z " fill="#B27752" transform="translate(246,101)"/>
<path d="M0 0 C0.66 0.99 1.32 1.98 2 3 C1 5 1 5 -2 7 C-2.33 6.67 -2.66 6.34 -3 6 C-7.95 7.485 -7.95 7.485 -13 9 C-11.67994824 6.35989647 -10.21405858 5.87412818 -7.625 4.5 C-4.97669834 3.08527208 -2.50395451 1.669303 0 0 Z " fill="#2B7162" transform="translate(309,241)"/>
<path d="M0 0 C0.33 1.32 0.66 2.64 1 4 C-7.78343949 10.88853503 -7.78343949 10.88853503 -13 13 C-13.66 12.67 -14.32 12.34 -15 12 C-13.37554381 11.01993141 -11.75041739 10.04097364 -10.125 9.0625 C-9.22007812 8.51722656 -8.31515625 7.97195312 -7.3828125 7.41015625 C-5.94798364 6.56101983 -4.49124552 5.74562276 -3 5 C-1.9590934 3.35857037 -0.95495674 1.69287785 0 0 Z " fill="#B86341" transform="translate(375,138)"/>
<path d="M0 0 C-0.66386719 0.32613281 -1.32773437 0.65226562 -2.01171875 0.98828125 C-7.60548865 3.74994073 -7.60548865 3.74994073 -13 6.875 C-13.99 7.431875 -13.99 7.431875 -15 8 C-15.66 7.67 -16.32 7.34 -17 7 C-16.34 6.34 -15.68 5.68 -15 5 C-14.01 5 -13.02 5 -12 5 C-11.79375 4.38125 -11.5875 3.7625 -11.375 3.125 C-8.64062629 -1.10085028 -4.48601308 -1.34968792 0 0 Z " fill="#9F6C49" transform="translate(268,264)"/>
<path d="M0 0 C0.99 0.33 1.98 0.66 3 1 C2.01 1.33 1.02 1.66 0 2 C0 1.34 0 0.68 0 0 Z M-5 3 C-2.99279077 3.28674418 -0.9914056 3.61866701 1 4 C1 4.66 1 5.32 1 6 C-1.07553648 6.5534764 -2.84365964 7 -5 7 C-5.99 7.309375 -5.99 7.309375 -7 7.625 C-7.66 7.74875 -8.32 7.8725 -9 8 C-9.66 7.34 -10.32 6.68 -11 6 C-10.195625 5.690625 -9.39125 5.38125 -8.5625 5.0625 C-6.10919595 4.23664655 -6.10919595 4.23664655 -5 3 Z " fill="#109D7B" transform="translate(332,168)"/>
<path d="M0 0 C0.66 0 1.32 0 2 0 C1.4375 2.8125 1.4375 2.8125 0 6 C-3.88404165 8.12523034 -7.63075935 9.33799384 -12 10 C-10.72853369 7.45706738 -9.68630403 7.26022999 -7.125 6.125 C-3.78550363 4.53873923 -2.02816033 3.15491606 0 0 Z " fill="#3F654F" transform="translate(376,140)"/>
<path d="M0 0 C-0.26171875 1.88671875 -0.26171875 1.88671875 -1 4 C-2.70703125 5.08203125 -2.70703125 5.08203125 -4.8125 5.8125 C-5.84310547 6.19341797 -5.84310547 6.19341797 -6.89453125 6.58203125 C-9.26868457 7.05333812 -10.72314894 6.75212833 -13 6 C-12.113125 5.566875 -11.22625 5.13375 -10.3125 4.6875 C-7.0489415 3.07996119 -7.0489415 3.07996119 -4.25 1.3125 C-2 0 -2 0 0 0 Z " fill="#EE8C6D" transform="translate(376,32)"/>
<path d="M0 0 C3.37705625 0.53725895 6.696686 1.11064623 10 2 C10.33 1.34 10.66 0.68 11 0 C10.67 1.98 10.34 3.96 10 6 C6.40992874 4.66654496 3.20429093 3.1056769 0 1 C0 0.67 0 0.34 0 0 Z " fill="#EF896A" transform="translate(366,386)"/>
<path d="M0 0 C0.66 0.33 1.32 0.66 2 1 C1.01 1.33 0.02 1.66 -1 2 C-2.32920026 4.90424656 -2.32920026 4.90424656 -3 8 C-2.67 8.66 -2.34 9.32 -2 10 C-4.91517292 8.92598892 -6.77810176 8.22189824 -9 6 C-6.03 4.02 -3.06 2.04 0 0 Z " fill="#AA825F" transform="translate(313,344)"/>
<path d="M0 0 C-1.89041482 1.154751 -3.78757599 2.29846233 -5.6875 3.4375 C-7.27111328 4.39462891 -7.27111328 4.39462891 -8.88671875 5.37109375 C-11.71009314 6.84831724 -13.86866977 7.58752422 -17 8 C-16 6 -16 6 -12.9375 4.875 C-11.4834375 4.441875 -11.4834375 4.441875 -10 4 C-10 3.34 -10 2.68 -10 2 C-8.71211992 1.46987262 -7.41953322 0.9511671 -6.125 0.4375 C-5.40570313 0.14746094 -4.68640625 -0.14257812 -3.9453125 -0.44140625 C-2 -1 -2 -1 0 0 Z " fill="#BD673D" transform="translate(343,161)"/>
<path d="M0 0 C4.66825827 -0.70731186 7.03280231 1.07722471 10.64453125 3.7109375 C11.09183594 4.13632812 11.53914063 4.56171875 12 5 C12 5.66 12 6.32 12 7 C8.80862651 6.36747553 6.48762632 5.24396936 3.75 3.5 C3.04359375 3.0565625 2.3371875 2.613125 1.609375 2.15625 C1.07828125 1.7746875 0.5471875 1.393125 0 1 C0 0.67 0 0.34 0 0 Z " fill="#EB8C6E" transform="translate(330,365)"/>
<path d="M0 0 C1.32 0.33 2.64 0.66 4 1 C0.81546523 3.63861452 -2.27084628 6.1832328 -6 8 C-8.3125 7.6875 -8.3125 7.6875 -10 7 C-8.75 5.5 -8.75 5.5 -7 4 C-5.68 4 -4.36 4 -3 4 C-3 3.34 -3 2.68 -3 2 C-2.01 2 -1.02 2 0 2 C0 1.34 0 0.68 0 0 Z " fill="#52AF9C" transform="translate(283,360)"/>
<path d="M0 0 C4.56454251 0.54339792 7.9728176 1.79463821 12 4 C12 4.99 12 5.98 12 7 C7.39104317 5.68315519 3.85859765 3.84801255 0 1 C0 0.67 0 0.34 0 0 Z " fill="#E38B6B" transform="translate(175,275)"/>
<path d="M0 0 C2.64 0.33 5.28 0.66 8 1 C8.66 2.65 9.32 4.3 10 6 C6.62972148 6 5.93297304 5.50175992 3.3125 3.5625 C2.68988281 3.11003906 2.06726563 2.65757812 1.42578125 2.19140625 C0.95527344 1.79824219 0.48476563 1.40507812 0 1 C0 0.67 0 0.34 0 0 Z " fill="#5CB7A6" transform="translate(353,207)"/>
<path d="M0 0 C3.4375 0.8125 3.4375 0.8125 7 2 C7.33 2.99 7.66 3.98 8 5 C9.31647119 5.69937532 10.65022151 6.36729133 12 7 C12.33 7.66 12.66 8.32 13 9 C12.42636719 8.70996094 11.85273438 8.41992188 11.26171875 8.12109375 C9.81628761 7.40461925 8.36113184 6.70723481 6.89453125 6.03515625 C6.20746094 5.71417969 5.52039063 5.39320313 4.8125 5.0625 C4.11769531 4.74410156 3.42289062 4.42570313 2.70703125 4.09765625 C1 3 1 3 0 0 Z " fill="#7ACBBC" transform="translate(336,197)"/>
<path d="M0 0 C-4.62 2.64 -9.24 5.28 -14 8 C-14.33 7.34 -14.66 6.68 -15 6 C-14.195625 5.54625 -13.39125 5.0925 -12.5625 4.625 C-9.91143428 3.25274335 -9.91143428 3.25274335 -9 1 C-3.6407767 -1.21359223 -3.6407767 -1.21359223 0 0 Z " fill="#E58262" transform="translate(277,197)"/>
<path d="M0 0 C0.99 0 1.98 0 3 0 C3 0.66 3 1.32 3 2 C1.37750059 2.83819158 -0.24808497 3.6704116 -1.875 4.5 C-3.23238281 5.19609375 -3.23238281 5.19609375 -4.6171875 5.90625 C-7 7 -7 7 -9 7 C-9 6.01 -9 5.02 -9 4 C-5.62902617 2.50178941 -3.79557881 2 0 2 C0 1.34 0 0.68 0 0 Z " fill="#E87C5D" transform="translate(286,189)"/>
<path d="M0 0 C1.32 0 2.64 0 4 0 C4 0.66 4 1.32 4 2 C5.98 2 7.96 2 10 2 C10.66 3.65 11.32 5.3 12 7 C7.69235185 5.43358249 3.93828536 3.31663844 0 1 C0 0.67 0 0.34 0 0 Z " fill="#ED886A" transform="translate(342,372)"/>
<path d="M0 0 C0 0.66 0 1.32 0 2 C-1.55851755 2.82011312 -3.12201716 3.63076213 -4.6875 4.4375 C-5.99267578 5.11619141 -5.99267578 5.11619141 -7.32421875 5.80859375 C-9.90998264 6.95991928 -12.21356528 7.56320753 -15 8 C-13.6875 6.5 -13.6875 6.5 -12 5 C-11.01 5 -10.02 5 -9 5 C-9 4.34 -9 3.68 -9 3 C-2.25 0 -2.25 0 0 0 Z " fill="#ED8E76" transform="translate(219,116)"/>
<path d="M0 0 C0.33 0 0.66 0 1 0 C1.33 1.65 1.66 3.3 2 5 C2.99 5 3.98 5 5 5 C5 5.66 5 6.32 5 7 C4.34 7 3.68 7 3 7 C3 7.66 3 8.32 3 9 C1.68 9 0.36 9 -1 9 C-1.09765625 2.84765625 -1.09765625 2.84765625 -1 1 C-0.67 0.67 -0.34 0.34 0 0 Z " fill="#0AA484" transform="translate(233,381)"/>
<path d="M0 0 C1.03125 0.350625 2.0625 0.70125 3.125 1.0625 C6.9798964 1.99513623 9.20172226 1.92640921 13 1 C11.5625 3.125 11.5625 3.125 9 5 C5.87179891 4.75232831 2.98496791 3.94396421 0 3 C0 2.01 0 1.02 0 0 Z " fill="#EF5E33" transform="translate(187,280)"/>
<path d="M0 0 C4.49797113 1.68673918 8.72886302 3.81673892 13 6 C12.01 6.66 11.02 7.32 10 8 C10 7.34 10 6.68 10 6 C8.35 6 6.7 6 5 6 C4.67 5.01 4.34 4.02 4 3 C3.01 3.33 2.02 3.66 1 4 C0.67 2.68 0.34 1.36 0 0 Z " fill="#84ABA5" transform="translate(236,33)"/>
<path d="M0 0 C-3.17495261 2.72138795 -5.95197831 4.82820425 -10 6 C-10.99 5.67 -11.98 5.34 -13 5 C-11.92250558 4.17977251 -10.83770492 3.36913831 -9.75 2.5625 C-9.14671875 2.11003906 -8.5434375 1.65757812 -7.921875 1.19140625 C-5.08031035 -0.57013281 -3.08460387 -1.54230193 0 0 Z " fill="#7F7F5D" transform="translate(338,332)"/>
<path d="M0 0 C-0.25 1.875 -0.25 1.875 -1 4 C-2.8125 5.375 -2.8125 5.375 -5 6 C-7.25 5.125 -7.25 5.125 -9 4 C-2.25 0 -2.25 0 0 0 Z " fill="#ED714F" transform="translate(228,111)"/>
<path d="M0 0 C-1.20819367 3.624581 -1.80341913 3.40170957 -5 5 C-5.33 5.99 -5.66 6.98 -6 8 C-7.65 8 -9.3 8 -11 8 C-10.34 7.67 -9.68 7.34 -9 7 C-9 6.34 -9 5.68 -9 5 C-7.5390625 3.7109375 -7.5390625 3.7109375 -5.625 2.375 C-4.99851562 1.92898438 -4.37203125 1.48296875 -3.7265625 1.0234375 C-2 0 -2 0 0 0 Z " fill="#2E8674" transform="translate(272,262)"/>
<path d="M0 0 C-0.969375 0.474375 -1.93875 0.94875 -2.9375 1.4375 C-5.80477437 2.70193947 -5.80477437 2.70193947 -7 4 C-8.99958364 4.04080783 -11.00045254 4.04254356 -13 4 C-11.69696706 1.39393412 -10.68319019 1.08777981 -8 0 C-2.44444444 -1.22222222 -2.44444444 -1.22222222 0 0 Z " fill="#408462" transform="translate(332,170)"/>
<path d="M0 0 C-2.68841859 2.25245881 -4.64641875 3.88213958 -8 5 C-8 3.35 -8 1.7 -8 0 C-4.71023192 -1.09658936 -3.28696233 -0.79953138 0 0 Z " fill="#59BAA7" transform="translate(272,370)"/>
<path d="M0 0 C1.32 0.33 2.64 0.66 4 1 C2.37829621 2.00533667 0.75252763 3.00411907 -0.875 4 C-2.23238281 4.8353125 -2.23238281 4.8353125 -3.6171875 5.6875 C-6 7 -6 7 -8 7 C-8 6.01 -8 5.02 -8 4 C-6.865625 3.71125 -5.73125 3.4225 -4.5625 3.125 C-3.386875 2.75375 -2.21125 2.3825 -1 2 C-0.67 1.34 -0.34 0.68 0 0 Z " fill="#79C2B5" transform="translate(300,351)"/>
<path d="M0 0 C0.66 0.33 1.32 0.66 2 1 C0.35 2.98 -1.3 4.96 -3 7 C-5 6 -5 6 -7 4 C-1.7265625 0.77734375 -1.7265625 0.77734375 0 0 Z " fill="#67978F" transform="translate(314,237)"/>
<path d="M0 0 C1.32 0 2.64 0 4 0 C3.67 1.65 3.34 3.3 3 5 C2.01 5.33 1.02 5.66 0 6 C-0.66 5.67 -1.32 5.34 -2 5 C-1.34 3.35 -0.68 1.7 0 0 Z " fill="#ED7854" transform="translate(165,145)"/>
<path d="M0 0 C-2.64 1.98 -5.28 3.96 -8 6 C-8.66 5.67 -9.32 5.34 -10 5 C-9.67 4.01 -9.34 3.02 -9 2 C-8.01 2 -7.02 2 -6 2 C-6 1.34 -6 0.68 -6 0 C-3 -1 -3 -1 0 0 Z " fill="#72C5B4" transform="translate(262,376)"/>
<path d="M0 0 C-6.625 4 -6.625 4 -10 4 C-9.25 2.0625 -9.25 2.0625 -8 0 C-5.05360248 -1.27677226 -3.00864103 -0.96706319 0 0 Z " fill="#6CB7A6" transform="translate(394,300)"/>
<path d="M0 0 C2.0625 0.4375 2.0625 0.4375 4 1 C3.21625 1.45375 2.4325 1.9075 1.625 2.375 C-1.03698031 3.88428742 -1.03698031 3.88428742 -3 6 C-6.125 6.125 -6.125 6.125 -9 6 C-6.59027489 3.59027489 -4.04587368 2.49053393 -1 1 C-0.67 0.67 -0.34 0.34 0 0 Z " fill="#C8643D" transform="translate(252,268)"/>
<path d="M0 0 C0 0.66 0 1.32 0 2 C-3.27037599 5.27037599 -6.5130254 5.56856013 -11 6 C-9.73083275 3.46166551 -8.58375191 3.10599099 -6.0625 1.875 C-5.35222656 1.52179687 -4.64195312 1.16859375 -3.91015625 0.8046875 C-2 0 -2 0 0 0 Z " fill="#ED8973" transform="translate(356,43)"/>
<path d="M0 0 C2.97 0.495 2.97 0.495 6 1 C5.4225 1.268125 4.845 1.53625 4.25 1.8125 C1.94252104 2.95053246 1.94252104 2.95053246 -0.125 4.625 C-2 6 -2 6 -4 6 C-4.33 5.01 -4.66 4.02 -5 3 C-3.35 3 -1.7 3 0 3 C0 2.01 0 1.02 0 0 Z " fill="#EB7E5E" transform="translate(256,204)"/>
<path d="M0 0 C1.98 0 3.96 0 6 0 C6 0.99 6 1.98 6 3 C6.99 3.33 7.98 3.66 9 4 C9 4.66 9 5.32 9 6 C5.06326356 4.68775452 2.77280706 3.08089673 0 0 Z " fill="#34B095" transform="translate(344,201)"/>
<path d="M0 0 C1.98 0 3.96 0 6 0 C5.67 0.99 5.34 1.98 5 3 C0.545 3.495 0.545 3.495 -4 4 C-2.68 3.34 -1.36 2.68 0 2 C0 1.34 0 0.68 0 0 Z " fill="#BF663F" transform="translate(272,86)"/>
<path d="M0 0 C0.66 0.33 1.32 0.66 2 1 C0 4 0 4 -1.9453125 4.51171875 C-2.66460937 4.56972656 -3.38390625 4.62773438 -4.125 4.6875 C-6.043125 4.8421875 -6.043125 4.8421875 -8 5 C-5.31158141 2.74754119 -3.35358125 1.11786042 0 0 Z " fill="#EE8872" transform="translate(343,49)"/>
<path d="M0 0 C2.64 0.33 5.28 0.66 8 1 C8 1.66 8 2.32 8 3 C5.69 3.33 3.38 3.66 1 4 C0.67 2.68 0.34 1.36 0 0 Z " fill="#16A888" transform="translate(256,372)"/>
<path d="M0 0 C-3.20336822 2.83374881 -5.78087253 3.5205537 -10 4 C-4.75 -1.425 -4.75 -1.425 0 0 Z " fill="#907B59" transform="translate(358,321)"/>
<path d="M0 0 C0.99 0.495 0.99 0.495 2 1 C2.625 4.0625 2.625 4.0625 3 7 C3.66 7 4.32 7 5 7 C5.33 8.32 5.66 9.64 6 11 C5.34 11 4.68 11 4 11 C1.63496961 8.00893216 0.08446819 5.97138418 -0.25 2.125 C-0.1675 1.42375 -0.085 0.7225 0 0 Z " fill="#CF7861" transform="translate(161,259)"/>
<path d="M0 0 C0 0.99 0 1.98 0 3 C-4.75 4.125 -4.75 4.125 -7 3 C-7 2.34 -7 1.68 -7 1 C-4.53721199 -0.231394 -2.7204945 -0.07159196 0 0 Z " fill="#198C72" transform="translate(349,161)"/>
<path d="M0 0 C0.66 0.99 1.32 1.98 2 3 C-1.44069624 5.29379749 -2.72290301 6 -7 6 C-7 5.34 -7 4.68 -7 4 C-5.68 4 -4.36 4 -3 4 C-3 3.34 -3 2.68 -3 2 C-2.01 1.34 -1.02 0.68 0 0 Z " fill="#54B8A4" transform="translate(239,386)"/>
<path d="M0 0 C-4.95 2.475 -4.95 2.475 -10 5 C-8 1 -8 1 -5.5625 -0.3125 C-3 -1 -3 -1 0 0 Z " fill="#3A917A" transform="translate(348,325)"/>
<path d="M0 0 C3.34373475 0.55728913 6.03312999 1.35173889 9 3 C9 3.66 9 4.32 9 5 C5.625 4.75 5.625 4.75 2 4 C0.5625 1.9375 0.5625 1.9375 0 0 Z " fill="#F15B2C" transform="translate(214,295)"/>
<path d="M0 0 C0.66 0.33 1.32 0.66 2 1 C1.01 1.33 0.02 1.66 -1 2 C-1 2.66 -1 3.32 -1 4 C-4 6 -4 6 -6.1875 5.625 C-6.785625 5.41875 -7.38375 5.2125 -8 5 C-6.35 4.34 -4.7 3.68 -3 3 C-3 2.34 -3 1.68 -3 1 C-2.01 0.67 -1.02 0.34 0 0 Z " fill="#89664B" transform="translate(285,252)"/>
<path d="M0 0 C0.66 0.33 1.32 0.66 2 1 C0.90241493 1.84198307 -0.20335317 2.67330671 -1.3125 3.5 C-1.92738281 3.9640625 -2.54226562 4.428125 -3.17578125 4.90625 C-5 6 -5 6 -8 6 C-8 5.34 -8 4.68 -8 4 C-6.71349294 3.30289269 -5.42059335 2.61757124 -4.125 1.9375 C-3.40570313 1.55464844 -2.68640625 1.17179688 -1.9453125 0.77734375 C-1.30335938 0.52082031 -0.66140625 0.26429688 0 0 Z " fill="#CE3E17" transform="translate(180,248)"/>
<path d="M0 0 C2.42102911 1.18098981 3.82068009 2.2331559 5.5625 4.25 C3.5825 4.25 1.6025 4.25 -0.4375 4.25 C-0.4375 3.26 -0.4375 2.27 -0.4375 1.25 C-1.7575 0.92 -3.0775 0.59 -4.4375 0.25 C-2.4375 -0.75 -2.4375 -0.75 0 0 Z " fill="#B37867" transform="translate(266.4375,221.75)"/>
<path d="M0 0 C-1.45537568 0.83848804 -2.91440373 1.67063934 -4.375 2.5 C-5.59316406 3.19609375 -5.59316406 3.19609375 -6.8359375 3.90625 C-9 5 -9 5 -11 5 C-11 4.34 -11 3.68 -11 3 C-4.03571429 -1.41964286 -4.03571429 -1.41964286 0 0 Z " fill="#E35229" transform="translate(245,214)"/>
<path d="M0 0 C2.64 0 5.28 0 8 0 C8.33 0.99 8.66 1.98 9 3 C3.46153846 3.36923077 3.46153846 3.36923077 1.125 1.5 C0.75375 1.005 0.3825 0.51 0 0 Z " fill="#49BEA3" transform="translate(317,188)"/>
<path d="M0 0 C0.66 0.33 1.32 0.66 2 1 C-2.39453125 5.00390625 -2.39453125 5.00390625 -4 6 C-4.99 5.67 -5.98 5.34 -7 5 C-4.88437775 2.67281553 -2.94982021 1.14186589 0 0 Z " fill="#A56F4B" transform="translate(311,176)"/>
<path d="M0 0 C1.65 0.33 3.3 0.66 5 1 C5 2.32 5 3.64 5 5 C4.01 5 3.02 5 2 5 C2 4.34 2 3.68 2 3 C1.01 2.67 0.02 2.34 -1 2 C-0.67 1.34 -0.34 0.68 0 0 Z " fill="#699692" transform="translate(433,138)"/>
<path d="M0 0 C0.66 0.33 1.32 0.66 2 1 C-0.51830747 4.12270126 -1.7261549 4.94523098 -5.75 5.75 C-7.35875 5.87375 -7.35875 5.87375 -9 6 C-7.73295613 3.46591226 -6.56876843 3.06790028 -4.0625 1.8125 C-3.35222656 1.44769531 -2.64195312 1.08289063 -1.91015625 0.70703125 C-1.27980469 0.47371094 -0.64945313 0.24039063 0 0 Z " fill="#EE9377" transform="translate(188,131)"/>
<path d="M0 0 C-4.625 4 -4.625 4 -8 4 C-8 3.01 -8 2.02 -8 1 C-5.29120665 -0.35439668 -2.99066732 -0.06501451 0 0 Z " fill="#54BDA8" transform="translate(249,383)"/>
<path d="M0 0 C0.66 0 1.32 0 2 0 C1.67 0.99 1.34 1.98 1 3 C-1.28515625 3.94921875 -1.28515625 3.94921875 -4.0625 4.6875 C-5.44115234 5.06455078 -5.44115234 5.06455078 -6.84765625 5.44921875 C-7.55792969 5.63097656 -8.26820313 5.81273437 -9 6 C-6.52151039 3.3475813 -4.41321083 2.25749873 -1 1 C-0.67 0.67 -0.34 0.34 0 0 Z " fill="#E26636" transform="translate(346,327)"/>
<path d="M0 0 C0.556875 0.226875 1.11375 0.45375 1.6875 0.6875 C-5.0625 4.6875 -5.0625 4.6875 -7.3125 4.6875 C-7.3125 4.0275 -7.3125 3.3675 -7.3125 2.6875 C-3.15982824 -0.42700382 -3.15982824 -0.42700382 0 0 Z " fill="#4E7058" transform="translate(291.3125,251.3125)"/>
<path d="M0 0 C-0.8125 1.9375 -0.8125 1.9375 -2 4 C-2.99 4.33 -3.98 4.66 -5 5 C-5.33 3.68 -5.66 2.36 -6 1 C-3.92446352 0.4465236 -2.15634036 0 0 0 Z " fill="#439F8B" transform="translate(419,282)"/>
<path d="M0 0 C0.66 0.33 1.32 0.66 2 1 C1.01 1.33 0.02 1.66 -1 2 C-1 2.66 -1 3.32 -1 4 C-2.98 4.33 -4.96 4.66 -7 5 C-4.63707344 2.47411298 -3.33537489 1.11179163 0 0 Z " fill="#487E68" transform="translate(264,265)"/>
<path d="M0 0 C0.33 0.99 0.66 1.98 1 3 C-0.65 2.67 -2.3 2.34 -4 2 C-4 2.66 -4 3.32 -4 4 C-4.99 4 -5.98 4 -7 4 C-6.67 3.01 -6.34 2.02 -6 1 C-3 0 -3 0 0 0 Z " fill="#16584C" transform="translate(343,227)"/>
<path d="M0 0 C0.66 0.33 1.32 0.66 2 1 C0.625 2.5 0.625 2.5 -1 4 C-1.66 4 -2.32 4 -3 4 C-3 4.66 -3 5.32 -3 6 C-4.65 6 -6.3 6 -8 6 C-5.63404067 3.38499232 -3.13950774 1.61000397 0 0 Z " fill="#92A8A5" transform="translate(347,219)"/>
<path d="M0 0 C4.95 1.98 4.95 1.98 10 4 C10 4.33 10 4.66 10 5 C6.95613276 5.08226668 4.92824652 4.97608217 2 4 C2 3.34 2 2.68 2 2 C1.34 2 0.68 2 0 2 C0 1.34 0 0.68 0 0 Z " fill="#668E89" transform="translate(380,110)"/>
<path d="M0 0 C0.99 0.33 1.98 0.66 3 1 C-1.75 5.875 -1.75 5.875 -4 7 C-4 6.01 -4 5.02 -4 4 C-3.34 4 -2.68 4 -2 4 C-1.34 2.68 -0.68 1.36 0 0 Z " fill="#EA633A" transform="translate(305,69)"/>
<path d="M0 0 C0.66 0.33 1.32 0.66 2 1 C-0.06756277 3.7972908 -1.14440371 4.02692273 -4.6875 4.6875 C-5.780625 4.790625 -6.87375 4.89375 -8 5 C-5.31158141 2.74754119 -3.35358125 1.11786042 0 0 Z " fill="#EB9077" transform="translate(322,60)"/>
<path d="M0 0 C3.35595828 0.59927826 5.37801226 1.84622436 8 4 C6.02 4 4.04 4 2 4 C1.34 2.68 0.68 1.36 0 0 Z " fill="#7FAEA8" transform="translate(288,61)"/>
<path d="M0 0 C1.0625 1.875 1.0625 1.875 2 4 C1.67 4.66 1.34 5.32 1 6 C0.01 5.67 -0.98 5.34 -2 5 C-2.6875 2.9375 -2.6875 2.9375 -3 1 C-2.01 0.67 -1.02 0.34 0 0 Z " fill="#F0724E" transform="translate(364,380)"/>
<path d="M0 0 C0.99 0 1.98 0 3 0 C3 0.66 3 1.32 3 2 C-1.38461538 5 -1.38461538 5 -4 5 C-4 4.01 -4 3.02 -4 2 C-2.68 2 -1.36 2 0 2 C0 1.34 0 0.68 0 0 Z " fill="#4C8D6D" transform="translate(360,315)"/>
<path d="M0 0 C2.31 0.33 4.62 0.66 7 1 C7.33 2.32 7.66 3.64 8 5 C4.62496331 3.8141763 2.35277269 2.72426311 0 0 Z " fill="#E58974" transform="translate(167,270)"/>
<path d="M0 0 C0 0.66 0 1.32 0 2 C-2.3125 3.125 -2.3125 3.125 -5 4 C-5.99 3.34 -6.98 2.68 -8 2 C-5.09399739 0.74335022 -3.20395416 0 0 0 Z " fill="#23655B" transform="translate(323,236)"/>
<path d="M0 0 C3.82097239 0.53069061 6.06171403 1.49701566 9 4 C6.36 3.67 3.72 3.34 1 3 C0.67 2.01 0.34 1.02 0 0 Z " fill="#BF8772" transform="translate(272,226)"/>
<path d="M0 0 C1.9375 0.3125 1.9375 0.3125 4 1 C4.33 1.99 4.66 2.98 5 4 C4.01 4.33 3.02 4.66 2 5 C1.01 4.34 0.02 3.68 -1 3 C-0.67 2.01 -0.34 1.02 0 0 Z " fill="#96351B" transform="translate(268,225)"/>
<path d="M0 0 C0.33 1.65 0.66 3.3 1 5 C0.401875 4.67 -0.19625 4.34 -0.8125 4 C-3.05386471 2.79212012 -3.05386471 2.79212012 -6 3 C-3.375 0 -3.375 0 0 0 Z " fill="#51857E" transform="translate(404,121)"/>
</svg>
