<?xml version="1.0" encoding="UTF-8"?>
<svg version="1.1" xmlns="http://www.w3.org/2000/svg" width="225" height="225">
<path d="M0 0 C0.66 0 1.32 0 2 0 C6.72838949 8.86298122 8.41980627 15.87147908 5.4375 25.8125 C0.82176231 38.77207122 -9.12678054 48.94077574 -19.5625 57.5625 C-28.11618176 64.66028852 -35.96493678 71.52097151 -38 83 C-38 94.89959 -30.61224657 104.5681611 -23.63671875 113.58984375 C-22.1155092 115.82990651 -21.42305963 117.35741014 -21 120 C-25.67631809 117.89293993 -28.74013499 114.60317264 -32.3125 111 C-32.98385986 110.32300049 -33.65521973 109.64600098 -34.34692383 108.94848633 C-42.02655734 101.07992504 -50.20348549 91.91272267 -51.2265625 80.46484375 C-50.86527828 71.47442486 -45.51571441 64.94178426 -39.2265625 58.9296875 C-35.18230064 55.42466055 -30.92915726 52.18051714 -26.70703125 48.89453125 C-13.1959349 38.5200871 -13.1959349 38.5200871 -3 25 C-2.64292969 24.40445312 -2.28585938 23.80890625 -1.91796875 23.1953125 C1.46330695 16.24748571 0.23058615 7.51540058 0 0 Z " fill="#E62C2E" transform="translate(134,3)"/>
<path d="M0 0 C1.28970703 -0.02126953 1.28970703 -0.02126953 2.60546875 -0.04296875 C4.8125 0.1875 4.8125 0.1875 6.8125 2.1875 C5.70390625 2.45304688 4.5953125 2.71859375 3.453125 2.9921875 C1.98952189 3.34870621 0.52598359 3.70549103 -0.9375 4.0625 C-1.66710937 4.23652344 -2.39671875 4.41054687 -3.1484375 4.58984375 C-6.72035028 5.46658598 -9.98123841 6.31436823 -13.1875 8.1875 C-13.1875 8.8475 -13.1875 9.5075 -13.1875 10.1875 C5.30596022 16.81298314 24.14624427 16.5583563 43.5625 16.5 C45.38950439 16.49776428 45.38950439 16.49776428 47.25341797 16.4954834 C84.37313141 18.01508995 84.37313141 18.01508995 118.8125 7.1875 C119.06280977 4.60369823 119.06280977 4.60369823 118.8125 2.1875 C120.7925 2.6825 120.7925 2.6825 122.8125 3.1875 C123.1425 5.1675 123.4725 7.1475 123.8125 9.1875 C104.24526147 26.30883371 66.83280814 24.41804854 42.375 24.4375 C40.88441071 24.43950912 40.88441071 24.43950912 39.3637085 24.44155884 C22.67192927 24.43669321 6.34262931 23.67433361 -10.1875 21.1875 C-11.04005371 21.05939941 -11.89260742 20.93129883 -12.77099609 20.79931641 C-24.9067029 18.88315217 -24.9067029 18.88315217 -29.1875 15.1875 C-29.125 13 -29.125 13 -28.1875 10.1875 C-20.58548171 3.41178804 -10.11764641 0.07653288 0 0 Z " fill="#156FAC" transform="translate(60.1875,187.8125)"/>
<path d="M0 0 C0 0.66 0 1.32 0 2 C-0.85980469 2.46148437 -1.71960938 2.92296875 -2.60546875 3.3984375 C-22.26551044 13.85985933 -22.26551044 13.85985933 -35 31 C-36.18458097 39.14399416 -32.42753381 44.36343968 -28 51 C-27.44957031 51.71671875 -26.89914063 52.4334375 -26.33203125 53.171875 C-23.51605958 57.03661031 -23.30528417 61.40050207 -24 66 C-26.47016937 72.55757968 -30.44300351 76.89150971 -36 81 C-36.804375 81.61875 -37.60875 82.2375 -38.4375 82.875 C-38.953125 83.24625 -39.46875 83.6175 -40 84 C-40.66 83.67 -41.32 83.34 -42 83 C-41.45859375 82.29037109 -41.45859375 82.29037109 -40.90625 81.56640625 C-37.74303382 77.05882319 -36.23130592 73.64066833 -36.58203125 68.0859375 C-37.2544259 64.73024832 -38.89075683 62.66430717 -41 60 C-42.05583605 58.48896932 -43.09667476 56.96738584 -44.125 55.4375 C-44.62257813 54.71433594 -45.12015625 53.99117187 -45.6328125 53.24609375 C-49.62176751 46.69281052 -49.70356758 40.51994954 -49 33 C-46.51603002 23.14747478 -36.7147234 15.80429657 -28.44921875 10.76953125 C-7.45695364 0 -7.45695364 0 0 0 Z " fill="#E32C2E" transform="translate(162,47)"/>
<path d="M0 0 C1.17175781 0.01353516 1.17175781 0.01353516 2.3671875 0.02734375 C2.94726562 0.03894531 3.52734375 0.05054687 4.125 0.0625 C1.97138547 2.21611453 0.88069626 2.60643708 -1.97265625 3.46484375 C-2.77380859 3.71556641 -3.57496094 3.96628906 -4.40039062 4.22460938 C-6.09428401 4.74229658 -7.78961348 5.25530756 -9.48632812 5.76367188 C-10.28619141 6.01568359 -11.08605469 6.26769531 -11.91015625 6.52734375 C-12.6462915 6.750271 -13.38242676 6.97319824 -14.14086914 7.20288086 C-14.71313232 7.48655518 -15.28539551 7.77022949 -15.875 8.0625 C-16.205 9.0525 -16.535 10.0425 -16.875 11.0625 C-8.1317343 13.05421798 0.3716654 13.41929594 9.3125 13.375 C10.02010468 13.37417419 10.72770935 13.37334839 11.45675659 13.37249756 C27.45570433 13.33009023 43.24157265 11.89848138 59.125 10.0625 C60.58075439 9.89500244 60.58075439 9.89500244 62.06591797 9.72412109 C66.42539817 9.21425464 70.77788293 8.67023841 75.125 8.0625 C69.63669633 14.51932785 62.38502395 15.95367297 54.4375 17.25 C53.06174805 17.4965332 53.06174805 17.4965332 51.65820312 17.74804688 C38.82203863 19.96365319 26.09056208 20.24894622 13.09936523 20.24780273 C10.32845646 20.24998742 7.55794805 20.26819999 4.78710938 20.28710938 C-23.65415655 20.37733859 -23.65415655 20.37733859 -33.875 15.0625 C-34.5703125 12.9609375 -34.5703125 12.9609375 -34.875 11.0625 C-29.74833974 7.32431022 -24.76164439 5.16980634 -18.75 3.3125 C-18.069375 3.10214111 -17.38875 2.89178223 -16.6875 2.67504883 C-11.11226643 1.01752863 -5.82251521 -0.08821993 0 0 Z " fill="#086FB4" transform="translate(83.875,122.9375)"/>
<path d="M0 0 C0.66 0.33 1.32 0.66 2 1 C1.34 2.32 0.68 3.64 0 5 C15.07523329 7.0896363 29.49192841 7.84106332 44.59765625 5.4375 C50.66135571 4.65778204 55.00061152 4.52088303 60.4375 7.5 C61.30246094 7.9640625 62.16742188 8.428125 63.05859375 8.90625 C63.69925781 9.2671875 64.33992188 9.628125 65 10 C65 10.66 65 11.32 65 12 C44.09304617 19.48309003 19.78427774 23.50795787 -1.55078125 14.98046875 C-4.41985653 13.61982381 -6.74733033 12.25266967 -9 10 C-9.5 7.625 -9.5 7.625 -9 5 C-6.06221639 2.64977311 -3.56697062 1.18899021 0 0 Z " fill="#0672B9" transform="translate(82,172)"/>
<path d="M0 0 C0 2 0 4 0 6 C6.87988219 8.57602895 13.75064407 8.70981081 21 9 C22.13308594 9.05414063 23.26617187 9.10828125 24.43359375 9.1640625 C35.86209539 9.44945074 47.0725731 7.80999008 58.37548828 6.27539062 C63.27377013 5.76141277 66.16864545 5.69060708 70.3125 8.5 C71.00988281 8.9640625 71.70726562 9.428125 72.42578125 9.90625 C72.94527344 10.2671875 73.46476562 10.628125 74 11 C71.16070669 13.83929331 67.8698142 14.17744444 64.0625 15 C63.26271729 15.17370117 62.46293457 15.34740234 61.63891602 15.52636719 C40.43443842 19.93045352 13.44927708 22.80454985 -7 14 C-9.6875 12.0625 -9.6875 12.0625 -11 10 C-11.0625 8 -11.0625 8 -10 6 C-6.92159754 3.0926199 -3.99452176 1.36955032 0 0 Z " fill="#0373BA" transform="translate(77,148)"/>
<path d="M0 0 C0.33 0.99 0.66 1.98 1 3 C-2.40018394 9.76829067 -9.17850595 12.72089294 -16 15 C-27.45301433 18.26424978 -39.16004896 19.95294891 -51 21 C-52.23492187 21.11214844 -53.46984375 21.22429687 -54.7421875 21.33984375 C-80.29985679 23.27925109 -107.29611224 23.48382482 -132 16 C-132 15.34 -132 14.68 -132 14 C-130.25420654 14.21112427 -130.25420654 14.21112427 -128.47314453 14.42651367 C-114.91907589 15.97460462 -101.50896859 16.35940419 -87.875 16.3125 C-86.80071747 16.31100952 -85.72643494 16.30951904 -84.61959839 16.3079834 C-68.58184556 16.26801689 -52.82388731 15.86276485 -37 13 C-36.15614746 12.85014648 -35.31229492 12.70029297 -34.44287109 12.54589844 C-15.93603588 9.1836907 -15.93603588 9.1836907 0 0 Z " fill="#1974B0" transform="translate(193,201)"/>
<path d="M0 0 C1.32 0.33 2.64 0.66 4 1 C4.495 3.97 4.495 3.97 5 7 C-15.04062131 24.53554364 -53.33433047 22.16587643 -78.25 22.0625 C-80.36328019 22.05747533 -82.47656154 22.05291413 -84.58984375 22.04882812 C-89.72659142 22.03789833 -94.86328274 22.0206869 -100 22 C-100 21.67 -100 21.34 -100 21 C-85.48 20.34 -70.96 19.68 -56 19 C-55.67 18.34 -55.34 17.68 -55 17 C-56.22630127 17.01047363 -57.45260254 17.02094727 -58.71606445 17.03173828 C-63.26144497 17.06791104 -67.80681273 17.09089057 -72.35229492 17.10986328 C-74.32041564 17.11992707 -76.28852138 17.13357934 -78.2565918 17.15087891 C-81.08385918 17.17511059 -83.91092905 17.18647923 -86.73828125 17.1953125 C-87.61962234 17.20563507 -88.50096344 17.21595764 -89.40901184 17.22659302 C-90.22963608 17.22674408 -91.05026031 17.22689514 -91.89575195 17.22705078 C-92.61745071 17.231492 -93.33914948 17.23593323 -94.0827179 17.24050903 C-96 17 -96 17 -99 15 C-98.41293777 14.99413376 -97.82587555 14.98826752 -97.22102356 14.98222351 C-46.94690243 17.88859336 -46.94690243 17.88859336 0 5 C0.25030977 2.41619823 0.25030977 2.41619823 0 0 Z " fill="#1D71AB" transform="translate(179,190)"/>
<path d="M0 0 C4.38733216 2.54891565 7.77714429 5.4886369 9.3515625 10.48046875 C10.39596645 16.42947557 9.1074471 20.48648738 5.6875 25.375 C-0.48314958 34.0215275 -12.63564936 39.5973239 -22.8125 41.875 C-24.545 42.1225 -24.545 42.1225 -26.3125 42.375 C-23.47467076 39.31836617 -20.66375984 37.27108605 -17.0625 35.1875 C-10.00236065 30.79263414 -4.01196886 25.42124293 -1.3125 17.375 C-0.80493505 13.39907454 -1.14178601 11.69204027 -3.0625 8.125 C-5.27625341 5.41930139 -6.1437554 4.55227664 -9.3125 3.375 C-12.36264928 3.13389241 -12.36264928 3.13389241 -15.5625 3.25 C-17.17898437 3.27707031 -17.17898437 3.27707031 -18.828125 3.3046875 C-20.05789062 3.33949219 -20.05789062 3.33949219 -21.3125 3.375 C-15.5781211 -2.7548533 -7.64551617 -3.50298364 0 0 Z " fill="#0472BA" transform="translate(184.3125,122.625)"/>
<path d="M0 0 C0.69738281 0.4640625 1.39476562 0.928125 2.11328125 1.40625 C2.63277344 1.7671875 3.15226562 2.128125 3.6875 2.5 C0.84820669 5.33929331 -2.4426858 5.67744444 -6.25 6.5 C-7.04978271 6.67370117 -7.84956543 6.84740234 -8.67358398 7.02636719 C-26.29556095 10.68638228 -44.43383625 11.77030651 -62.3125 9.5 C-62.3125 9.17 -62.3125 8.84 -62.3125 8.5 C-61.53124756 8.47494385 -60.74999512 8.4498877 -59.94506836 8.42407227 C-56.37990383 8.30749797 -52.81496387 8.18505135 -49.25 8.0625 C-48.02087891 8.02318359 -46.79175781 7.98386719 -45.52539062 7.94335938 C-39.71118411 7.73962707 -34.05128528 7.45646421 -28.3125 6.5 C-26.64621045 6.46454703 -24.97840197 6.44951812 -23.3125 6.5 C-23.3125 5.84 -23.3125 5.18 -23.3125 4.5 C-27.42498383 3.53457982 -31.3640157 3.30510037 -35.58203125 3.18359375 C-36.26303391 3.16281265 -36.94403656 3.14203156 -37.64567566 3.12062073 C-39.80535508 3.05562122 -41.96514846 2.99647288 -44.125 2.9375 C-45.59571456 2.8942675 -47.06641791 2.85065175 -48.53710938 2.80664062 C-52.12878717 2.69999141 -55.72059082 2.59858651 -59.3125 2.5 C-59.3125 1.84 -59.3125 1.18 -59.3125 0.5 C-58.37289429 0.52356567 -58.37289429 0.52356567 -57.41430664 0.54760742 C-41.96190236 0.87978155 -27.07346879 0.00533751 -11.77832031 -2.22460938 C-6.94561108 -2.76434165 -4.08614894 -2.77027047 0 0 Z " fill="#0E72B2" transform="translate(147.3125,156.5)"/>
<path d="M0 0 C-2.15967574 2.15967574 -3.19549909 2.51194005 -6.0625 3.33203125 C-6.85914063 3.57373047 -7.65578125 3.81542969 -8.4765625 4.06445312 C-10.15569543 4.56221467 -11.83804495 5.04925418 -13.5234375 5.52539062 C-18.4382056 6.89771919 -18.4382056 6.89771919 -21.5625 10.69921875 C-21.706875 11.45847656 -21.85125 12.21773437 -22 13 C-20.68 13 -19.36 13 -18 13 C-18 13.66 -18 14.32 -18 15 C-17.20335938 14.98839844 -16.40671875 14.97679687 -15.5859375 14.96484375 C-14.52632812 14.95582031 -13.46671875 14.94679687 -12.375 14.9375 C-11.33085938 14.92589844 -10.28671875 14.91429687 -9.2109375 14.90234375 C-6 15 -6 15 -3.125 15.5 C0.741352 16.11861632 4.46855347 16.10841664 8.375 16.0625 C9.11105469 16.05798828 9.84710938 16.05347656 10.60546875 16.04882812 C12.40368158 16.03715142 14.20185197 16.01922011 16 16 C16 16.66 16 17.32 16 18 C2.55691661 18.92957492 -10.55691661 18.92957492 -24 18 C-24.33 17.34 -24.66 16.68 -25 16 C-26.11375 16.020625 -27.2275 16.04125 -28.375 16.0625 C-32 16 -32 16 -34 15 C-35.66194453 14.64386903 -37.328451 14.30791692 -39 14 C-38.8125 12.1875 -38.8125 12.1875 -38 10 C-27.85482701 2.54031398 -12.41341922 -0.90279413 0 0 Z " fill="#0472BA" transform="translate(88,123)"/>
<path d="M0 0 C0.66 0.33 1.32 0.66 2 1 C1.33613281 1.56847656 0.67226562 2.13695312 -0.01171875 2.72265625 C-10.10547261 11.35680746 -10.10547261 11.35680746 -15.37109375 23.2265625 C-15.56530729 30.24109873 -13.56282208 35.01954866 -10 41 C-9.01 41 -8.02 41 -7 41 C-6.67 38.03 -6.34 35.06 -6 32 C-5.67 32 -5.34 32 -5 32 C-4.86464844 32.58265625 -4.72929688 33.1653125 -4.58984375 33.765625 C-1.96142996 43.77563202 3.30503184 52.31843454 9.8359375 60.28125 C11.11751948 62.1735187 11.57905525 63.76801386 12 66 C7.32368191 63.89293993 4.25986501 60.60317264 0.6875 57 C0.01614014 56.32300049 -0.65521973 55.64600098 -1.34692383 54.94848633 C-9.02655734 47.07992504 -17.20348549 37.91272267 -18.2265625 26.46484375 C-17.85003596 17.09512563 -12.12795997 10.6671857 -5.61328125 4.44140625 C-3.82028599 2.83943228 -1.98917208 1.35263701 0 0 Z " fill="#CE2E32" transform="translate(101,57)"/>
<path d="M0 0 C3.27081471 -0.02902429 6.5415963 -0.04680684 9.8125 -0.0625 C10.74126953 -0.07087891 11.67003906 -0.07925781 12.62695312 -0.08789062 C13.51962891 -0.09111328 14.41230469 -0.09433594 15.33203125 -0.09765625 C16.56530151 -0.10551147 16.56530151 -0.10551147 17.82348633 -0.11352539 C20 0 20 0 23 1 C24.36515314 1.11265547 25.73477212 1.17582586 27.10424805 1.20532227 C28.3351844 1.2352401 28.3351844 1.2352401 29.59098816 1.26576233 C30.9129998 1.29083107 30.9129998 1.29083107 32.26171875 1.31640625 C33.62040825 1.3475779 33.62040825 1.3475779 35.00654602 1.37937927 C37.90012016 1.44476558 40.79378507 1.50370904 43.6875 1.5625 C45.64909793 1.6056956 47.61068668 1.64931023 49.57226562 1.69335938 C54.38141739 1.80043582 59.19066046 1.90173414 64 2 C63.67 2.99 63.34 3.98 63 5 C37.90678705 6.09633373 37.90678705 6.09633373 26.5 6.125 C25.39035889 6.13176758 25.39035889 6.13176758 24.25830078 6.13867188 C19.24855902 6.12427951 19.24855902 6.12427951 17 5 C13.69105541 4.72241876 10.38229929 4.55303695 7.06640625 4.37890625 C4 4 4 4 1 2 C0.67 1.34 0.34 0.68 0 0 Z " fill="#0272BD" transform="translate(60,205)"/>
<path d="M0 0 C-0.99 2.31 -1.98 4.62 -3 7 C-2.2575 6.938125 -1.515 6.87625 -0.75 6.8125 C2 7 2 7 3.875 8.4375 C6.78358509 10.57616551 9.46252551 10.65985822 13 11 C11 14 11 14 9.12402344 14.38818359 C8.37668945 14.39156738 7.62935547 14.39495117 6.859375 14.3984375 C5.62380859 14.40423828 5.62380859 14.40423828 4.36328125 14.41015625 C3.06970703 14.39275391 3.06970703 14.39275391 1.75 14.375 C0.90308594 14.38660156 0.05617188 14.39820313 -0.81640625 14.41015625 C-5.94513203 14.38622751 -9.57149583 13.86343851 -14 11 C-15.1875 9.125 -15.1875 9.125 -15 7 C-10.28359822 1.49753126 -7.22310193 -0.27256988 0 0 Z " fill="#0D72B6" transform="translate(46,193)"/>
<path d="M0 0 C1.6392041 0.21438721 1.6392041 0.21438721 3.31152344 0.43310547 C18.95500869 2.3160276 34.51456384 2.22780795 50.25 2.125 C52.95311915 2.11377969 55.65624472 2.10568273 58.359375 2.09765625 C64.90633125 2.07587713 71.45314793 2.04261997 78 2 C78 2.66 78 3.32 78 4 C63.81 4 49.62 4 35 4 C35 4.66 35 5.32 35 6 C35.99257812 5.98839844 36.98515625 5.97679687 38.0078125 5.96484375 C47.06346994 5.89311577 55.97218507 6.21006619 65 7 C65 7.33 65 7.66 65 8 C43.04878767 8.36398694 21.17587509 8.41504451 0 2 C0 1.34 0 0.68 0 0 Z " fill="#1B6EA8" transform="translate(61,215)"/>
<path d="M0 0 C4.16259361 -0.0248456 8.32514713 -0.04292862 12.48779297 -0.05493164 C13.90186313 -0.0599392 15.31592816 -0.06674718 16.72998047 -0.07543945 C18.77052073 -0.08766256 20.81099212 -0.0932642 22.8515625 -0.09765625 C24.68968506 -0.10551147 24.68968506 -0.10551147 26.56494141 -0.11352539 C29.80432849 -0.00646676 32.82183197 0.38521382 36 1 C36.495 2.485 36.495 2.485 37 4 C34.66666667 4.33333333 32.33333333 4.66666667 30 5 C29.01 5.1753125 28.02 5.350625 27 5.53125 C21.71414865 6.28637162 16.38940505 6.10548558 11.0625 6.0625 C9.46438477 6.05573242 9.46438477 6.05573242 7.83398438 6.04882812 C5.22259709 6.03711787 2.61132876 6.02071724 0 6 C-1.125 2.25 -1.125 2.25 0 0 Z " fill="#0174BD" transform="translate(89,159)"/>
<path d="M0 0 C5.28 0 10.56 0 16 0 C16 0.66 16 1.32 16 2 C14.71802734 2.07347656 14.71802734 2.07347656 13.41015625 2.1484375 C12.30542969 2.22320312 11.20070312 2.29796875 10.0625 2.375 C8.96035156 2.44460937 7.85820312 2.51421875 6.72265625 2.5859375 C5.37494141 2.79089844 5.37494141 2.79089844 4 3 C3.67 3.66 3.34 4.32 3 5 C-29.51428851 5.20638953 -29.51428851 5.20638953 -43 4 C-43 3.34 -43 2.68 -43 2 C-28.81 2 -14.62 2 0 2 C0 1.34 0 0.68 0 0 Z " fill="#056EB7" transform="translate(139,217)"/>
<path d="M0 0 C0.86496094 0.4640625 1.72992188 0.928125 2.62109375 1.40625 C3.58208984 1.94765625 3.58208984 1.94765625 4.5625 2.5 C4.5625 3.16 4.5625 3.82 4.5625 4.5 C3.31586669 5.00833591 2.06500613 5.50631145 0.8125 6 C0.11640625 6.2784375 -0.5796875 6.556875 -1.296875 6.84375 C-3.4375 7.5 -3.4375 7.5 -7.4375 7.5 C-6.7775 5.19 -6.1175 2.88 -5.4375 0.5 C-9.57843698 0.29029441 -9.57843698 0.29029441 -13.4375 1.5 C-16.04023432 1.61093316 -18.61541366 1.66410078 -21.21875 1.66796875 C-21.98803833 1.67129715 -22.75732666 1.67462555 -23.54992676 1.67805481 C-25.17732138 1.68312004 -26.8047264 1.68546326 -28.43212891 1.68530273 C-30.92758175 1.6874913 -33.42259405 1.70565654 -35.91796875 1.72460938 C-37.49739432 1.72754291 -39.07682199 1.72952797 -40.65625 1.73046875 C-41.4052356 1.73765427 -42.15422119 1.74483978 -42.92590332 1.75224304 C-48.2086724 1.7288276 -48.2086724 1.7288276 -50.4375 -0.5 C-49.51022095 -0.48428955 -49.51022095 -0.48428955 -48.56420898 -0.46826172 C-37.43565553 -0.30507736 -26.59691734 -0.21149989 -15.59375 -2.0625 C-9.62795239 -2.88944224 -5.34537317 -2.9289716 0 0 Z " fill="#166FAA" transform="translate(142.4375,179.5)"/>
<path d="M0 0 C3.82143592 2.15488679 6.12379923 4.84991144 8.6875 8.375 C8.3575 9.035 8.0275 9.695 7.6875 10.375 C6.965625 9.405625 6.24375 8.43625 5.5 7.4375 C3.55512407 5.07586494 2.8992465 4.44087669 -0.125 3.5 C-0.846875 3.45875 -1.56875 3.4175 -2.3125 3.375 C-1.961875 4.138125 -1.61125 4.90125 -1.25 5.6875 C-0.3125 8.375 -0.3125 8.375 -1.3125 11.375 C-1.89 10.42625 -2.4675 9.4775 -3.0625 8.5 C-5.28161926 5.41788992 -5.90688949 4.60480379 -9.3125 3.375 C-12.36264928 3.13389241 -12.36264928 3.13389241 -15.5625 3.25 C-17.17898437 3.27707031 -17.17898437 3.27707031 -18.828125 3.3046875 C-19.64796875 3.32789062 -20.4678125 3.35109375 -21.3125 3.375 C-15.5781211 -2.7548533 -7.64551617 -3.50298364 0 0 Z " fill="#146FAA" transform="translate(184.3125,122.625)"/>
<path d="M0 0 C0.33 0 0.66 0 1 0 C1.42105485 6.10529532 1.10167827 9.14274942 -3 14 C-4.94365381 15.74977313 -6.95597459 17.36477967 -9 19 C-9.33 19.66 -9.66 20.32 -10 21 C-9.401875 20.649375 -8.80375 20.29875 -8.1875 19.9375 C-6 19 -6 19 -3 20 C-10.55406899 24.01880768 -17.44798884 27.67296379 -26 29 C-23.16217076 25.94336617 -20.35125984 23.89608605 -16.75 21.8125 C-8.64522216 16.73076095 -2.93623327 11.0168529 -0.375 1.65234375 C-0.25125 1.10707031 -0.1275 0.56179687 0 0 Z " fill="#176FA9" transform="translate(184,136)"/>
<path d="M0 0 C0.66 0.33 1.32 0.66 2 1 C1.34 2.32 0.68 3.64 0 5 C2.64 5.33 5.28 5.66 8 6 C8 6.33 8 6.66 8 7 C5.69 7 3.38 7 1 7 C0.34 8.32 -0.32 9.64 -1 11 C-0.34 11.33 0.32 11.66 1 12 C1 12.99 1 13.98 1 15 C-3.37820092 14.49963418 -5.9197537 13.16825333 -9 10 C-9.6875 7.5 -9.6875 7.5 -9 5 C-6.06221639 2.64977311 -3.56697062 1.18899021 0 0 Z " fill="#0D70B2" transform="translate(82,172)"/>
<path d="M0 0 C0.66 0.66 1.32 1.32 2 2 C0.33710937 2.39832031 0.33710937 2.39832031 -1.359375 2.8046875 C-2.82297811 3.16120621 -4.28651641 3.51799103 -5.75 3.875 C-6.47960937 4.04902344 -7.20921875 4.22304687 -7.9609375 4.40234375 C-11.53285028 5.27908598 -14.79373841 6.12686823 -18 8 C-18 8.66 -18 9.32 -18 10 C-15.36 10.99 -12.72 11.98 -10 13 C-14.96570849 14.24142712 -17.15547062 13.37261666 -22 12 C-21.34 10.02 -20.68 8.04 -20 6 C-20.99 6 -21.98 6 -23 6 C-23 5.34 -23 4.68 -23 4 C-7.75438596 -1.35269208 -7.75438596 -1.35269208 0 0 Z " fill="#126DAB" transform="translate(65,188)"/>
<path d="M0 0 C0 2 0 4 0 6 C1.98 6.66 3.96 7.32 6 8 C6 8.33 6 8.66 6 9 C2.37 9 -1.26 9 -5 9 C-5.33 10.32 -5.66 11.64 -6 13 C-4.989375 13.12375 -3.97875 13.2475 -2.9375 13.375 C0.87937612 13.98085335 4.31500112 14.87193912 8 16 C8 16.33 8 16.66 8 17 C1.2176053 16.55399219 -4.35633434 15.6188847 -10 11.5625 C-11 10 -11 10 -11 8.0625 C-9.14637247 4.23939321 -5.97521974 2.43343099 -2.1875 0.75 C-1.465625 0.5025 -0.74375 0.255 0 0 Z " fill="#1670AC" transform="translate(77,148)"/>
<path d="M0 0 C1.17175781 0.01353516 1.17175781 0.01353516 2.3671875 0.02734375 C2.94726562 0.03894531 3.52734375 0.05054687 4.125 0.0625 C1.98914206 2.19835794 0.91994635 2.60086458 -1.90234375 3.46484375 C-2.69447266 3.71556641 -3.48660156 3.96628906 -4.30273438 4.22460938 C-5.97124571 4.74009498 -7.64051596 5.25313076 -9.31054688 5.76367188 C-10.10396484 6.01568359 -10.89738281 6.26769531 -11.71484375 6.52734375 C-12.44050537 6.750271 -13.16616699 6.97319824 -13.91381836 7.20288086 C-16.09199723 8.15761356 -17.31153298 9.29217143 -18.875 11.0625 C-19.205 9.7425 -19.535 8.4225 -19.875 7.0625 C-24.33 7.5575 -24.33 7.5575 -28.875 8.0625 C-26.09100232 5.27850232 -22.80429602 4.6110419 -19.125 3.5 C-18.42117187 3.27892578 -17.71734375 3.05785156 -16.9921875 2.83007812 C-11.3430929 1.09229903 -5.94594138 -0.09009002 0 0 Z " fill="#1A71AD" transform="translate(83.875,122.9375)"/>
<path d="M0 0 C0.66 0 1.32 0 2 0 C5.71931241 6.97154839 7.15704664 11.99062134 7 20 C6.34 20 5.68 20 5 20 C4.67 16.37 4.34 12.74 4 9 C3.979375 10.4025 3.95875 11.805 3.9375 13.25 C3.19207783 21.04911856 -1.19278861 28.7450081 -7 34 C-7.66 33.67 -8.32 33.34 -9 33 C-8.60167969 32.5153125 -8.20335938 32.030625 -7.79296875 31.53125 C0.40736612 21.15613046 0.38948438 12.69430566 0 0 Z " fill="#C82B2E" transform="translate(134,3)"/>
<path d="M0 0 C0 0.66 0 1.32 0 2 C-0.95261719 2.54269531 -1.90523437 3.08539063 -2.88671875 3.64453125 C-4.15366244 4.36715839 -5.42058859 5.08981627 -6.6875 5.8125 C-7.31333984 6.16892578 -7.93917969 6.52535156 -8.58398438 6.89257812 C-12.08115525 8.8883458 -15.55626286 10.91268705 -19 13 C-18.67 12.01 -18.34 11.02 -18 10 C-17.34 9.67 -16.68 9.34 -16 9 C-19.69900008 9.88776002 -23.34550461 10.94581864 -27 12 C-27 12.66 -27 13.32 -27 14 C-29.31 14.66 -31.62 15.32 -34 16 C-27.46900594 8.72033101 -10.14234173 0 0 0 Z " fill="#CD282D" transform="translate(162,47)"/>
<path d="M0 0 C0.66 0.33 1.32 0.66 2 1 C3.37342831 1.0689472 4.75002102 1.08467708 6.125 1.0625 C7.40375 1.041875 8.6825 1.02125 10 1 C10 1.99 10 2.98 10 4 C11.08410156 3.98839844 12.16820313 3.97679687 13.28515625 3.96484375 C29.2042427 3.85453393 45.09415158 4.42249913 61 5 C61 5.33 61 5.66 61 6 C55.29322536 6.05006956 49.58658331 6.08603072 43.87963867 6.10986328 C41.94504565 6.11981638 40.01046725 6.13338371 38.07592773 6.15087891 C10.25648059 6.3958572 10.25648059 6.3958572 -2 2 C-1.34 1.34 -0.68 0.68 0 0 Z " fill="#206FA3" transform="translate(54,137)"/>
<path d="M0 0 C0 0.66 0 1.32 0 2 C-4.09077652 3.92095399 -7.63001221 4.33822779 -12.125 4.5625 C-17.15118139 4.80782181 -17.15118139 4.80782181 -22 6 C-23.56118428 6.06740865 -25.1250252 6.08514456 -26.6875 6.0625 C-27.89986328 6.04896484 -27.89986328 6.04896484 -29.13671875 6.03515625 C-30.05904297 6.01775391 -30.05904297 6.01775391 -31 6 C-26.51771106 1.0908264 -20.93821017 1.69000734 -14.71679688 1.39453125 C-9.55355933 1.11953788 -5.23581465 -0.09695953 0 0 Z " fill="#0371BA" transform="translate(159,203)"/>
<path d="M0 0 C2.84614024 2.84614024 2.45579076 5.80369142 2.625 9.625 C2.66367188 10.33140625 2.70234375 11.0378125 2.7421875 11.765625 C2.83647724 13.50998524 2.91932891 15.25495691 3 17 C2.01 17.66 1.02 18.32 0 19 C-0.72965366 21.56282742 -0.72965366 21.56282742 -1 24 C-1.66 24 -2.32 24 -3 24 C-3.33 24.99 -3.66 25.98 -4 27 C-4 26.34 -4 25.68 -4 25 C-4.66 25 -5.32 25 -6 25 C-5.63556705 21.26456229 -5.0467472 19.07304249 -3 15.875 C0.00890897 11.04548306 -0.18207202 5.54409286 0 0 Z " fill="#EC2A2D" transform="translate(137,10)"/>
<path d="M0 0 C2.625 0.3125 2.625 0.3125 4.5 1.75 C7.40858509 3.88866551 10.08752551 3.97235822 13.625 4.3125 C12.635 5.7975 12.635 5.7975 11.625 7.3125 C9.05114795 7.5898676 6.75468247 7.68537588 4.1875 7.625 C3.50623047 7.62822266 2.82496094 7.63144531 2.12304688 7.63476562 C-1.57480816 7.59492585 -3.22671631 7.4113558 -6.375 5.3125 C-5.385 4.9825 -4.395 4.6525 -3.375 4.3125 C-3.705 3.6525 -4.035 2.9925 -4.375 2.3125 C-2.375 0.3125 -2.375 0.3125 0 0 Z " fill="#0273BB" transform="translate(45.375,199.6875)"/>
<path d="M0 0 C0.69738281 0.4640625 1.39476562 0.928125 2.11328125 1.40625 C2.63277344 1.7671875 3.15226562 2.128125 3.6875 2.5 C0.63049387 5.55700613 -3.04685613 5.7900365 -7.1875 6.6875 C-8.00347656 6.87763672 -8.81945312 7.06777344 -9.66015625 7.26367188 C-10.45035156 7.43833984 -11.24054688 7.61300781 -12.0546875 7.79296875 C-13.13532471 8.03309692 -13.13532471 8.03309692 -14.23779297 8.27807617 C-16.51774034 8.52195381 -18.13833712 8.18237244 -20.3125 7.5 C-18.37979418 5.56729418 -14.92608612 5.87336945 -12.3125 5.5 C-11.9825 5.17 -11.6525 4.84 -11.3125 4.5 C-9.63066052 4.26712992 -7.9412584 4.08735834 -6.25 3.9375 C-4.87134766 3.81181641 -4.87134766 3.81181641 -3.46484375 3.68359375 C-2.75457031 3.62300781 -2.04429687 3.56242188 -1.3125 3.5 C-1.9725 2.84 -2.6325 2.18 -3.3125 1.5 C-3.6425 0.84 -3.9725 0.18 -4.3125 -0.5 C-6.230625 -0.2525 -6.230625 -0.2525 -8.1875 0 C-13.2409158 0.57041736 -18.23312649 0.59543708 -23.3125 0.5 C-23.3125 0.17 -23.3125 -0.16 -23.3125 -0.5 C-21.08399723 -0.83774332 -18.85466533 -1.1700187 -16.625 -1.5 C-14.76294922 -1.7784375 -14.76294922 -1.7784375 -12.86328125 -2.0625 C-7.53948633 -2.71845713 -4.52807604 -3.06988206 0 0 Z " fill="#1F70A3" transform="translate(147.3125,156.5)"/>
<path d="M0 0 C0.70092773 0.13712402 1.40185547 0.27424805 2.12402344 0.41552734 C10.18306865 1.88787826 18.06941598 2.41182517 26.25 2.625 C28.10044922 2.68300781 28.10044922 2.68300781 29.98828125 2.7421875 C32.99204937 2.8353276 35.99582878 2.92114531 39 3 C38.67 3.66 38.34 4.32 38 5 C26.34246308 5.99844645 15.55310858 5.90453152 4 4 C4 3.34 4 2.68 4 2 C2.68 2 1.36 2 0 2 C0 1.34 0 0.68 0 0 Z " fill="#1A6FA8" transform="translate(66,134)"/>
<path d="M0 0 C0 3 0 3 -2.01171875 5.05078125 C-2.89472656 5.79714844 -3.77773437 6.54351562 -4.6875 7.3125 C-8.54992523 10.66541381 -11.8865364 13.95249733 -15 18 C-15.33 17.01 -15.66 16.02 -16 15 C-14.5625 12.8125 -14.5625 12.8125 -13 11 C-13.33 10.34 -13.66 9.68 -14 9 C-13.06553465 6.96855359 -12.06775224 4.96466413 -11 3 C-10.34 3 -9.68 3 -9 3 C-9 3.66 -9 4.32 -9 5 C-5.12867972 4.42647107 -2.91827204 2.51295648 0 0 Z " fill="#D42B29" transform="translate(115,57)"/>
<path d="M0 0 C-1.32 0.99 -2.64 1.98 -4 3 C-3.01 3.66 -2.02 4.32 -1 5 C-6.48675196 6.86783046 -11.22192976 7.2358396 -17 7 C-17 6.67 -17 6.34 -17 6 C-15.865625 5.87625 -14.73125 5.7525 -13.5625 5.625 C-11.7990625 5.315625 -11.7990625 5.315625 -10 5 C-9.67 4.34 -9.34 3.68 -9 3 C-13.95 2.67 -18.9 2.34 -24 2 C-24 1.67 -24 1.34 -24 1 C-15.98603754 0.3533402 -8.04212755 -0.16677223 0 0 Z " fill="#2374AA" transform="translate(135,135)"/>
<path d="M0 0 C2 1 4 2 6 3 C6 2.34 6 1.68 6 1 C6.66 1 7.32 1 8 1 C9.69140625 3.046875 9.69140625 3.046875 11.5625 5.75 C12.18253906 6.63171875 12.80257812 7.5134375 13.44140625 8.421875 C14.82663759 10.71323511 15.55473941 12.38943105 16 15 C11.69422496 13.33830526 8.90988145 10.16919694 5.75 6.9375 C5.19570312 6.38255859 4.64140625 5.82761719 4.0703125 5.25585938 C0 1.14043257 0 1.14043257 0 0 Z " fill="#CA2F32" transform="translate(97,108)"/>
<path d="M0 0 C1.32 0.33 2.64 0.66 4 1 C4.33 2.98 4.66 4.96 5 7 C3.90554162 7.86657116 2.79902219 8.71792724 1.6875 9.5625 C1.07261719 10.03816406 0.45773438 10.51382813 -0.17578125 11.00390625 C-0.77777344 11.33261719 -1.37976563 11.66132813 -2 12 C-4.50357861 11.1654738 -6.66785852 10.20628008 -9 9 C-8.43410156 8.84144531 -7.86820313 8.68289062 -7.28515625 8.51953125 C-5.06910197 7.8146001 -3.04856043 7.10440362 -1 6 C0.14091482 3.47326954 0.14091482 3.47326954 0 1 C0 0.67 0 0.34 0 0 Z " fill="#2375A9" transform="translate(179,190)"/>
<path d="M0 0 C1.08667969 0.29197266 1.08667969 0.29197266 2.1953125 0.58984375 C2.74960938 0.74582031 3.30390625 0.90179688 3.875 1.0625 C3.545 1.7225 3.215 2.3825 2.875 3.0625 C-4.67142291 4.90642234 -12.38582036 5.37695877 -20.125 5.0625 C-19.795 4.4025 -19.465 3.7425 -19.125 3.0625 C-15.165 3.0625 -11.205 3.0625 -7.125 3.0625 C-6.795 2.0725 -6.465 1.0825 -6.125 0.0625 C-3.57797384 -1.21101308 -2.6967055 -0.73941925 0 0 Z " fill="#136BA7" transform="translate(162.125,215.9375)"/>
<path d="M0 0 C6.6 0.66 13.2 1.32 20 2 C19.34 2.66 18.68 3.32 18 4 C18.99 4.66 19.98 5.32 21 6 C13.60860415 5.59248958 7.00177279 4.41492814 0 2 C0 1.34 0 0.68 0 0 Z " fill="#2E73A5" transform="translate(61,215)"/>
<path d="M0 0 C-1.57347176 1.035969 -3.15921546 2.05331732 -4.75 3.0625 C-5.63171875 3.63097656 -6.5134375 4.19945312 -7.421875 4.78515625 C-10 6 -10 6 -12.328125 5.68359375 C-12.87984375 5.45800781 -13.4315625 5.23242188 -14 5 C-13.34 5 -12.68 5 -12 5 C-12 4.34 -12 3.68 -12 3 C-15.63 3 -19.26 3 -23 3 C-23 2.67 -23 2.34 -23 2 C-19.54315232 1.46896481 -16.08435738 0.95191093 -12.625 0.4375 C-11.64015625 0.28603516 -10.6553125 0.13457031 -9.640625 -0.02148438 C-8.22910156 -0.2293457 -8.22910156 -0.2293457 -6.7890625 -0.44140625 C-5.91975098 -0.57232666 -5.05043945 -0.70324707 -4.15478516 -0.83813477 C-2 -1 -2 -1 0 0 Z " fill="#1C71A6" transform="translate(159,132)"/>
<path d="M0 0 C0.33 1.65 0.66 3.3 1 5 C0.34 5 -0.32 5 -1 5 C-1.12375 6.134375 -1.2475 7.26875 -1.375 8.4375 C-1.58125 9.613125 -1.7875 10.78875 -2 12 C-2.99 12.495 -2.99 12.495 -4 13 C-5.88638485 9.73026626 -6.75896128 6.77627333 -7 3 C-4.91535587 -0.29154337 -4.06752403 0 0 0 Z " fill="#E92E30" transform="translate(124,71)"/>
<path d="M0 0 C0.86625 -0.00257812 1.7325 -0.00515625 2.625 -0.0078125 C5 0.125 5 0.125 8 1.125 C7.67 1.785 7.34 2.445 7 3.125 C4.69 3.125 2.38 3.125 0 3.125 C0 3.455 0 3.785 0 4.125 C-5.94 4.62 -5.94 4.62 -12 5.125 C-7.57660468 0.70160468 -5.90216293 -0.01756596 0 0 Z " fill="#246CA0" transform="translate(175,120.875)"/>
<path d="M0 0 C0.66 0.66 1.32 1.32 2 2 C-8.35950413 4.47727273 -8.35950413 4.47727273 -14 3 C-15.33304977 2.66553444 -16.6663335 2.33199783 -18 2 C-12.02898766 0.23081116 -6.24329961 -0.78911594 0 0 Z " fill="#206EA8" transform="translate(65,188)"/>
<path d="M0 0 C0.33 0.99 0.66 1.98 1 3 C-0.14453125 4.82421875 -0.14453125 4.82421875 -1.8125 6.6875 C-2.35519531 7.31011719 -2.89789063 7.93273437 -3.45703125 8.57421875 C-5 10 -5 10 -7 10 C-8.625 8 -8.625 8 -10 6 C-9.44570312 5.73445312 -8.89140625 5.46890625 -8.3203125 5.1953125 C-7.59585938 4.84210938 -6.87140625 4.48890625 -6.125 4.125 C-5.40570313 3.77695313 -4.68640625 3.42890625 -3.9453125 3.0703125 C-1.84864981 2.03442457 -1.84864981 2.03442457 0 0 Z " fill="#2B7DB0" transform="translate(193,201)"/>
<path d="M0 0 C2.23574822 2.23574822 3.24368358 4.28966629 4.625 7.125 C5.07101563 8.03507812 5.51703125 8.94515625 5.9765625 9.8828125 C6.31429687 10.58148438 6.65203125 11.28015625 7 12 C8.32 12 9.64 12 11 12 C11 14.31 11 16.62 11 19 C5.26788359 13.75920786 0.60034929 8.00465726 0 0 Z " fill="#C82F32" transform="translate(113,90)"/>
<path d="M0 0 C-2.46301423 2.46301423 -4.27360036 2.76766521 -7.625 3.625 C-9.12933594 4.01558594 -9.12933594 4.01558594 -10.6640625 4.4140625 C-11.43492188 4.60742188 -12.20578125 4.80078125 -13 5 C-13 4.01 -13 3.02 -13 2 C-13.66 1.67 -14.32 1.34 -15 1 C-9.94997778 -0.03590199 -5.12583611 -0.10251672 0 0 Z " fill="#3975A3" transform="translate(88,123)"/>
<path d="M0 0 C1.32 0 2.64 0 4 0 C2.52202738 3.67056937 0.52384523 5.41085783 -2.625 7.75 C-3.44226563 8.36359375 -4.25953125 8.9771875 -5.1015625 9.609375 C-5.72804688 10.06828125 -6.35453125 10.5271875 -7 11 C-7.66 10.67 -8.32 10.34 -9 10 C-6.66666667 7.66666667 -4.33333333 5.33333333 -2 3 C-1.01 3 -0.02 3 1 3 C0.67 2.01 0.34 1.02 0 0 Z " fill="#C64044" transform="translate(129,120)"/>
<path d="M0 0 C0.33 0 0.66 0 1 0 C0.72543804 6.17764408 -0.02176128 10.17789247 -4 15 C-4.99 15.495 -4.99 15.495 -6 16 C-6.33 14.68 -6.66 13.36 -7 12 C-6.360625 11.773125 -5.72125 11.54625 -5.0625 11.3125 C-2.72806339 10.14749104 -2.72806339 10.14749104 -2.25 7.375 C-2.1675 6.59125 -2.085 5.8075 -2 5 C-1.34 5 -0.68 5 0 5 C0 3.35 0 1.7 0 0 Z " fill="#1970A8" transform="translate(193,134)"/>
<path d="M0 0 C0.99 0 1.98 0 3 0 C2.57202798 5.70629354 0.15654048 9.41078616 -3 14 C-3.66 13.67 -4.32 13.34 -5 13 C-4.01 11.02 -3.02 9.04 -2 7 C-1.34 7 -0.68 7 0 7 C-0.2784375 5.824375 -0.2784375 5.824375 -0.5625 4.625 C-1 2 -1 2 0 0 Z " fill="#D2272A" transform="translate(136,27)"/>
<path d="M0 0 C0.66 0 1.32 0 2 0 C2.66 2.31 3.32 4.62 4 7 C3.01 7.33 2.02 7.66 1 8 C0.34 8.99 -0.32 9.98 -1 11 C-1.125 3.375 -1.125 3.375 0 0 Z " fill="#E92629" transform="translate(128,110)"/>
<path d="M0 0 C1.32 0.33 2.64 0.66 4 1 C4.33 2.98 4.66 4.96 5 7 C3.35 6.67 1.7 6.34 0 6 C0 4.02 0 2.04 0 0 Z " fill="#2E7DAE" transform="translate(179,190)"/>
<path d="M0 0 C0.66 0.33 1.32 0.66 2 1 C-1.63 4.3 -5.26 7.6 -9 11 C-9.66 10.67 -10.32 10.34 -11 10 C-3.70159453 2.51708428 -3.70159453 2.51708428 0 0 Z " fill="#C22A30" transform="translate(101,57)"/>
<path d="M0 0 C0 0.66 0 1.32 0 2 C-6.75 6 -6.75 6 -9 6 C-9 5.34 -9 4.68 -9 4 C-9.66 3.67 -10.32 3.34 -11 3 C-9.54293274 2.49632243 -8.08429904 1.99717444 -6.625 1.5 C-5.81289062 1.2215625 -5.00078125 0.943125 -4.1640625 0.65625 C-2 0 -2 0 0 0 Z " fill="#C24149" transform="translate(162,47)"/>
<path d="M0 0 C-2.55068845 2.35448165 -3.71017358 2.98327924 -7.25 3.1875 C-8.1575 3.125625 -9.065 3.06375 -10 3 C-10 2.01 -10 1.02 -10 0 C-6.30458414 -0.95024979 -3.69541586 -0.95024979 0 0 Z " fill="#0470BC" transform="translate(181,212)"/>
<path d="M0 0 C0.66 0.33 1.32 0.66 2 1 C1.34 2.32 0.68 3.64 0 5 C2.64 5.33 5.28 5.66 8 6 C8 6.33 8 6.66 8 7 C1.4704 7.3696 1.4704 7.3696 -0.75 5.625 C-1.1625 5.08875 -1.575 4.5525 -2 4 C-2.99 3.34 -3.98 2.68 -5 2 C-2.625 0.9375 -2.625 0.9375 0 0 Z " fill="#2872A1" transform="translate(82,172)"/>
<path d="M0 0 C3.3 0 6.6 0 10 0 C9.01 0.495 9.01 0.495 8 1 C8 1.66 8 2.32 8 3 C5.03 2.67 2.06 2.34 -1 2 C-0.67 1.34 -0.34 0.68 0 0 Z " fill="#146DAD" transform="translate(166,200)"/>
<path d="M0 0 C0.66 0 1.32 0 2 0 C2.4125 0.45375 2.825 0.9075 3.25 1.375 C5.58139465 3.53986646 7.97828036 4.12705877 11 5 C6.47907032 6.45606519 3.48351204 5.27032841 -1 4 C-0.67 2.68 -0.34 1.36 0 0 Z " fill="#2276AC" transform="translate(44,196)"/>
<path d="M0 0 C-1 2 -1 2 -3.3125 3.25 C-6 4 -6 4 -8.3125 3.125 C-8.869375 2.75375 -9.42625 2.3825 -10 2 C-6.3558226 -0.4294516 -4.28758728 -0.16179575 0 0 Z " fill="#0573BE" transform="translate(140,136)"/>
<path d="M0 0 C2.475 0.495 2.475 0.495 5 1 C5 1.33 5 1.66 5 2 C6.65 2.33 8.3 2.66 10 3 C6.86501708 4.85776765 4.62528568 5.20140476 1 5 C1.66 3.68 2.32 2.36 3 1 C2.01 0.67 1.02 0.34 0 0 Z " fill="#166DA6" transform="translate(167,212)"/>
<path d="M0 0 C6.0546875 -0.1953125 6.0546875 -0.1953125 8 0 C8.66 0.66 9.32 1.32 10 2 C6.59437148 2.77842938 3.49234244 3.09978121 0 3 C0 2.01 0 1.02 0 0 Z " fill="#0275C2" transform="translate(58,136)"/>
<path d="M0 0 C0.99 0.33 1.98 0.66 3 1 C3.33 1.99 3.66 2.98 4 4 C2.02 4.99 2.02 4.99 0 6 C-0.66 4.68 -1.32 3.36 -2 2 C-1.34 2 -0.68 2 0 2 C0 1.34 0 0.68 0 0 Z " fill="#EC2C2F" transform="translate(94,98)"/>
<path d="M0 0 C0.33 0.66 0.66 1.32 1 2 C1.66 2.33 2.32 2.66 3 3 C0.03 3.66 -2.94 4.32 -6 5 C-2.25 1.125 -2.25 1.125 0 0 Z " fill="#3D759B" transform="translate(164,160)"/>
<path d="M0 0 C0.99 0 1.98 0 3 0 C3 0.99 3 1.98 3 3 C0 5 0 5 -3 5 C-1.125 1.125 -1.125 1.125 0 0 Z " fill="#0672BD" transform="translate(177,152)"/>
<path d="M0 0 C1.62463842 -0.05395478 3.24978541 -0.09277195 4.875 -0.125 C5.77992187 -0.14820313 6.68484375 -0.17140625 7.6171875 -0.1953125 C10 0 10 0 12 2 C10.35 2.33 8.7 2.66 7 3 C7 2.34 7 1.68 7 1 C4.69 1 2.38 1 0 1 C0 0.67 0 0.34 0 0 Z " fill="#548AB1" transform="translate(55,188)"/>
<path d="M0 0 C4.75 0.875 4.75 0.875 7 2 C7 2.66 7 3.32 7 4 C5.35 4.33 3.7 4.66 2 5 C2.33 4.01 2.66 3.02 3 2 C2.01 1.67 1.02 1.34 0 1 C0 0.67 0 0.34 0 0 Z " fill="#2570A1" transform="translate(140,180)"/>
<path d="M0 0 C4.55737263 0.43820891 7.57653445 0.85041169 11 4 C9.125 4.625 9.125 4.625 7 5 C5 3 5 3 4 1 C1.97536745 0.34786708 1.97536745 0.34786708 0 0 Z " fill="#1473AA" transform="translate(139,155)"/>
<path d="M0 0 C-3.96 1.98 -3.96 1.98 -8 4 C-8 2.68 -8 1.36 -8 0 C-2.25 -1.125 -2.25 -1.125 0 0 Z " fill="#2670A0" transform="translate(159,132)"/>
<path d="M0 0 C0.66 0 1.32 0 2 0 C2.33 0.66 2.66 1.32 3 2 C3.99 2.66 4.98 3.32 6 4 C5.67 4.66 5.34 5.32 5 6 C3.68 5.34 2.36 4.68 1 4 C1 3.34 1 2.68 1 2 C0.34 1.67 -0.32 1.34 -1 1 C-0.67 0.67 -0.34 0.34 0 0 Z " fill="#F0292F" transform="translate(98,105)"/>
</svg>
