<?xml version="1.0" encoding="UTF-8"?>
<svg version="1.1" xmlns="http://www.w3.org/2000/svg" width="500" height="500">
<path d="M0 0 C9.62508012 9.00878497 14.79433749 20.51380076 16.04602051 33.64105225 C16.15706749 37.4119123 16.15049599 41.16164582 16.08984375 44.93359375 C16.0823559 46.3036312 16.07667506 47.67367957 16.07269287 49.04373169 C16.0576358 52.5981561 16.01853528 56.15189548 15.97387695 59.70605469 C15.93248549 63.35342143 15.91458961 67.00090211 15.89453125 70.6484375 C15.85201416 77.76720229 15.78401537 84.88550886 15.69921875 92.00390625 C16.76798248 91.9939135 16.76798248 91.9939135 17.8583374 91.98371887 C24.62397358 91.92322123 31.38956853 91.8777375 38.15540695 91.84846973 C41.63253209 91.8329162 45.10943086 91.81187088 48.58642578 91.77758789 C52.59800192 91.73828847 56.60934606 91.72411204 60.62109375 91.7109375 C62.46402008 91.68771172 62.46402008 91.68771172 64.34417725 91.66401672 C79.71681605 91.66106554 94.1895468 95.81991242 105.5390625 106.61328125 C122.52808516 125.41487595 127.19374152 149.84252206 131.69921875 174.00390625 C131.83489258 174.71305176 131.97056641 175.42219727 132.11035156 176.15283203 C135.75488966 195.98219915 135.56287054 218.40509378 130.69921875 238.00390625 C130.50054199 238.81553223 130.30186523 239.6271582 130.09716797 240.46337891 C124.41122543 263.06659767 116.07808953 292.23545613 95.69921875 306.00390625 C85.20741962 312.19481184 75.62168021 314.34310761 63.53515625 314.19921875 C62.61707184 314.19638885 61.69898743 314.19355896 60.75308228 314.19064331 C57.85998739 314.17957024 54.96721789 314.15449092 52.07421875 314.12890625 C50.09635868 314.11885977 48.11849369 314.10973686 46.140625 314.1015625 C41.32670016 314.0796733 36.51301435 314.04523457 31.69921875 314.00390625 C31.70969238 315.28966553 31.72016602 316.5754248 31.73095703 317.90014648 C31.7673517 322.70285217 31.79018972 327.50554583 31.80908203 332.30834961 C31.81909543 334.38096166 31.8327101 336.45355974 31.85009766 338.52612305 C31.87455188 341.51745059 31.88574875 344.50859019 31.89453125 347.5 C31.90485382 348.41599472 31.91517639 349.33198944 31.92581177 350.27574158 C31.92725492 358.68494428 30.63563484 365.8800336 26.69921875 373.37890625 C25.92578125 374.87550781 25.92578125 374.87550781 25.13671875 376.40234375 C23.69921875 379.00390625 23.69921875 379.00390625 21.69921875 382.00390625 C21.03921875 382.00390625 20.37921875 382.00390625 19.69921875 382.00390625 C19.43753906 382.596875 19.17585938 383.18984375 18.90625 383.80078125 C10.23784811 399.62271869 -14.68868707 406.57153945 -30.86962891 411.31494141 C-47.70432685 416.08573048 -64.25769516 418.42463067 -81.73828125 418.37890625 C-82.52525391 418.37836243 -83.31222656 418.3778186 -84.12304688 418.3772583 C-97.50753738 418.33492375 -110.27873868 417.29172349 -123.30078125 414.00390625 C-124.17605469 413.78428223 -125.05132812 413.5646582 -125.953125 413.33837891 C-140.57011378 409.54729867 -156.14974201 404.23869607 -168.30078125 395.00390625 C-168.30078125 394.34390625 -168.30078125 393.68390625 -168.30078125 393.00390625 C-168.85765625 392.75640625 -169.41453125 392.50890625 -169.98828125 392.25390625 C-179.72662894 386.98993453 -186.00896473 376.12990776 -189.33236694 365.79637146 C-190.27192786 362.11690075 -190.57536262 359.02719933 -190.61962891 355.24243164 C-190.6394986 353.94161148 -190.65936829 352.64079132 -190.67984009 351.30055237 C-190.69171294 349.9008908 -190.703376 348.50122744 -190.71484375 347.1015625 C-190.73357617 345.65424013 -190.7531511 344.20692844 -190.77352905 342.7596283 C-190.82463751 338.9703911 -190.86437635 335.18111859 -190.90167236 331.39172363 C-190.94184631 327.51692113 -190.99287723 323.64226286 -191.04296875 319.76757812 C-191.13947561 312.17978682 -191.22396017 304.59192512 -191.30078125 297.00390625 C-192.46017464 297.00176872 -192.46017464 297.00176872 -193.64299011 296.99958801 C-200.98263037 296.98164334 -208.32157975 296.93969514 -215.66091442 296.87181568 C-219.43279414 296.83774948 -223.20427763 296.81246789 -226.97631836 296.80834961 C-230.62717854 296.80402224 -234.27714801 296.77520039 -237.92772865 296.73047447 C-239.30968315 296.71763923 -240.69174504 296.71314129 -242.07375145 296.71775246 C-256.59590346 296.75486711 -268.37830225 292.72757658 -279.30078125 283.00390625 C-297.2277732 264.84708106 -301.66303399 239.09390519 -306.30078125 215.00390625 C-306.45208496 214.22934082 -306.60338867 213.45477539 -306.75927734 212.65673828 C-310.436131 192.93721739 -310.13752537 170.49429022 -305.30078125 151.00390625 C-305.10210449 150.19228027 -304.90342773 149.3806543 -304.69873047 148.54443359 C-298.41160109 123.55132826 -289.32055437 94.36698165 -266.05078125 80.25390625 C-253.55819127 73.98823432 -240.66260147 74.63868582 -227.05078125 74.81640625 C-225.03386417 74.83148206 -223.01693618 74.84516534 -221 74.85742188 C-216.09998697 74.89019384 -211.20050689 74.94181589 -206.30078125 75.00390625 C-206.30522247 74.44760025 -206.3096637 73.89129425 -206.3142395 73.31813049 C-206.35871189 67.4937702 -206.38874631 61.66945867 -206.41064453 55.8449707 C-206.42066138 53.6753544 -206.43427867 51.50575145 -206.45166016 49.33618164 C-206.47609896 46.20585824 -206.48730782 43.07571437 -206.49609375 39.9453125 C-206.50641632 38.98557022 -206.51673889 38.02582794 -206.52737427 37.03700256 C-206.52952229 23.95116414 -202.75664607 13.33250922 -193.48828125 3.75390625 C-190.62697173 1.00390625 -190.62697173 1.00390625 -188.30078125 1.00390625 C-188.30078125 0.34390625 -188.30078125 -0.31609375 -188.30078125 -0.99609375 C-186.31009715 -2.50214289 -184.34388842 -3.85410248 -182.23828125 -5.18359375 C-181.60631836 -5.58360596 -180.97435547 -5.98361816 -180.32324219 -6.39575195 C-162.5027564 -17.42695794 -142.79832467 -23.28529159 -122.30078125 -26.99609375 C-121.14191406 -27.22296875 -119.98304688 -27.44984375 -118.7890625 -27.68359375 C-79.03078563 -34.33306166 -31.0896568 -26.97252059 0 0 Z M-163.23828125 19.12890625 C-165.98011352 23.46007181 -166.58622241 27.93936447 -166.30078125 33.00390625 C-164.3785379 39.17531912 -161.75443722 43.63552119 -156.05078125 46.81640625 C-150.38522445 48.61049924 -146.37094479 48.61067832 -140.67578125 46.94140625 C-136.08530304 44.30613172 -132.68099694 40.76433762 -130.30078125 36.00390625 C-129.79839077 30.5023187 -129.53872394 25.61595056 -131.92578125 20.56640625 C-137.00639322 15.08469334 -140.51494519 12.31939259 -148.05078125 11.69140625 C-154.26089705 11.80705086 -159.29245894 14.3326912 -163.23828125 19.12890625 Z M-40.23828125 345.94140625 C-43.70256733 351.08534618 -44.93817517 354.73619942 -44.30078125 361.00390625 C-42.08150412 367.62390905 -38.420946 371.63397408 -32.37890625 375.109375 C-28.70397171 376.69125472 -25.21569001 376.63389157 -21.30078125 376.00390625 C-15.21323891 373.41482849 -11.29879079 369.42906545 -7.98828125 363.75390625 C-6.63920199 358.35758922 -7.45451461 353.09898343 -10.05078125 348.19140625 C-13.68311391 343.04560165 -17.18095023 340.533864 -23.30078125 339.00390625 C-29.47432063 338.00279176 -36.21700346 341.32349971 -40.23828125 345.94140625 Z " fill="#FEEFAC" transform="translate(337.30078125,39.99609375)"/>
<path d="M0 0 C8.64855428 8.09478621 14.65074397 18.61486388 15.0868988 30.59907532 C15.10756972 32.71349853 15.11208328 34.82812106 15.10327148 36.94262695 C15.11356636 38.6859581 15.11356636 38.6859581 15.12406921 40.46450806 C15.14229111 44.2863607 15.13850552 48.10780095 15.1328125 51.9296875 C15.136222 53.92500776 15.13964033 55.92032821 15.14416558 57.91564626 C15.15817304 64.18396213 15.15668226 70.45214162 15.14526367 76.72045898 C15.1337967 83.15699534 15.14784244 89.59311431 15.17466015 96.02959567 C15.19691777 101.58238992 15.20343173 107.13505413 15.19758373 112.68788975 C15.19423554 115.99255202 15.19822746 119.29689068 15.21383476 122.60152626 C15.22881455 126.29366139 15.21801449 129.98489386 15.20092773 133.67700195 C15.2105957 134.7511586 15.22026367 135.82531525 15.23022461 136.93202209 C15.15676385 144.56336546 13.47415323 150.91047616 10.69921875 158.00390625 C10.03921875 158.00390625 9.37921875 158.00390625 8.69921875 158.00390625 C8.34150391 159.31294922 8.34150391 159.31294922 7.9765625 160.6484375 C6.567087 164.35100463 4.81876637 166.68089206 2.26171875 169.69140625 C1.47925781 170.62339844 0.69679688 171.55539063 -0.109375 172.515625 C-3.75987646 176.66066855 -3.75987646 176.66066855 -5.30078125 178.00390625 C-5.96078125 178.00390625 -6.62078125 178.00390625 -7.30078125 178.00390625 C-7.30078125 178.66390625 -7.30078125 179.32390625 -7.30078125 180.00390625 C-7.96078125 180.00390625 -8.62078125 180.00390625 -9.30078125 180.00390625 C-9.30078125 180.66390625 -9.30078125 181.32390625 -9.30078125 182.00390625 C-11.50390625 183.80859375 -11.50390625 183.80859375 -14.55078125 185.87890625 C-15.5253125 186.55695313 -16.49984375 187.235 -17.50390625 187.93359375 C-29.33623055 194.7637405 -40.82629572 194.54643517 -54.14278793 194.45919609 C-57.66797988 194.43710832 -61.19232321 194.44109224 -64.71755981 194.45167542 C-73.46986008 194.47322706 -82.22196632 194.45605262 -90.97424316 194.43017578 C-98.38438324 194.40867842 -105.79397389 194.40695784 -113.20410538 194.43309212 C-116.65514302 194.43740584 -120.10519488 194.41291622 -123.55612183 194.38755798 C-138.59255045 194.37781646 -150.6982192 195.90780254 -163.23828125 204.87890625 C-163.86669922 205.315979 -164.49511719 205.75305176 -165.14257812 206.20336914 C-176.31459297 214.12367529 -184.39137842 224.72187388 -188.30078125 238.00390625 C-188.86795612 242.562463 -188.90552266 247.07801463 -188.91015625 251.66796875 C-188.9266925 252.94118988 -188.94322876 254.21441101 -188.96026611 255.5262146 C-189.00035505 258.87672891 -189.02385328 262.22649002 -189.03900146 265.57714844 C-189.05871008 269.00991957 -189.10066342 272.44241547 -189.140625 275.875 C-189.21429009 282.58456756 -189.26605531 289.29403016 -189.30078125 296.00390625 C-197.68150416 296.12051451 -206.06187985 296.20897866 -214.44321728 296.26296711 C-218.33638146 296.28889834 -222.22898471 296.32398751 -226.12182617 296.38110352 C-229.88906051 296.43602138 -233.65576044 296.46545013 -237.42336464 296.47829247 C-238.85011505 296.48742667 -240.27684111 296.50525898 -241.7033596 296.53255653 C-256.37443228 296.80175513 -268.23653283 292.85378594 -279.30078125 283.00390625 C-297.2277732 264.84708106 -301.66303399 239.09390519 -306.30078125 215.00390625 C-306.45208496 214.22934082 -306.60338867 213.45477539 -306.75927734 212.65673828 C-310.436131 192.93721739 -310.13752537 170.49429022 -305.30078125 151.00390625 C-305.10210449 150.19228027 -304.90342773 149.3806543 -304.69873047 148.54443359 C-298.41160109 123.55132826 -289.32055437 94.36698165 -266.05078125 80.25390625 C-253.55819127 73.98823432 -240.66260147 74.63868582 -227.05078125 74.81640625 C-225.03386417 74.83148206 -223.01693618 74.84516534 -221 74.85742188 C-216.09998697 74.89019384 -211.20050689 74.94181589 -206.30078125 75.00390625 C-206.30522247 74.44760025 -206.3096637 73.89129425 -206.3142395 73.31813049 C-206.35871189 67.4937702 -206.38874631 61.66945867 -206.41064453 55.8449707 C-206.42066138 53.6753544 -206.43427867 51.50575145 -206.45166016 49.33618164 C-206.47609896 46.20585824 -206.48730782 43.07571437 -206.49609375 39.9453125 C-206.50641632 38.98557022 -206.51673889 38.02582794 -206.52737427 37.03700256 C-206.52952229 23.95116414 -202.75664607 13.33250922 -193.48828125 3.75390625 C-190.62697173 1.00390625 -190.62697173 1.00390625 -188.30078125 1.00390625 C-188.30078125 0.34390625 -188.30078125 -0.31609375 -188.30078125 -0.99609375 C-186.31009715 -2.50214289 -184.34388842 -3.85410248 -182.23828125 -5.18359375 C-181.60631836 -5.58360596 -180.97435547 -5.98361816 -180.32324219 -6.39575195 C-162.5027564 -17.42695794 -142.79832467 -23.28529159 -122.30078125 -26.99609375 C-121.14191406 -27.22296875 -119.98304688 -27.44984375 -118.7890625 -27.68359375 C-79.03078563 -34.33306166 -31.0896568 -26.97252059 0 0 Z M-163.23828125 19.12890625 C-165.98011352 23.46007181 -166.58622241 27.93936447 -166.30078125 33.00390625 C-164.3785379 39.17531912 -161.75443722 43.63552119 -156.05078125 46.81640625 C-150.38522445 48.61049924 -146.37094479 48.61067832 -140.67578125 46.94140625 C-136.08530304 44.30613172 -132.68099694 40.76433762 -130.30078125 36.00390625 C-129.79839077 30.5023187 -129.53872394 25.61595056 -131.92578125 20.56640625 C-137.00639322 15.08469334 -140.51494519 12.31939259 -148.05078125 11.69140625 C-154.26089705 11.80705086 -159.29245894 14.3326912 -163.23828125 19.12890625 Z " fill="#5687B0" transform="translate(337.30078125,39.99609375)"/>
<path d="M0 0 C0.33 0 0.66 0 1 0 C1 20.46 1 40.92 1 62 C19.8765969 61.88167483 19.8765969 61.88167483 38.75292969 61.72973633 C41.14257401 61.72096366 43.53222286 61.71332157 45.921875 61.70703125 C47.13439941 61.69168335 48.34692383 61.67633545 49.59619141 61.66052246 C64.98840056 61.65585816 79.47353845 65.80003929 90.83984375 76.609375 C107.82886641 95.4109697 112.49452277 119.83861581 117 144 C117.13567383 144.70914551 117.27134766 145.41829102 117.41113281 146.14892578 C121.05567091 165.9782929 120.86365179 188.40118753 116 208 C115.70198486 209.21743896 115.70198486 209.21743896 115.39794922 210.45947266 C109.71200668 233.06269142 101.37887078 262.23154988 81 276 C70.50820087 282.19090559 60.92246146 284.33920136 48.8359375 284.1953125 C47.91785309 284.1924826 46.99976868 284.18965271 46.05386353 284.18673706 C43.16076864 284.17566399 40.26799914 284.15058467 37.375 284.125 C35.39713993 284.11495352 33.41927494 284.10583061 31.44140625 284.09765625 C26.62748141 284.07576705 21.8137956 284.04132832 17 284 C17.01047363 285.28575928 17.02094727 286.57151855 17.03173828 287.89624023 C17.06813295 292.69894592 17.09097097 297.50163958 17.10986328 302.30444336 C17.11987668 304.37705541 17.13349135 306.44965349 17.15087891 308.5222168 C17.17533313 311.51354434 17.18653 314.50468394 17.1953125 317.49609375 C17.20563507 318.41208847 17.21595764 319.32808319 17.22659302 320.27183533 C17.22803617 328.68103803 15.93641609 335.87612735 12 343.375 C11.2265625 344.87160156 11.2265625 344.87160156 10.4375 346.3984375 C9 349 9 349 7 352 C6.34 352 5.68 352 5 352 C4.73832031 352.59296875 4.47664062 353.1859375 4.20703125 353.796875 C-4.46137064 369.61881244 -29.38790582 376.5676332 -45.56884766 381.31103516 C-62.4035456 386.08182423 -78.95691391 388.42072442 -96.4375 388.375 C-97.22447266 388.37445618 -98.01144531 388.37391235 -98.82226562 388.37335205 C-112.20675613 388.3310175 -124.97795743 387.28781724 -138 384 C-138.87527344 383.78037598 -139.75054687 383.56075195 -140.65234375 383.33447266 C-155.26933253 379.54339242 -170.84896076 374.23478982 -183 365 C-183 364.34 -183 363.68 -183 363 C-183.8353125 362.62875 -183.8353125 362.62875 -184.6875 362.25 C-194.42576996 356.98607029 -200.70301419 346.12929951 -204.03158569 335.79820251 C-204.97764211 332.08768952 -205.27488678 328.96399775 -205.31884766 325.14672852 C-205.32889328 324.50197067 -205.3389389 323.85721283 -205.34928894 323.19291687 C-205.37987148 321.08825472 -205.39708546 318.98371823 -205.4140625 316.87890625 C-205.43279431 315.40916379 -205.4523692 313.93943185 -205.4727478 312.4697113 C-205.52386263 308.6212894 -205.56359812 304.77283272 -205.60089111 300.92425537 C-205.64106101 296.98913107 -205.6920938 293.05414889 -205.7421875 289.11914062 C-205.83870193 281.41285827 -205.92318413 273.70650657 -206 266 C-205.34 266 -204.68 266 -204 266 C-204.01332367 265.30446014 -204.02664734 264.60892029 -204.04037476 263.89230347 C-204.161575 257.27458117 -204.25243532 250.65717721 -204.31087303 244.03858757 C-204.34192935 240.63737777 -204.38391331 237.23709957 -204.45263672 233.83642578 C-204.83132907 213.61722436 -204.473659 199.27478404 -190 184 C-183.64700981 177.47791882 -176.22056459 171.9566182 -168 168 C-167.29732498 167.65676697 -166.59464996 167.31353394 -165.87068176 166.9598999 C-155.90739229 162.91493916 -145.68676055 163.46034667 -135.09686279 163.5141449 C-131.56382006 163.53155142 -128.03158516 163.52382061 -124.49853516 163.5098877 C-115.72871459 163.48038687 -106.95905355 163.49340763 -98.18920898 163.50506592 C-90.76164432 163.5132965 -83.33443566 163.50522798 -75.90692139 163.47593689 C-72.44373834 163.46888987 -68.9811986 163.48545854 -65.51806641 163.50305176 C-46.82449519 163.5258601 -46.82449519 163.5258601 -30.375 155.25 C-26.15546218 152 -26.15546218 152 -24 152 C-24 151.34 -24 150.68 -24 150 C-23.34 150 -22.68 150 -22 150 C-22 149.34 -22 148.68 -22 148 C-20.989375 147.175 -19.97875 146.35 -18.9375 145.5 C-13.27494416 140.82724051 -9.12383578 134.61338892 -6 128 C-5.34 128 -4.68 128 -4 128 C-3.87625 127.13375 -3.7525 126.2675 -3.625 125.375 C-3 122 -3 122 -1.98086548 119.49716187 C-0.59110559 114.54213452 -0.6915632 109.7940073 -0.68115234 104.67041016 C-0.67110672 103.53811981 -0.6610611 102.40582947 -0.65071106 101.23922729 C-0.61988134 97.50584407 -0.60284421 93.77253257 -0.5859375 90.0390625 C-0.56722572 87.44688297 -0.5476523 84.85470952 -0.5272522 82.26254272 C-0.48116903 76.14288944 -0.44376041 70.02323975 -0.41057932 63.90350473 C-0.37230308 56.93367102 -0.32290742 49.96392984 -0.27259517 42.99417424 C-0.16939054 28.66285267 -0.080093 14.33146844 0 0 Z M18 80 C17.98541748 80.80518066 17.97083496 81.61036133 17.95581055 82.43994141 C17.89382481 85.50067893 17.81952015 88.56083109 17.73754883 91.62109375 C17.68893606 93.56750146 17.65383243 95.51423191 17.61914062 97.4609375 C16.98385769 120.10011122 9.99328028 139.03602213 -5 156 C-5.52980469 156.62519531 -6.05960938 157.25039062 -6.60546875 157.89453125 C-17.57625907 169.93701831 -33.9564785 177.89159197 -50 180 C-53.30575279 180.15157654 -56.60862444 180.16418105 -59.91748047 180.17358398 C-60.90037048 180.180271 -61.8832605 180.18695801 -62.89593506 180.19384766 C-65.02389175 180.20786198 -67.15186316 180.21976743 -69.27984238 180.22979546 C-72.65147002 180.24626117 -76.0229887 180.26950102 -79.39456177 180.29469299 C-88.97864314 180.36531753 -98.56276839 180.42555938 -108.14697266 180.47680664 C-114.01540799 180.50865968 -119.88371632 180.5499482 -125.75204849 180.59700203 C-127.9838647 180.61298006 -130.21571011 180.62532092 -132.44756699 180.63390923 C-135.57308552 180.64611127 -138.69830721 180.67028119 -141.82373047 180.69702148 C-142.73931732 180.69761063 -143.65490417 180.69819977 -144.59823608 180.69880676 C-155.80862607 180.82540446 -167.66124841 184.12344249 -176 192 C-183.14105422 200.46962245 -188.08596337 210.4352188 -188.14717102 221.65858459 C-188.15432632 222.56525879 -188.16148163 223.47193298 -188.16885376 224.40608215 C-188.17154266 225.38848373 -188.17423157 226.37088531 -188.17700195 227.38305664 C-188.18357315 228.42765045 -188.19014435 229.47224426 -188.19691467 230.54849243 C-188.21660893 234.00238116 -188.22830312 237.45622643 -188.23828125 240.91015625 C-188.24235678 242.09314238 -188.2464323 243.2761285 -188.25063133 244.49496269 C-188.27147784 250.75925394 -188.28578445 257.02352339 -188.29516602 263.2878418 C-188.30621366 269.73804364 -188.34059916 276.18789894 -188.38033772 282.63797855 C-188.4065635 287.6147676 -188.41486328 292.59147489 -188.41844749 297.56832695 C-188.42329977 299.94481172 -188.43487466 302.32129318 -188.45348549 304.69771004 C-188.97537554 325.71228451 -188.97537554 325.71228451 -179.87109375 344.13671875 C-159.59742229 364.32574022 -125.79201518 371.09071967 -98.0625 371.375 C-70.54090813 371.12012076 -37.10868299 365.48554224 -15 348 C-14.28457031 347.44570313 -13.56914062 346.89140625 -12.83203125 346.3203125 C-8.32095187 342.62270645 -5.56646139 339.23163283 -3 334 C-2.34 332.68 -1.68 331.36 -1 330 C-1 314.82 -1 299.64 -1 284 C-35.32 284 -69.64 284 -105 284 C-105 278.39 -105 272.78 -105 267 C-102.98235031 267.00888245 -100.96470062 267.01776489 -98.88591003 267.0269165 C-79.86139485 267.10874557 -60.83690294 267.16822506 -41.81225109 267.20724869 C-32.03174565 267.22784523 -22.25136962 267.25591009 -12.47094727 267.30175781 C-3.94307897 267.34171476 4.58469556 267.36745394 13.11265486 267.37635398 C17.62523268 267.38155376 22.13754235 267.39371412 26.65003395 267.42292023 C30.90424846 267.45022956 35.15808637 267.45841392 39.41238022 267.45243073 C40.96712356 267.45352407 42.52188053 267.46138519 44.07654762 267.4768219 C57.06723441 267.59939722 67.19878835 265.9179604 76.73046875 256.56640625 C90.08062148 241.46993406 95.72597508 218.29471117 100 199 C100.36738281 197.40671875 100.36738281 197.40671875 100.7421875 195.78125 C105.60000884 170.49396084 100.14276293 144.52614119 94 120 C93.68160156 118.72769531 93.36320312 117.45539063 93.03515625 116.14453125 C89.4357738 103.21456081 82.19996916 89.8761298 70.25 83 C65.98943175 80.79308695 62.30384275 79.87269011 57.50683594 79.88647461 C56.62622498 79.88655014 55.74561401 79.88662567 54.83831787 79.88670349 C53.42561615 79.89444542 53.42561615 79.89444542 51.984375 79.90234375 C51.01340881 79.9037587 50.04244263 79.90517365 49.04205322 79.90663147 C45.94467065 79.91222337 42.84736068 79.92477441 39.75 79.9375 C37.64843854 79.94251605 35.54687596 79.94707877 33.4453125 79.95117188 C28.29684708 79.96219015 23.14843584 79.97944926 18 80 Z " fill="#BB9506" transform="translate(352,70)"/>
<path d="M0 0 C8.64855428 8.09478621 14.65074397 18.61486388 15.0868988 30.59907532 C15.10756972 32.71349853 15.11208328 34.82812106 15.10327148 36.94262695 C15.11356636 38.6859581 15.11356636 38.6859581 15.12406921 40.46450806 C15.14229111 44.2863607 15.13850552 48.10780095 15.1328125 51.9296875 C15.136222 53.92500776 15.13964033 55.92032821 15.14416558 57.91564626 C15.15817304 64.18396213 15.15668226 70.45214162 15.14526367 76.72045898 C15.1337967 83.15699534 15.14784244 89.59311431 15.17466015 96.02959567 C15.19691777 101.58238992 15.20343173 107.13505413 15.19758373 112.68788975 C15.19423554 115.99255202 15.19822746 119.29689068 15.21383476 122.60152626 C15.22881455 126.29366139 15.21801449 129.98489386 15.20092773 133.67700195 C15.2105957 134.7511586 15.22026367 135.82531525 15.23022461 136.93202209 C15.15676385 144.56336546 13.47415323 150.91047616 10.69921875 158.00390625 C10.03921875 158.00390625 9.37921875 158.00390625 8.69921875 158.00390625 C8.34150391 159.31294922 8.34150391 159.31294922 7.9765625 160.6484375 C6.567087 164.35100463 4.81876637 166.68089206 2.26171875 169.69140625 C1.47925781 170.62339844 0.69679688 171.55539063 -0.109375 172.515625 C-3.75987646 176.66066855 -3.75987646 176.66066855 -5.30078125 178.00390625 C-5.96078125 178.00390625 -6.62078125 178.00390625 -7.30078125 178.00390625 C-7.30078125 178.66390625 -7.30078125 179.32390625 -7.30078125 180.00390625 C-7.96078125 180.00390625 -8.62078125 180.00390625 -9.30078125 180.00390625 C-9.30078125 180.66390625 -9.30078125 181.32390625 -9.30078125 182.00390625 C-11.50390625 183.80859375 -11.50390625 183.80859375 -14.55078125 185.87890625 C-15.5253125 186.55695313 -16.49984375 187.235 -17.50390625 187.93359375 C-29.33623055 194.7637405 -40.82629572 194.54643517 -54.14278793 194.45919609 C-57.66797988 194.43710832 -61.19232321 194.44109224 -64.71755981 194.45167542 C-73.46986008 194.47322706 -82.22196632 194.45605262 -90.97424316 194.43017578 C-98.38438324 194.40867842 -105.79397389 194.40695784 -113.20410538 194.43309212 C-116.65514302 194.43740584 -120.10519488 194.41291622 -123.55612183 194.38755798 C-138.59255045 194.37781646 -150.6982192 195.90780254 -163.23828125 204.87890625 C-163.86669922 205.315979 -164.49511719 205.75305176 -165.14257812 206.20336914 C-176.31459297 214.12367529 -184.39137842 224.72187388 -188.30078125 238.00390625 C-188.86795612 242.562463 -188.90552266 247.07801463 -188.91015625 251.66796875 C-188.9266925 252.94118988 -188.94322876 254.21441101 -188.96026611 255.5262146 C-189.00035505 258.87672891 -189.02385328 262.22649002 -189.03900146 265.57714844 C-189.05871008 269.00991957 -189.10066342 272.44241547 -189.140625 275.875 C-189.21429009 282.58456756 -189.26605531 289.29403016 -189.30078125 296.00390625 C-197.68150416 296.12051451 -206.06187985 296.20897866 -214.44321728 296.26296711 C-218.33638146 296.28889834 -222.22898471 296.32398751 -226.12182617 296.38110352 C-229.88906051 296.43602138 -233.65576044 296.46545013 -237.42336464 296.47829247 C-238.85011505 296.48742667 -240.27684111 296.50525898 -241.7033596 296.53255653 C-256.37443228 296.80175513 -268.23653283 292.85378594 -279.30078125 283.00390625 C-297.2277732 264.84708106 -301.66303399 239.09390519 -306.30078125 215.00390625 C-306.45208496 214.22934082 -306.60338867 213.45477539 -306.75927734 212.65673828 C-310.436131 192.93721739 -310.13752537 170.49429022 -305.30078125 151.00390625 C-305.10210449 150.19228027 -304.90342773 149.3806543 -304.69873047 148.54443359 C-298.41160109 123.55132826 -289.32055437 94.36698165 -266.05078125 80.25390625 C-253.55819127 73.98823432 -240.66260147 74.63868582 -227.05078125 74.81640625 C-225.03386417 74.83148206 -223.01693618 74.84516534 -221 74.85742188 C-216.09998697 74.89019384 -211.20050689 74.94181589 -206.30078125 75.00390625 C-206.30522247 74.44760025 -206.3096637 73.89129425 -206.3142395 73.31813049 C-206.35871189 67.4937702 -206.38874631 61.66945867 -206.41064453 55.8449707 C-206.42066138 53.6753544 -206.43427867 51.50575145 -206.45166016 49.33618164 C-206.47609896 46.20585824 -206.48730782 43.07571437 -206.49609375 39.9453125 C-206.50641632 38.98557022 -206.51673889 38.02582794 -206.52737427 37.03700256 C-206.52952229 23.95116414 -202.75664607 13.33250922 -193.48828125 3.75390625 C-190.62697173 1.00390625 -190.62697173 1.00390625 -188.30078125 1.00390625 C-188.30078125 0.34390625 -188.30078125 -0.31609375 -188.30078125 -0.99609375 C-186.31009715 -2.50214289 -184.34388842 -3.85410248 -182.23828125 -5.18359375 C-181.60631836 -5.58360596 -180.97435547 -5.98361816 -180.32324219 -6.39575195 C-162.5027564 -17.42695794 -142.79832467 -23.28529159 -122.30078125 -26.99609375 C-121.14191406 -27.22296875 -119.98304688 -27.44984375 -118.7890625 -27.68359375 C-79.03078563 -34.33306166 -31.0896568 -26.97252059 0 0 Z M-115.30078125 -9.99609375 C-118.800674 -9.46822653 -122.30841368 -9.03412509 -125.8203125 -8.59375 C-128.9583002 -8.05490363 -131.38946801 -7.2216549 -134.30078125 -5.99609375 C-135.87682666 -5.66731607 -137.46106067 -5.37565685 -139.05078125 -5.12109375 C-143.39133394 -4.29921395 -147.04897663 -2.95851178 -151.0234375 -1.05859375 C-153.3925325 0.04671301 -155.79052562 0.96242988 -158.23828125 1.87890625 C-171.86584799 7.33414549 -181.15901105 15.14871988 -188.30078125 28.00390625 C-188.30078125 43.51390625 -188.30078125 59.02390625 -188.30078125 75.00390625 C-153.98078125 75.00390625 -119.66078125 75.00390625 -84.30078125 75.00390625 C-84.30078125 80.61390625 -84.30078125 86.22390625 -84.30078125 92.00390625 C-86.32065155 91.99724442 -88.34052185 91.99058258 -90.42160034 91.98371887 C-109.46115978 91.92236452 -128.50070615 91.8777455 -147.54034233 91.84846973 C-157.32869247 91.83301807 -167.11696995 91.81196111 -176.90527344 91.77758789 C-185.43935767 91.74763342 -193.97338926 91.72831889 -202.50752461 91.72164077 C-207.02393114 91.71773874 -211.5401871 91.70860401 -216.05654526 91.68671608 C-220.31317561 91.66625529 -224.56959429 91.66009172 -228.82626915 91.66458321 C-230.38303594 91.66376228 -231.93981029 91.65785397 -233.49653435 91.64628983 C-246.15609898 91.55691242 -255.61785463 92.33776462 -264.984375 101.42578125 C-286.74140688 125.64102752 -292.41005475 163.7390326 -291.30078125 195.00390625 C-290.9607824 200.05703011 -290.18842359 205.01987723 -289.30078125 210.00390625 C-289.08292969 211.29296875 -288.86507812 212.58203125 -288.640625 213.91015625 C-284.77496878 236.10328513 -280.38428573 260.77865657 -261.30078125 275.00390625 C-254.29118448 279.26464154 -247.26807933 279.14672626 -239.30859375 279.1015625 C-238.3626535 279.10014755 -237.41671326 279.0987326 -236.44210815 279.09727478 C-233.43663296 279.09170109 -230.43123372 279.07915345 -227.42578125 279.06640625 C-225.3815115 279.06138785 -223.33724057 279.05682554 -221.29296875 279.05273438 C-216.29554389 279.04174028 -211.29817542 279.02449382 -206.30078125 279.00390625 C-206.28619873 277.84979248 -206.27161621 276.69567871 -206.2565918 275.5065918 C-206.19810781 271.17686778 -206.12088319 266.84763694 -206.03833008 262.51831055 C-206.00531432 260.65348383 -205.97721172 258.78856277 -205.9543457 256.92358398 C-205.78426564 243.41488427 -204.83026981 231.98376501 -198.48828125 219.81640625 C-198.13499756 219.12861084 -197.78171387 218.44081543 -197.41772461 217.73217773 C-187.31858601 198.464897 -170.47144419 186.44935586 -150.0625 179.80078125 C-143.98002972 178.04572618 -138.4311809 177.87529854 -132.13305664 177.90966797 C-130.01522333 177.91245434 -127.89738986 177.91512425 -125.77955627 177.91769409 C-124.09879596 177.92226938 -124.09879596 177.92226938 -122.38408089 177.9269371 C-116.42594427 177.93831555 -110.46788244 177.91776422 -104.50976562 177.90234375 C-96.93890471 177.8840905 -89.3684502 177.87527996 -81.79760742 177.90429688 C-75.67070506 177.92693834 -69.54468442 177.91526983 -63.41784477 177.88129044 C-61.0932789 177.87455553 -58.76864116 177.88010569 -56.44413948 177.89864731 C-39.71078325 178.02346849 -27.38468455 176.6340754 -14.72265625 164.6484375 C-12.94735762 162.5951388 -11.94048371 160.64267889 -11.30078125 158.00390625 C-10.64078125 158.00390625 -9.98078125 158.00390625 -9.30078125 158.00390625 C-8.1499544 155.75633841 -7.00501267 153.50608877 -5.86328125 151.25390625 C-5.53779297 150.6196875 -5.21230469 149.98546875 -4.87695312 149.33203125 C-2.45638863 144.54081081 -1.18518554 140.84577353 -1.1468811 135.50354004 C-1.13398041 134.15821198 -1.13398041 134.15821198 -1.12081909 132.78570557 C-1.11655914 131.80905945 -1.11229919 130.83241333 -1.10791016 129.82617188 C-1.09973267 128.79147766 -1.09155518 127.75678345 -1.08312988 126.69073486 C-1.05830496 123.26388115 -1.04176395 119.8370689 -1.02734375 116.41015625 C-1.02202007 115.23728561 -1.0166964 114.06441498 -1.0112114 112.85600281 C-0.9844878 106.64359186 -0.96511346 100.43120091 -0.95068359 94.21875 C-0.93736466 89.08966153 -0.90954778 83.96097279 -0.86865234 78.83203125 C-0.8191945 72.62874182 -0.79454581 66.42581397 -0.78745651 60.22233582 C-0.78076527 57.86537225 -0.76559914 55.50841608 -0.7415657 53.15156555 C-0.28528375 35.87557151 -0.28528375 35.87557151 -6.30078125 20.00390625 C-6.71043121 19.30076294 -7.12008118 18.59761963 -7.54214478 17.87316895 C-10.47693354 13.094093 -14.70181238 10.08418577 -19.30078125 7.00390625 C-19.92984375 6.57207031 -20.55890625 6.14023437 -21.20703125 5.6953125 C-29.41771949 0.29442946 -38.02933714 -3.10660623 -47.48828125 -5.62109375 C-48.58136597 -5.91209961 -48.58136597 -5.91209961 -49.6965332 -6.20898438 C-52.22260626 -6.84952724 -54.75736135 -7.42817107 -57.30078125 -7.99609375 C-58.43741211 -8.26228516 -59.57404297 -8.52847656 -60.74511719 -8.80273438 C-71.04949716 -11.00579363 -80.96933771 -11.40093125 -91.48779297 -11.27734375 C-94.22116447 -11.24556613 -96.95396017 -11.23629616 -99.6875 -11.23046875 C-101.4309967 -11.22131989 -103.17448752 -11.21095099 -104.91796875 -11.19921875 C-105.73240448 -11.19496887 -106.54684021 -11.19071899 -107.38595581 -11.18634033 C-111.47548072 -11.23003988 -111.47548072 -11.23003988 -115.30078125 -9.99609375 Z " fill="#2B5073" transform="translate(337.30078125,39.99609375)"/>
<path d="M0 0 C2 2 2 2 2.06274414 4.47998047 C1.75580945 7.94885537 1.43347384 11.41227755 1.0625 14.875 C0.9277124 16.13828125 0.7929248 17.4015625 0.65405273 18.703125 C-0.60649195 29.10937977 -3.25656818 38.29365211 -7.20263672 47.95947266 C-8.31890133 50.81609838 -9.14667579 53.74334679 -10 56.6875 C-11.97415743 62.75652545 -15.50772086 67.50772086 -20 72 C-28.64340137 73.37370992 -37.36032188 73.13357025 -46.08618164 73.11352539 C-47.81162515 73.11324298 -49.53706877 73.11340231 -51.26251221 73.1139679 C-55.92506433 73.11425375 -60.5875905 73.10839131 -65.25013661 73.10139394 C-70.13082194 73.09512509 -75.01150792 73.09455381 -79.89219666 73.09336853 C-89.12484531 73.09026561 -98.35748207 73.08206626 -107.5901255 73.07201904 C-118.1052474 73.0608256 -128.62036988 73.05533932 -139.13549626 73.05032361 C-160.75700561 73.03988275 -182.37849867 73.02155022 -204 73 C-203.67 89.83 -203.34 106.66 -203 124 C-168.68 124 -134.36 124 -99 124 C-99 148 -99 148 -102 153 C-104.7748211 151.61258945 -104.80749636 150.1409892 -105.8125 147.25 C-108.11549318 141.31471244 -110.72353725 138.28856382 -116.3125 135.125 C-121.99814815 133.39039548 -126.43431856 134.00123416 -131.75 136.625 C-135.58469724 139.00636449 -137.06738031 141.98609758 -139 146 C-139.33 146.66 -139.66 147.32 -140 148 C-140.59575841 153.95758414 -139.32534185 158.13416433 -136 163 C-134.36643049 164.37368345 -132.7074998 165.71937515 -131 167 C-131 167.99 -131 168.98 -131 170 C-134.66440004 170.98778303 -138.33187682 171.96364227 -142 172.9375 C-143.02996094 173.21529297 -144.05992187 173.49308594 -145.12109375 173.77929688 C-155.98130854 176.64999059 -166.19116093 177.23906792 -177.375 177.25 C-178.08831482 177.25100708 -178.80162964 177.25201416 -179.53656006 177.25305176 C-190.61988512 177.24247161 -201.19944631 176.61899437 -212 174 C-213.88138672 173.54753906 -213.88138672 173.54753906 -215.80078125 173.0859375 C-223.25494499 171.11630884 -230.09367299 168.40110576 -237 165 C-238.093125 164.525625 -239.18625 164.05125 -240.3125 163.5625 C-243.29285137 161.82973758 -245.30912516 159.84774569 -247.60546875 157.3046875 C-249.08292052 155.74057569 -249.08292052 155.74057569 -252 155 C-253.44282149 152.11435702 -253.21593969 149.54628756 -253.30395508 146.32226562 C-253.33308739 145.29253632 -253.33308739 145.29253632 -253.36280823 144.24200439 C-253.53182558 137.89279242 -253.62838013 131.54190273 -253.70387745 125.19095612 C-253.75518745 120.9277579 -253.82945021 116.66781439 -253.96020508 112.40625 C-254.086309 108.27979289 -254.1523242 104.15626545 -254.17746544 100.02799988 C-254.19699082 98.46168702 -254.23721865 96.89547932 -254.29932594 95.33027649 C-254.74885458 83.44292122 -254.74885458 83.44292122 -251.82831955 79.36331558 C-248.62458776 75.98845491 -244.92698083 73.48510877 -241 71 C-239.65322569 70.04330574 -238.30851278 69.08367631 -236.96875 68.1171875 C-235.81753703 67.36205619 -234.66134389 66.61445586 -233.5 65.875 C-232.21583617 65.04214394 -230.93198557 64.20880473 -229.6484375 63.375 C-229.02936523 62.97539062 -228.41029297 62.57578125 -227.77246094 62.1640625 C-226.15218839 61.09994962 -224.56248851 59.98965601 -222.9765625 58.875 C-215.3468175 53.5237268 -207.3373446 49.61719649 -198.85742188 45.83251953 C-197.3193222 45.14312417 -195.791071 44.43180337 -194.265625 43.71484375 C-189.73381949 41.6016082 -185.18760467 40.07646102 -180.37890625 38.7109375 C-177.76194669 37.9664403 -177.76194669 37.9664403 -174.375 36.5625 C-153.80802317 28.79907594 -131.72492942 27.8620185 -110 27.4375 C-87.72328308 27.00074205 -66.57530102 26.03656393 -45 20 C-43.13214844 19.48566406 -43.13214844 19.48566406 -41.2265625 18.9609375 C-34.87703261 17.1058492 -28.81473545 14.79530867 -22.75390625 12.1484375 C-19.87527394 10.94798658 -16.9686993 9.95313173 -14 9 C-14 8.34 -14 7.68 -14 7 C-13.11248047 6.74476563 -13.11248047 6.74476563 -12.20703125 6.484375 C-7.36342355 4.99889662 -3.77495174 3.53140647 0 0 Z " fill="#FED230" transform="translate(434,246)"/>
<path d="M0 0 C0.07632377 7.11662901 0.12871469 14.23315169 0.16479492 21.35009766 C0.17984279 23.7690831 0.20028588 26.18804143 0.22631836 28.60693359 C0.262877 32.09219063 0.2797669 35.5770856 0.29296875 39.0625 C0.30845261 40.13677246 0.32393646 41.21104492 0.33988953 42.31787109 C0.34170202 50.48038501 -0.93092159 56.8853823 -6.0625 63.5 C-6.56910156 64.1703125 -7.07570313 64.840625 -7.59765625 65.53125 C-8.06042969 66.0159375 -8.52320313 66.500625 -9 67 C-9.66 67 -10.32 67 -11 67 C-11 67.66 -11 68.32 -11 69 C-17.28394027 72.67110871 -21.86306996 73.57587218 -29.07763672 73.49829102 C-30.54294579 73.50656921 -30.54294579 73.50656921 -32.03785706 73.51501465 C-34.14883292 73.5243027 -36.25986483 73.52446638 -38.37084579 73.51642036 C-41.72880414 73.50372049 -45.08594861 73.51514897 -48.44387817 73.53245544 C-54.37830428 73.55913209 -60.31252971 73.56475303 -66.24700928 73.56335449 C-75.70777901 73.56112622 -85.16829746 73.57567975 -94.6289711 73.61894035 C-97.90674739 73.62865307 -101.18411659 73.62012232 -104.46188354 73.61024475 C-118.12673964 73.62419595 -132.17784104 73.75343908 -145 79 C-145.99 79 -146.98 79 -148 79 C-148 79.66 -148 80.32 -148 81 C-149.7015625 81.556875 -149.7015625 81.556875 -151.4375 82.125 C-155.800106 83.73473162 -159.35094096 86.09623125 -163.1171875 88.79296875 C-165 90 -165 90 -167 90 C-167 90.66 -167 91.32 -167 92 C-168.43415398 93.22157583 -169.92515516 94.37667537 -171.4375 95.5 C-177.18301646 99.96873503 -183.68911938 105.37823877 -187 112 C-187.66 112 -188.32 112 -189 112 C-189.26167969 112.69738281 -189.52335937 113.39476562 -189.79296875 114.11328125 C-191.11020471 117.263564 -192.69289385 120.1817121 -194.3125 123.1875 C-201.22853525 136.535919 -203.87154721 151.04237026 -204.5625 165.9375 C-204.62727539 167.24944336 -204.62727539 167.24944336 -204.69335938 168.58789062 C-204.79846901 170.72511995 -204.89963985 172.86254238 -205 175 C-208.49971199 175.1173794 -211.99890955 175.18763961 -215.5 175.25 C-216.48226562 175.28351563 -217.46453125 175.31703125 -218.4765625 175.3515625 C-226.20855693 175.45465576 -231.27116053 174.02648957 -237.28125 169.1484375 C-247.63232639 156.20959202 -250.26628463 138.91500093 -252.67529297 123.03027344 C-253.10577171 120.33864844 -253.65795119 117.67366603 -254.1875 115 C-255.41033695 107.69354924 -255.25041313 100.35105667 -255.04443359 92.96875 C-255.00776755 91.34416234 -255.02239174 89.71850337 -255.05078125 88.09375 C-254.98093517 84.95604918 -254.52959759 82.63883573 -252.50390625 80.1953125 C-250.42545302 78.3134132 -248.25609165 76.66414681 -246 75 C-244.39493752 73.66774517 -242.79079974 72.33437566 -241.1875 71 C-231.83587208 63.59840713 -221.4429981 57.71372909 -211 52 C-210.10982178 51.51080078 -210.10982178 51.51080078 -209.20166016 51.01171875 C-177.52149033 33.82345044 -142.70939687 26.93880101 -106.93029785 26.59408569 C-80.9629396 26.31418343 -54.12972149 25.72868724 -30 15 C-27.93775249 14.16604203 -25.87524115 13.33273624 -23.8125 12.5 C-20.36873529 11.06842214 -17.0895853 9.57882566 -13.875 7.6875 C-11 6 -11 6 -9 6 C-9 5.34 -9 4.68 -9 4 C-2.25 0 -2.25 0 0 0 Z " fill="#3772A4" transform="translate(318,127)"/>
<path d="M0 0 C0.82047821 -0.01248276 1.64095642 -0.02496552 2.48629761 -0.03782654 C20.944695 -0.26379765 38.0416365 0.10047679 55.8984375 5.2734375 C57.43603488 5.68550467 58.97378868 6.09698873 60.51171875 6.5078125 C71.19716401 9.48945898 80.50730727 14.02128929 89.1953125 20.92578125 C91.00181677 22.40043329 91.00181677 22.40043329 93.5234375 23.9609375 C99.28821924 29.57401445 102.91189124 37.4502597 103.12304688 45.48779297 C103.14556519 46.30899628 103.1680835 47.13019958 103.19128418 47.97628784 C103.26269614 51.71407048 103.31975032 55.45167144 103.35839844 59.18994141 C103.38504603 61.1589383 103.42601588 63.12779449 103.48144531 65.09619141 C103.56064252 67.94490546 103.59370798 70.79097116 103.6171875 73.640625 C103.65017944 74.5158078 103.68317139 75.3909906 103.71716309 76.29269409 C103.70534651 79.91566389 103.66831466 82.30626021 101.36157227 85.2041626 C96.77678355 89.2734375 96.77678355 89.2734375 93.8984375 89.2734375 C93.8984375 89.9334375 93.8984375 90.5934375 93.8984375 91.2734375 C90.43689904 94.2734375 90.43689904 94.2734375 87.8984375 94.2734375 C87.8984375 94.9334375 87.8984375 95.5934375 87.8984375 96.2734375 C87.2384375 96.2734375 86.5784375 96.2734375 85.8984375 96.2734375 C85.88963814 95.23107185 85.88963814 95.23107185 85.88066101 94.16764832 C85.82276409 87.61967741 85.75070523 81.07203361 85.66272259 74.52439404 C85.61798909 71.15813273 85.57874011 67.79199327 85.55200195 64.42553711 C85.5185477 60.55552029 85.46623498 56.68615303 85.41015625 52.81640625 C85.40057137 51.00223457 85.40057137 51.00223457 85.39079285 49.15141296 C85.37099869 48.03047745 85.35120453 46.90954193 85.33081055 45.75463867 C85.31970749 44.76646652 85.30860443 43.77829437 85.29716492 42.76017761 C84.83439542 39.87402677 84.048064 39.14497738 81.8984375 37.2734375 C81.8984375 36.6134375 81.8984375 35.9534375 81.8984375 35.2734375 C81.3415625 35.1909375 80.7846875 35.1084375 80.2109375 35.0234375 C77.8984375 34.2734375 77.8984375 34.2734375 75.6484375 32.3984375 C72.20228989 29.73550525 69.01275608 28.66812176 64.8984375 27.2734375 C64.8984375 26.6134375 64.8984375 25.9534375 64.8984375 25.2734375 C63.44244141 25.10134766 63.44244141 25.10134766 61.95703125 24.92578125 C57.5082658 24.29056229 53.27829431 23.0558099 48.9609375 21.8359375 C34.7868626 18.00037429 20.65434654 16.96409885 6.02734375 16.32421875 C5.25463135 16.28981689 4.48191895 16.25541504 3.68579102 16.2199707 C1.87357648 16.06974928 1.87357648 16.06974928 0.8984375 17.2734375 C-2.01644482 17.77124662 -4.92592172 18.22356347 -7.8515625 18.6484375 C-15.71273607 19.83224648 -23.39043652 21.32142895 -31.1015625 23.2734375 C-30.7715625 24.9234375 -30.4415625 26.5734375 -30.1015625 28.2734375 C-30.8440625 27.7990625 -31.5865625 27.3246875 -32.3515625 26.8359375 C-37.07958339 24.149562 -41.68437859 23.57666203 -47.1015625 24.2734375 C-51.48886448 25.66433939 -54.42466034 27.50746927 -57.4765625 30.9609375 C-59.45223432 34.98826852 -60.35806608 38.87115606 -61.1015625 43.2734375 C-62.4215625 42.6134375 -63.7415625 41.9534375 -65.1015625 41.2734375 C-67.37099564 50.35117008 -66.71202081 59.92443687 -67.1015625 69.2734375 C-32.4515625 69.2734375 2.1984375 69.2734375 37.8984375 69.2734375 C38.8984375 116.2734375 38.8984375 116.2734375 37.8984375 120.2734375 C34.4624898 120.92770887 31.02443935 121.57023664 27.5859375 122.2109375 C26.15024414 122.48454102 26.15024414 122.48454102 24.68554688 122.76367188 C12.853439 124.95480296 1.30224613 125.37875398 -10.69921875 125.51269531 C-29.81954023 125.73392877 -48.30652157 126.45881301 -67.1015625 130.2734375 C-68.0002002 130.44327148 -68.89883789 130.61310547 -69.82470703 130.78808594 C-93.52309274 135.3282069 -115.45500796 144.97026567 -136.1015625 157.2734375 C-136.80265137 157.69012695 -137.50374023 158.10681641 -138.22607422 158.53613281 C-146.40291746 163.45645935 -153.8823648 169.03291891 -161.1015625 175.2734375 C-162.14376953 176.16675781 -162.14376953 176.16675781 -163.20703125 177.078125 C-167.73722634 181.00248562 -172.17267257 185.0331014 -176.609375 189.0625 C-179.39129295 191.5304711 -182.23456268 193.90504634 -185.1015625 196.2734375 C-185.79418569 181.41507165 -184.58077765 168.46205369 -180.1015625 154.2734375 C-179.87162598 153.52723145 -179.64168945 152.78102539 -179.40478516 152.01220703 C-174.37549634 135.9490928 -167.15613185 115.50721839 -152.1015625 106.2734375 C-143.63953888 102.67077671 -135.02145438 102.86587071 -126.00341797 102.93286133 C-124.39605221 102.93370894 -122.78868528 102.93322984 -121.18132019 102.93153381 C-116.84517038 102.93067766 -112.50927261 102.94824139 -108.17318106 102.96925569 C-103.63150932 102.98808628 -99.08983098 102.98977794 -94.54812622 102.99333191 C-85.96003183 103.0026337 -77.37205282 103.02722207 -68.7840091 103.05738038 C-59.00163379 103.09098267 -49.2192528 103.10742502 -39.4368341 103.12246668 C-19.3250109 103.15377339 0.78670194 103.20710598 20.8984375 103.2734375 C20.8984375 97.6634375 20.8984375 92.0534375 20.8984375 86.2734375 C-13.4215625 86.2734375 -47.7415625 86.2734375 -83.1015625 86.2734375 C-83.1015625 35.94651442 -83.1015625 35.94651442 -74.8515625 26.5859375 C-65.74244454 18.04984432 -55.01035023 13.45134196 -43.37109375 9.421875 C-41.37017947 8.7190449 -39.38036831 7.98202473 -37.4140625 7.1875 C-34.732018 6.12736754 -32.00581087 5.44390013 -29.203125 4.77734375 C-27.83898631 4.45025473 -26.47905242 4.10489228 -25.125 3.73828125 C-20.75105211 2.56202036 -16.49839926 1.90487478 -11.984375 1.51953125 C-0.40053629 0.00546104 -0.40053629 0.00546104 0 0 Z " fill="#759EC0" transform="translate(232.1015625,28.7265625)"/>
<path d="M0 0 C0.33 0 0.66 0 1 0 C6.82220034 35.34907351 1.20732536 74.21666665 -18 105 C-24.39627652 113.63552757 -30.50691658 118.40719686 -41 121 C-44.40696621 121.24609566 -44.40696621 121.24609566 -48.02989197 121.24050903 C-48.70149198 121.24221788 -49.37309198 121.24392673 -50.06504351 121.24568737 C-52.2959967 121.24895891 -54.52664328 121.23801762 -56.75756836 121.22705078 C-58.36449171 121.22648616 -59.97141557 121.22680422 -61.57833862 121.22793579 C-65.9270045 121.22850832 -70.27555947 121.21677019 -74.62419963 121.20278788 C-79.17390422 121.19026387 -83.72361151 121.1891087 -88.27333069 121.18673706 C-96.88274367 121.1805272 -105.49210571 121.16412306 -114.10149628 121.14403808 C-123.90557616 121.12166371 -133.70965852 121.11068178 -143.51375759 121.10064721 C-163.67586757 121.07975641 -183.83792878 121.04418595 -204 121 C-204 126.61 -204 132.22 -204 138 C-169.68 138 -135.36 138 -100 138 C-100 187.56756757 -100 187.56756757 -106.3125 194.5625 C-107.6428125 195.7690625 -107.6428125 195.7690625 -109 197 C-109.433125 197.52078125 -109.86625 198.0415625 -110.3125 198.578125 C-116.09871654 205.26843788 -124.09510555 208.43767468 -132 212 C-132.99515625 212.4640625 -133.9903125 212.928125 -135.015625 213.40625 C-172.14678479 229.23264598 -216.99282909 229.05641662 -254.29833984 214.07714844 C-266.15344737 208.93548918 -278.2801799 202.15239037 -284 190 C-286.84577457 182.47132047 -287.50476376 175.4600001 -287.57421875 167.45703125 C-287.5889473 166.28919601 -287.60367584 165.12136078 -287.61885071 163.9181366 C-287.64266916 161.4651028 -287.65818163 159.01197558 -287.66577148 156.55883789 C-287.68750475 152.81168172 -287.76790744 149.06853259 -287.84960938 145.32226562 C-287.86559345 142.92970892 -287.87808346 140.53712577 -287.88671875 138.14453125 C-287.91859787 137.03084671 -287.95047699 135.91716217 -287.98332214 134.76972961 C-287.91747924 127.16697418 -287.91747924 127.16697418 -285.24684143 123.77009583 C-283.2429211 122.00478188 -281.21329793 120.48928691 -279 119 C-278.17628906 118.26910156 -277.35257813 117.53820312 -276.50390625 116.78515625 C-275.86324219 116.21667969 -275.22257813 115.64820313 -274.5625 115.0625 C-273.90378906 114.47597656 -273.24507812 113.88945312 -272.56640625 113.28515625 C-271 112 -271 112 -270 112 C-269.67 136.09 -269.34 160.18 -269 185 C-267.68 185.33 -266.36 185.66 -265 186 C-263.31640625 187.453125 -263.31640625 187.453125 -261.5625 189.25 C-256.41262832 193.93868914 -250.51860105 195.82443712 -244 198 C-243.24976563 198.27457031 -242.49953125 198.54914063 -241.7265625 198.83203125 C-236.88279265 200.56725148 -231.91926758 201.8522439 -226.9375 203.125 C-226.27645264 203.29588135 -225.61540527 203.4667627 -224.93432617 203.64282227 C-215.1651284 206.07331438 -205.51697524 206.23896556 -195.5 206.25 C-194.4261908 206.25200912 -194.4261908 206.25200912 -193.33068848 206.25405884 C-182.90208959 206.24982005 -173.11803402 205.72267097 -163 203 C-161.84371094 202.71382812 -160.68742187 202.42765625 -159.49609375 202.1328125 C-157.44449605 201.62415191 -155.39664057 201.09978608 -153.35546875 200.55078125 C-151 200 -151 200 -148 200 C-148 199.34 -148 198.68 -148 198 C-147.42765625 198.15726563 -146.8553125 198.31453125 -146.265625 198.4765625 C-140.68317736 199.7663004 -135.75456377 199.8261999 -130.6875 196.9375 C-125.35464294 193.19495817 -123.19146836 188.02653799 -121 182 C-120.34 182 -119.68 182 -119 182 C-114.80211694 173.60423387 -116.39077559 163.37861427 -116 154 C-150.32 154 -184.64 154 -220 154 C-221.21983748 151.56032503 -221.12051527 150.00095476 -221.11352539 147.27490234 C-221.11341209 145.80360367 -221.11341209 145.80360367 -221.11329651 144.30258179 C-221.10813522 143.24108917 -221.10297394 142.17959656 -221.09765625 141.0859375 C-221.0962413 140.00116119 -221.09482635 138.91638489 -221.09336853 137.79873657 C-221.08775802 134.32413 -221.07520372 130.84958719 -221.0625 127.375 C-221.05748635 125.02343843 -221.05292321 122.67187585 -221.04882812 120.3203125 C-221.03778518 114.54685314 -221.02103679 108.77343112 -221 103 C-220.10639298 102.99576806 -219.21278597 102.99153612 -218.29209995 102.98717594 C-196.53297403 102.88380093 -174.77387998 102.775153 -153.01480961 102.66066074 C-142.49222463 102.60541953 -131.96963627 102.55195268 -121.44702148 102.50268555 C-112.27384842 102.459732 -103.10069941 102.41342623 -93.92756361 102.36312145 C-89.07200256 102.33661029 -84.21644601 102.31175989 -79.36085701 102.29092598 C-74.78661649 102.27124624 -70.21242135 102.24706967 -65.63822174 102.21950912 C-63.96333839 102.2101984 -62.28844513 102.20250207 -60.61354637 102.19658089 C-46.72397497 103.19738926 -46.72397497 103.19738926 -34.6875 98.875 C-34.130625 97.92625 -33.57375 96.9775 -33 96 C-32.37867188 95.00097656 -31.75734375 94.00195312 -31.1171875 92.97265625 C-28.51522579 88.41070546 -27.01536928 83.55140354 -25.4375 78.5625 C-24.85430275 76.75083849 -24.26968704 74.93963293 -23.68359375 73.12890625 C-23.40354492 72.25669434 -23.12349609 71.38448242 -22.83496094 70.48583984 C-22.07728554 68.23009397 -21.23820305 66.03320489 -20.35546875 63.82421875 C-18.90107421 60.01215384 -18.32378032 56.31350181 -17.875 52.25 C-17.75825928 51.22326172 -17.75825928 51.22326172 -17.63916016 50.17578125 C-16.96773491 44.12873124 -16.4367386 38.06836797 -16 32 C-18.27258186 31.78143778 -18.27258186 31.78143778 -20.375 34.0625 C-23 36 -23 36 -25.3125 35.75 C-25.869375 35.5025 -26.42625 35.255 -27 35 C-21.25 31 -21.25 31 -19 31 C-18.34 29.68 -17.68 28.36 -17 27 C-15.35 27.33 -13.7 27.66 -12 28 C-12 27.34 -12 26.68 -12 26 C-11.21625 25.773125 -10.4325 25.54625 -9.625 25.3125 C-6.29469355 23.64734678 -6.21994037 22.41583305 -5 19 C-3 16.6875 -3 16.6875 -1 15 C-0.34 15 0.32 15 1 15 C0.835 14.195625 0.67 13.39125 0.5 12.5625 C-0.09247348 8.34112648 -0.08506709 4.25335455 0 0 Z " fill="#FDE178" transform="translate(451,216)"/>
<path d="M0 0 C0 0.66 0 1.32 0 2 C-6.88659207 3.77915978 -13.2065252 4.30374343 -20.30297852 4.31884766 C-21.39669266 4.32889328 -22.4904068 4.3389389 -23.61726379 4.34928894 C-27.20447298 4.37998852 -30.79160798 4.39711934 -34.37890625 4.4140625 C-36.87711723 4.43278477 -39.37532196 4.45235897 -41.8735199 4.4727478 C-47.75932398 4.51873843 -53.64513311 4.55618651 -59.53102201 4.58942068 C-66.89639864 4.63153838 -74.26166442 4.68705441 -81.62695312 4.7421875 C-94.75124164 4.8388211 -107.87557867 4.92363845 -121 5 C-115.94456394 -0.05543606 -108.02334224 0.69587537 -101.35473633 0.68115234 C-100.30675369 0.67110672 -99.25877106 0.6610611 -98.17903137 0.65071106 C-94.73003663 0.61993111 -91.28111951 0.60285413 -87.83203125 0.5859375 C-85.43022503 0.56721643 -83.02842532 0.54764232 -80.62663269 0.5272522 C-74.3137295 0.47596569 -68.00080487 0.43633047 -61.68780518 0.39910889 C-55.25861286 0.35911186 -48.82951037 0.30795645 -42.40039062 0.2578125 C-33.01932148 0.18603522 -23.63823968 0.11890631 -14.25708008 0.06005859 C-13.27257874 0.05384995 -12.28807739 0.0476413 -11.27374268 0.04124451 C-7.51567791 0.01828392 -3.7581609 0 0 0 Z " fill="#A18C25" transform="translate(308,233)"/>
<path d="M0 0 C0 2.94690727 -0.45702408 4.89294532 -1.3125 7.6875 C-1.67794922 8.89986328 -1.67794922 8.89986328 -2.05078125 10.13671875 C-3 13 -3 13 -4.52514648 16.52319336 C-6.3871553 21.50195476 -6.49380262 26.22060061 -6.546875 31.4921875 C-6.5677417 32.52332169 -6.5886084 33.55445587 -6.61010742 34.61683655 C-6.67315459 38.03618009 -6.7129914 41.45528154 -6.75 44.875 C-6.7667981 46.05353546 -6.78359619 47.23207092 -6.80090332 48.44631958 C-7.08995109 68.87629141 -7.01747983 89.30487121 -6.77461243 109.73484039 C-6.75006881 111.93134226 -6.73036214 114.12784206 -6.71179199 116.32440186 C-6.67539806 120.45493998 -6.61287188 124.58467152 -6.546875 128.71484375 C-6.5372876 129.94276138 -6.5277002 131.17067902 -6.51782227 132.43580627 C-6.34875805 140.8676247 -5.13604336 147.27729356 -0.3125 154.375 C2 157.79941003 2 157.79941003 2 160 C2.66 160 3.32 160 4 160 C4 160.66 4 161.32 4 162 C4.99 161.67 5.98 161.34 7 161 C7.33 162.65 7.66 164.3 8 166 C8.66 166 9.32 166 10 166 C11.625 168.5 11.625 168.5 13 171 C3.20722856 166.64765714 -3.14322813 156.74246165 -7 147 C-8.52770214 142.25837466 -9.26154302 138.12268071 -9.31884766 133.14672852 C-9.32889328 132.50197067 -9.3389389 131.85721283 -9.34928894 131.19291687 C-9.37987148 129.08825472 -9.39708546 126.98371823 -9.4140625 124.87890625 C-9.43279431 123.40916379 -9.4523692 121.93943185 -9.4727478 120.4697113 C-9.52386263 116.6212894 -9.56359812 112.77283272 -9.60089111 108.92425537 C-9.64106101 104.98913107 -9.6920938 101.05414889 -9.7421875 97.11914062 C-9.83870193 89.41285827 -9.92318413 81.70650657 -10 74 C-9.34 74 -8.68 74 -8 74 C-8.0199855 72.95669022 -8.0199855 72.95669022 -8.04037476 71.89230347 C-8.161575 65.27458117 -8.25243532 58.65717721 -8.31087303 52.03858757 C-8.34192935 48.63737777 -8.38391331 45.23709957 -8.45263672 41.83642578 C-9.00497076 12.34611984 -9.00497076 12.34611984 -2 2 C-1.34 1.34 -0.68 0.68 0 0 Z " fill="#B59935" transform="translate(156,262)"/>
<path d="M0 0 C0.33 0 0.66 0 1 0 C1 20.46 1 40.92 1 62 C19.8765969 61.88167483 19.8765969 61.88167483 38.75292969 61.72973633 C41.14257401 61.72096366 43.53222286 61.71332157 45.921875 61.70703125 C47.13439941 61.69168335 48.34692383 61.67633545 49.59619141 61.66052246 C57.48570802 61.6581317 64.44774708 62.70975155 72 65 C72 65.33 72 65.66 72 66 C70.71722672 65.8934182 70.71722672 65.8934182 69.40853882 65.78468323 C61.12064033 65.13815504 52.91234329 64.86441103 44.6015625 64.90234375 C43.40058929 64.9037587 42.19961609 64.90517365 40.96224976 64.90663147 C37.18313951 64.91216148 33.40409187 64.92470016 29.625 64.9375 C27.03906336 64.94252407 24.45312579 64.94708537 21.8671875 64.95117188 C15.57810419 64.96210784 9.28905657 64.97877433 3 65 C2.98018066 66.28165039 2.96036133 67.56330078 2.93994141 68.88378906 C2.86385497 73.64001067 2.77514202 78.39592757 2.68261719 83.15185547 C2.64434005 85.21006249 2.60948496 87.26833612 2.578125 89.32666016 C2.53244722 92.28572388 2.47445698 95.24432957 2.4140625 98.203125 C2.40251129 99.12305237 2.39096008 100.04297974 2.37905884 100.99078369 C2.3492543 102.28166901 2.3492543 102.28166901 2.31884766 103.59863281 C2.30552399 104.35364075 2.29220032 105.10864868 2.2784729 105.88653564 C2 108 2 108 0 112 C0 75.04 0 38.08 0 0 Z " fill="#B4A65E" transform="translate(352,70)"/>
<path d="M0 0 C0.33 0 0.66 0 1 0 C1 17.49 1 34.98 1 53 C-17.81 53 -36.62 53 -56 53 C-56 52.67 -56 52.34 -56 52 C-38.18 52 -20.36 52 -2 52 C-2.07897271 37.50566154 -2.07897271 37.50566154 -2.18017578 23.01147461 C-2.18602147 21.18343337 -2.19111685 19.35538952 -2.1953125 17.52734375 C-2.20554443 16.59152466 -2.21577637 15.65570557 -2.22631836 14.69152832 C-2.22772253 9.38866804 -1.74383408 5.01729425 0 0 Z " fill="#3A535B" transform="translate(147,283)"/>
<path d="M0 0 C1.65 0 3.3 0 5 0 C5.495 1.485 5.495 1.485 6 3 C8.97 2.34 11.94 1.68 15 1 C8.82812701 7.17187299 -0.12870692 8.43821814 -8.60070801 8.56114197 C-9.60484741 8.5561116 -10.60898682 8.55108124 -11.64355469 8.54589844 C-12.73770691 8.55623611 -13.83185913 8.56657379 -14.95916748 8.57722473 C-18.5302243 8.60642452 -22.10070871 8.6081471 -25.671875 8.609375 C-28.16580267 8.62437201 -30.65972047 8.64110232 -33.15362549 8.65948486 C-39.68339519 8.70299937 -46.21303094 8.72312232 -52.74291992 8.73822021 C-59.41983762 8.75571172 -66.09662515 8.79981224 -72.7734375 8.83984375 C-85.84890953 8.91497368 -98.92435927 8.96612912 -112 9 C-112 8.34 -112 7.68 -112 7 C-57.055 6.505 -57.055 6.505 -1 6 C-0.34 4.68 0.32 3.36 1 2 C0.505 1.01 0.505 1.01 0 0 Z " fill="#354E4E" transform="translate(304,226)"/>
<path d="M0 0 C0 0.66 0 1.32 0 2 C1.32 2.33 2.64 2.66 4 3 C4.495 5.97 4.495 5.97 5 9 C4.505 8.01 4.505 8.01 4 7 C3.34 7 2.68 7 2 7 C0.375 5.625 0.375 5.625 -1 4 C-1 3.34 -1 2.68 -1 2 C-9.10163403 -0.10604538 -17.56085689 -2.18242241 -25.875 -0.375 C-28.2770101 0.83088777 -28.2770101 0.83088777 -28.609375 3.59765625 C-28.96046726 6.65566982 -29.16751607 9.68625278 -29.29077148 12.76123047 C-29.955745 28.955745 -29.955745 28.955745 -35 34 C-34.86722656 33.29875 -34.73445313 32.5975 -34.59765625 31.875 C-34.33275391 30.451875 -34.33275391 30.451875 -34.0625 29 C-33.88847656 28.071875 -33.71445312 27.14375 -33.53515625 26.1875 C-32.36248386 19.2028236 -31.86265441 12.57002926 -31.9375 5.5 C-31.94201172 4.67757812 -31.94652344 3.85515625 -31.95117188 3.0078125 C-31.96281511 1.00517604 -31.98074444 -0.99742227 -32 -3 C-20.9148722 -4.52898314 -9.97752009 -5.9126045 0 0 Z " fill="#FDEA8C" transform="translate(417,169)"/>
<path d="M0 0 C0.66 0 1.32 0 2 0 C2.20638953 32.30789898 2.20638953 32.30789898 1 47 C2.98708836 46.72875789 2.98708836 46.72875789 5 46 C5.4640625 44.5459375 5.4640625 44.5459375 5.9375 43.0625 C6.288125 42.051875 6.63875 41.04125 7 40 C8.6476038 39.28752268 10.31763529 38.62599617 12 38 C14.78223511 35.34176423 16.7720724 32.6837828 18 29 C18.99 29.33 19.98 29.66 21 30 C19.54930237 35.11512215 16.48873294 37.67960607 12.625 41.0625 C11.47074598 42.09437217 10.31708651 43.12690984 9.1640625 44.16015625 C8.61782227 44.64371582 8.07158203 45.12727539 7.50878906 45.62548828 C6.19438857 46.82291139 4.9458878 48.09188755 3.7109375 49.37109375 C2 51 2 51 0 51 C0 34.17 0 17.34 0 0 Z " fill="#FEF9CB" transform="translate(164,291)"/>
<path d="M0 0 C0 0.66 0 1.32 0 2 C-0.66 2 -1.32 2 -2 2 C-2.26167969 2.59296875 -2.52335937 3.1859375 -2.79296875 3.796875 C-10.29127054 17.48309574 -31.45553279 24.61284926 -45.37109375 29.30078125 C-48 30 -48 30 -52 30 C-52 29.01 -52 28.02 -52 27 C-50.865625 26.855625 -49.73125 26.71125 -48.5625 26.5625 C-45.19222799 26.38828522 -45.19222799 26.38828522 -44 25 C-42.2984375 24.7834375 -42.2984375 24.7834375 -40.5625 24.5625 C-36.95941003 24.35152449 -36.95941003 24.35152449 -35 22 C-33.01178687 21.60235737 -31.01055661 21.26224651 -29 21 C-29 20.34 -29 19.68 -29 19 C-28.39671875 18.74605469 -27.7934375 18.49210937 -27.171875 18.23046875 C-23.06351575 16.46122372 -19.55605423 14.73542633 -16 12 C-15.01 12 -14.02 12 -13 12 C-13 11.01 -13 10.02 -13 9 C-11.35 8.67 -9.7 8.34 -8 8 C-7.67 7.01 -7.34 6.02 -7 5 C-2.46511628 0 -2.46511628 0 0 0 Z " fill="#AE9C4F" transform="translate(359,420)"/>
<path d="M0 0 C0.66 0.33 1.32 0.66 2 1 C-1.16202707 4.7701092 -3.22053097 5.33087434 -8 6 C-10.0088485 6.98210371 -12.00787329 7.98440599 -14 9 C-20.53005989 11.77813951 -27.35951492 12.87994786 -34.32348633 13.99804688 C-37.96707255 14.30174213 -37.96707255 14.30174213 -41 16 C-43.69654854 16.07319621 -46.36691458 16.09242537 -49.0625 16.0625 C-49.82111328 16.05798828 -50.57972656 16.05347656 -51.36132812 16.04882812 C-53.24091871 16.0370068 -55.12046899 16.01907078 -57 16 C-57 15.67 -57 15.34 -57 15 C-56.11441406 14.90203125 -55.22882813 14.8040625 -54.31640625 14.703125 C-36.40289179 12.54082773 -18.84861785 8.30116382 -2.36328125 0.85546875 C-1.58339844 0.57316406 -0.80351562 0.29085938 0 0 Z " fill="#F9DA53" transform="translate(414,257)"/>
<path d="M0 0 C0 2.94690727 -0.45702408 4.89294532 -1.3125 7.6875 C-1.55613281 8.49574219 -1.79976562 9.30398438 -2.05078125 10.13671875 C-3 13 -3 13 -4.52734375 16.3918457 C-6.63344689 22.01715889 -6.47840821 27.65150629 -6.51171875 33.59375 C-6.52966995 34.78101685 -6.54762115 35.96828369 -6.56611633 37.19152832 C-6.62003529 40.96098342 -6.6540569 44.73031319 -6.6875 48.5 C-6.72068921 51.06512153 -6.75518035 53.63022657 -6.79101562 56.1953125 C-6.87575135 62.46342926 -6.94417898 68.73156261 -7 75 C-7.33 75 -7.66 75 -8 75 C-8.1401967 67.54944085 -8.24621822 60.0990216 -8.31087303 52.64743614 C-8.34193504 49.18570107 -8.38393042 45.72488067 -8.45263672 42.26367188 C-9.03200227 12.30334211 -9.03200227 12.30334211 -2 2 C-1.34 1.34 -0.68 0.68 0 0 Z " fill="#AA9524" transform="translate(156,262)"/>
<path d="M0 0 C0.33 0 0.66 0 1 0 C1.17917463 7.00644177 1.30077117 14.01228188 1.38452148 21.02050781 C1.41947539 23.39866205 1.46705652 25.77666865 1.52807617 28.15429688 C2.18229318 54.32297711 2.18229318 54.32297711 -6 65 C-6.99 65.495 -6.99 65.495 -8 66 C-8 64.68 -8 63.36 -8 62 C-7.34 62 -6.68 62 -6 62 C-5.87625 61.236875 -5.7525 60.47375 -5.625 59.6875 C-5 57 -5 57 -3 54 C-2.75944532 51.94290404 -2.75944532 51.94290404 -2.875 49.8125 C-2.936875 47.9253125 -2.936875 47.9253125 -3 46 C-2.01 46 -1.02 46 0 46 C0 30.82 0 15.64 0 0 Z " fill="#B3941A" transform="translate(367,354)"/>
<path d="M0 0 C1.98 0 3.96 0 6 0 C-6.01601928 10.5595321 -22.20198042 8.13444787 -37.1875 8.0625 C-39.01627482 8.05747456 -40.84505097 8.0529135 -42.67382812 8.04882812 C-47.11591895 8.03790619 -51.55794441 8.02069923 -56 8 C-56 7.67 -56 7.34 -56 7 C-40.16 6.67 -24.32 6.34 -8 6 C-8 5.34 -8 4.68 -8 4 C-6.02 4 -4.04 4 -2 4 C-2 3.34 -2 2.68 -2 2 C-1.34 2 -0.68 2 0 2 C0 1.34 0 0.68 0 0 Z " fill="#B4941D" transform="translate(427,345)"/>
<path d="M0 0 C0.66 0.33 1.32 0.66 2 1 C1.67854004 2.21872803 1.35708008 3.43745605 1.02587891 4.69311523 C-0.31347775 10.75003288 -0.35232294 16.72826029 -0.4140625 22.91015625 C-0.43342865 24.11820419 -0.4527948 25.32625214 -0.4727478 26.57090759 C-0.5321742 30.40136823 -0.578781 34.23185953 -0.625 38.0625 C-0.66321376 40.67123653 -0.70226743 43.2799609 -0.7421875 45.88867188 C-0.83784522 52.25900606 -0.9229993 58.62941444 -1 65 C-1.33 65 -1.66 65 -2 65 C-2.04628728 56.82037612 -2.08185072 48.64080673 -2.10362434 40.46108437 C-2.11407321 36.66313688 -2.12825236 32.86527882 -2.15087891 29.06738281 C-2.17256821 25.40398654 -2.18456031 21.74067643 -2.18975449 18.07722092 C-2.19345731 16.67773456 -2.20068777 15.27825305 -2.21146011 13.87880325 C-2.22592225 11.92266669 -2.22681647 9.96644391 -2.22705078 8.01025391 C-2.231492 6.8955069 -2.23593323 5.78075989 -2.24050903 4.63223267 C-2 2 -2 2 0 0 Z " fill="#B5971E" transform="translate(165,277)"/>
<path d="M0 0 C0.99 0 1.98 0 3 0 C3.465841 10.07596838 2.11094574 19.21174564 0 29 C-0.33 29 -0.66 29 -1 29 C-1.10103455 23.39258264 -0.76082036 18.05193239 0 12.5 C0.14308594 11.40945312 0.14308594 11.40945312 0.2890625 10.296875 C0.52146167 8.53064133 0.76006638 6.76522594 1 5 C-1.27258186 4.78143778 -1.27258186 4.78143778 -3.375 7.0625 C-6 9 -6 9 -8.3125 8.75 C-8.869375 8.5025 -9.42625 8.255 -10 8 C-4.25 4 -4.25 4 -2 4 C-1.34 2.68 -0.68 1.36 0 0 Z " fill="#FBDC55" transform="translate(434,243)"/>
<path d="M0 0 C-0.66 0.99 -1.32 1.98 -2 3 C-4.17666626 3.32279968 -4.17666626 3.32279968 -6.90869141 3.2487793 C-8.44005234 3.21840828 -8.44005234 3.21840828 -10.00234985 3.18742371 C-11.66021011 3.13138725 -11.66021011 3.13138725 -13.3515625 3.07421875 C-14.4807309 3.04777786 -15.60989929 3.02133698 -16.77328491 2.99409485 C-20.39104737 2.90610266 -24.00783167 2.79703127 -27.625 2.6875 C-30.07288126 2.62426522 -32.52079827 2.5623984 -34.96875 2.50195312 C-40.97967198 2.35052494 -46.9899233 2.18177231 -53 2 C-53 1.67 -53 1.34 -53 1 C-47.54147715 0.85541355 -42.08290115 0.71309831 -36.62426758 0.57275391 C-34.77301493 0.52485313 -32.92177735 0.47636583 -31.07055664 0.42724609 C-20.71121159 0.15278926 -10.36381605 -0.08625532 0 0 Z " fill="#F9D752" transform="translate(357,273)"/>
<path d="M0 0 C-2.85852884 2.85852884 -6.23685612 3.24819675 -10.0625 4.125 C-10.82876709 4.30385742 -11.59503418 4.48271484 -12.38452148 4.66699219 C-17.70193753 5.85076975 -22.54088342 6.39702666 -28 6 C-27.34 5.01 -26.68 4.02 -26 3 C-23.43359375 2.5234375 -23.43359375 2.5234375 -20.4375 2.375 C-16.9063166 2.4801445 -16.9063166 2.4801445 -14 1 C-9.27917277 0.27987381 -4.78426665 -0.11960667 0 0 Z " fill="#AD943B" transform="translate(306,450)"/>
<path d="M0 0 C2.66565069 2.36946728 4.07438414 4.80363846 5.625 8 C6.05039063 8.86625 6.47578125 9.7325 6.9140625 10.625 C8 13 8 13 9 16 C9.66 16 10.32 16 11 16 C11 16.66 11 17.32 11 18 C11.99 17.67 12.98 17.34 14 17 C14.33 18.65 14.66 20.3 15 22 C15.66 22 16.32 22 17 22 C18.625 24.5 18.625 24.5 20 27 C9.9517347 22.53410431 4.26974092 12.73500929 0 3 C0 2.01 0 1.02 0 0 Z " fill="#A5934B" transform="translate(149,406)"/>
<path d="M0 0 C9.19515435 2.29878859 14.88167306 8.36128479 20 16 C16.0521912 16 14.81491174 14.66275435 12 12 C12 11.01 12 10.02 12 9 C11.360625 8.731875 10.72125 8.46375 10.0625 8.1875 C8 7 8 7 7 4 C4.03 3.505 4.03 3.505 1 3 C0.67 2.01 0.34 1.02 0 0 Z " fill="#FAE78A" transform="translate(416,151)"/>
<path d="M0 0 C-1.134375 0.45375 -2.26875 0.9075 -3.4375 1.375 C-7.04721692 2.57095806 -7.04721692 2.57095806 -8 5 C-9.93359375 5.67578125 -9.93359375 5.67578125 -12.4375 6.3125 C-17.28615232 7.6550967 -21.40615095 9.6341051 -25.7734375 12.109375 C-28.39414583 13.15765833 -29.36867857 12.78573702 -32 12 C-3.22359882 -1.61179941 -3.22359882 -1.61179941 0 0 Z " fill="#F7D954" transform="translate(252,287)"/>
<path d="M0 0 C0.83265381 0.00523682 1.66530762 0.01047363 2.52319336 0.01586914 C3.42231445 0.0190918 4.32143555 0.02231445 5.24780273 0.02563477 C6.66609375 0.03820312 6.66609375 0.03820312 8.11303711 0.05102539 C9.06243164 0.05553711 10.01182617 0.06004883 10.98999023 0.06469727 C13.34356776 0.07652429 15.69702188 0.09300514 18.05053711 0.11352539 C18.05053711 0.44352539 18.05053711 0.77352539 18.05053711 1.11352539 C14.19728654 1.62075688 10.34281008 2.11800738 6.48803711 2.61352539 C4.85898438 2.8281543 4.85898438 2.8281543 3.19702148 3.04711914 C-2.22927427 3.73983775 -7.4785492 4.30190692 -12.94946289 4.11352539 C-12.61946289 3.45352539 -12.28946289 2.79352539 -11.94946289 2.11352539 C-9.91821289 1.73461914 -9.91821289 1.73461914 -7.44946289 1.55102539 C-4.5452613 1.32585786 -2.61126051 0.15206464 0 0 Z " fill="#6594BB" transform="translate(242.949462890625,149.886474609375)"/>
<path d="M0 0 C0.33 0.66 0.66 1.32 1 2 C-0.375 3.5 -0.375 3.5 -2 5 C-2.66 5 -3.32 5 -4 5 C-4.33 5.99 -4.66 6.98 -5 8 C-5.66 8 -6.32 8 -7 8 C-7.268125 8.639375 -7.53625 9.27875 -7.8125 9.9375 C-9 12 -9 12 -12 13 C-12 13.99 -12 14.98 -12 16 C-13.32 16.33 -14.64 16.66 -16 17 C-14.58330822 11.80546349 -11.07891809 8.33817117 -7 5 C-6.34 5 -5.68 5 -5 5 C-5 4.34 -5 3.68 -5 3 C-2.5 1.375 -2.5 1.375 0 0 Z " fill="#5E758B" transform="translate(154,36)"/>
<path d="M0 0 C0.66 0 1.32 0 2 0 C1.42605343 5.46988473 -0.52114636 9.79840257 -2.875 14.6875 C-3.22691406 15.44611328 -3.57882812 16.20472656 -3.94140625 16.98632812 C-5.63497898 20.55290414 -7.06082067 23.3004447 -10 26 C-10 24.68 -10 23.36 -10 22 C-9.34 22 -8.68 22 -8 22 C-8 20.68 -8 19.36 -8 18 C-7.34 18 -6.68 18 -6 18 C-6 16.68 -6 15.36 -6 14 C-5.34 14 -4.68 14 -4 14 C-4 12.35 -4 10.7 -4 9 C-3.34 9 -2.68 9 -2 9 C-2.061875 7.88625 -2.061875 7.88625 -2.125 6.75 C-1.99601866 3.91241048 -1.42948778 2.41226062 0 0 Z " fill="#CDB65B" transform="translate(457,304)"/>
<path d="M0 0 C0 0.66 0 1.32 0 2 C-0.99 2 -1.98 2 -3 2 C-3.2475 2.804375 -3.495 3.60875 -3.75 4.4375 C-5 7 -5 7 -6.8125 7.6875 C-7.534375 7.790625 -8.25625 7.89375 -9 8 C-12.74164896 9.24721632 -13.73956207 9.6093431 -16 13 C-18.625 13.6875 -18.625 13.6875 -21 14 C-17.28344472 10.01443691 -13.41802823 7.07979098 -8.8125 4.1875 C-8.18408203 3.78080078 -7.55566406 3.37410156 -6.90820312 2.95507812 C-2.26450893 0 -2.26450893 0 0 0 Z " fill="#A18E21" transform="translate(186,238)"/>
<path d="M0 0 C1.97956441 0.14033111 3.95865141 0.2874123 5.9375 0.4375 C7.03964844 0.51871094 8.14179688 0.59992188 9.27734375 0.68359375 C12 1 12 1 13 2 C16.35680989 2.53690911 19.72245328 2.96627385 23.09375 3.40234375 C24.0528125 3.59957031 25.011875 3.79679687 26 4 C26.33 4.66 26.66 5.32 27 6 C21.04938191 6.20240198 15.89254214 5.55170779 10.125 4.125 C9.36703125 3.95097656 8.6090625 3.77695312 7.828125 3.59765625 C2.26015442 2.26015442 2.26015442 2.26015442 0 0 Z " fill="#AD9646" transform="translate(205,450)"/>
<path d="M0 0 C-0.99 0.495 -0.99 0.495 -2 1 C-1.67 2.65 -1.34 4.3 -1 6 C-1.598125 5.54625 -2.19625 5.0925 -2.8125 4.625 C-7.3441448 2.31474971 -12.00266227 1.74391192 -17 1 C-17 0.67 -17 0.34 -17 0 C-14.91957837 -0.39083065 -12.83547661 -0.7621087 -10.75 -1.125 C-9.00976562 -1.43824219 -9.00976562 -1.43824219 -7.234375 -1.7578125 C-3.96445684 -2.00266144 -2.67507166 -1.78779541 0 0 Z " fill="#7CA2C0" transform="translate(203,51)"/>
<path d="M0 0 C1.32 0 2.64 0 4 0 C4 1.32 4 2.64 4 4 C4.99 3.67 5.98 3.34 7 3 C7 5.97 7 8.94 7 12 C6.01 12 5.02 12 4 12 C3.3291288 10.3767313 2.66342971 8.75132422 2 7.125 C1.62875 6.22007812 1.2575 5.31515625 0.875 4.3828125 C0 2 0 2 0 0 Z " fill="#F8CF33" transform="translate(326,386)"/>
<path d="M0 0 C0.66 0.33 1.32 0.66 2 1 C0.75758865 2.77616574 -0.49424871 4.54574043 -1.75 6.3125 C-2.44609375 7.29863281 -3.1421875 8.28476563 -3.859375 9.30078125 C-5.77078318 11.7109693 -7.45209133 13.31860982 -10 15 C-9.67 13.02 -9.34 11.04 -9 9 C-8.34 9 -7.68 9 -7 9 C-7 8.34 -7 7.68 -7 7 C-6.01 7 -5.02 7 -4 7 C-4.33 5.35 -4.66 3.7 -5 2 C-2.625 0.9375 -2.625 0.9375 0 0 Z " fill="#354E5A" transform="translate(343,201)"/>
<path d="M0 0 C0.66 0.66 1.32 1.32 2 2 C1.36191406 2.32613281 0.72382812 2.65226563 0.06640625 2.98828125 C-0.75988281 3.42527344 -1.58617188 3.86226562 -2.4375 4.3125 C-3.26121094 4.74175781 -4.08492187 5.17101562 -4.93359375 5.61328125 C-7.30647644 6.90020887 -7.30647644 6.90020887 -8 10 C-10.875 11.75 -10.875 11.75 -14 13 C-14.99 12.67 -15.98 12.34 -17 12 C-11.53824725 7.61289767 -6.03316956 3.56729645 0 0 Z " fill="#437AA9" transform="translate(93,187)"/>
<path d="M0 0 C0 3 0 3 -1.57421875 4.71875 C-5.23478476 7.80418087 -8.74847128 10.74137537 -13 13 C-12.67 11.35 -12.34 9.7 -12 8 C-10.35 7.67 -8.7 7.34 -7 7 C-6.95875 6.401875 -6.9175 5.80375 -6.875 5.1875 C-6 3 -6 3 -2.9375 1.25 C-1.968125 0.8375 -0.99875 0.425 0 0 Z " fill="#7AA8CF" transform="translate(71,201)"/>
<path d="M0 0 C0.33 1.32 0.66 2.64 1 4 C-4.75 9 -4.75 9 -7 9 C-7.33 9.99 -7.66 10.98 -8 12 C-9.32 11.67 -10.64 11.34 -12 11 C-11.01 10.67 -10.02 10.34 -9 10 C-9 9.34 -9 8.68 -9 8 C-8.34 8 -7.68 8 -7 8 C-7 7.34 -7 6.68 -7 6 C-5.46875 4.4921875 -5.46875 4.4921875 -3.5 2.875 C-2.8503125 2.33617187 -2.200625 1.79734375 -1.53125 1.2421875 C-0.77328125 0.62730469 -0.77328125 0.62730469 0 0 Z " fill="#998828" transform="translate(337,212)"/>
<path d="M0 0 C0 2.98734744 -0.4767344 5.08732502 -1.3125 7.9375 C-1.55613281 8.79214844 -1.79976562 9.64679688 -2.05078125 10.52734375 C-3.04456009 13.11607629 -4.25992786 14.85734048 -6 17 C-6.66 17.99 -7.32 18.98 -8 20 C-7.41164143 15.58400533 -6.29784101 11.84890635 -4.5625 7.75 C-4.13066406 6.71359375 -3.69882813 5.6771875 -3.25390625 4.609375 C-2 2 -2 2 0 0 Z " fill="#9B8D2F" transform="translate(156,262)"/>
<path d="M0 0 C1.1446875 0.2784375 1.1446875 0.2784375 2.3125 0.5625 C5.08967375 1.22819173 5.08967375 1.22819173 8 0 C6.4169423 4.2742558 3.49431596 6.26531794 0 9 C0 6.03 0 3.06 0 0 Z " fill="#92B8D8" transform="translate(47,216)"/>
<path d="M0 0 C1.65 0 3.3 0 5 0 C5.33 0.99 5.66 1.98 6 3 C8.97 2.34 11.94 1.68 15 1 C12.13762752 3.86237248 10.93918095 4.90730493 6.95703125 5.09765625 C6.24933594 5.08605469 5.54164063 5.07445312 4.8125 5.0625 C2.9253125 5.0315625 2.9253125 5.0315625 1 5 C0.67 3.35 0.34 1.7 0 0 Z " fill="#304F5E" transform="translate(304,226)"/>
<path d="M0 0 C0.66 0 1.32 0 2 0 C1.3125 2.375 1.3125 2.375 0 5 C-2.625 6.3125 -2.625 6.3125 -5 7 C-5 7.66 -5 8.32 -5 9 C-5.78375 8.979375 -6.5675 8.95875 -7.375 8.9375 C-9.98114961 8.81315937 -9.98114961 8.81315937 -12 10 C-11.67 8.35 -11.34 6.7 -11 5 C-10.113125 5.103125 -9.22625 5.20625 -8.3125 5.3125 C-3.98166679 4.90393083 -2.83771111 3.15301234 0 0 Z " fill="#FCE995" transform="translate(444,235)"/>
<path d="M0 0 C-1.55789683 1.13136586 -3.12153857 2.25482321 -4.6875 3.375 C-5.55761719 4.00148437 -6.42773438 4.62796875 -7.32421875 5.2734375 C-9.83596952 6.89415843 -12.19299187 7.99858088 -15 9 C-15 8.34 -15 7.68 -15 7 C-11.69649386 3.88002198 -10.67590167 3 -6 3 C-6 2.01 -6 1.02 -6 0 C-3 -1 -3 -1 0 0 Z " fill="#BB981C" transform="translate(338,235)"/>
<path d="M0 0 C5.40489519 1.52012677 8.98492628 5.27385218 13 9 C10 10 10 10 7 9 C7 7.68 7 6.36 7 5 C6.01 5.33 5.02 5.66 4 6 C0 1.125 0 1.125 0 0 Z " fill="#CEBA5F" transform="translate(431,139)"/>
<path d="M0 0 C0 3 0 3 -2 6 C-2 5.34 -2 4.68 -2 4 C-2.66 4 -3.32 4 -4 4 C-4 4.66 -4 5.32 -4 6 C-4.99 6 -5.98 6 -7 6 C-7.33 4.35 -7.66 2.7 -8 1 C-2.25 -1.125 -2.25 -1.125 0 0 Z " fill="#4C7FAA" transform="translate(209,51)"/>
<path d="M0 0 C0.70703125 1.55078125 0.70703125 1.55078125 1 4 C-0.00746282 6.52587382 -1.04862792 8.79909956 -2.3125 11.1875 C-2.63412109 11.82880859 -2.95574219 12.47011719 -3.28710938 13.13085938 C-5.71878332 17.85939166 -5.71878332 17.85939166 -8 19 C-8 17.68 -8 16.36 -8 15 C-7.34 15 -6.68 15 -6 15 C-5.88785156 14.28457031 -5.77570313 13.56914062 -5.66015625 12.83203125 C-4.95543995 9.80884002 -3.86712202 7.43677312 -2.4375 4.6875 C-1.98246094 3.80449219 -1.52742188 2.92148437 -1.05859375 2.01171875 C-0.53458984 1.01591797 -0.53458984 1.01591797 0 0 Z " fill="#AE9A4E" transform="translate(367,401)"/>
<path d="M0 0 C10.16236162 0.84132841 10.16236162 0.84132841 14 3 C14.33 3.99 14.66 4.98 15 6 C11.33827525 5.37321829 8.1181005 4.35548154 4.6875 2.9375 C3.36298828 2.39416016 3.36298828 2.39416016 2.01171875 1.83984375 C1.34785156 1.56269531 0.68398437 1.28554688 0 1 C0 0.67 0 0.34 0 0 Z " fill="#A89339" transform="translate(183,442)"/>
<path d="M0 0 C0 0.66 0 1.32 0 2 C-0.66 2 -1.32 2 -2 2 C-2.24492187 2.58265625 -2.48984375 3.1653125 -2.7421875 3.765625 C-4.20435874 6.36302236 -5.84740414 7.83975831 -8.125 9.75 C-9.21167969 10.67039062 -9.21167969 10.67039062 -10.3203125 11.609375 C-10.87460937 12.06828125 -11.42890625 12.5271875 -12 13 C-12.33 11.68 -12.66 10.36 -13 9 C-11.35 8.67 -9.7 8.34 -8 8 C-7.67 7.01 -7.34 6.02 -7 5 C-2.46511628 0 -2.46511628 0 0 0 Z " fill="#B19F57" transform="translate(359,420)"/>
<path d="M0 0 C1.134375 0.020625 2.26875 0.04125 3.4375 0.0625 C1.02673344 1.66967771 -0.84349245 2.67792515 -3.5 3.6875 C-4.16902344 3.94789063 -4.83804687 4.20828125 -5.52734375 4.4765625 C-7.5625 5.0625 -7.5625 5.0625 -11.5625 5.0625 C-11.5625 4.0725 -11.5625 3.0825 -11.5625 2.0625 C-10.428125 1.918125 -9.29375 1.77375 -8.125 1.625 C-4.13770521 0.99542714 -4.0324238 0.07074428 0 0 Z " fill="#AB9333" transform="translate(318.5625,444.9375)"/>
<path d="M0 0 C1.98 0 3.96 0 6 0 C1.76486783 3.96189783 -2.547001 5.43181728 -8 7 C-8 6.01 -8 5.02 -8 4 C-6.02 4 -4.04 4 -2 4 C-2 3.34 -2 2.68 -2 2 C-1.34 2 -0.68 2 0 2 C0 1.34 0 0.68 0 0 Z " fill="#C7B254" transform="translate(427,345)"/>
<path d="M0 0 C0.33 0.99 0.66 1.98 1 3 C-0.29486821 4.69672386 -1.63360658 6.3603279 -3 8 C-4.24016669 10.6794645 -4.24016669 10.6794645 -5 13 C-5.33 13 -5.66 13 -6 13 C-6.9375 9.875 -6.9375 9.875 -7 6 C-4.97453209 3.5556526 -2.61534535 1.7805219 0 0 Z " fill="#F9E589" transform="translate(171,336)"/>
<path d="M0 0 C0.33 0.66 0.66 1.32 1 2 C-0.99946329 6.72932412 -3.76189957 11.99231582 -8 15 C-10.25 14.75 -10.25 14.75 -12 14 C-11.01 14 -10.02 14 -9 14 C-9 13.34 -9 12.68 -9 12 C-8.401875 11.4225 -7.80375 10.845 -7.1875 10.25 C-4.71720165 7.70912169 -3.52064176 5.17952368 -2 2 C-1.34 1.34 -0.68 0.68 0 0 Z " fill="#FAD748" transform="translate(422,303)"/>
<path d="M0 0 C0.33 0.66 0.66 1.32 1 2 C1.99 2.33 2.98 2.66 4 3 C3.236875 3.20625 2.47375 3.4125 1.6875 3.625 C-1.82229103 5.42070704 -2.52599781 7.43136312 -4 11 C-4.33 11 -4.66 11 -5 11 C-4.125 4.25 -4.125 4.25 -3 2 C-2.01 2 -1.02 2 0 2 C0 1.34 0 0.68 0 0 Z " fill="#FBEFBE" transform="translate(173,268)"/>
<path d="M0 0 C0.33 0 0.66 0 1 0 C2.17402193 7.33763707 2.09377123 14.58165418 2 22 C1.67 21.01 1.34 20.02 1 19 C0.34 19 -0.32 19 -1 19 C-0.89171875 18.07380859 -0.89171875 18.07380859 -0.78125 17.12890625 C-0.1511141 11.37891613 0.09328281 5.78353441 0 0 Z " fill="#F8E284" transform="translate(451,216)"/>
<path d="M0 0 C4.86896303 0.59619955 9.32790951 1.56976822 14 3 C13.67 3.99 13.34 4.98 13 6 C3.40546697 3.10933941 3.40546697 3.10933941 0 0 Z " fill="#F9D762" transform="translate(188,425)"/>
<path d="M0 0 C0 0.66 0 1.32 0 2 C-4.96993194 4.43425238 -8.34605369 5.34615998 -14 5 C-14.33 4.34 -14.66 3.68 -15 3 C-14.39671875 2.95101563 -13.7934375 2.90203125 -13.171875 2.8515625 C-12.37265625 2.77679688 -11.5734375 2.70203125 -10.75 2.625 C-9.56664062 2.52058594 -9.56664062 2.52058594 -8.359375 2.4140625 C-5.32161723 1.88094607 -3.049455 0 0 0 Z " fill="#FBE9A4" transform="translate(322,413)"/>
<path d="M0 0 C0.33 0 0.66 0 1 0 C1.50610724 6.07328688 0.04157942 9.77228537 -3 15 C-3.66 15 -4.32 15 -5 15 C-3.33333333 10 -1.66666667 5 0 0 Z " fill="#C29F1B" transform="translate(443,296)"/>
<path d="M0 0 C-0.99 0 -1.98 0 -3 0 C-3.33 0.99 -3.66 1.98 -4 3 C-9.94 3.495 -9.94 3.495 -16 4 C-13.32856215 2.66428108 -10.76007526 1.41760826 -8 0.3125 C-7.34 0.04050781 -6.68 -0.23148437 -6 -0.51171875 C-3.65456399 -1.08433496 -2.26562596 -0.75352292 0 0 Z " fill="#F8D956" transform="translate(268,282)"/>
<path d="M0 0 C-10.37357631 5.55580866 -10.37357631 5.55580866 -16 6 C-15.67 5.34 -15.34 4.68 -15 4 C-13.68 4 -12.36 4 -11 4 C-11 3.34 -11 2.68 -11 2 C-9.73392393 1.46770674 -8.46189588 0.94955456 -7.1875 0.4375 C-6.47980469 0.14746094 -5.77210938 -0.14257812 -5.04296875 -0.44140625 C-3 -1 -3 -1 0 0 Z " fill="#FEE988" transform="translate(420,255)"/>
<path d="M0 0 C2 2 2 2 2 5 C2.66 5 3.32 5 4 5 C5.625 7.5 5.625 7.5 7 10 C3.55862568 8.4705003 0.7777867 6.54630448 -2 4 C-2 3.01 -2 2.02 -2 1 C-1.34 0.67 -0.68 0.34 0 0 Z " fill="#B09B43" transform="translate(162,423)"/>
<path d="M0 0 C0.66 0.33 1.32 0.66 2 1 C-0.52054855 3.70058773 -2.69271121 5.40337783 -6 7 C-6.33 7.66 -6.66 8.32 -7 9 C-8.32 8.67 -9.64 8.34 -11 8 C-7.37 5.36 -3.74 2.72 0 0 Z " fill="#F8D447" transform="translate(203,310)"/>
<path d="M0 0 C1.17246771 4.09902098 1.07076062 7.75436258 1 12 C0.01 12.33 -0.98 12.66 -2 13 C-2.33 13.99 -2.66 14.98 -3 16 C-2.40984815 10.49191603 -1.43336231 5.35121931 0 0 Z " fill="#7991A4" transform="translate(34,183)"/>
<path d="M0 0 C0.66 0 1.32 0 2 0 C1.58846263 4.97093824 1.20399168 9.44508386 -1 14 C-2.15837573 10.52487282 -1.77265943 8.86329714 -1.0625 5.3125 C-0.86785156 4.31863281 -0.67320313 3.32476562 -0.47265625 2.30078125 C-0.31667969 1.54152344 -0.16070312 0.78226563 0 0 Z " fill="#516980" transform="translate(36,176)"/>
<path d="M0 0 C0.66 0.33 1.32 0.66 2 1 C-4.07439825 7.86214442 -4.07439825 7.86214442 -7.9375 8.4375 C-8.9584375 8.2209375 -8.9584375 8.2209375 -10 8 C-6.97727468 4.74475735 -3.74281699 2.38179263 0 0 Z " fill="#F7D84C" transform="translate(218,300)"/>
<path d="M0 0 C-2.01444603 1.34296402 -4.03541552 2.67618973 -6.0625 4 C-8.97085303 5.84649262 -8.97085303 5.84649262 -11 8 C-10.64987213 5.40905378 -10.26229035 3.4225789 -8.875 1.1875 C-5.99131838 -0.63883169 -3.32254207 -0.18806842 0 0 Z " fill="#A1BACE" transform="translate(185,52)"/>
<path d="M0 0 C0.66 0.66 1.32 1.32 2 2 C1.01 2 0.02 2 -1 2 C-1.103125 2.61875 -1.20625 3.2375 -1.3125 3.875 C-2 6 -2 6 -5 8 C-5.33 7.01 -5.66 6.02 -6 5 C-4.21653709 1.96811304 -3.40424844 1.13474948 0 0 Z " fill="#FFF5C3" transform="translate(192,314)"/>
<path d="M0 0 C-1.32 0.33 -2.64 0.66 -4 1 C-4 1.66 -4 2.32 -4 3 C-7.96 2.67 -11.92 2.34 -16 2 C-16 1.67 -16 1.34 -16 1 C-10.59255982 0.22750855 -5.46137814 -0.09752461 0 0 Z " fill="#F7D850" transform="translate(304,275)"/>
<path d="M0 0 C0.33 1.32 0.66 2.64 1 4 C0.01 4 -0.98 4 -2 4 C-2.0825 4.61875 -2.165 5.2375 -2.25 5.875 C-3 8 -3 8 -5.0625 9.25 C-5.701875 9.4975 -6.34125 9.745 -7 10 C-5.6062718 5.56541027 -3.39417765 3.12621626 0 0 Z " fill="#98872A" transform="translate(164,252)"/>
<path d="M0 0 C2.3125 0.125 2.3125 0.125 5 1 C6.8125 4.0625 6.8125 4.0625 8 7 C5.05043472 5.63055898 2.47531189 4.12169591 0 2 C0 1.34 0 0.68 0 0 Z " fill="#FCEC94" transform="translate(428,161)"/>
<path d="M0 0 C0.33 0 0.66 0 1 0 C1.33 1.98 1.66 3.96 2 6 C0.02 7.32 -1.96 8.64 -4 10 C-4.66 9.67 -5.32 9.34 -6 9 C-4.73046875 7.53515625 -3.4609375 6.0703125 -2.19140625 4.60546875 C-0.79128769 2.89287029 -0.79128769 2.89287029 0 0 Z " fill="#FBEFB5" transform="translate(328,403)"/>
<path d="M0 0 C1.65 0.33 3.3 0.66 5 1 C2.2180632 4.27286682 -1.27954067 5.96427697 -5 8 C-4.67 7.01 -4.34 6.02 -4 5 C-3.34 5 -2.68 5 -2 5 C-1.34 3.35 -0.68 1.7 0 0 Z " fill="#3F5349" transform="translate(177,238)"/>
<path d="M0 0 C2 0 2 0 3.625 1.375 C5 3 5 3 5 5 C3.02 5.99 3.02 5.99 1 7 C1 6.34 1 5.68 1 5 C0.34 4.67 -0.32 4.34 -1 4 C-0.67 2.68 -0.34 1.36 0 0 Z " fill="#2D4C60" transform="translate(323,217)"/>
<path d="M0 0 C0.66 0.33 1.32 0.66 2 1 C-0.31 3.97 -2.62 6.94 -5 10 C-5.33 8.68 -5.66 7.36 -6 6 C-4.21482174 3.35301155 -2.87978754 1.43989377 0 0 Z " fill="#B79917" transform="translate(355,214)"/>
<path d="M0 0 C0.99 0 1.98 0 3 0 C2.01 3.96 1.02 7.92 0 12 C-2 8 -2 8 -2 4 C-1.34 4 -0.68 4 0 4 C0 2.68 0 1.36 0 0 Z " fill="#9FB8CB" transform="translate(171,60)"/>
<path d="M0 0 C0.66 0.33 1.32 0.66 2 1 C-1.75 7.75 -1.75 7.75 -4 10 C-4 7.69 -4 5.38 -4 3 C-3.34 3 -2.68 3 -2 3 C-2 2.34 -2 1.68 -2 1 C-1.34 0.67 -0.68 0.34 0 0 Z " fill="#F8E075" transform="translate(297,384)"/>
<path d="M0 0 C1.32 0 2.64 0 4 0 C4.625 2.8125 4.625 2.8125 5 6 C4.01 7.485 4.01 7.485 3 9 C2.01 6.03 1.02 3.06 0 0 Z " fill="#FADD6F" transform="translate(326,386)"/>
<path d="M0 0 C0.99 0 1.98 0 3 0 C2.34 3.63 1.68 7.26 1 11 C0.67 11 0.34 11 0 11 C0 7.37 0 3.74 0 0 Z " fill="#CDB458" transform="translate(465,275)"/>
<path d="M0 0 C2.97 0.33 5.94 0.66 9 1 C7.02 1.99 7.02 1.99 5 3 C4.67 3.99 4.34 4.98 4 6 C3.01 5.67 2.02 5.34 1 5 C0.67 3.35 0.34 1.7 0 0 Z " fill="#FEF4C5" transform="translate(200,304)"/>
<path d="M0 0 C1.32 0.66 2.64 1.32 4 2 C3.67 2.66 3.34 3.32 3 4 C2.01 4 1.02 4 0 4 C0 4.66 0 5.32 0 6 C-0.99 6.33 -1.98 6.66 -3 7 C-1.125 1.125 -1.125 1.125 0 0 Z " fill="#FEF1C0" transform="translate(224,291)"/>
<path d="M0 0 C0 0.66 0 1.32 0 2 C-7.625 4.125 -7.625 4.125 -11 3 C-7.25593545 0.50395696 -4.45848315 0 0 0 Z " fill="#FEF2BE" transform="translate(323,262)"/>
<path d="M0 0 C0.66 0 1.32 0 2 0 C1.01 2.97 0.02 5.94 -1 9 C-1.99 9 -2.98 9 -4 9 C-2.80100302 5.9168649 -1.52299523 2.93720508 0 0 Z " fill="#9F8C25" transform="translate(346,198)"/>
<path d="M0 0 C0.66 0.33 1.32 0.66 2 1 C1.67 2.98 1.34 4.96 1 7 C0.01 6.67 -0.98 6.34 -2 6 C-2.33 5.01 -2.66 4.02 -3 3 C-2.01 2.01 -1.02 1.02 0 0 Z " fill="#6692B8" transform="translate(158,55)"/>
<path d="M0 0 C3.73884332 2.65654657 5.64978174 4.58110387 7 9 C4.5625 8.1875 4.5625 8.1875 2 7 C1.22227595 4.66682784 0.57584432 2.38564077 0 0 Z " fill="#798DA1" transform="translate(338,42)"/>
<path d="M0 0 C0.66 0 1.32 0 2 0 C1.01 3.3 0.02 6.6 -1 10 C-1.33 10 -1.66 10 -2 10 C-1.85950482 8.52031676 -1.71245174 7.04125484 -1.5625 5.5625 C-1.48128906 4.73878906 -1.40007812 3.91507812 -1.31640625 3.06640625 C-1 1 -1 1 0 0 Z " fill="#CEB25C" transform="translate(461,294)"/>
<path d="M0 0 C0.33 0.66 0.66 1.32 1 2 C-0.98 4.97 -0.98 4.97 -3 8 C-3.66 7.67 -4.32 7.34 -5 7 C-3.75023244 3.34683329 -3.32901247 2.21934164 0 0 Z " fill="#5A7286" transform="translate(55,137)"/>
<path d="M0 0 C1 4 1 4 0 7 C-3.0625 8.1875 -3.0625 8.1875 -6 9 C-4.02 6.03 -2.04 3.06 0 0 Z " fill="#93B1C9" transform="translate(206,76)"/>
<path d="M0 0 C-0.33 0.66 -0.66 1.32 -1 2 C-4.63 1.67 -8.26 1.34 -12 1 C-12 0.67 -12 0.34 -12 0 C-7.66726186 -0.92844389 -4.33273814 -0.92844389 0 0 Z " fill="#A7C0D4" transform="translate(198,51)"/>
<path d="M0 0 C0.33 0.66 0.66 1.32 1 2 C-1.52956528 5.0916909 -4.22454612 5.90931332 -8 7 C-7.67 6.34 -7.34 5.68 -7 5 C-6.34 5 -5.68 5 -5 5 C-5 4.34 -5 3.68 -5 3 C-2.5 1.375 -2.5 1.375 0 0 Z " fill="#708598" transform="translate(154,36)"/>
<path d="M0 0 C2.97 0.495 2.97 0.495 6 1 C6 2.32 6 3.64 6 5 C6.66 5 7.32 5 8 5 C7.67 5.66 7.34 6.32 7 7 C5.83040013 6.02433888 4.66438823 5.044375 3.5 4.0625 C2.8503125 3.51722656 2.200625 2.97195313 1.53125 2.41015625 C1.0259375 1.94480469 0.520625 1.47945313 0 1 C0 0.67 0 0.34 0 0 Z " fill="#8799A9" transform="translate(55,319)"/>
<path d="M0 0 C0.99 0.33 1.98 0.66 3 1 C0.69 3.31 -1.62 5.62 -4 8 C-4 4.87099787 -3.57548683 3.62581138 -2 1 C-1.34 0.67 -0.68 0.34 0 0 Z " fill="#FEF2BF" transform="translate(189,271)"/>
<path d="M0 0 C4.13333333 6.2 4.13333333 6.2 3.625 9.25 C3.41875 9.8275 3.2125 10.405 3 11 C0.60236815 8.60236815 0.65719414 7.66726502 0.375 4.375 C0.30023438 3.55773437 0.22546875 2.74046875 0.1484375 1.8984375 C0.09945313 1.27195313 0.05046875 0.64546875 0 0 Z " fill="#D1B968" transform="translate(455,166)"/>
<path d="M0 0 C0.66 0.99 1.32 1.98 2 3 C1.67 3.33 1.34 3.66 1 4 C0.76572222 6.01594582 0.58663876 8.038474 0.4375 10.0625 C0.35371094 11.16722656 0.26992187 12.27195312 0.18359375 13.41015625 C0.12300781 14.26480469 0.06242188 15.11945313 0 16 C-0.33 16 -0.66 16 -1 16 C-1.02692484 13.70839681 -1.04636124 11.41670454 -1.0625 9.125 C-1.07410156 7.84882812 -1.08570313 6.57265625 -1.09765625 5.2578125 C-1 2 -1 2 0 0 Z " fill="#5F8CB1" transform="translate(166,72)"/>
<path d="M0 0 C1.65 0 3.3 0 5 0 C5 0.66 5 1.32 5 2 C5.66 2 6.32 2 7 2 C7.33 2.99 7.66 3.98 8 5 C4.62496331 3.8141763 2.35277269 2.72426311 0 0 Z " fill="#76889B" transform="translate(63,326)"/>
<path d="M0 0 C1.134375 0.020625 2.26875 0.04125 3.4375 0.0625 C0.40224514 2.08600324 -0.75676202 2.38374018 -4.25 2.6875 C-5.05824219 2.76226562 -5.86648438 2.83703125 -6.69921875 2.9140625 C-7.31410156 2.96304687 -7.92898438 3.01203125 -8.5625 3.0625 C-7.923125 2.753125 -7.28375 2.44375 -6.625 2.125 C-2.58814103 0.04540598 -2.58814103 0.04540598 0 0 Z " fill="#FFED99" transform="translate(388.5625,264.9375)"/>
<path d="M0 0 C0.66 0 1.32 0 2 0 C1.67 1.32 1.34 2.64 1 4 C-1.31 4.66 -3.62 5.32 -6 6 C-4 4 -2 2 0 0 Z " fill="#F6E59F" transform="translate(184,256)"/>
<path d="M0 0 C1.32 0 2.64 0 4 0 C2.95125002 2.62187494 2.35068687 3.79371361 -0.125 5.25 C-0.74375 5.4975 -1.3625 5.745 -2 6 C-1.125 1.125 -1.125 1.125 0 0 Z " fill="#8DB6D6" transform="translate(60,208)"/>
<path d="M0 0 C2.31 0 4.62 0 7 0 C6.38125 0.185625 5.7625 0.37125 5.125 0.5625 C1.94397134 2.71437233 1.80548053 5.37533763 1 9 C0.67 9 0.34 9 0 9 C0 6.03 0 3.06 0 0 Z " fill="#FAE67B" transform="translate(387,167)"/>
<path d="M0 0 C3.625 0.375 3.625 0.375 7 1 C7 1.66 7 2.32 7 3 C4.03 2.67 1.06 2.34 -2 2 C-1.34 1.34 -0.68 0.68 0 0 Z " fill="#596F86" transform="translate(75,331)"/>
<path d="M0 0 C0.99 0.33 1.98 0.66 3 1 C1.68 3.31 0.36 5.62 -1 8 C-1.33 6.68 -1.66 5.36 -2 4 C-1.34 4 -0.68 4 0 4 C-0.33 3.01 -0.66 2.02 -1 1 C-0.67 0.67 -0.34 0.34 0 0 Z " fill="#C9B44F" transform="translate(444,329)"/>
<path d="M0 0 C0.66 0 1.32 0 2 0 C2.66 3.3 3.32 6.6 4 10 C3.34 10 2.68 10 2 10 C1.34 6.7 0.68 3.4 0 0 Z " fill="#FDEB97" transform="translate(427,189)"/>
<path d="M0 0 C1.52299523 2.93720508 2.80100302 5.9168649 4 9 C2.68 8.34 1.36 7.68 0 7 C0 4.69 0 2.38 0 0 Z " fill="#ABC3D1" transform="translate(171,73)"/>
<path d="M0 0 C-3.3 1.32 -6.6 2.64 -10 4 C-10.66 3.34 -11.32 2.68 -12 2 C-10.75579353 1.4654744 -9.50429064 0.94791389 -8.25 0.4375 C-7.55390625 0.14746094 -6.8578125 -0.14257812 -6.140625 -0.44140625 C-4 -1 -4 -1 0 0 Z " fill="#96A6B4" transform="translate(193,20)"/>
</svg>
