<?xml version="1.0" encoding="UTF-8"?>
<svg version="1.1" xmlns="http://www.w3.org/2000/svg" width="258" height="196">
<path d="M0 0 C1.1952832 0.00563965 2.39056641 0.0112793 3.62207031 0.01708984 C29.74731799 0.37569952 53.31269103 10.91907613 71.8125 29.3125 C76.19367115 34.00956794 80.24787447 38.96556171 83.8125 44.3125 C86.78565832 44.75850117 86.78565832 44.75850117 90.2890625 44.68359375 C91.60003906 44.70099609 92.91101563 44.71839844 94.26171875 44.73632812 C96.34168297 44.74633969 98.4214777 44.75001327 100.50146484 44.74829102 C109.74706159 44.76487604 116.59915582 44.81372616 123.8359375 51.05859375 C124.28195313 51.61675781 124.72796875 52.17492188 125.1875 52.75 C125.87972656 53.58337891 125.87972656 53.58337891 126.5859375 54.43359375 C129.59872869 59.0487293 130.07325386 63.05204255 130.11889648 68.5144043 C130.12722 69.22083572 130.13554352 69.92726715 130.14411926 70.65510559 C130.16814224 72.98236673 130.1769834 75.30934689 130.18359375 77.63671875 C130.19256855 79.26471536 130.20169054 80.89271117 130.21095276 82.52070618 C130.22742624 85.93268838 130.23513941 89.34457268 130.23803711 92.7565918 C130.24340796 97.1064741 130.28104037 101.45542205 130.32678127 105.80504131 C130.35668534 109.16904464 130.3637636 112.53282705 130.36476326 115.89695168 C130.36894201 117.49918696 130.38128106 119.10142434 130.40228081 120.70352745 C130.52654437 131.00692402 130.07318696 139.67130411 122.68603516 147.59277344 C114.55013323 152.48690052 106.26626427 151.9104449 97.11132812 151.46044922 C88.62474172 150.92282485 88.62474172 150.92282485 81.20092773 154.4296875 C79.170387 156.96768795 77.49023011 159.53272382 75.8125 162.3125 C60.75598316 181.41085514 37.73053402 193.12212073 13.8125 196.3125 C-16.49020435 198.52690959 -42.09160425 191.46021773 -65.3984375 171.72949219 C-71.86363207 166.04524961 -77.41284932 159.47447603 -82.1875 152.3125 C-85.22708941 151.89946066 -85.22708941 151.89946066 -88.8125 152.01171875 C-90.17318188 152.00406481 -91.53385925 151.99557291 -92.89453125 151.98632812 C-95.02949835 151.98852108 -97.16354883 151.99968697 -99.29833984 152.02758789 C-107.29975337 152.10896771 -114.01218287 151.80693117 -121.07421875 147.57739258 C-129.03186396 139.04884884 -128.91858539 129.413896 -128.81640625 118.4296875 C-128.81723663 116.80404502 -128.81970238 115.17840263 -128.82371521 113.55276489 C-128.8265592 110.16203241 -128.81200725 106.77196562 -128.78442383 103.38134766 C-128.75028811 99.05273436 -128.75639043 94.72530567 -128.7750864 90.39663506 C-128.78569234 87.04552467 -128.77668708 83.69468636 -128.76170158 80.34360123 C-128.7565493 78.74813776 -128.75696538 77.15264555 -128.76324654 75.55718613 C-128.80481488 58.66321389 -128.80481488 58.66321389 -122.44140625 51.2890625 C-121.60416016 50.62003906 -121.60416016 50.62003906 -120.75 49.9375 C-120.19441406 49.47601563 -119.63882813 49.01453125 -119.06640625 48.5390625 C-114.52791074 45.57630244 -110.79073518 45.10323318 -105.41796875 45.25 C-103.46600586 45.25966797 -103.46600586 45.25966797 -101.47460938 45.26953125 C-99.42559622 45.28373839 -97.38159012 45.31226827 -95.33374023 45.38427734 C-86.88147408 45.78807654 -86.88147408 45.78807654 -79.58520508 42.17773438 C-77.55932979 39.64451393 -75.87119437 37.08110276 -74.1875 34.3125 C-56.40158158 11.76967246 -28.34010258 -0.13958677 0 0 Z M-116.1875 58.3125 C-118.65972376 62.02083564 -118.45743537 63.93625074 -118.49389648 68.36669922 C-118.50222 69.08087006 -118.51054352 69.79504089 -118.51911926 70.53085327 C-118.54322494 72.89302006 -118.55199197 75.25491074 -118.55859375 77.6171875 C-118.56755976 79.26002078 -118.5766816 80.90285322 -118.58595276 82.54568481 C-118.6024469 85.99060043 -118.61014361 89.43541881 -118.61303711 92.88037109 C-118.61842104 97.29133015 -118.65609866 101.70137344 -118.70178127 106.1120739 C-118.73154752 109.50590336 -118.73876056 112.8995122 -118.73976326 116.29346085 C-118.74396658 117.91936563 -118.75640551 119.54527101 -118.77728081 121.17104721 C-118.80418811 123.44788368 -118.799374 125.72259659 -118.78686523 127.99951172 C-118.79193588 129.2939621 -118.79700653 130.58841248 -118.80223083 131.92208862 C-118.03098669 136.17571442 -116.49223815 137.62348923 -113.1875 140.3125 C-109.85273793 141.97988104 -106.10611452 141.46429279 -102.43876648 141.46640015 C-101.52178618 141.4707824 -100.60480588 141.47516465 -99.66003829 141.4796797 C-96.56852286 141.49309978 -93.47703596 141.49925373 -90.38549805 141.50537109 C-88.17659373 141.51326945 -85.96769071 141.52153823 -83.75878906 141.53015137 C-76.48894488 141.55639947 -69.21909485 141.5716805 -61.94921875 141.5859375 C-59.44997465 141.59129579 -56.9507306 141.59667329 -54.45148659 141.60206985 C-44.05873875 141.62370152 -33.66599157 141.64259135 -23.27322674 141.65369225 C-20.57578718 141.656622 -17.87834767 141.65958366 -15.1809082 141.66259766 C-14.51046243 141.66334371 -13.84001667 141.66408976 -13.14925436 141.66485842 C-2.28568161 141.67751512 8.57772757 141.71074212 19.44122384 141.75239949 C30.59113462 141.79480517 41.74098655 141.8179779 52.89098328 141.82361281 C59.15273945 141.82727305 65.41421836 141.83936614 71.6758976 141.87171555 C77.56513505 141.90170447 83.45392614 141.90814065 89.34322357 141.89633179 C91.50680641 141.89611029 93.67040942 141.90447767 95.83392143 141.92198563 C98.78409533 141.94456336 101.73263507 141.936435 104.68281555 141.92050171 C105.54235047 141.9343838 106.40188539 141.94826588 107.28746682 141.96256864 C111.69877834 141.90372074 113.28851567 141.7437094 116.82060528 138.83699989 C117.47793054 138.00391493 118.13525579 137.17082996 118.8125 136.3125 C119.1425 135.9825 119.4725 135.6525 119.8125 135.3125 C119.92272456 133.06944704 119.96164891 130.82287603 119.97363281 128.57714844 C119.97859772 127.87302322 119.98356262 127.16889801 119.98867798 126.44343567 C120.00333879 124.10290565 120.0101093 121.76244348 120.015625 119.421875 C120.0213748 117.7986043 120.02713255 116.17533363 120.03289795 114.55206299 C120.04342015 111.14229006 120.0492543 107.73254079 120.05273438 104.32275391 C120.05821092 99.95683186 120.0822156 95.591223 120.11070633 91.22539902 C120.12934972 87.86933487 120.13453929 84.51334574 120.13607025 81.15723419 C120.13909527 79.54810124 120.14711875 77.93896956 120.16025543 76.32988739 C120.17734616 74.07482805 120.17542828 71.82052786 120.16894531 69.56542969 C120.17259094 68.28271179 120.17623657 66.9999939 120.17999268 65.67840576 C119.78049681 62.01937929 119.09258195 60.17849059 116.8125 57.3125 C112.64834337 54.80469934 108.5935117 55.03092252 103.86122131 55.05180359 C102.94661571 55.04797804 102.03201012 55.04415249 101.0896892 55.04021102 C98.01814942 55.02987381 94.94679633 55.03387456 91.87524414 55.0378418 C89.67589647 55.03349574 87.47655031 55.02831294 85.27720642 55.02235413 C79.29794241 55.00894178 73.31874151 55.00838793 67.33946538 55.01091743 C62.35167697 55.01198558 57.36390141 55.00710778 52.37611574 55.002312 C39.93843855 54.99057398 27.50078952 54.99144633 15.0631113 54.99786881 C4.26114171 55.00303836 -6.5407377 54.99178194 -17.34268945 54.97277059 C-28.43391822 54.95339975 -39.52511032 54.94542641 -50.61635691 54.94889385 C-56.84334463 54.95070943 -63.07024975 54.94804309 -69.29722404 54.93417931 C-75.15194787 54.9216325 -81.00649083 54.92351526 -86.86121178 54.93659019 C-89.01187958 54.93896236 -91.16255999 54.9361985 -93.31321335 54.92796707 C-96.2454332 54.91755218 -99.17704022 54.92555807 -102.10923767 54.9382782 C-103.39065727 54.92721677 -103.39065727 54.92721677 -104.69796413 54.91593188 C-109.34569531 54.95844951 -112.4300853 55.27365401 -116.1875 58.3125 Z " fill="#156EB3" transform="translate(128.1875,-0.3125)"/>
<path d="M0 0 C1.81274414 0.02707031 1.81274414 0.02707031 3.66210938 0.0546875 C6.62973184 0.10160643 9.59569661 0.16724398 12.5625 0.25 C12.5625 1.24 12.5625 2.23 12.5625 3.25 C11.5725 3.58 10.5825 3.91 9.5625 4.25 C9.2325 4.91 8.9025 5.57 8.5625 6.25 C10.5425 6.745 10.5425 6.745 12.5625 7.25 C12.5625 11.77900169 11.6957357 12.64578939 8.6496582 15.76855469 C8.084646 16.31930664 7.51963379 16.87005859 6.9375 17.4375 C6.36153076 18.00758789 5.78556152 18.57767578 5.19213867 19.16503906 C-1.20148358 25.29093323 -8.51357602 30.28803801 -16.4375 34.25 C-17.52786928 37.2237344 -17.47614166 38.13407501 -16.4375 41.25 C-17.78690162 45.00904736 -19.7149844 46.66494986 -23.1875 48.375 C-34.20549372 52.68410406 -44.97966853 53.51945346 -56.6875 53.5625 C-58.32029907 53.57071777 -58.32029907 53.57071777 -59.98608398 53.57910156 C-66.85007715 53.51867634 -73.82279248 53.25090975 -80.4375 51.25 C-80.7675 50.59 -81.0975 49.93 -81.4375 49.25 C-83.2455828 48.51761203 -85.08492344 47.86115928 -86.9375 47.25 C-88.79007656 46.63884072 -90.6294172 45.98238797 -92.4375 45.25 C-92.7675 44.59 -93.0975 43.93 -93.4375 43.25 C-92.7775 43.25 -92.1175 43.25 -91.4375 43.25 C-90.9425 42.26 -90.9425 42.26 -90.4375 41.25 C-89.7775 41.91 -89.1175 42.57 -88.4375 43.25 C-87.7775 41.93 -87.1175 40.61 -86.4375 39.25 C-86.95546143 38.99420166 -87.47342285 38.73840332 -88.00708008 38.47485352 C-98.40146635 33.29669349 -107.93917277 28.27318114 -116.4375 20.25 C-117.38882813 19.35410156 -118.34015625 18.45820313 -119.3203125 17.53515625 C-124.30949705 12.69189492 -124.30949705 12.69189492 -126.4375 10.25 C-126.4375 9.59 -126.4375 8.93 -126.4375 8.25 C-122.16739093 8.02448333 -117.89648818 7.82252547 -113.625 7.625 C-112.41005859 7.56054688 -111.19511719 7.49609375 -109.94335938 7.4296875 C-108.77998047 7.378125 -107.61660156 7.3265625 -106.41796875 7.2734375 C-105.34442139 7.22106934 -104.27087402 7.16870117 -103.16479492 7.11474609 C-100.4375 7.25 -100.4375 7.25 -97.4375 9.25 C-96.40736723 10.89821244 -95.40635372 12.56503702 -94.4375 14.25 C-93.7775 14.91 -93.1175 15.57 -92.4375 16.25 C-91.7775 15.92 -91.1175 15.59 -90.4375 15.25 C-90.03020772 12.92843403 -89.69311323 10.5931213 -89.4375 8.25 C-87.92289185 8.25785522 -87.92289185 8.25785522 -86.37768555 8.26586914 C-65.70280721 8.36356469 -45.09283989 8.26098774 -24.4375 7.25 C-24.9325 6.26 -24.9325 6.26 -25.4375 5.25 C-23.7875 5.58 -22.1375 5.91 -20.4375 6.25 C-20.4375 5.59 -20.4375 4.93 -20.4375 4.25 C-13.90393843 -0.62378748 -7.93423092 -0.22508457 0 0 Z " fill="#1670B7" transform="translate(185.4375,142.75)"/>
<path d="M0 0 C4.27077392 -0.05883232 8.54144139 -0.09387308 12.8125 -0.125 C14.6059082 -0.15013672 14.6059082 -0.15013672 16.43554688 -0.17578125 C23.85799643 -0.21623057 30.75678331 0.35537355 38 2 C38.62109375 3.8671875 38.62109375 3.8671875 39 6 C37.0625 8.125 37.0625 8.125 35 10 C35 10.66 35 11.32 35 12 C36.20914063 12.40089844 37.41828125 12.80179688 38.6640625 13.21484375 C56.52220197 19.3317739 73.69814898 28.48318251 84 45 C79.54178834 45.08674429 75.08379196 45.14030513 70.625 45.1875 C69.35398437 45.21263672 68.08296875 45.23777344 66.7734375 45.26367188 C64.95585937 45.27817383 64.95585937 45.27817383 63.1015625 45.29296875 C61.98088379 45.3086792 60.86020508 45.32438965 59.70556641 45.34057617 C58.36631104 45.17199097 58.36631104 45.17199097 57 45 C56.34 44.01 55.68 43.02 55 42 C53.515 41.505 53.515 41.505 52 41 C50.3125 39.4375 50.3125 39.4375 49 38 C48.80664062 38.56589844 48.61328125 39.13179687 48.4140625 39.71484375 C48.15367187 40.44832031 47.89328125 41.18179688 47.625 41.9375 C47.36976563 42.66839844 47.11453125 43.39929687 46.8515625 44.15234375 C46 46 46 46 44 47 C42.1136088 47.084915 40.22421485 47.107193 38.3359375 47.09765625 C37.21445313 47.09443359 36.09296875 47.09121094 34.9375 47.08789062 C33.761875 47.07951172 32.58625 47.07113281 31.375 47.0625 C30.19164062 47.05798828 29.00828125 47.05347656 27.7890625 47.04882812 C24.85932493 47.03701467 21.92968728 47.02054258 19 47 C17.63160637 44.26321275 17.78365182 41.95735576 17.68359375 38.8984375 C17.64169922 37.68671875 17.59980469 36.475 17.55664062 35.2265625 C17.51732422 33.95554688 17.47800781 32.68453125 17.4375 31.375 C17.39431641 30.09625 17.35113281 28.8175 17.30664062 27.5 C17.20030114 24.33344652 17.09827167 21.16681247 17 18 C16.01 18 15.02 18 14 18 C13.34 19.65 12.68 21.3 12 23 C11.34 23 10.68 23 10 23 C10 21.02 10 19.04 10 17 C8.70454552 18.07029129 8.70454552 18.07029129 8.88647461 20.59204102 C8.89171143 21.71795654 8.89694824 22.84387207 8.90234375 24.00390625 C8.90556641 25.21884766 8.90878906 26.43378906 8.91210938 27.68554688 C8.92048828 28.96494141 8.92886719 30.24433594 8.9375 31.5625 C8.94201172 32.84576172 8.94652344 34.12902344 8.95117188 35.45117188 C8.96300445 38.6341342 8.98094056 41.81707274 9 45 C0.42 45 -8.16 45 -17 45 C-15 38 -15 38 -14 36 C-13.34 36 -12.68 36 -12 36 C-12.495 33.03 -12.495 33.03 -13 30 C-13.433125 30.433125 -13.86625 30.86625 -14.3125 31.3125 C-14.869375 31.869375 -15.42625 32.42625 -16 33 C-16.515625 33.556875 -17.03125 34.11375 -17.5625 34.6875 C-19 36 -19 36 -21 36 C-21.2475 36.598125 -21.495 37.19625 -21.75 37.8125 C-23.17746467 40.31056317 -24.64966262 41.38414305 -27 43 C-27.66 43.66 -28.32 44.32 -29 45 C-31.70556641 45.22705078 -31.70556641 45.22705078 -35.1015625 45.1953125 C-36.91914062 45.18564453 -36.91914062 45.18564453 -38.7734375 45.17578125 C-40.04445313 45.15902344 -41.31546875 45.14226563 -42.625 45.125 C-43.90375 45.11597656 -45.1825 45.10695312 -46.5 45.09765625 C-49.66685167 45.07402303 -52.83333424 45.04107629 -56 45 C-46.35502204 30.03438585 -29.09357378 17.44051653 -11.5 13.5 C-10.345 13.335 -9.19 13.17 -8 13 C-8.66 11.68 -9.32 10.36 -10 9 C-9.01 8.34 -8.02 7.68 -7 7 C-7.66 6.34 -8.32 5.68 -9 5 C-8.34 5 -7.68 5 -7 5 C-7 4.34 -7 3.68 -7 3 C-5.5459375 2.814375 -5.5459375 2.814375 -4.0625 2.625 C-3.051875 2.41875 -2.04125 2.2125 -1 2 C-0.67 1.34 -0.34 0.68 0 0 Z " fill="#166FB5" transform="translate(115,0)"/>
<path d="M0 0 C5.28 0 10.56 0 16 0 C18.25 7.875 18.25 7.875 18.4140625 11.18359375 C18.45273437 11.88291016 18.49140625 12.58222656 18.53125 13.30273438 C18.5621875 14.00720703 18.593125 14.71167969 18.625 15.4375 C18.66367187 16.16904297 18.70234375 16.90058594 18.7421875 17.65429688 C18.83533984 19.43583532 18.91870286 21.21788122 19 23 C19.66 23 20.32 23 21 23 C21.03738281 22.42894531 21.07476562 21.85789062 21.11328125 21.26953125 C21.70319685 13.99390548 23.23696042 7.07433492 25 0 C28.96 0 32.92 0 37 0 C38.63377165 4.56035392 39.72296253 9.12549661 40.625 13.875 C40.82609375 14.90753906 40.82609375 14.90753906 41.03125 15.9609375 C41.35772223 17.63993755 41.67936553 19.31987536 42 21 C43.42424043 14.01516129 44.74063541 7.01645984 46 0 C51.28 0 56.56 0 62 0 C61.40305476 9.42223798 60.28852704 18.65039393 58.84326172 27.9699707 C58.49467452 30.22190351 58.15509059 32.47507426 57.81640625 34.72851562 C56.13808417 45.72383167 56.13808417 45.72383167 55 48 C48.4 48 41.8 48 35 48 C33.43281 43.29842999 32.15735226 38.79474509 31 34 C30.01 38.62 29.02 43.24 28 48 C21.07 48 14.14 48 7 48 C6.00020737 41.80740685 5.00231075 35.61457034 4.00927734 29.42089844 C3.67088034 27.31394722 3.33136947 25.20717458 2.99072266 23.10058594 C2.50129991 20.0727286 2.01588557 17.04425178 1.53125 14.015625 C1.37813354 13.07382385 1.22501709 12.13202271 1.06726074 11.16168213 C0.92711548 10.28107117 0.78697021 9.40046021 0.64257812 8.49316406 C0.51822388 7.72039124 0.39386963 6.94761841 0.26574707 6.15142822 C0 4 0 4 0 0 Z " fill="#1D3444" transform="translate(28,74)"/>
<path d="M0 0 C7.0228125 -0.061875 7.0228125 -0.061875 14.1875 -0.125 C15.65598389 -0.14320801 17.12446777 -0.16141602 18.63745117 -0.18017578 C19.80252197 -0.1851709 20.96759277 -0.19016602 22.16796875 -0.1953125 C23.35672607 -0.20578613 24.5454834 -0.21625977 25.77026367 -0.22705078 C30.24308983 0.08738934 32.9723449 1.08344275 36.3125 4.0625 C38.63303482 8.10194951 38.70201541 11.44102934 38 16 C35.91891892 20.54054054 35.91891892 20.54054054 33 22 C33.969375 22.78375 34.93875 23.5675 35.9375 24.375 C37.83962346 25.91288705 38.89629957 26.79259913 40 29 C40.40678241 33.85792065 40.62085653 38.43152035 38.8125 43 C35.70891199 46.42464884 33.14010154 47.88922187 28.49487305 48.34057617 C27.18043213 48.32486572 25.86599121 48.30915527 24.51171875 48.29296875 C22.58138794 48.28172974 22.58138794 48.28172974 20.61206055 48.27026367 C18.98695557 48.24295166 17.36185059 48.21563965 15.6875 48.1875 C7.9221875 48.0946875 7.9221875 48.0946875 0 48 C0 32.16 0 16.32 0 0 Z M15 11 C15 13.31 15 15.62 15 18 C18.465 17.505 18.465 17.505 22 17 C22.6814823 15.10820797 22.6814823 15.10820797 23 13 C21.10244856 10.65026182 21.10244856 10.65026182 17.875 10.875 C16.92625 10.91625 15.9775 10.9575 15 11 Z M15 29 C15 31.31 15 33.62 15 36 C19.00254456 36.09181134 19.00254456 36.09181134 23 36 C24.28322547 34.9404123 24.28322547 34.9404123 24.125 32.5 C24.28322547 30.0595877 24.28322547 30.0595877 23 29 C20.32941149 28.85884839 17.67567762 28.95752893 15 29 Z " fill="#1E3545" transform="translate(134,74)"/>
<path d="M0 0 C2.16431837 1.6299742 2.83924835 2.46585685 3.6171875 5.05078125 C4.21307297 10.27832196 4.00335822 13.43934492 1 18 C0.34 18.66 -0.32 19.32 -1 20 C0.2065625 21.423125 0.2065625 21.423125 1.4375 22.875 C4.57388572 26.57432675 5.28607589 28.91031211 5.22265625 33.90234375 C4.81056685 37.7846597 2.97361843 40.6369342 0.75 43.75 C-4.54885135 47.53489382 -11.20676067 47.30938751 -17.4375 47.25 C-18.24509766 47.25773437 -19.05269531 47.26546875 -19.88476562 47.2734375 C-25.24181217 47.25617063 -29.85342519 46.4890205 -35 45 C-34.34 41.04 -33.68 37.08 -33 33 C-26.07 33.33 -19.14 33.66 -12 34 C-12 32.35 -12 30.7 -12 29 C-13.92057292 29.03255208 -15.84114583 29.06510417 -17.76171875 29.09765625 C-20 29 -20 29 -25 28 C-25 24.04 -25 20.08 -25 16 C-18.565 15.505 -18.565 15.505 -12 15 C-12 13.35 -12 11.7 -12 10 C-18.6 10.33 -25.2 10.66 -32 11 C-32.66 7.37 -33.32 3.74 -34 0 C-22.92679813 -3.69106729 -10.728619 -5.57364841 0 0 Z " fill="#1D3343" transform="translate(225,76)"/>
<path d="M0 0 C11.22 0 22.44 0 34 0 C33.34 3.96 32.68 7.92 32 12 C26.72 12 21.44 12 16 12 C16 13.98 16 15.96 16 18 C16.99902344 17.98839844 17.99804688 17.97679688 19.02734375 17.96484375 C20.31769531 17.95582031 21.60804687 17.94679688 22.9375 17.9375 C24.22527344 17.92589844 25.51304688 17.91429688 26.83984375 17.90234375 C30 18 30 18 31 19 C31.14310287 22.6691577 31.04221662 26.32715441 31 30 C26.05 30 21.1 30 16 30 C16 31.98 16 33.96 16 36 C21.94 36 27.88 36 34 36 C34 39.96 34 43.92 34 48 C22.78 48 11.56 48 0 48 C0 32.16 0 16.32 0 0 Z " fill="#1E3545" transform="translate(94,74)"/>
<path d="M0 0 C39.27 0 78.54 0 119 0 C114 4 114 4 112 4 C112 4.66 112 5.32 112 6 C110.68 6 109.36 6 108 6 C108.495 6.99 108.495 6.99 109 8 C86.93810182 8.78034144 65.05815938 9.20720381 43 8 C43 10.31 43 12.62 43 15 C41.02 15.99 41.02 15.99 39 17 C36.74754119 14.31158141 35.11786042 12.35358125 34 9 C31.42788678 7.71394339 29.43093034 7.78956059 26.5546875 7.68359375 C25.47832031 7.64169922 24.40195313 7.59980469 23.29296875 7.55664062 C21.60107422 7.49766602 21.60107422 7.49766602 19.875 7.4375 C18.73933594 7.39431641 17.60367188 7.35113281 16.43359375 7.30664062 C13.62252232 7.2003396 10.81136055 7.09830595 8 7 C8.66 5.68 9.32 4.36 10 3 C6.67395049 1.89131683 3.46941546 1.45822468 0 1 C0 0.67 0 0.34 0 0 Z " fill="#136FB8" transform="translate(53,143)"/>
<path d="M0 0 C-0.85722656 0.7734375 -1.71445313 1.546875 -2.59765625 2.34375 C-9.8859845 8.89461449 -9.8859845 8.89461449 -16.6875 15.9375 C-17.23277344 16.54464844 -17.77804688 17.15179687 -18.33984375 17.77734375 C-20.16989707 20.09109673 -20.16989707 20.09109673 -21.69140625 23.37890625 C-23.8707244 27.4031814 -25.86569337 30.79184032 -30 33 C-38.85382578 34.66201434 -48.08088426 33.79316489 -57 33 C-45.47093517 15.11094556 -26.20119868 4.66683197 -6.01171875 -0.50390625 C-3 -1 -3 -1 0 0 Z " fill="#B4DCF9" transform="translate(116,12)"/>
<path d="M0 0 C20.61327566 1.87820279 39.01675707 13.17256748 53 28 C54.43295185 29.9547021 55.71574366 31.94096929 57 34 C34.02049792 36.04353602 34.02049792 36.04353602 27.96533203 32.96582031 C24.87828273 30.20898532 23.07857054 26.57674741 21.18310547 22.96435547 C18.91389882 19.19670447 15.78686137 16.15443247 12.75 13 C12.17016357 12.37794678 11.59032715 11.75589355 10.99291992 11.11499023 C8.3138967 8.2678291 5.60529203 5.60209565 2.578125 3.125 C1.72734375 2.42375 0.8765625 1.7225 0 1 C0 0.67 0 0.34 0 0 Z " fill="#B4DCF9" transform="translate(142,11)"/>
<path d="M0 0 C6.31357695 -0.46214246 12.61415997 -0.7272945 18.9453125 -0.6171875 C19.98703613 -0.60284668 21.02875977 -0.58850586 22.10205078 -0.57373047 C25.76199842 0.150859 27.32560223 1.57727688 29.875 4.25 C30.93371467 6.15730276 31.97435568 8.07471189 33 10 C34.73270417 12.07165256 36.46270616 14.0422514 38.3125 16 C39.00025513 16.74733398 39.00025513 16.74733398 39.7019043 17.50976562 C44.50035639 22.67230749 49.69644982 27.36324046 55 32 C47.4739953 34.50866823 35.8822048 28.65978501 29.00341797 25.2421875 C18.00953517 19.43517688 8.09946491 11.45937507 0 2 C0 1.34 0 0.68 0 0 Z " fill="#B6DDFA" transform="translate(60,152)"/>
<path d="M0 0 C-7.16679413 15.23044523 -26.00535912 24.5171465 -41 30 C-51.03043214 33.32318929 -51.03043214 33.32318929 -55 32 C-54.2265625 31.29875 -53.453125 30.5975 -52.65625 29.875 C-49.42142315 26.93396419 -46.20717395 23.9711392 -43 21 C-42.26523438 20.32195312 -41.53046875 19.64390625 -40.7734375 18.9453125 C-40.14695313 18.34460938 -39.52046875 17.74390625 -38.875 17.125 C-38.23175781 16.50882813 -37.58851563 15.89265625 -36.92578125 15.2578125 C-34.81944544 12.94708081 -34.81944544 12.94708081 -33.16796875 9.6171875 C-25.7251524 -3.66049572 -13.79327812 -1.33203657 0 0 Z " fill="#B6DEFA" transform="translate(198,152)"/>
<path d="M0 0 C1.875 0.6875 1.875 0.6875 3.875 1.6875 C2.40266838 5.56910155 0.58229287 6.90248382 -3.125 8.6875 C-6.55078125 9.04052734 -6.55078125 9.04052734 -10.4375 9.0234375 C-11.85677544 9.03594568 -13.27604631 9.04898261 -14.6953125 9.0625 C-16.91390181 9.06643193 -19.13203937 9.06245367 -21.35058594 9.04785156 C-23.50523351 9.0392597 -25.65801665 9.06098682 -27.8125 9.0859375 C-29.09511719 9.08255371 -30.37773437 9.07916992 -31.69921875 9.07568359 C-36.0069806 9.8450145 -37.39149136 11.34852165 -40.125 14.6875 C-41.47662508 16.67518394 -42.81193567 18.6741347 -44.125 20.6875 C-45.625 22.625 -45.625 22.625 -47.125 23.6875 C-49.3125 23.375 -49.3125 23.375 -51.125 22.6875 C-51.125 22.0275 -51.125 21.3675 -51.125 20.6875 C-52.115 20.3575 -53.105 20.0275 -54.125 19.6875 C-53.320625 18.945 -52.51625 18.2025 -51.6875 17.4375 C-48.80847114 14.79251953 -48.80847114 14.79251953 -48.125 10.6875 C-56.705 10.6875 -65.285 10.6875 -74.125 10.6875 C-74.125 10.3575 -74.125 10.0275 -74.125 9.6875 C-63.73 9.1925 -63.73 9.1925 -53.125 8.6875 C-52.795 7.6975 -52.465 6.7075 -52.125 5.6875 C-51.135 5.6875 -50.145 5.6875 -49.125 5.6875 C-49.125 4.6975 -49.125 3.7075 -49.125 2.6875 C-47.84334961 2.66768066 -46.56169922 2.64786133 -45.24121094 2.62744141 C-40.48498933 2.55135497 -35.72907243 2.46264202 -30.97314453 2.37011719 C-28.91493751 2.33184005 -26.85666388 2.29698496 -24.79833984 2.265625 C-21.83927612 2.21994722 -18.88067043 2.16195698 -15.921875 2.1015625 C-15.00194763 2.09001129 -14.08202026 2.07846008 -13.13421631 2.06655884 C-11.84333099 2.0367543 -11.84333099 2.0367543 -10.52636719 2.00634766 C-9.77135925 1.99302399 -9.01635132 1.97970032 -8.23846436 1.9659729 C-5.09812167 1.55219713 -3.15630289 -0.46416219 0 0 Z " fill="#136FB9" transform="translate(247.125,140.3125)"/>
<path d="M0 0 C0.90784963 0.00096357 1.81569925 0.00192714 2.75105947 0.00291991 C5.79968041 0.00866329 8.84803388 0.02886459 11.89659119 0.04901123 C14.07947536 0.05616189 16.26236249 0.06245318 18.44525146 0.06794739 C24.37897703 0.0855961 30.31257411 0.11604176 36.24623036 0.1492815 C42.44813497 0.18243566 48.6500779 0.20573783 54.85202026 0.23059082 C65.93453403 0.27675653 77.0169706 0.33308733 88.09941541 0.39340732 C98.15157147 0.44783445 108.20372872 0.49176599 118.25596619 0.52801514 C129.92611723 0.5701405 141.59620992 0.61884673 153.26629061 0.6774528 C159.44510852 0.70847769 165.6239074 0.73680752 171.8027668 0.75821686 C177.60989068 0.77877336 183.41688436 0.80900116 189.22392082 0.84679985 C191.35928535 0.85910322 193.49467253 0.86799848 195.63006592 0.87330055 C198.53663973 0.88106476 201.44287888 0.90097041 204.34936523 0.92407227 C205.20168875 0.92350177 206.05401227 0.92293128 206.93216377 0.92234349 C210.83569535 0.96605553 212.78935465 1.00144598 216.1111908 3.21600342 C215.7811908 3.87600342 215.4511908 4.53600342 215.1111908 5.21600342 C214.1211908 4.72100342 214.1211908 4.72100342 213.1111908 4.21600342 C210.19526427 4.11778531 207.30317932 4.08148792 204.38696289 4.08901978 C203.47265501 4.08745978 202.55834713 4.08589979 201.61633295 4.08429253 C198.53395501 4.0802845 195.4516258 4.08347144 192.36924744 4.08660889 C190.1669512 4.08525475 187.96465519 4.08347475 185.76235962 4.08129883 C179.76659445 4.07672571 173.77084641 4.07851363 167.77508092 4.08167791 C161.51174576 4.08420245 155.24841212 4.08186368 148.9850769 4.08029175 C137.78931524 4.07835338 126.59356067 4.08146941 115.39780068 4.08655109 C105.2421202 4.09101795 95.08645115 4.09024401 84.93077087 4.08563232 C73.14567833 4.08028326 61.36059136 4.07828758 49.57549757 4.08124459 C43.33404131 4.08280639 37.09259292 4.08300378 30.85113716 4.0797081 C24.98336691 4.07682642 19.11561832 4.07881059 13.24785042 4.08460236 C11.08989498 4.08592841 8.93193773 4.08553844 6.773983 4.08333969 C3.83676457 4.08062215 0.89961627 4.08401684 -2.03759766 4.08901978 C-2.89906731 4.08678905 -3.76053697 4.08455833 -4.64811176 4.08226001 C-7.98208296 4.09333508 -10.70354812 4.15424972 -13.8888092 5.21600342 C-12.8888092 2.21600342 -12.8888092 2.21600342 -11.38185978 1.04200363 C-7.6278617 -0.20177507 -3.91031412 -0.03841989 0 0 Z " fill="#21679E" transform="translate(27.888809204101563,51.78399658203125)"/>
<path d="M0 0 C8.91 0 17.82 0 27 0 C27 8.91 27 17.82 27 27 C23.06589972 24.63953983 20.61048756 22.86664836 17.4609375 19.7265625 C16.21957031 18.4890625 16.21957031 18.4890625 14.953125 17.2265625 C14.10234375 16.36804688 13.2515625 15.50953125 12.375 14.625 C11.51648438 13.77421875 10.65796875 12.9234375 9.7734375 12.046875 C8.9484375 11.21929687 8.1234375 10.39171875 7.2734375 9.5390625 C6.15074463 8.41298584 6.15074463 8.41298584 5.00537109 7.26416016 C3 5 3 5 0 0 Z " fill="#B9DEFA" transform="translate(97,152)"/>
<path d="M0 0 C8.91 0 17.82 0 27 0 C24.26152526 4.10771211 22.20432186 7.05050628 18.84765625 10.41796875 C18.07099609 11.19720703 17.29433594 11.97644531 16.49414062 12.77929688 C15.69169922 13.57400391 14.88925781 14.36871094 14.0625 15.1875 C13.26392578 15.99380859 12.46535156 16.80011719 11.64257812 17.63085938 C10.4756543 18.79391602 10.4756543 18.79391602 9.28515625 19.98046875 C8.58269775 20.68067139 7.88023926 21.38087402 7.15649414 22.10229492 C5 24 5 24 0 27 C0 18.09 0 9.18 0 0 Z " fill="#B9DFFB" transform="translate(134,152)"/>
<path d="M0 0 C0 8.91 0 17.82 0 27 C-8.58 27 -17.16 27 -26 27 C-23.97771028 22.95542055 -21.55903153 20.11596894 -18.5 16.875 C-17.96971191 16.30821533 -17.43942383 15.74143066 -16.89306641 15.1574707 C-15.26981543 13.43073687 -13.63737732 11.71333812 -12 10 C-11.25314941 9.21810303 -11.25314941 9.21810303 -10.49121094 8.42041016 C-2.3981542 0 -2.3981542 0 0 0 Z " fill="#B8DEFA" transform="translate(124,18)"/>
<path d="M0 0 C3.34470214 1.67235107 4.91507801 2.66628296 7.42578125 5.1953125 C8.05476318 5.82542236 8.68374512 6.45553223 9.33178711 7.10473633 C9.98542236 7.77142334 10.63905762 8.43811035 11.3125 9.125 C11.98095947 9.80135498 12.64941895 10.47770996 13.33813477 11.17456055 C26 24.05614775 26 24.05614775 26 27 C17.42 27 8.84 27 0 27 C0 18.09 0 9.18 0 0 Z " fill="#B8DEFB" transform="translate(134,18)"/>
<path d="M0 0 C1.81274414 0.02707031 1.81274414 0.02707031 3.66210938 0.0546875 C6.62973184 0.10160643 9.59569661 0.16724398 12.5625 0.25 C12.5625 1.24 12.5625 2.23 12.5625 3.25 C11.5725 3.58 10.5825 3.91 9.5625 4.25 C9.2325 4.91 8.9025 5.57 8.5625 6.25 C9.8825 6.58 11.2025 6.91 12.5625 7.25 C12.5625 8.24 12.5625 9.23 12.5625 10.25 C11.77077393 10.2185791 10.97904785 10.1871582 10.16333008 10.15478516 C6.56751205 10.02987363 2.97215035 9.95196399 -0.625 9.875 C-2.49381836 9.79958984 -2.49381836 9.79958984 -4.40039062 9.72265625 C-10.72945835 9.37959842 -10.72945835 9.37959842 -16.41650391 11.61230469 C-17.98957468 13.3925704 -17.98957468 13.3925704 -19.4375 16.25 C-20.7575 15.59 -22.0775 14.93 -23.4375 14.25 C-22.7775 13.26 -22.1175 12.27 -21.4375 11.25 C-24.67615635 10.17044788 -27.22905838 10.04558259 -30.63671875 9.93359375 C-31.84521484 9.89169922 -33.05371094 9.84980469 -34.29882812 9.80664062 C-35.56146484 9.76732422 -36.82410156 9.72800781 -38.125 9.6875 C-39.39923828 9.64431641 -40.67347656 9.60113281 -41.98632812 9.55664062 C-45.13660852 9.4504514 -48.28696839 9.34840467 -51.4375 9.25 C-51.4375 8.92 -51.4375 8.59 -51.4375 8.25 C-42.5275 7.92 -33.6175 7.59 -24.4375 7.25 C-24.7675 6.59 -25.0975 5.93 -25.4375 5.25 C-22.9625 5.745 -22.9625 5.745 -20.4375 6.25 C-20.4375 5.59 -20.4375 4.93 -20.4375 4.25 C-13.90393843 -0.62378748 -7.93423092 -0.22508457 0 0 Z " fill="#2078BE" transform="translate(185.4375,142.75)"/>
<path d="M0 0 C11.22 0 22.44 0 34 0 C33.67 2.97 33.34 5.94 33 9 C32.34 9 31.68 9 31 9 C31 7.02 31 5.04 31 3 C21.43 2.67 11.86 2.34 2 2 C2 16.52 2 31.04 2 46 C11.9 46 21.8 46 32 46 C32 43.36 32 40.72 32 38 C26.06 38 20.12 38 14 38 C12.56911472 35.13822943 13.40008303 33.06624227 14 30 C16 32 16 32 16 36 C21.94 36 27.88 36 34 36 C34 39.96 34 43.92 34 48 C22.78 48 11.56 48 0 48 C0 32.16 0 16.32 0 0 Z " fill="#152C3D" transform="translate(94,74)"/>
<path d="M0 0 C1.6875 2.5 1.6875 2.5 3 5 C3.66 5.66 4.32 6.32 5 7 C5.66 6.67 6.32 6.34 7 6 C7.33 3.69 7.66 1.38 8 -1 C17.24 -1 26.48 -1 36 -1 C36 -0.67 36 -0.34 36 0 C27.42 0.33 18.84 0.66 10 1 C13.48292921 4.77094579 13.48292921 4.77094579 16.9699707 8.53808594 C19.47402907 11.25942913 21.85256243 13.98039495 24 17 C22 17 20 17 18 17 C17.34 18.65 16.68 20.3 16 22 C11.10535134 18.19305104 7.10736452 13.97390378 3.125 9.25 C2.63668701 8.67096924 2.14837402 8.09193848 1.64526367 7.49536133 C-1.85593282 3.28813437 -1.85593282 3.28813437 -3 1 C-11.58 1 -20.16 1 -29 1 C-29 0.34 -29 -0.32 -29 -1 C-25.10500293 -1.22656265 -21.2090975 -1.42804389 -17.3125 -1.625 C-16.20970703 -1.68945312 -15.10691406 -1.75390625 -13.97070312 -1.8203125 C-12.90400391 -1.871875 -11.83730469 -1.9234375 -10.73828125 -1.9765625 C-9.75899658 -2.02893066 -8.77971191 -2.08129883 -7.77075195 -2.13525391 C-4.72951435 -1.98679628 -2.69994581 -1.39119233 0 0 Z " fill="#297DBF" transform="translate(88,152)"/>
<path d="M0 0 C9.57 0 19.14 0 29 0 C29 0.66 29 1.32 29 2 C20.09 2 11.18 2 2 2 C2 16.52 2 31.04 2 46 C11.9 46 21.8 46 32 46 C32 46.66 32 47.32 32 48 C21.44 48 10.88 48 0 48 C0 32.16 0 16.32 0 0 Z " fill="#132838" transform="translate(134,74)"/>
<path d="M0 0 C0.495 0.99 0.495 0.99 1 2 C0.3203125 3.76953125 0.3203125 3.76953125 -0.875 5.8125 C-1.24367187 6.47894531 -1.61234375 7.14539063 -1.9921875 7.83203125 C-6.12996909 12.29986935 -10.37303872 14.75372238 -16.5078125 15.32885742 C-21.22693922 15.36129844 -25.93161101 15.30679163 -30.64624023 15.09301758 C-39.19187101 14.58328713 -39.19187101 14.58328713 -46.64013672 18.16992188 C-48.64759283 20.69242784 -50.3256275 23.24988745 -52 26 C-53.58973319 27.78177158 -55.25718882 29.36611452 -57 31 C-56.41068228 27.64825544 -55.30386572 25.91304802 -53 23.4375 C-50.88166863 21.15112792 -50.01082314 20.03246941 -49 17 C-46.20911651 14.14219738 -44.57963902 13.08200521 -40.59008789 12.51757812 C-39.31383545 12.52208984 -38.03758301 12.52660156 -36.72265625 12.53125 C-35.68920326 12.52067566 -35.68920326 12.52067566 -34.63487244 12.5098877 C-31.70633165 12.48054406 -28.77846717 12.49699804 -25.84985352 12.50927734 C-23.7028899 12.51166897 -21.55698758 12.49068602 -19.41015625 12.46875 C-17.49408569 12.47551758 -17.49408569 12.47551758 -15.53930664 12.48242188 C-11.39182259 11.91710295 -9.23398566 10.60735728 -6 8 C-5.67 7.34 -5.34 6.68 -5 6 C-5.66 6 -6.32 6 -7 6 C-6.67 5.01 -6.34 4.02 -6 3 C-4.35 3 -2.7 3 -1 3 C-0.67 2.01 -0.34 1.02 0 0 Z " fill="#1769A5" transform="translate(256,136)"/>
<path d="M0 0 C6.28119035 4.25984984 11.14267865 9.18671647 16 15 C15.67 15.66 15.34 16.32 15 17 C13.29115995 15.37660195 11.62553283 13.70680947 10 12 C10 11.34 10 10.68 10 10 C9.01 10 8.02 10 7 10 C8.11854586 13.72614153 8.11854586 13.72614153 11 16 C10.6875 17.875 10.6875 17.875 10 20 C9.01 20.66 8.02 21.32 7 22 C6.38511719 21.31292969 5.77023438 20.62585938 5.13671875 19.91796875 C4.32847656 19.01691406 3.52023438 18.11585937 2.6875 17.1875 C1.88699219 16.29417969 1.08648437 15.40085937 0.26171875 14.48046875 C-1.45224581 12.60073214 -3.17877604 10.77407253 -5 9 C-4.67 8.34 -4.34 7.68 -4 7 C-2.68 7 -1.36 7 0 7 C0.12375 7.804375 0.2475 8.60875 0.375 9.4375 C0.684375 10.7059375 0.684375 10.7059375 1 12 C1.66 12.33 2.32 12.66 3 13 C3 11.68 3 10.36 3 9 C3.66 8.34 4.32 7.68 5 7 C5 6.34 5 5.68 5 5 C4.360625 4.731875 3.72125 4.46375 3.0625 4.1875 C1 3 1 3 0 0 Z " fill="#176FB3" transform="translate(191,22)"/>
<path d="M0 0 C0.68537842 0.81331787 1.37075684 1.62663574 2.0769043 2.46459961 C5.62585122 5.54284347 7.14472748 5.60462255 11.76953125 5.56640625 C13.07083984 5.57736328 14.37214844 5.58832031 15.71289062 5.59960938 C17.07944673 5.58964405 18.44598723 5.57725646 19.8125 5.5625 C38.44082704 5.40876784 38.44082704 5.40876784 46 12.75 C46.66 13.4925 47.32 14.235 48 15 C47.67 15.66 47.34 16.32 47 17 C46.29875 16.236875 45.5975 15.47375 44.875 14.6875 C41.05268073 11.11446242 37.90908349 9.1569015 32.62841797 8.72290039 C31.42846191 8.76406982 30.22850586 8.80523926 28.9921875 8.84765625 C27.67605469 8.87537109 26.35992187 8.90308594 25.00390625 8.93164062 C22.93219062 8.9939349 20.86088234 9.06300408 18.78955078 9.13696289 C16.77425192 9.20337777 14.75817251 9.24459914 12.7421875 9.28515625 C11.5444873 9.32519775 10.34678711 9.36523926 9.11279297 9.40649414 C5.34976684 8.9150872 4.28035726 7.96486768 2 5 C0.75 2.25 0.75 2.25 0 0 Z " fill="#21699F" transform="translate(207,39)"/>
<path d="M0 0 C5.28 0 10.56 0 16 0 C17.56613275 5.48146464 18.2366197 8.52394472 18.125 13.9375 C18.10695313 15.08089844 18.08890625 16.22429687 18.0703125 17.40234375 C18.04710938 18.25957031 18.02390625 19.11679688 18 20 C17.67 20 17.34 20 17 20 C16.855625 18.948125 16.71125 17.89625 16.5625 16.8125 C15.94645146 12.37173632 15.94645146 12.37173632 15 8 C14.34 7.67 13.68 7.34 13 7 C13.66 5.35 14.32 3.7 15 2 C10.71 2 6.42 2 2 2 C2.33 3.546875 2.66 5.09375 3 6.6875 C3.74978297 10.20210768 4.1036452 13.40480708 4 17 C3.34 17 2.68 17 2 17 C1.34 11.39 0.68 5.78 0 0 Z " fill="#162838" transform="translate(28,74)"/>
<path d="M0 0 C0 3 0 3 -1 5 C-0.34 5.33 0.32 5.66 1 6 C-0.8125 8 -0.8125 8 -3 10 C-3.99 10 -4.98 10 -6 10 C-6.33 11.65 -6.66 13.3 -7 15 C-0.4 15 6.2 15 13 15 C13 15.33 13 15.66 13 16 C4.42 16 -4.16 16 -13 16 C-10.95652069 11.91304138 -8.46513887 9.02837068 -5.375 5.75 C-4.859375 5.19570313 -4.34375 4.64140625 -3.8125 4.0703125 C-2.54574965 2.7097288 -1.27342185 1.35434163 0 0 Z " fill="#9ACFF4" transform="translate(111,29)"/>
<path d="M0 0 C0.33 0.66 0.66 1.32 1 2 C3.02463255 2.65213292 3.02463255 2.65213292 5 3 C5 4.65 5 6.3 5 8 C6.65 8.33 8.3 8.66 10 9 C8.515 11.475 8.515 11.475 7 14 C4.525 13.01 4.525 13.01 2 12 C2 11.34 2 10.68 2 10 C1.34 10 0.68 10 0 10 C-1.38232443 8.37373596 -2.71937515 6.7074998 -4 5 C-3.67 4.34 -3.34 3.68 -3 3 C-2.34 3.33 -1.68 3.66 -1 4 C-0.67 2.68 -0.34 1.36 0 0 Z " fill="#1271BB" transform="translate(57,154)"/>
<path d="M0 0 C0.66 0 1.32 0 2 0 C1.32418477 6.08233706 0.26361972 12.01314152 -1 18 C-0.34 18 0.32 18 1 18 C1.66 20.31 2.32 22.62 3 25 C0.33438378 25.98726527 -0.90126985 26.0275526 -3.6875 25.25 C-6 24 -6 24 -7 21 C-6.34 20.34 -5.68 19.68 -5 19 C-4.34 19.33 -3.68 19.66 -3 20 C-2.95101562 19.39414063 -2.90203125 18.78828125 -2.8515625 18.1640625 C-2.3017522 12.00239536 -1.32390951 6.04114049 0 0 Z " fill="#1B2D3B" transform="translate(52,77)"/>
<path d="M0 0 C1.05692047 0.00636726 1.05692047 0.00636726 2.13519287 0.01286316 C4.37698212 0.02960337 6.61785931 0.06724471 8.859375 0.10546875 C10.38279948 0.12052171 11.90623811 0.13420905 13.4296875 0.14648438 C17.15654441 0.17949084 20.88287063 0.23124021 24.609375 0.29296875 C24.609375 0.62296875 24.609375 0.95296875 24.609375 1.29296875 C23.7121875 1.27089355 22.815 1.24881836 21.890625 1.22607422 C18.52655492 1.16742889 15.16842347 1.15429244 11.80419922 1.17089844 C10.35517122 1.16896425 8.90604711 1.14945592 7.45751953 1.11132812 C-1.37541601 0.74382989 -1.37541601 0.74382989 -9.0703125 4.48486328 C-11.06984213 7.00029719 -12.73252137 9.54550416 -14.390625 12.29296875 C-15.97982363 14.075395 -17.64771422 15.6589899 -19.390625 17.29296875 C-18.80130728 13.94122419 -17.69449072 12.20601677 -15.390625 9.73046875 C-13.27229363 7.44409667 -12.40144814 6.32543816 -11.390625 3.29296875 C-7.9549656 -0.28994817 -4.79247325 -0.05705325 0 0 Z " fill="#26689B" transform="translate(218.390625,149.70703125)"/>
<path d="M0 0 C4 2 4 2 6 5 C4.68 4.67 3.36 4.34 2 4 C2 11.26 2 18.52 2 26 C9.92 25.67 17.84 25.34 26 25 C26 25.66 26 26.32 26 27 C17.42 27 8.84 27 0 27 C0 18.09 0 9.18 0 0 Z " fill="#8FCAF3" transform="translate(134,18)"/>
<path d="M0 0 C2.4375 0.75 2.4375 0.75 5 2 C5.625 4.0625 5.625 4.0625 6 6 C6.99 6.33 7.98 6.66 9 7 C7.3125 8.5625 7.3125 8.5625 5 10 C2.0964021 9.85836108 0.50279616 9.35195731 -1.875 7.6875 C-3 6 -3 6 -2.8125 3.9375 C-2 2 -2 2 0 0 Z " fill="#1370B9" transform="translate(107,167)"/>
<path d="M0 0 C0.66 0.33 1.32 0.66 2 1 C2 2.32 2 3.64 2 5 C-1.07330296 7.37083371 -4.08954597 8.89973195 -8 9 C-10.3125 7.0625 -10.3125 7.0625 -12 5 C-10.9375 3.5 -10.9375 3.5 -9 2 C-6.66702567 1.95907063 -4.33294775 1.95758277 -2 2 C-1.34 1.34 -0.68 0.68 0 0 Z " fill="#1470BB" transform="translate(184,172)"/>
<path d="M0 0 C2.375 0.625 2.375 0.625 5 2 C6.3125 5.125 6.3125 5.125 7 8 C6.01 8.99 5.02 9.98 4 11 C1.5625 10.3125 1.5625 10.3125 -1 9 C-2.16822469 6.04049744 -2.26109611 4.64403708 -1.0625 1.6875 C-0.711875 1.130625 -0.36125 0.57375 0 0 Z " fill="#1370B9" transform="translate(154,26)"/>
<path d="M0 0 C0 0.66 0 1.32 0 2 C-1.2065625 2.6496875 -1.2065625 2.6496875 -2.4375 3.3125 C-5.24282331 4.76787059 -5.24282331 4.76787059 -5.8125 7.6875 C-5.9053125 8.8321875 -5.9053125 8.8321875 -6 10 C-6.8353125 10.1546875 -6.8353125 10.1546875 -7.6875 10.3125 C-14.23654921 12.25951463 -17.7999282 16.90423566 -22 22 C-22 16.66661036 -17.04168002 13.07642847 -13.44628906 9.41015625 C-3.79501385 0 -3.79501385 0 0 0 Z " fill="#1C67A2" transform="translate(74,17)"/>
<path d="M0 0 C-2.76223278 2.76223278 -5.20706617 2.57856291 -9 3 C-9 5.31 -9 7.62 -9 10 C-6.36 10.33 -3.72 10.66 -1 11 C-1.33 11.66 -1.66 12.32 -2 13 C-5.3 12.67 -8.6 12.34 -12 12 C-12 8.04 -12 4.08 -12 0 C-7.66726186 -0.92844389 -4.33273814 -0.92844389 0 0 Z " fill="#172A37" transform="translate(212,92)"/>
<path d="M0 0 C3.79379058 1.49041773 5.68343758 3.69062512 8 7 C8 7.66 8 8.32 8 9 C8.66 9 9.32 9 10 9 C10.33 9.66 10.66 10.32 11 11 C13.3140622 11.73075648 15.64828869 12.40138258 18 13 C18 13.99 18 14.98 18 16 C18.94726954 17.69719127 19.94228261 19.36935236 21 21 C12.25570151 17.1605494 5.241062 8.77482046 0 1 C0 0.67 0 0.34 0 0 Z " fill="#1C68A2" transform="translate(49,155)"/>
<path d="M0 0 C0.33 0 0.66 0 1 0 C1 7.59 1 15.18 1 23 C-2.91111499 20.65333101 -5.25434228 18.97432408 -8.3125 15.8125 C-9.00988281 15.09707031 -9.70726563 14.38164062 -10.42578125 13.64453125 C-10.94527344 13.10183594 -11.46476562 12.55914062 -12 12 C-8.35521088 12 -6.90696599 12.85802506 -4 15 C-3.1875 17.1875 -3.1875 17.1875 -3 19 C-2.01 19 -1.02 19 0 19 C0 12.73 0 6.46 0 0 Z " fill="#AADEFC" transform="translate(123,156)"/>
<path d="M0 0 C6.28119035 4.25984984 11.14267865 9.18671647 16 15 C15.67 15.66 15.34 16.32 15 17 C13.29115995 15.37660195 11.62553283 13.70680947 10 12 C10 11.34 10 10.68 10 10 C9.01 10 8.02 10 7 10 C6.67 10.99 6.34 11.98 6 13 C5.67 12.34 5.34 11.68 5 11 C4.34 11 3.68 11 3 11 C3 9 3 9 5 7 C5 6.34 5 5.68 5 5 C4.360625 4.731875 3.72125 4.46375 3.0625 4.1875 C1 3 1 3 0 0 Z " fill="#1B68A4" transform="translate(191,22)"/>
<path d="M0 0 C-0.33 0.66 -0.66 1.32 -1 2 C-2.98 2 -4.96 2 -7 2 C-7 2.66 -7 3.32 -7 4 C-10.86789043 5.82018373 -13.75796854 6.09025599 -18 6 C-20.26566343 6.43941523 -20.26566343 6.43941523 -22 7 C-22 6.34 -22 5.68 -22 5 C-20.10546779 4.35035977 -18.20931351 3.70544885 -16.3125 3.0625 C-15.25675781 2.70285156 -14.20101562 2.34320313 -13.11328125 1.97265625 C-8.63408438 0.57325848 -4.69253936 -0.13407255 0 0 Z " fill="#1B68A5" transform="translate(115,1)"/>
<path d="M0 0 C0.66 0 1.32 0 2 0 C2 0.99 2 1.98 2 3 C8.27 3 14.54 3 21 3 C21 3.66 21 4.32 21 5 C14.07 5 7.14 5 0 5 C0 3.35 0 1.7 0 0 Z " fill="#142B38" transform="translate(35,117)"/>
<path d="M0 0 C0.69351563 0.03996094 1.38703125 0.07992187 2.1015625 0.12109375 C3.86722692 0.24869059 5.62379907 0.49087242 7.375 0.75 C7.705 1.41 8.035 2.07 8.375 2.75 C3.095 2.75 -2.185 2.75 -7.625 2.75 C-7.625 4.73 -7.625 6.71 -7.625 8.75 C-8.615 9.245 -8.615 9.245 -9.625 9.75 C-9.955 7.11 -10.285 4.47 -10.625 1.75 C-6.89074575 -0.73950284 -4.26919532 -0.34506654 0 0 Z " fill="#1B2D3B" transform="translate(117.625,83.25)"/>
<path d="M0 0 C2.49710982 0.34442894 3.82154665 0.84703999 5.75 2.5 C7.64831384 6.29662767 7.54920384 9.83644113 7 14 C5.75 17 5.75 17 4 19 C1.8125 19.8125 1.8125 19.8125 0 20 C0.3125 18.125 0.3125 18.125 1 16 C1.99 15.34 2.98 14.68 4 14 C4.6609051 10.96936309 4.49977448 8.05125474 4 5 C2.18409021 1.97309557 2.18409021 1.97309557 0 0 Z " fill="#172A37" transform="translate(165,76)"/>
<path d="M0 0 C0.33 0 0.66 0 1 0 C1.33 8.58 1.66 17.16 2 26 C3.32 25.34 4.64 24.68 6 24 C6 24.99 6 25.98 6 27 C4 28.6875 4 28.6875 2 30 C2 29.34 2 28.68 2 28 C1.34 28 0.68 28 0 28 C0 18.76 0 9.52 0 0 Z " fill="#2A76B1" transform="translate(133,152)"/>
<path d="M0 0 C0.33 0 0.66 0 1 0 C1 3.63 1 7.26 1 11 C1.66 11 2.32 11 3 11 C3.33 10.01 3.66 9.02 4 8 C4.66 8 5.32 8 6 8 C6 7.34 6 6.68 6 6 C7.32 6.33 8.64 6.66 10 7 C8.52351062 8.33629746 7.0437367 9.66896671 5.5625 11 C4.73878906 11.7425 3.91507813 12.485 3.06640625 13.25 C1 15 1 15 0 15 C0 10.05 0 5.1 0 0 Z " fill="#ADE3FF" transform="translate(134,164)"/>
<path d="M0 0 C0.99 0.66 1.98 1.32 3 2 C-0.52447552 5.77622378 -0.52447552 5.77622378 -3.125 7 C-5.49191761 8.26235606 -6.0222242 9.55556051 -7 12 C-8.32 11.67 -9.64 11.34 -11 11 C-7.33333333 7.33333333 -3.66666667 3.66666667 0 0 Z " fill="#1D6FB0" transform="translate(162,152)"/>
<path d="M0 0 C3.06345144 -0.10822792 6.1230601 -0.18741479 9.1875 -0.25 C10.05181641 -0.28351563 10.91613281 -0.31703125 11.80664062 -0.3515625 C16.16620157 -0.41837569 18.36329409 -0.41222114 22.11328125 2.015625 C22.73589844 2.67046875 23.35851562 3.3253125 24 4 C23.67 4.99 23.34 5.98 23 7 C22.67 6.34 22.34 5.68 22 5 C20.01751285 4.28293018 18.01584651 3.61709587 16 3 C15.34 2.67 14.68 2.34 14 2 C11.62876754 1.76970044 9.25258057 1.58880058 6.875 1.4375 C5.59367188 1.35371094 4.31234375 1.26992187 2.9921875 1.18359375 C1.51105469 1.09271484 1.51105469 1.09271484 0 1 C0 0.67 0 0.34 0 0 Z " fill="#112834" transform="translate(203,74)"/>
<path d="M0 0 C0.33 0.99 0.66 1.98 1 3 C1.99 3 2.98 3 4 3 C4 3.66 4 4.32 4 5 C2.35 5.66 0.7 6.32 -1 7 C-1 7.66 -1 8.32 -1 9 C-2.32 9 -3.64 9 -5 9 C-3.90931332 5.22454612 -3.0916909 2.52956528 0 0 Z " fill="#196BAD" transform="translate(6,51)"/>
<path d="M0 0 C2 2 2 2 2 6 C7.61 6.33 13.22 6.66 19 7 C19 7.33 19 7.66 19 8 C12.73 8 6.46 8 0 8 C-1.43088528 5.13822943 -0.59991697 3.06624227 0 0 Z " fill="#152A3A" transform="translate(108,104)"/>
<path d="M0 0 C1.32 0 2.64 0 4 0 C4.66 1.65 5.32 3.3 6 5 C6.66 5 7.32 5 8 5 C8 5.99 8 6.98 8 8 C8.66 8.33 9.32 8.66 10 9 C7 9 7 9 5.17578125 7.5390625 C4.56089844 6.90742188 3.94601563 6.27578125 3.3125 5.625 C2.68988281 4.99851562 2.06726563 4.37203125 1.42578125 3.7265625 C0 2 0 2 0 0 Z M7 3 C7.66 3 8.32 3 9 3 C8.67 3.66 8.34 4.32 8 5 C7.67 4.34 7.34 3.68 7 3 Z " fill="#196CAD" transform="translate(144,25)"/>
<path d="M0 0 C1.258125 0.12375 2.51625 0.2475 3.8125 0.375 C4.87404297 0.47941406 4.87404297 0.47941406 5.95703125 0.5859375 C8 1 8 1 11 3 C9.68 4.32 8.36 5.64 7 7 C5.83040013 6.02433888 4.66438823 5.044375 3.5 4.0625 C2.8503125 3.51722656 2.200625 2.97195312 1.53125 2.41015625 C1.0259375 1.94480469 0.520625 1.47945312 0 1 C0 0.67 0 0.34 0 0 Z " fill="#9ED5F9" transform="translate(142,11)"/>
<path d="M0 0 C2.31 0 4.62 0 7 0 C4.84658594 2.34917898 2.78332063 3.82443004 -0.0625 5.25 C-0.75472656 5.60578125 -1.44695312 5.9615625 -2.16015625 6.328125 C-2.76730469 6.54984375 -3.37445313 6.7715625 -4 7 C-4.66 6.67 -5.32 6.34 -6 6 C-5.34 4.68 -4.68 3.36 -4 2 C-2.68 2.33 -1.36 2.66 0 3 C0 2.01 0 1.02 0 0 Z " fill="#1E69A5" transform="translate(172,182)"/>
<path d="M0 0 C0.68835938 0.59748047 0.68835938 0.59748047 1.390625 1.20703125 C5.31674827 4.60015709 5.31674827 4.60015709 9.4375 7.75 C9.953125 8.1625 10.46875 8.575 11 9 C11 9.66 11 10.32 11 11 C11.66 11.33 12.32 11.66 13 12 C11 13 11 13 9.125 12.4375 C6.21704521 10.47035411 4.86403378 7.94637597 3 5 C2.4225 4.4225 1.845 3.845 1.25 3.25 C0.8375 2.8375 0.425 2.425 0 2 C0 1.34 0 0.68 0 0 Z " fill="#1E6CAA" transform="translate(112,169)"/>
<path d="M0 0 C4.37859255 0.50522222 6.81651224 3.17827222 10 6 C5.74938644 7.41687119 3.28148375 6.19320039 -1 5 C-0.01 4.01 0.98 3.02 2 2 C1.34 1.34 0.68 0.68 0 0 Z " fill="#9BD4F8" transform="translate(105,178)"/>
<path d="M0 0 C2.6875 0.875 2.6875 0.875 5 2 C3.35 3.65 1.7 5.3 0 7 C-1.5 5.625 -1.5 5.625 -3 4 C-3 3.34 -3 2.68 -3 2 C-2.01 1.34 -1.02 0.68 0 0 Z " fill="#ACDBFB" transform="translate(182,162)"/>
<path d="M0 0 C1.14926266 0.95421808 2.29430541 1.91352045 3.4375 2.875 C4.07558594 3.40867188 4.71367188 3.94234375 5.37109375 4.4921875 C7 6 7 6 8 8 C5.36 7.67 2.72 7.34 0 7 C-1.125 2.25 -1.125 2.25 0 0 Z " fill="#1B6CAD" transform="translate(62,156)"/>
<path d="M0 0 C0.33 0.66 0.66 1.32 1 2 C0.34 2 -0.32 2 -1 2 C-0.67 2.763125 -0.34 3.52625 0 4.3125 C1 7 1 7 1 10 C-1.31 8.35 -3.62 6.7 -6 5 C-2.25 1.125 -2.25 1.125 0 0 Z " fill="#186AA9" transform="translate(76,172)"/>
<path d="M0 0 C-2.64 1.98 -5.28 3.96 -8 6 C-8.33 4.35 -8.66 2.7 -9 1 C-3.375 -1.125 -3.375 -1.125 0 0 Z " fill="#9FD4F8" transform="translate(116,12)"/>
<path d="M0 0 C0.66 0.33 1.32 0.66 2 1 C2 1.66 2 2.32 2 3 C3.98 3 5.96 3 8 3 C8 3.33 8 3.66 8 4 C6.10424749 4.02721176 4.20838021 4.04649136 2.3125 4.0625 C0.72888672 4.07990234 0.72888672 4.07990234 -0.88671875 4.09765625 C-3.72410262 4.00865425 -6.2438919 3.64939838 -9 3 C-9 2.67 -9 2.34 -9 2 C-6.03 2 -3.06 2 0 2 C0 1.34 0 0.68 0 0 Z " fill="#196AA8" transform="translate(114,191)"/>
<path d="M0 0 C0.99 0.495 0.99 0.495 2 1 C2.74482287 3.67259973 3.40322078 6.29694119 4 9 C4.32953642 10.33427682 4.66173853 11.66790839 5 13 C4.01 13.495 4.01 13.495 3 14 C-0.00559652 8.99067246 -0.29341888 5.67276511 0 0 Z " fill="#132835" transform="translate(67,89)"/>
<path d="M0 0 C4.1724106 0.51881113 6.25416821 1.71151274 9.3125 4.5625 C10.00988281 5.20316406 10.70726562 5.84382813 11.42578125 6.50390625 C11.94527344 6.99761719 12.46476563 7.49132813 13 8 C12.67 8.66 12.34 9.32 12 10 C10.948125 8.8553125 10.948125 8.8553125 9.875 7.6875 C7.02994426 5.02799137 4.48232977 3.66202102 1 2 C0.67 1.34 0.34 0.68 0 0 Z " fill="#1E669E" transform="translate(242,46)"/>
<path d="M0 0 C1.33333333 1.33333333 2.66666667 2.66666667 4 4 C2 7 2 7 -1 8 C-1.33 5.69 -1.66 3.38 -2 1 C-1.34 0.67 -0.68 0.34 0 0 Z " fill="#182D3A" transform="translate(193,75)"/>
<path d="M0 0 C0.33 0.66 0.66 1.32 1 2 C0.09696326 4.62701598 -0.51827727 5.7440848 -3 7.0625 C-3.66 7.371875 -4.32 7.68125 -5 8 C-5.99 9.485 -5.99 9.485 -7 11 C-7.66 11 -8.32 11 -9 11 C-7.59155282 7.78475695 -5.89655214 5.67816132 -3.375 3.25 C-2.74335937 2.63640625 -2.11171875 2.0228125 -1.4609375 1.390625 C-0.73777344 0.70226563 -0.73777344 0.70226563 0 0 Z " fill="#A6DAFC" transform="translate(70,32)"/>
<path d="M0 0 C2.31 0 4.62 0 7 0 C6.67 0.61875 6.34 1.2375 6 1.875 C4.85806765 3.91018344 4.85806765 3.91018344 5 6 C3.68 5.67 2.36 5.34 1 5 C1.33 3.68 1.66 2.36 2 1 C1.34 0.67 0.68 0.34 0 0 Z " fill="#182C3A" transform="translate(149,92)"/>
<path d="M0 0 C2 2 2 2 2 6 C-0.31 6.33 -2.62 6.66 -5 7 C-4.34 6.01 -3.68 5.02 -3 4 C-2.34 4 -1.68 4 -1 4 C-0.67 2.68 -0.34 1.36 0 0 Z " fill="#BEDFF9" transform="translate(155,174)"/>
<path d="M0 0 C0.99 0.33 1.98 0.66 3 1 C1.02 3.31 -0.96 5.62 -3 8 C-3.33 7.01 -3.66 6.02 -4 5 C-2.0625 2.3125 -2.0625 2.3125 0 0 Z " fill="#A4D9FA" transform="translate(158,152)"/>
<path d="M0 0 C1.0725 0.2475 2.145 0.495 3.25 0.75 C-0.28411321 2.87046792 -3.69393835 3.28199289 -7.75 3.75 C-5.15187156 0.32047046 -4.43092205 -0.2953948 0 0 Z " fill="#9BD4F9" transform="translate(150.75,181.25)"/>
<path d="M0 0 C0 3.64478912 -0.85802506 5.09303401 -3 8 C-5.1875 8.8125 -5.1875 8.8125 -7 9 C-2.85714286 2.57142857 -2.85714286 2.57142857 0 0 Z " fill="#1D6BAA" transform="translate(144,170)"/>
<path d="M0 0 C1.32 0 2.64 0 4 0 C3.67 1.98 3.34 3.96 3 6 C2.01 5.67 1.02 5.34 0 5 C-0.33 4.01 -0.66 3.02 -1 2 C-0.67 1.34 -0.34 0.68 0 0 Z " fill="#122938" transform="translate(46,96)"/>
<path d="M0 0 C0.99 0.99 1.98 1.98 3 3 C2.01 3.99 1.02 4.98 0 6 C-1.5 4.625 -1.5 4.625 -3 3 C-3 2.34 -3 1.68 -3 1 C-2.01 0.67 -1.02 0.34 0 0 Z " fill="#AAD6F7" transform="translate(99,22)"/>
<path d="M0 0 C1.32 0.33 2.64 0.66 4 1 C1.03 3.475 1.03 3.475 -2 6 C-2 4.68 -2 3.36 -2 2 C-1.34 2 -0.68 2 0 2 C0 1.34 0 0.68 0 0 Z " fill="#A7D8FA" transform="translate(140,170)"/>
<path d="M0 0 C3.36720387 1.39332574 4.9859524 2.9789286 7 6 C4 6 4 6 1.8125 4.125 C0 2 0 2 0 0 Z " fill="#2875B2" transform="translate(105,163)"/>
<path d="M0 0 C3.77300358 1.0197307 4.80206144 1.65872662 6.8125 5.125 C7.204375 6.07375 7.59625 7.0225 8 8 C3.79373966 6.49776416 2.26099979 3.71449966 0 0 Z " fill="#1F6FAB" transform="translate(83,150)"/>
<path d="M0 0 C0.66 0.33 1.32 0.66 2 1 C2 4.63 2 8.26 2 12 C1.67 12 1.34 12 1 12 C0.855625 10.88625 0.71125 9.7725 0.5625 8.625 C0.21627965 5.17857953 0.21627965 5.17857953 -1 3 C-0.67 2.01 -0.34 1.02 0 0 Z " fill="#132634" transform="translate(44,82)"/>
<path d="M0 0 C3.16115776 1.36983503 3.9927092 1.9890638 6 5 C5.38125 4.814375 4.7625 4.62875 4.125 4.4375 C1.95839822 3.76313824 1.95839822 3.76313824 0 5 C0 3.35 0 1.7 0 0 Z " fill="#A8D9FA" transform="translate(134,18)"/>
<path d="M0 0 C0.33 0.66 0.66 1.32 1 2 C0.01 3.32 -0.98 4.64 -2 6 C-3.32 5.67 -4.64 5.34 -6 5 C-5.67 4.34 -5.34 3.68 -5 3 C-3.68 3 -2.36 3 -1 3 C-0.67 2.01 -0.34 1.02 0 0 Z " fill="#BEDBF3" transform="translate(101,16)"/>
</svg>
